<svg xmlns="http://www.w3.org/2000/svg" viewBox="-105.09 -199.00 829.34 639.30" width="829" height="639">
<rect x="-105.09" y="-199.00" width="829.34" height="639.30" fill="#ffffff"/>
<polygon points="0.00,-47.00 11.28,-42.90 0.00,-38.79 -11.28,-42.90" fill="#515151"/>
<polygon points="-11.28,4.10 -11.28,-42.90 0.00,-38.79 0.00,8.21" fill="#474747"/>
<polygon points="0.00,8.21 0.00,-38.79 11.28,-42.90 11.28,4.10" fill="#3b3b3b"/>
<polygon points="-13.16,-11.21 -1.88,-7.11 -13.16,-3.00 -24.43,-7.11" fill="#ffffff"/>
<polygon points="-24.43,8.89 -24.43,-7.11 -13.16,-3.00 -13.16,13.00" fill="#e0e0e0"/>
<polygon points="-13.16,13.00 -13.16,-3.00 -1.88,-7.11 -1.88,8.89" fill="#bcbcbc"/>
<polygon points="-26.31,-6.42 -15.04,-2.32 -26.31,1.79 -37.59,-2.32" fill="#ffffff"/>
<polygon points="-37.59,13.68 -37.59,-2.32 -26.31,1.79 -26.31,17.79" fill="#e0e0e0"/>
<polygon points="-26.31,17.79 -26.31,1.79 -15.04,-2.32 -15.04,13.68" fill="#bcbcbc"/>
<polygon points="-39.47,-18.64 -28.19,-14.53 -39.47,-10.43 -50.74,-14.53" fill="#d1d1d1"/>
<polygon points="-50.74,18.47 -50.74,-14.53 -39.47,-10.43 -39.47,22.57" fill="#b7b7b7"/>
<polygon points="-39.47,22.57 -39.47,-10.43 -28.19,-14.53 -28.19,18.47" fill="#9a9a9a"/>
<polygon points="-52.62,-17.85 -41.35,-13.74 -52.62,-9.64 -63.90,-13.74" fill="#989898"/>
<polygon points="-63.90,23.26 -63.90,-13.74 -52.62,-9.64 -52.62,27.36" fill="#858585"/>
<polygon points="-52.62,27.36 -52.62,-9.64 -41.35,-13.74 -41.35,23.26" fill="#707070"/>
<polygon points="-65.78,-11.06 -54.50,-6.95 -65.78,-2.85 -77.05,-6.95" fill="#989898"/>
<polygon points="-77.05,28.05 -77.05,-6.95 -65.78,-2.85 -65.78,32.15" fill="#858585"/>
<polygon points="-65.78,32.15 -65.78,-2.85 -54.50,-6.95 -54.50,28.05" fill="#707070"/>
<polygon points="-78.93,-6.27 -67.66,-2.17 -78.93,1.94 -90.21,-2.17" fill="#989898"/>
<polygon points="-90.21,32.83 -90.21,-2.17 -78.93,1.94 -78.93,36.94" fill="#858585"/>
<polygon points="-78.93,36.94 -78.93,1.94 -67.66,-2.17 -67.66,32.83" fill="#707070"/>
<polygon points="13.16,-20.21 24.43,-16.11 13.16,-12.00 1.88,-16.11" fill="#ffffff"/>
<polygon points="1.88,8.89 1.88,-16.11 13.16,-12.00 13.16,13.00" fill="#e0e0e0"/>
<polygon points="13.16,13.00 13.16,-12.00 24.43,-16.11 24.43,8.89" fill="#bcbcbc"/>
<polygon points="0.00,-54.42 11.28,-50.32 0.00,-46.21 -11.28,-50.32" fill="#515151"/>
<polygon points="-11.28,13.68 -11.28,-50.32 0.00,-46.21 0.00,17.79" fill="#474747"/>
<polygon points="0.00,17.79 0.00,-46.21 11.28,-50.32 11.28,13.68" fill="#3b3b3b"/>
<polygon points="-13.16,-47.64 -1.88,-43.53 -13.16,-39.43 -24.43,-43.53" fill="#515151"/>
<polygon points="-24.43,18.47 -24.43,-43.53 -13.16,-39.43 -13.16,22.57" fill="#474747"/>
<polygon points="-13.16,22.57 -13.16,-39.43 -1.88,-43.53 -1.88,18.47" fill="#3b3b3b"/>
<polygon points="-26.31,-27.85 -15.04,-23.74 -26.31,-19.64 -37.59,-23.74" fill="#515151"/>
<polygon points="-37.59,23.26 -37.59,-23.74 -26.31,-19.64 -26.31,27.36" fill="#474747"/>
<polygon points="-26.31,27.36 -26.31,-19.64 -15.04,-23.74 -15.04,23.26" fill="#3b3b3b"/>
<polygon points="-39.47,-32.06 -28.19,-27.95 -39.47,-23.85 -50.74,-27.95" fill="#515151"/>
<polygon points="-50.74,28.05 -50.74,-27.95 -39.47,-23.85 -39.47,32.15" fill="#474747"/>
<polygon points="-39.47,32.15 -39.47,-23.85 -28.19,-27.95 -28.19,28.05" fill="#3b3b3b"/>
<polygon points="-52.62,-16.27 -41.35,-12.17 -52.62,-8.06 -63.90,-12.17" fill="#515151"/>
<polygon points="-63.90,32.83 -63.90,-12.17 -52.62,-8.06 -52.62,36.94" fill="#474747"/>
<polygon points="-52.62,36.94 -52.62,-8.06 -41.35,-12.17 -41.35,32.83" fill="#3b3b3b"/>
<polygon points="-65.78,8.52 -54.50,12.62 -65.78,16.73 -77.05,12.62" fill="#ffffff"/>
<polygon points="-77.05,37.62 -77.05,12.62 -65.78,16.73 -65.78,41.73" fill="#e0e0e0"/>
<polygon points="-65.78,41.73 -65.78,16.73 -54.50,12.62 -54.50,37.62" fill="#bcbcbc"/>
<polygon points="26.31,-28.42 37.59,-24.32 26.31,-20.21 15.04,-24.32" fill="#989898"/>
<polygon points="15.04,13.68 15.04,-24.32 26.31,-20.21 26.31,17.79" fill="#858585"/>
<polygon points="26.31,17.79 26.31,-20.21 37.59,-24.32 37.59,13.68" fill="#707070"/>
<polygon points="13.16,-18.64 24.43,-14.53 13.16,-10.43 1.88,-14.53" fill="#d1d1d1"/>
<polygon points="1.88,18.47 1.88,-14.53 13.16,-10.43 13.16,22.57" fill="#b7b7b7"/>
<polygon points="13.16,22.57 13.16,-10.43 24.43,-14.53 24.43,18.47" fill="#9a9a9a"/>
<polygon points="0.00,-5.85 11.28,-1.74 0.00,2.36 -11.28,-1.74" fill="#ffffff"/>
<polygon points="-11.28,23.26 -11.28,-1.74 0.00,2.36 0.00,27.36" fill="#e0e0e0"/>
<polygon points="0.00,27.36 0.00,2.36 11.28,-1.74 11.28,23.26" fill="#bcbcbc"/>
<polygon points="-13.16,-7.06 -1.88,-2.95 -13.16,1.15 -24.43,-2.95" fill="#d1d1d1"/>
<polygon points="-24.43,28.05 -24.43,-2.95 -13.16,1.15 -13.16,32.15" fill="#b7b7b7"/>
<polygon points="-13.16,32.15 -13.16,1.15 -1.88,-2.95 -1.88,28.05" fill="#9a9a9a"/>
<polygon points="-26.31,-0.27 -15.04,3.83 -26.31,7.94 -37.59,3.83" fill="#d1d1d1"/>
<polygon points="-37.59,32.83 -37.59,3.83 -26.31,7.94 -26.31,36.94" fill="#b7b7b7"/>
<polygon points="-26.31,36.94 -26.31,7.94 -15.04,3.83 -15.04,32.83" fill="#9a9a9a"/>
<polygon points="-39.47,0.52 -28.19,4.62 -39.47,8.73 -50.74,4.62" fill="#d1d1d1"/>
<polygon points="-50.74,37.62 -50.74,4.62 -39.47,8.73 -39.47,41.73" fill="#b7b7b7"/>
<polygon points="-39.47,41.73 -39.47,8.73 -28.19,4.62 -28.19,37.62" fill="#9a9a9a"/>
<polygon points="-52.62,-8.69 -41.35,-4.59 -52.62,-0.49 -63.90,-4.59" fill="#515151"/>
<polygon points="-63.90,42.41 -63.90,-4.59 -52.62,-0.49 -52.62,46.51" fill="#474747"/>
<polygon points="-52.62,46.51 -52.62,-0.49 -41.35,-4.59 -41.35,42.41" fill="#3b3b3b"/>
<polygon points="39.47,-18.64 50.74,-14.53 39.47,-10.43 28.19,-14.53" fill="#d1d1d1"/>
<polygon points="28.19,18.47 28.19,-14.53 39.47,-10.43 39.47,22.57" fill="#b7b7b7"/>
<polygon points="39.47,22.57 39.47,-10.43 50.74,-14.53 50.74,18.47" fill="#9a9a9a"/>
<polygon points="26.31,3.15 37.59,7.26 26.31,11.36 15.04,7.26" fill="#ffffff"/>
<polygon points="15.04,23.26 15.04,7.26 26.31,11.36 26.31,27.36" fill="#e0e0e0"/>
<polygon points="26.31,27.36 26.31,11.36 37.59,7.26 37.59,23.26" fill="#bcbcbc"/>
<polygon points="13.16,-9.06 24.43,-4.95 13.16,-0.85 1.88,-4.95" fill="#d1d1d1"/>
<polygon points="1.88,28.05 1.88,-4.95 13.16,-0.85 13.16,32.15" fill="#b7b7b7"/>
<polygon points="13.16,32.15 13.16,-0.85 24.43,-4.95 24.43,28.05" fill="#9a9a9a"/>
<polygon points="0.00,-2.27 11.28,1.83 0.00,5.94 -11.28,1.83" fill="#d1d1d1"/>
<polygon points="-11.28,32.83 -11.28,1.83 0.00,5.94 0.00,36.94" fill="#b7b7b7"/>
<polygon points="0.00,36.94 0.00,5.94 11.28,1.83 11.28,32.83" fill="#9a9a9a"/>
<polygon points="-13.16,-3.48 -1.88,0.62 -13.16,4.73 -24.43,0.62" fill="#989898"/>
<polygon points="-24.43,37.62 -24.43,0.62 -13.16,4.73 -13.16,41.73" fill="#858585"/>
<polygon points="-13.16,41.73 -13.16,4.73 -1.88,0.62 -1.88,37.62" fill="#707070"/>
<polygon points="-26.31,-1.69 -15.04,2.41 -26.31,6.51 -37.59,2.41" fill="#989898"/>
<polygon points="-37.59,42.41 -37.59,2.41 -26.31,6.51 -26.31,46.51" fill="#858585"/>
<polygon points="-26.31,46.51 -26.31,6.51 -15.04,2.41 -15.04,42.41" fill="#707070"/>
<polygon points="-39.47,18.09 -28.19,22.20 -39.47,26.30 -50.74,22.20" fill="#ffffff"/>
<polygon points="-50.74,47.20 -50.74,22.20 -39.47,26.30 -39.47,51.30" fill="#e0e0e0"/>
<polygon points="-39.47,51.30 -39.47,26.30 -28.19,22.20 -28.19,47.20" fill="#bcbcbc"/>
<polygon points="52.62,-13.85 63.90,-9.74 52.62,-5.64 41.35,-9.74" fill="#d1d1d1"/>
<polygon points="41.35,23.26 41.35,-9.74 52.62,-5.64 52.62,27.36" fill="#b7b7b7"/>
<polygon points="52.62,27.36 52.62,-5.64 63.90,-9.74 63.90,23.26" fill="#9a9a9a"/>
<polygon points="39.47,-1.06 50.74,3.05 39.47,7.15 28.19,3.05" fill="#ffffff"/>
<polygon points="28.19,28.05 28.19,3.05 39.47,7.15 39.47,32.15" fill="#e0e0e0"/>
<polygon points="39.47,32.15 39.47,7.15 50.74,3.05 50.74,28.05" fill="#bcbcbc"/>
<polygon points="26.31,-2.27 37.59,1.83 26.31,5.94 15.04,1.83" fill="#d1d1d1"/>
<polygon points="15.04,32.83 15.04,1.83 26.31,5.94 26.31,36.94" fill="#b7b7b7"/>
<polygon points="26.31,36.94 26.31,5.94 37.59,1.83 37.59,32.83" fill="#9a9a9a"/>
<polygon points="13.16,4.52 24.43,8.62 13.16,12.73 1.88,8.62" fill="#d1d1d1"/>
<polygon points="1.88,37.62 1.88,8.62 13.16,12.73 13.16,41.73" fill="#b7b7b7"/>
<polygon points="13.16,41.73 13.16,12.73 24.43,8.62 24.43,37.62" fill="#9a9a9a"/>
<polygon points="0.00,-1.69 11.28,2.41 0.00,6.51 -11.28,2.41" fill="#989898"/>
<polygon points="-11.28,42.41 -11.28,2.41 0.00,6.51 0.00,46.51" fill="#858585"/>
<polygon points="0.00,46.51 0.00,6.51 11.28,2.41 11.28,42.41" fill="#707070"/>
<polygon points="-13.16,-1.91 -1.88,2.20 -13.16,6.30 -24.43,2.20" fill="#515151"/>
<polygon points="-24.43,47.20 -24.43,2.20 -13.16,6.30 -13.16,51.30" fill="#474747"/>
<polygon points="-13.16,51.30 -13.16,6.30 -1.88,2.20 -1.88,47.20" fill="#3b3b3b"/>
<polygon points="-26.31,18.88 -15.04,22.99 -26.31,27.09 -37.59,22.99" fill="#d1d1d1"/>
<polygon points="-37.59,51.99 -37.59,22.99 -26.31,27.09 -26.31,56.09" fill="#b7b7b7"/>
<polygon points="-26.31,56.09 -26.31,27.09 -15.04,22.99 -15.04,51.99" fill="#9a9a9a"/>
<polygon points="65.78,-9.06 77.05,-4.95 65.78,-0.85 54.50,-4.95" fill="#d1d1d1"/>
<polygon points="54.50,28.05 54.50,-4.95 65.78,-0.85 65.78,32.15" fill="#b7b7b7"/>
<polygon points="65.78,32.15 65.78,-0.85 77.05,-4.95 77.05,28.05" fill="#9a9a9a"/>
<polygon points="52.62,7.73 63.90,11.83 52.62,15.94 41.35,11.83" fill="#ffffff"/>
<polygon points="41.35,32.83 41.35,11.83 52.62,15.94 52.62,36.94" fill="#e0e0e0"/>
<polygon points="52.62,36.94 52.62,15.94 63.90,11.83 63.90,32.83" fill="#bcbcbc"/>
<polygon points="39.47,33.52 50.74,37.62 39.47,41.73 28.19,37.62" fill="#C2C3C6"/>
<polygon points="26.31,9.31 37.59,13.41 26.31,17.51 15.04,13.41" fill="#d1d1d1"/>
<polygon points="15.04,42.41 15.04,13.41 26.31,17.51 26.31,46.51" fill="#b7b7b7"/>
<polygon points="26.31,46.51 26.31,17.51 37.59,13.41 37.59,42.41" fill="#9a9a9a"/>
<polygon points="13.16,2.09 24.43,6.20 13.16,10.30 1.88,6.20" fill="#989898"/>
<polygon points="1.88,47.20 1.88,6.20 13.16,10.30 13.16,51.30" fill="#858585"/>
<polygon points="13.16,51.30 13.16,10.30 24.43,6.20 24.43,47.20" fill="#707070"/>
<polygon points="0.00,12.88 11.28,16.99 0.00,21.09 -11.28,16.99" fill="#989898"/>
<polygon points="-11.28,51.99 -11.28,16.99 0.00,21.09 0.00,56.09" fill="#858585"/>
<polygon points="0.00,56.09 0.00,21.09 11.28,16.99 11.28,51.99" fill="#707070"/>
<polygon points="-13.16,36.67 -1.88,40.78 -13.16,44.88 -24.43,40.78" fill="#ffffff"/>
<polygon points="-24.43,56.78 -24.43,40.78 -13.16,44.88 -13.16,60.88" fill="#e0e0e0"/>
<polygon points="-13.16,60.88 -13.16,44.88 -1.88,40.78 -1.88,56.78" fill="#bcbcbc"/>
<polygon points="78.93,-4.27 90.21,-0.17 78.93,3.94 67.66,-0.17" fill="#d1d1d1"/>
<polygon points="67.66,32.83 67.66,-0.17 78.93,3.94 78.93,36.94" fill="#b7b7b7"/>
<polygon points="78.93,36.94 78.93,3.94 90.21,-0.17 90.21,32.83" fill="#9a9a9a"/>
<polygon points="65.78,33.52 77.05,37.62 65.78,41.73 54.50,37.62" fill="#C2C3C6"/>
<polygon points="52.62,13.31 63.90,17.41 52.62,21.51 41.35,17.41" fill="#ffffff"/>
<polygon points="41.35,42.41 41.35,17.41 52.62,21.51 52.62,46.51" fill="#e0e0e0"/>
<polygon points="52.62,46.51 52.62,21.51 63.90,17.41 63.90,42.41" fill="#bcbcbc"/>
<polygon points="39.47,12.09 50.74,16.20 39.47,20.30 28.19,16.20" fill="#d1d1d1"/>
<polygon points="28.19,47.20 28.19,16.20 39.47,20.30 39.47,51.30" fill="#b7b7b7"/>
<polygon points="39.47,51.30 39.47,20.30 50.74,16.20 50.74,47.20" fill="#9a9a9a"/>
<polygon points="26.31,16.88 37.59,20.99 26.31,25.09 15.04,20.99" fill="#d1d1d1"/>
<polygon points="15.04,51.99 15.04,20.99 26.31,25.09 26.31,56.09" fill="#b7b7b7"/>
<polygon points="26.31,56.09 26.31,25.09 37.59,20.99 37.59,51.99" fill="#9a9a9a"/>
<polygon points="13.16,9.67 24.43,13.78 13.16,17.88 1.88,13.78" fill="#515151"/>
<polygon points="1.88,56.78 1.88,13.78 13.16,17.88 13.16,60.88" fill="#474747"/>
<polygon points="13.16,60.88 13.16,17.88 24.43,13.78 24.43,56.78" fill="#3b3b3b"/>
<polygon points="0.00,41.46 11.28,45.56 0.00,49.67 -11.28,45.56" fill="#ffffff"/>
<polygon points="-11.28,61.56 -11.28,45.56 0.00,49.67 0.00,65.67" fill="#e0e0e0"/>
<polygon points="0.00,65.67 0.00,49.67 11.28,45.56 11.28,61.56" fill="#bcbcbc"/>
<polygon points="92.09,-3.48 103.37,0.62 92.09,4.73 80.81,0.62" fill="#989898"/>
<polygon points="80.81,37.62 80.81,0.62 92.09,4.73 92.09,41.73" fill="#858585"/>
<polygon points="92.09,41.73 92.09,4.73 103.37,0.62 103.37,37.62" fill="#707070"/>
<polygon points="78.93,17.31 90.21,21.41 78.93,25.51 67.66,21.41" fill="#ffffff"/>
<polygon points="67.66,42.41 67.66,21.41 78.93,25.51 78.93,46.51" fill="#e0e0e0"/>
<polygon points="78.93,46.51 78.93,25.51 90.21,21.41 90.21,42.41" fill="#bcbcbc"/>
<polygon points="65.78,18.09 77.05,22.20 65.78,26.30 54.50,22.20" fill="#ffffff"/>
<polygon points="54.50,47.20 54.50,22.20 65.78,26.30 65.78,51.30" fill="#e0e0e0"/>
<polygon points="65.78,51.30 65.78,26.30 77.05,22.20 77.05,47.20" fill="#bcbcbc"/>
<polygon points="52.62,18.88 63.90,22.99 52.62,27.09 41.35,22.99" fill="#d1d1d1"/>
<polygon points="41.35,51.99 41.35,22.99 52.62,27.09 52.62,56.09" fill="#b7b7b7"/>
<polygon points="52.62,56.09 52.62,27.09 63.90,22.99 63.90,51.99" fill="#9a9a9a"/>
<polygon points="39.47,19.67 50.74,23.78 39.47,27.88 28.19,23.78" fill="#d1d1d1"/>
<polygon points="28.19,56.78 28.19,23.78 39.47,27.88 39.47,60.88" fill="#b7b7b7"/>
<polygon points="39.47,60.88 39.47,27.88 50.74,23.78 50.74,56.78" fill="#9a9a9a"/>
<polygon points="26.31,32.46 37.59,36.56 26.31,40.67 15.04,36.56" fill="#ffffff"/>
<polygon points="15.04,61.56 15.04,36.56 26.31,40.67 26.31,65.67" fill="#e0e0e0"/>
<polygon points="26.31,65.67 26.31,40.67 37.59,36.56 37.59,61.56" fill="#bcbcbc"/>
<polygon points="13.16,33.25 24.43,37.35 13.16,41.46 1.88,37.35" fill="#d1d1d1"/>
<polygon points="1.88,66.35 1.88,37.35 13.16,41.46 13.16,70.46" fill="#b7b7b7"/>
<polygon points="13.16,70.46 13.16,41.46 24.43,37.35 24.43,66.35" fill="#9a9a9a"/>
<polygon points="105.25,1.31 116.52,5.41 105.25,9.51 93.97,5.41" fill="#989898"/>
<polygon points="93.97,42.41 93.97,5.41 105.25,9.51 105.25,46.51" fill="#858585"/>
<polygon points="105.25,46.51 105.25,9.51 116.52,5.41 116.52,42.41" fill="#707070"/>
<polygon points="92.09,10.09 103.37,14.20 92.09,18.30 80.81,14.20" fill="#d1d1d1"/>
<polygon points="80.81,47.20 80.81,14.20 92.09,18.30 92.09,51.30" fill="#b7b7b7"/>
<polygon points="92.09,51.30 92.09,18.30 103.37,14.20 103.37,47.20" fill="#9a9a9a"/>
<polygon points="78.93,31.88 90.21,35.99 78.93,40.09 67.66,35.99" fill="#ffffff"/>
<polygon points="67.66,51.99 67.66,35.99 78.93,40.09 78.93,56.09" fill="#e0e0e0"/>
<polygon points="78.93,56.09 78.93,40.09 90.21,35.99 90.21,51.99" fill="#bcbcbc"/>
<polygon points="65.78,11.67 77.05,15.78 65.78,19.88 54.50,15.78" fill="#989898"/>
<polygon points="54.50,56.78 54.50,15.78 65.78,19.88 65.78,60.88" fill="#858585"/>
<polygon points="65.78,60.88 65.78,19.88 77.05,15.78 77.05,56.78" fill="#707070"/>
<polygon points="52.62,20.46 63.90,24.56 52.62,28.67 41.35,24.56" fill="#989898"/>
<polygon points="41.35,61.56 41.35,24.56 52.62,28.67 52.62,65.67" fill="#858585"/>
<polygon points="52.62,65.67 52.62,28.67 63.90,24.56 63.90,61.56" fill="#707070"/>
<polygon points="39.47,19.25 50.74,23.35 39.47,27.46 28.19,23.35" fill="#515151"/>
<polygon points="28.19,66.35 28.19,23.35 39.47,27.46 39.47,70.46" fill="#474747"/>
<polygon points="39.47,70.46 39.47,27.46 50.74,23.35 50.74,66.35" fill="#3b3b3b"/>
<polygon points="26.31,30.04 37.59,34.14 26.31,38.24 15.04,34.14" fill="#989898"/>
<polygon points="15.04,71.14 15.04,34.14 26.31,38.24 26.31,75.24" fill="#858585"/>
<polygon points="26.31,75.24 26.31,38.24 37.59,34.14 37.59,71.14" fill="#707070"/>
<polygon points="118.40,12.09 129.68,16.20 118.40,20.30 107.12,16.20" fill="#d1d1d1"/>
<polygon points="107.12,47.20 107.12,16.20 118.40,20.30 118.40,51.30" fill="#b7b7b7"/>
<polygon points="118.40,51.30 118.40,20.30 129.68,16.20 129.68,47.20" fill="#9a9a9a"/>
<polygon points="105.25,12.88 116.52,16.99 105.25,21.09 93.97,16.99" fill="#989898"/>
<polygon points="93.97,51.99 93.97,16.99 105.25,21.09 105.25,56.09" fill="#858585"/>
<polygon points="105.25,56.09 105.25,21.09 116.52,16.99 116.52,51.99" fill="#707070"/>
<polygon points="92.09,36.67 103.37,40.78 92.09,44.88 80.81,40.78" fill="#ffffff"/>
<polygon points="80.81,56.78 80.81,40.78 92.09,44.88 92.09,60.88" fill="#e0e0e0"/>
<polygon points="92.09,60.88 92.09,44.88 103.37,40.78 103.37,56.78" fill="#bcbcbc"/>
<polygon points="78.93,20.46 90.21,24.56 78.93,28.67 67.66,24.56" fill="#989898"/>
<polygon points="67.66,61.56 67.66,24.56 78.93,28.67 78.93,65.67" fill="#858585"/>
<polygon points="78.93,65.67 78.93,28.67 90.21,24.56 90.21,61.56" fill="#707070"/>
<polygon points="65.78,29.25 77.05,33.35 65.78,37.46 54.50,33.35" fill="#d1d1d1"/>
<polygon points="54.50,66.35 54.50,33.35 65.78,37.46 65.78,70.46" fill="#b7b7b7"/>
<polygon points="65.78,70.46 65.78,37.46 77.05,33.35 77.05,66.35" fill="#9a9a9a"/>
<polygon points="52.62,21.04 63.90,25.14 52.62,29.24 41.35,25.14" fill="#515151"/>
<polygon points="41.35,71.14 41.35,25.14 52.62,29.24 52.62,75.24" fill="#474747"/>
<polygon points="52.62,75.24 52.62,29.24 63.90,25.14 63.90,71.14" fill="#3b3b3b"/>
<polygon points="39.47,50.82 50.74,54.93 39.47,59.03 28.19,54.93" fill="#ffffff"/>
<polygon points="28.19,75.93 28.19,54.93 39.47,59.03 39.47,80.03" fill="#e0e0e0"/>
<polygon points="39.47,80.03 39.47,59.03 50.74,54.93 50.74,75.93" fill="#bcbcbc"/>
<polygon points="131.56,9.88 142.83,13.99 131.56,18.09 120.28,13.99" fill="#989898"/>
<polygon points="120.28,51.99 120.28,13.99 131.56,18.09 131.56,56.09" fill="#858585"/>
<polygon points="131.56,56.09 131.56,18.09 142.83,13.99 142.83,51.99" fill="#707070"/>
<polygon points="118.40,-4.33 129.68,-0.22 118.40,3.88 107.12,-0.22" fill="#515151"/>
<polygon points="107.12,56.78 107.12,-0.22 118.40,3.88 118.40,60.88" fill="#474747"/>
<polygon points="118.40,60.88 118.40,3.88 129.68,-0.22 129.68,56.78" fill="#3b3b3b"/>
<polygon points="105.25,1.46 116.52,5.56 105.25,9.67 93.97,5.56" fill="#515151"/>
<polygon points="93.97,61.56 93.97,5.56 105.25,9.67 105.25,65.67" fill="#474747"/>
<polygon points="105.25,65.67 105.25,9.67 116.52,5.56 116.52,61.56" fill="#3b3b3b"/>
<polygon points="92.09,6.25 103.37,10.35 92.09,14.46 80.81,10.35" fill="#515151"/>
<polygon points="80.81,66.35 80.81,10.35 92.09,14.46 92.09,70.46" fill="#474747"/>
<polygon points="92.09,70.46 92.09,14.46 103.37,10.35 103.37,66.35" fill="#3b3b3b"/>
<polygon points="78.93,26.04 90.21,30.14 78.93,34.24 67.66,30.14" fill="#989898"/>
<polygon points="67.66,71.14 67.66,30.14 78.93,34.24 78.93,75.24" fill="#858585"/>
<polygon points="78.93,75.24 78.93,34.24 90.21,30.14 90.21,71.14" fill="#707070"/>
<polygon points="65.78,16.82 77.05,20.93 65.78,25.03 54.50,20.93" fill="#515151"/>
<polygon points="54.50,75.93 54.50,20.93 65.78,25.03 65.78,80.03" fill="#474747"/>
<polygon points="65.78,80.03 65.78,25.03 77.05,20.93 77.05,75.93" fill="#3b3b3b"/>
<polygon points="52.62,24.61 63.90,28.72 52.62,32.82 41.35,28.72" fill="#515151"/>
<polygon points="41.35,80.72 41.35,28.72 52.62,32.82 52.62,84.82" fill="#474747"/>
<polygon points="52.62,84.82 52.62,32.82 63.90,28.72 63.90,80.72" fill="#3b3b3b"/>
<polygon points="144.71,12.67 155.99,16.78 144.71,20.88 133.44,16.78" fill="#989898"/>
<polygon points="133.44,56.78 133.44,16.78 144.71,20.88 144.71,60.88" fill="#858585"/>
<polygon points="144.71,60.88 144.71,20.88 155.99,16.78 155.99,56.78" fill="#707070"/>
<polygon points="131.56,16.46 142.83,20.56 131.56,24.67 120.28,20.56" fill="#989898"/>
<polygon points="120.28,61.56 120.28,20.56 131.56,24.67 131.56,65.67" fill="#858585"/>
<polygon points="131.56,65.67 131.56,24.67 142.83,20.56 142.83,61.56" fill="#707070"/>
<polygon points="118.40,19.25 129.68,23.35 118.40,27.46 107.12,23.35" fill="#515151"/>
<polygon points="107.12,66.35 107.12,23.35 118.40,27.46 118.40,70.46" fill="#474747"/>
<polygon points="118.40,70.46 118.40,27.46 129.68,23.35 129.68,66.35" fill="#3b3b3b"/>
<polygon points="105.25,34.04 116.52,38.14 105.25,42.24 93.97,38.14" fill="#d1d1d1"/>
<polygon points="93.97,71.14 93.97,38.14 105.25,42.24 105.25,75.24" fill="#b7b7b7"/>
<polygon points="105.25,75.24 105.25,42.24 116.52,38.14 116.52,71.14" fill="#9a9a9a"/>
<polygon points="92.09,40.82 103.37,44.93 92.09,49.03 80.81,44.93" fill="#d1d1d1"/>
<polygon points="80.81,75.93 80.81,44.93 92.09,49.03 92.09,80.03" fill="#b7b7b7"/>
<polygon points="92.09,80.03 92.09,49.03 103.37,44.93 103.37,75.93" fill="#9a9a9a"/>
<polygon points="78.93,28.61 90.21,32.72 78.93,36.82 67.66,32.72" fill="#515151"/>
<polygon points="67.66,80.72 67.66,32.72 78.93,36.82 78.93,84.82" fill="#474747"/>
<polygon points="78.93,84.82 78.93,36.82 90.21,32.72 90.21,80.72" fill="#3b3b3b"/>
<polygon points="65.78,41.40 77.05,45.51 65.78,49.61 54.50,45.51" fill="#989898"/>
<polygon points="54.50,85.51 54.50,45.51 65.78,49.61 65.78,89.61" fill="#858585"/>
<polygon points="65.78,89.61 65.78,49.61 77.05,45.51 77.05,85.51" fill="#707070"/>
<polygon points="157.87,32.46 169.14,36.56 157.87,40.67 146.59,36.56" fill="#ffffff"/>
<polygon points="146.59,61.56 146.59,36.56 157.87,40.67 157.87,65.67" fill="#e0e0e0"/>
<polygon points="157.87,65.67 157.87,40.67 169.14,36.56 169.14,61.56" fill="#bcbcbc"/>
<polygon points="144.71,62.25 155.99,66.35 144.71,70.46 133.44,66.35" fill="#C2C3C6"/>
<polygon points="131.56,38.04 142.83,42.14 131.56,46.24 120.28,42.14" fill="#d1d1d1"/>
<polygon points="120.28,71.14 120.28,42.14 131.56,46.24 131.56,75.24" fill="#b7b7b7"/>
<polygon points="131.56,75.24 131.56,46.24 142.83,42.14 142.83,71.14" fill="#9a9a9a"/>
<polygon points="118.40,38.82 129.68,42.93 118.40,47.03 107.12,42.93" fill="#d1d1d1"/>
<polygon points="107.12,75.93 107.12,42.93 118.40,47.03 118.40,80.03" fill="#b7b7b7"/>
<polygon points="118.40,80.03 118.40,47.03 129.68,42.93 129.68,75.93" fill="#9a9a9a"/>
<polygon points="105.25,45.61 116.52,49.72 105.25,53.82 93.97,49.72" fill="#d1d1d1"/>
<polygon points="93.97,80.72 93.97,49.72 105.25,53.82 105.25,84.82" fill="#b7b7b7"/>
<polygon points="105.25,84.82 105.25,53.82 116.52,49.72 116.52,80.72" fill="#9a9a9a"/>
<polygon points="92.09,44.40 103.37,48.51 92.09,52.61 80.81,48.51" fill="#989898"/>
<polygon points="80.81,85.51 80.81,48.51 92.09,52.61 92.09,89.61" fill="#858585"/>
<polygon points="92.09,89.61 92.09,52.61 103.37,48.51 103.37,85.51" fill="#707070"/>
<polygon points="78.93,44.19 90.21,48.29 78.93,52.40 67.66,48.29" fill="#515151"/>
<polygon points="67.66,90.29 67.66,48.29 78.93,52.40 78.93,94.40" fill="#474747"/>
<polygon points="78.93,94.40 78.93,52.40 90.21,48.29 90.21,90.29" fill="#3b3b3b"/>
<polygon points="171.02,33.25 182.30,37.35 171.02,41.46 159.75,37.35" fill="#d1d1d1"/>
<polygon points="159.75,66.35 159.75,37.35 171.02,41.46 171.02,70.46" fill="#b7b7b7"/>
<polygon points="171.02,70.46 171.02,41.46 182.30,37.35 182.30,66.35" fill="#9a9a9a"/>
<polygon points="157.87,46.04 169.14,50.14 157.87,54.24 146.59,50.14" fill="#ffffff"/>
<polygon points="146.59,71.14 146.59,50.14 157.87,54.24 157.87,75.24" fill="#e0e0e0"/>
<polygon points="157.87,75.24 157.87,54.24 169.14,50.14 169.14,71.14" fill="#bcbcbc"/>
<polygon points="144.71,55.82 155.99,59.93 144.71,64.03 133.44,59.93" fill="#ffffff"/>
<polygon points="133.44,75.93 133.44,59.93 144.71,64.03 144.71,80.03" fill="#e0e0e0"/>
<polygon points="144.71,80.03 144.71,64.03 155.99,59.93 155.99,75.93" fill="#bcbcbc"/>
<polygon points="131.56,45.61 142.83,49.72 131.56,53.82 120.28,49.72" fill="#d1d1d1"/>
<polygon points="120.28,80.72 120.28,49.72 131.56,53.82 131.56,84.82" fill="#b7b7b7"/>
<polygon points="131.56,84.82 131.56,53.82 142.83,49.72 142.83,80.72" fill="#9a9a9a"/>
<polygon points="118.40,48.40 129.68,52.51 118.40,56.61 107.12,52.51" fill="#d1d1d1"/>
<polygon points="107.12,85.51 107.12,52.51 118.40,56.61 118.40,89.61" fill="#b7b7b7"/>
<polygon points="118.40,89.61 118.40,56.61 129.68,52.51 129.68,85.51" fill="#9a9a9a"/>
<polygon points="105.25,43.19 116.52,47.29 105.25,51.40 93.97,47.29" fill="#515151"/>
<polygon points="93.97,90.29 93.97,47.29 105.25,51.40 105.25,94.40" fill="#474747"/>
<polygon points="105.25,94.40 105.25,51.40 116.52,47.29 116.52,90.29" fill="#3b3b3b"/>
<polygon points="92.09,61.98 103.37,66.08 92.09,70.19 80.81,66.08" fill="#d1d1d1"/>
<polygon points="80.81,95.08 80.81,66.08 92.09,70.19 92.09,99.19" fill="#b7b7b7"/>
<polygon points="92.09,99.19 92.09,70.19 103.37,66.08 103.37,95.08" fill="#9a9a9a"/>
<polygon points="184.18,27.04 195.46,31.14 184.18,35.24 172.90,31.14" fill="#989898"/>
<polygon points="172.90,71.14 172.90,31.14 184.18,35.24 184.18,75.24" fill="#858585"/>
<polygon points="184.18,75.24 184.18,35.24 195.46,31.14 195.46,71.14" fill="#707070"/>
<polygon points="171.02,55.82 182.30,59.93 171.02,64.03 159.75,59.93" fill="#ffffff"/>
<polygon points="159.75,75.93 159.75,59.93 171.02,64.03 171.02,80.03" fill="#e0e0e0"/>
<polygon points="171.02,80.03 171.02,64.03 182.30,59.93 182.30,75.93" fill="#bcbcbc"/>
<polygon points="157.87,55.61 169.14,59.72 157.87,63.82 146.59,59.72" fill="#ffffff"/>
<polygon points="146.59,80.72 146.59,59.72 157.87,63.82 157.87,84.82" fill="#e0e0e0"/>
<polygon points="157.87,84.82 157.87,63.82 169.14,59.72 169.14,80.72" fill="#bcbcbc"/>
<polygon points="144.71,81.40 155.99,85.51 144.71,89.61 133.44,85.51" fill="#C2C3C6"/>
<polygon points="131.56,53.19 142.83,57.29 131.56,61.40 120.28,57.29" fill="#d1d1d1"/>
<polygon points="120.28,90.29 120.28,57.29 131.56,61.40 131.56,94.40" fill="#b7b7b7"/>
<polygon points="131.56,94.40 131.56,61.40 142.83,57.29 142.83,90.29" fill="#9a9a9a"/>
<polygon points="118.40,50.98 129.68,55.08 118.40,59.19 107.12,55.08" fill="#989898"/>
<polygon points="107.12,95.08 107.12,55.08 118.40,59.19 118.40,99.19" fill="#858585"/>
<polygon points="118.40,99.19 118.40,59.19 129.68,55.08 129.68,95.08" fill="#707070"/>
<polygon points="105.25,58.77 116.52,62.87 105.25,66.97 93.97,62.87" fill="#989898"/>
<polygon points="93.97,99.87 93.97,62.87 105.25,66.97 105.25,103.97" fill="#858585"/>
<polygon points="105.25,103.97 105.25,66.97 116.52,62.87 116.52,99.87" fill="#707070"/>
<polygon points="197.34,55.82 208.61,59.93 197.34,64.03 186.06,59.93" fill="#ffffff"/>
<polygon points="186.06,75.93 186.06,59.93 197.34,64.03 197.34,80.03" fill="#e0e0e0"/>
<polygon points="197.34,80.03 197.34,64.03 208.61,59.93 208.61,75.93" fill="#bcbcbc"/>
<polygon points="184.18,76.61 195.46,80.72 184.18,84.82 172.90,80.72" fill="#C2C3C6"/>
<polygon points="171.02,56.40 182.30,60.51 171.02,64.61 159.75,60.51" fill="#ffffff"/>
<polygon points="159.75,85.51 159.75,60.51 171.02,64.61 171.02,89.61" fill="#e0e0e0"/>
<polygon points="171.02,89.61 171.02,64.61 182.30,60.51 182.30,85.51" fill="#bcbcbc"/>
<polygon points="157.87,57.19 169.14,61.29 157.87,65.40 146.59,61.29" fill="#d1d1d1"/>
<polygon points="146.59,90.29 146.59,61.29 157.87,65.40 157.87,94.40" fill="#b7b7b7"/>
<polygon points="157.87,94.40 157.87,65.40 169.14,61.29 169.14,90.29" fill="#9a9a9a"/>
<polygon points="144.71,53.98 155.99,58.08 144.71,62.19 133.44,58.08" fill="#989898"/>
<polygon points="133.44,95.08 133.44,58.08 144.71,62.19 144.71,99.19" fill="#858585"/>
<polygon points="144.71,99.19 144.71,62.19 155.99,58.08 155.99,95.08" fill="#707070"/>
<polygon points="131.56,57.77 142.83,61.87 131.56,65.97 120.28,61.87" fill="#989898"/>
<polygon points="120.28,99.87 120.28,61.87 131.56,65.97 131.56,103.97" fill="#858585"/>
<polygon points="131.56,103.97 131.56,65.97 142.83,61.87 142.83,99.87" fill="#707070"/>
<polygon points="118.40,62.55 129.68,66.66 118.40,70.76 107.12,66.66" fill="#989898"/>
<polygon points="107.12,104.66 107.12,66.66 118.40,70.76 118.40,108.76" fill="#858585"/>
<polygon points="118.40,108.76 118.40,70.76 129.68,66.66 129.68,104.66" fill="#707070"/>
<polygon points="210.49,51.61 221.77,55.72 210.49,59.82 199.21,55.72" fill="#ffffff"/>
<polygon points="199.21,80.72 199.21,55.72 210.49,59.82 210.49,84.82" fill="#e0e0e0"/>
<polygon points="210.49,84.82 210.49,59.82 221.77,55.72 221.77,80.72" fill="#bcbcbc"/>
<polygon points="197.34,60.40 208.61,64.51 197.34,68.61 186.06,64.51" fill="#ffffff"/>
<polygon points="186.06,85.51 186.06,64.51 197.34,68.61 197.34,89.61" fill="#e0e0e0"/>
<polygon points="197.34,89.61 197.34,68.61 208.61,64.51 208.61,85.51" fill="#bcbcbc"/>
<polygon points="184.18,61.19 195.46,65.29 184.18,69.40 172.90,65.29" fill="#ffffff"/>
<polygon points="172.90,90.29 172.90,65.29 184.18,69.40 184.18,94.40" fill="#e0e0e0"/>
<polygon points="184.18,94.40 184.18,69.40 195.46,65.29 195.46,90.29" fill="#bcbcbc"/>
<polygon points="171.02,61.98 182.30,66.08 171.02,70.19 159.75,66.08" fill="#d1d1d1"/>
<polygon points="159.75,95.08 159.75,66.08 171.02,70.19 171.02,99.19" fill="#b7b7b7"/>
<polygon points="171.02,99.19 171.02,70.19 182.30,66.08 182.30,95.08" fill="#9a9a9a"/>
<polygon points="157.87,57.77 169.14,61.87 157.87,65.97 146.59,61.87" fill="#989898"/>
<polygon points="146.59,99.87 146.59,61.87 157.87,65.97 157.87,103.97" fill="#858585"/>
<polygon points="157.87,103.97 157.87,65.97 169.14,61.87 169.14,99.87" fill="#707070"/>
<polygon points="144.71,55.55 155.99,59.66 144.71,63.76 133.44,59.66" fill="#515151"/>
<polygon points="133.44,104.66 133.44,59.66 144.71,63.76 144.71,108.76" fill="#474747"/>
<polygon points="144.71,108.76 144.71,63.76 155.99,59.66 155.99,104.66" fill="#3b3b3b"/>
<polygon points="131.56,74.34 142.83,78.45 131.56,82.55 120.28,78.45" fill="#d1d1d1"/>
<polygon points="120.28,109.45 120.28,78.45 131.56,82.55 131.56,113.55" fill="#b7b7b7"/>
<polygon points="131.56,113.55 131.56,82.55 142.83,78.45 142.83,109.45" fill="#9a9a9a"/>
<polygon points="223.65,50.40 234.92,54.51 223.65,58.61 212.37,54.51" fill="#d1d1d1"/>
<polygon points="212.37,85.51 212.37,54.51 223.65,58.61 223.65,89.61" fill="#b7b7b7"/>
<polygon points="223.65,89.61 223.65,58.61 234.92,54.51 234.92,85.51" fill="#9a9a9a"/>
<polygon points="210.49,61.19 221.77,65.29 210.49,69.40 199.21,65.29" fill="#ffffff"/>
<polygon points="199.21,90.29 199.21,65.29 210.49,69.40 210.49,94.40" fill="#e0e0e0"/>
<polygon points="210.49,94.40 210.49,69.40 221.77,65.29 221.77,90.29" fill="#bcbcbc"/>
<polygon points="197.34,69.98 208.61,74.08 197.34,78.19 186.06,74.08" fill="#ffffff"/>
<polygon points="186.06,95.08 186.06,74.08 197.34,78.19 197.34,99.19" fill="#e0e0e0"/>
<polygon points="197.34,99.19 197.34,78.19 208.61,74.08 208.61,95.08" fill="#bcbcbc"/>
<polygon points="184.18,66.77 195.46,70.87 184.18,74.97 172.90,70.87" fill="#d1d1d1"/>
<polygon points="172.90,99.87 172.90,70.87 184.18,74.97 184.18,103.97" fill="#b7b7b7"/>
<polygon points="184.18,103.97 184.18,74.97 195.46,70.87 195.46,99.87" fill="#9a9a9a"/>
<polygon points="171.02,65.55 182.30,69.66 171.02,73.76 159.75,69.66" fill="#989898"/>
<polygon points="159.75,104.66 159.75,69.66 171.02,73.76 171.02,108.76" fill="#858585"/>
<polygon points="171.02,108.76 171.02,73.76 182.30,69.66 182.30,104.66" fill="#707070"/>
<polygon points="157.87,67.34 169.14,71.45 157.87,75.55 146.59,71.45" fill="#989898"/>
<polygon points="146.59,109.45 146.59,71.45 157.87,75.55 157.87,113.55" fill="#858585"/>
<polygon points="157.87,113.55 157.87,75.55 169.14,71.45 169.14,109.45" fill="#707070"/>
<polygon points="144.71,75.13 155.99,79.23 144.71,83.34 133.44,79.23" fill="#989898"/>
<polygon points="133.44,114.23 133.44,79.23 144.71,83.34 144.71,118.34" fill="#858585"/>
<polygon points="144.71,118.34 144.71,83.34 155.99,79.23 155.99,114.23" fill="#707070"/>
<polygon points="236.80,51.19 248.08,55.29 236.80,59.40 225.53,55.29" fill="#989898"/>
<polygon points="225.53,90.29 225.53,55.29 236.80,59.40 236.80,94.40" fill="#858585"/>
<polygon points="236.80,94.40 236.80,59.40 248.08,55.29 248.08,90.29" fill="#707070"/>
<polygon points="223.65,65.98 234.92,70.08 223.65,74.19 212.37,70.08" fill="#ffffff"/>
<polygon points="212.37,95.08 212.37,70.08 223.65,74.19 223.65,99.19" fill="#e0e0e0"/>
<polygon points="223.65,99.19 223.65,74.19 234.92,70.08 234.92,95.08" fill="#bcbcbc"/>
<polygon points="210.49,70.77 221.77,74.87 210.49,78.97 199.21,74.87" fill="#ffffff"/>
<polygon points="199.21,99.87 199.21,74.87 210.49,78.97 210.49,103.97" fill="#e0e0e0"/>
<polygon points="210.49,103.97 210.49,78.97 221.77,74.87 221.77,99.87" fill="#bcbcbc"/>
<polygon points="197.34,63.55 208.61,67.66 197.34,71.76 186.06,67.66" fill="#989898"/>
<polygon points="186.06,104.66 186.06,67.66 197.34,71.76 197.34,108.76" fill="#858585"/>
<polygon points="197.34,108.76 197.34,71.76 208.61,67.66 208.61,104.66" fill="#707070"/>
<polygon points="184.18,68.34 195.46,72.45 184.18,76.55 172.90,72.45" fill="#989898"/>
<polygon points="172.90,109.45 172.90,72.45 184.18,76.55 184.18,113.55" fill="#858585"/>
<polygon points="184.18,113.55 184.18,76.55 195.46,72.45 195.46,109.45" fill="#707070"/>
<polygon points="171.02,69.13 182.30,73.23 171.02,77.34 159.75,73.23" fill="#989898"/>
<polygon points="159.75,114.23 159.75,73.23 171.02,77.34 171.02,118.34" fill="#858585"/>
<polygon points="171.02,118.34 171.02,77.34 182.30,73.23 182.30,114.23" fill="#707070"/>
<polygon points="157.87,98.92 169.14,103.02 157.87,107.13 146.59,103.02" fill="#ffffff"/>
<polygon points="146.59,119.02 146.59,103.02 157.87,107.13 157.87,123.13" fill="#e0e0e0"/>
<polygon points="157.87,123.13 157.87,107.13 169.14,103.02 169.14,119.02" fill="#bcbcbc"/>
<polygon points="249.96,69.98 261.23,74.08 249.96,78.19 238.68,74.08" fill="#ffffff"/>
<polygon points="238.68,95.08 238.68,74.08 249.96,78.19 249.96,99.19" fill="#e0e0e0"/>
<polygon points="249.96,99.19 249.96,78.19 261.23,74.08 261.23,95.08" fill="#bcbcbc"/>
<polygon points="236.80,44.77 248.08,48.87 236.80,52.97 225.53,48.87" fill="#515151"/>
<polygon points="225.53,99.87 225.53,48.87 236.80,52.97 236.80,103.97" fill="#474747"/>
<polygon points="236.80,103.97 236.80,52.97 248.08,48.87 248.08,99.87" fill="#3b3b3b"/>
<polygon points="223.65,44.55 234.92,48.66 223.65,52.76 212.37,48.66" fill="#515151"/>
<polygon points="212.37,104.66 212.37,48.66 223.65,52.76 223.65,108.76" fill="#474747"/>
<polygon points="223.65,108.76 223.65,52.76 234.92,48.66 234.92,104.66" fill="#3b3b3b"/>
<polygon points="210.49,48.34 221.77,52.45 210.49,56.55 199.21,52.45" fill="#515151"/>
<polygon points="199.21,109.45 199.21,52.45 210.49,56.55 210.49,113.55" fill="#474747"/>
<polygon points="210.49,113.55 210.49,56.55 221.77,52.45 221.77,109.45" fill="#3b3b3b"/>
<polygon points="197.34,54.13 208.61,58.23 197.34,62.34 186.06,58.23" fill="#515151"/>
<polygon points="186.06,114.23 186.06,58.23 197.34,62.34 197.34,118.34" fill="#474747"/>
<polygon points="197.34,118.34 197.34,62.34 208.61,58.23 208.61,114.23" fill="#3b3b3b"/>
<polygon points="184.18,58.92 195.46,63.02 184.18,67.13 172.90,63.02" fill="#515151"/>
<polygon points="172.90,119.02 172.90,63.02 184.18,67.13 184.18,123.13" fill="#474747"/>
<polygon points="184.18,123.13 184.18,67.13 195.46,63.02 195.46,119.02" fill="#3b3b3b"/>
<polygon points="171.02,66.71 182.30,70.81 171.02,74.92 159.75,70.81" fill="#515151"/>
<polygon points="159.75,123.81 159.75,70.81 171.02,74.92 171.02,127.92" fill="#474747"/>
<polygon points="171.02,127.92 171.02,74.92 182.30,70.81 182.30,123.81" fill="#3b3b3b"/>
<polygon points="263.11,70.77 274.39,74.87 263.11,78.97 251.84,74.87" fill="#ffffff"/>
<polygon points="251.84,99.87 251.84,74.87 263.11,78.97 263.11,103.97" fill="#e0e0e0"/>
<polygon points="263.11,103.97 263.11,78.97 274.39,74.87 274.39,99.87" fill="#bcbcbc"/>
<polygon points="249.96,79.55 261.23,83.66 249.96,87.76 238.68,83.66" fill="#ffffff"/>
<polygon points="238.68,104.66 238.68,83.66 249.96,87.76 249.96,108.76" fill="#e0e0e0"/>
<polygon points="249.96,108.76 249.96,87.76 261.23,83.66 261.23,104.66" fill="#bcbcbc"/>
<polygon points="236.80,65.34 248.08,69.45 236.80,73.55 225.53,69.45" fill="#989898"/>
<polygon points="225.53,109.45 225.53,69.45 236.80,73.55 236.80,113.55" fill="#858585"/>
<polygon points="236.80,113.55 236.80,73.55 248.08,69.45 248.08,109.45" fill="#707070"/>
<polygon points="223.65,70.13 234.92,74.23 223.65,78.34 212.37,74.23" fill="#989898"/>
<polygon points="212.37,114.23 212.37,74.23 223.65,78.34 223.65,118.34" fill="#858585"/>
<polygon points="223.65,118.34 223.65,78.34 234.92,74.23 234.92,114.23" fill="#707070"/>
<polygon points="210.49,77.92 221.77,82.02 210.49,86.13 199.21,82.02" fill="#989898"/>
<polygon points="199.21,119.02 199.21,82.02 210.49,86.13 210.49,123.13" fill="#858585"/>
<polygon points="210.49,123.13 210.49,86.13 221.77,82.02 221.77,119.02" fill="#707070"/>
<polygon points="197.34,86.71 208.61,90.81 197.34,94.92 186.06,90.81" fill="#d1d1d1"/>
<polygon points="186.06,123.81 186.06,90.81 197.34,94.92 197.34,127.92" fill="#b7b7b7"/>
<polygon points="197.34,127.92 197.34,94.92 208.61,90.81 208.61,123.81" fill="#9a9a9a"/>
<polygon points="184.18,81.50 195.46,85.60 184.18,89.70 172.90,85.60" fill="#515151"/>
<polygon points="172.90,128.60 172.90,85.60 184.18,89.70 184.18,132.70" fill="#474747"/>
<polygon points="184.18,132.70 184.18,89.70 195.46,85.60 195.46,128.60" fill="#3b3b3b"/>
<polygon points="276.27,63.55 287.55,67.66 276.27,71.76 264.99,67.66" fill="#989898"/>
<polygon points="264.99,104.66 264.99,67.66 276.27,71.76 276.27,108.76" fill="#858585"/>
<polygon points="276.27,108.76 276.27,71.76 287.55,67.66 287.55,104.66" fill="#707070"/>
<polygon points="263.11,105.34 274.39,109.45 263.11,113.55 251.84,109.45" fill="#C2C3C6"/>
<polygon points="249.96,79.13 261.23,83.23 249.96,87.34 238.68,83.23" fill="#d1d1d1"/>
<polygon points="238.68,114.23 238.68,83.23 249.96,87.34 249.96,118.34" fill="#b7b7b7"/>
<polygon points="249.96,118.34 249.96,87.34 261.23,83.23 261.23,114.23" fill="#9a9a9a"/>
<polygon points="236.80,93.92 248.08,98.02 236.80,102.13 225.53,98.02" fill="#ffffff"/>
<polygon points="225.53,119.02 225.53,98.02 236.80,102.13 236.80,123.13" fill="#e0e0e0"/>
<polygon points="236.80,123.13 236.80,102.13 248.08,98.02 248.08,119.02" fill="#bcbcbc"/>
<polygon points="223.65,119.71 234.92,123.81 223.65,127.92 212.37,123.81" fill="#C2C3C6"/>
<polygon points="210.49,86.50 221.77,90.60 210.49,94.70 199.21,90.60" fill="#989898"/>
<polygon points="199.21,128.60 199.21,90.60 210.49,94.70 210.49,132.70" fill="#858585"/>
<polygon points="210.49,132.70 210.49,94.70 221.77,90.60 221.77,128.60" fill="#707070"/>
<polygon points="197.34,83.28 208.61,87.39 197.34,91.49 186.06,87.39" fill="#515151"/>
<polygon points="186.06,133.39 186.06,87.39 197.34,91.49 197.34,137.49" fill="#474747"/>
<polygon points="197.34,137.49 197.34,91.49 208.61,87.39 208.61,133.39" fill="#3b3b3b"/>
<polygon points="289.43,70.34 300.70,74.45 289.43,78.55 278.15,74.45" fill="#989898"/>
<polygon points="278.15,109.45 278.15,74.45 289.43,78.55 289.43,113.55" fill="#858585"/>
<polygon points="289.43,113.55 289.43,78.55 300.70,74.45 300.70,109.45" fill="#707070"/>
<polygon points="276.27,89.13 287.55,93.23 276.27,97.34 264.99,93.23" fill="#ffffff"/>
<polygon points="264.99,114.23 264.99,93.23 276.27,97.34 276.27,118.34" fill="#e0e0e0"/>
<polygon points="276.27,118.34 276.27,97.34 287.55,93.23 287.55,114.23" fill="#bcbcbc"/>
<polygon points="263.11,93.92 274.39,98.02 263.11,102.13 251.84,98.02" fill="#ffffff"/>
<polygon points="251.84,119.02 251.84,98.02 263.11,102.13 263.11,123.13" fill="#e0e0e0"/>
<polygon points="263.11,123.13 263.11,102.13 274.39,98.02 274.39,119.02" fill="#bcbcbc"/>
<polygon points="249.96,94.71 261.23,98.81 249.96,102.92 238.68,98.81" fill="#ffffff"/>
<polygon points="238.68,123.81 238.68,98.81 249.96,102.92 249.96,127.92" fill="#e0e0e0"/>
<polygon points="249.96,127.92 249.96,102.92 261.23,98.81 261.23,123.81" fill="#bcbcbc"/>
<polygon points="236.80,108.50 248.08,112.60 236.80,116.70 225.53,112.60" fill="#ffffff"/>
<polygon points="225.53,128.60 225.53,112.60 236.80,116.70 236.80,132.70" fill="#e0e0e0"/>
<polygon points="236.80,132.70 236.80,116.70 248.08,112.60 248.08,128.60" fill="#bcbcbc"/>
<polygon points="223.65,89.28 234.92,93.39 223.65,97.49 212.37,93.39" fill="#989898"/>
<polygon points="212.37,133.39 212.37,93.39 223.65,97.49 223.65,137.49" fill="#858585"/>
<polygon points="223.65,137.49 223.65,97.49 234.92,93.39 234.92,133.39" fill="#707070"/>
<polygon points="210.49,97.07 221.77,101.18 210.49,105.28 199.21,101.18" fill="#989898"/>
<polygon points="199.21,138.18 199.21,101.18 210.49,105.28 210.49,142.28" fill="#858585"/>
<polygon points="210.49,142.28 210.49,105.28 221.77,101.18 221.77,138.18" fill="#707070"/>
<polygon points="302.58,70.13 313.86,74.23 302.58,78.34 291.30,74.23" fill="#989898"/>
<polygon points="291.30,114.23 291.30,74.23 302.58,78.34 302.58,118.34" fill="#858585"/>
<polygon points="302.58,118.34 302.58,78.34 313.86,74.23 313.86,114.23" fill="#707070"/>
<polygon points="289.43,89.92 300.70,94.02 289.43,98.13 278.15,94.02" fill="#ffffff"/>
<polygon points="278.15,119.02 278.15,94.02 289.43,98.13 289.43,123.13" fill="#e0e0e0"/>
<polygon points="289.43,123.13 289.43,98.13 300.70,94.02 300.70,119.02" fill="#bcbcbc"/>
<polygon points="276.27,90.71 287.55,94.81 276.27,98.92 264.99,94.81" fill="#d1d1d1"/>
<polygon points="264.99,123.81 264.99,94.81 276.27,98.92 276.27,127.92" fill="#b7b7b7"/>
<polygon points="276.27,127.92 276.27,98.92 287.55,94.81 287.55,123.81" fill="#9a9a9a"/>
<polygon points="263.11,91.50 274.39,95.60 263.11,99.70 251.84,95.60" fill="#d1d1d1"/>
<polygon points="251.84,128.60 251.84,95.60 263.11,99.70 263.11,132.70" fill="#b7b7b7"/>
<polygon points="263.11,132.70 263.11,99.70 274.39,95.60 274.39,128.60" fill="#9a9a9a"/>
<polygon points="249.96,100.28 261.23,104.39 249.96,108.49 238.68,104.39" fill="#d1d1d1"/>
<polygon points="238.68,133.39 238.68,104.39 249.96,108.49 249.96,137.49" fill="#b7b7b7"/>
<polygon points="249.96,137.49 249.96,108.49 261.23,104.39 261.23,133.39" fill="#9a9a9a"/>
<polygon points="236.80,88.07 248.08,92.18 236.80,96.28 225.53,92.18" fill="#515151"/>
<polygon points="225.53,138.18 225.53,92.18 236.80,96.28 236.80,142.28" fill="#474747"/>
<polygon points="236.80,142.28 236.80,96.28 248.08,92.18 248.08,138.18" fill="#3b3b3b"/>
<polygon points="223.65,113.86 234.92,117.96 223.65,122.07 212.37,117.96" fill="#ffffff"/>
<polygon points="212.37,142.96 212.37,117.96 223.65,122.07 223.65,147.07" fill="#e0e0e0"/>
<polygon points="223.65,147.07 223.65,122.07 234.92,117.96 234.92,142.96" fill="#bcbcbc"/>
<polygon points="315.74,79.92 327.01,84.02 315.74,88.13 304.46,84.02" fill="#989898"/>
<polygon points="304.46,119.02 304.46,84.02 315.74,88.13 315.74,123.13" fill="#858585"/>
<polygon points="315.74,123.13 315.74,88.13 327.01,84.02 327.01,119.02" fill="#707070"/>
<polygon points="302.58,94.71 313.86,98.81 302.58,102.92 291.30,98.81" fill="#ffffff"/>
<polygon points="291.30,123.81 291.30,98.81 302.58,102.92 302.58,127.92" fill="#e0e0e0"/>
<polygon points="302.58,127.92 302.58,102.92 313.86,98.81 313.86,123.81" fill="#bcbcbc"/>
<polygon points="289.43,103.50 300.70,107.60 289.43,111.70 278.15,107.60" fill="#ffffff"/>
<polygon points="278.15,128.60 278.15,107.60 289.43,111.70 289.43,132.70" fill="#e0e0e0"/>
<polygon points="289.43,132.70 289.43,111.70 300.70,107.60 300.70,128.60" fill="#bcbcbc"/>
<polygon points="276.27,88.28 287.55,92.39 276.27,96.49 264.99,92.39" fill="#989898"/>
<polygon points="264.99,133.39 264.99,92.39 276.27,96.49 276.27,137.49" fill="#858585"/>
<polygon points="276.27,137.49 276.27,96.49 287.55,92.39 287.55,133.39" fill="#707070"/>
<polygon points="263.11,93.07 274.39,97.18 263.11,101.28 251.84,97.18" fill="#989898"/>
<polygon points="251.84,138.18 251.84,97.18 263.11,101.28 263.11,142.28" fill="#858585"/>
<polygon points="263.11,142.28 263.11,101.28 274.39,97.18 274.39,138.18" fill="#707070"/>
<polygon points="249.96,93.86 261.23,97.96 249.96,102.07 238.68,97.96" fill="#515151"/>
<polygon points="238.68,142.96 238.68,97.96 249.96,102.07 249.96,147.07" fill="#474747"/>
<polygon points="249.96,147.07 249.96,102.07 261.23,97.96 261.23,142.96" fill="#3b3b3b"/>
<polygon points="236.80,114.65 248.08,118.75 236.80,122.86 225.53,118.75" fill="#d1d1d1"/>
<polygon points="225.53,147.75 225.53,118.75 236.80,122.86 236.80,151.86" fill="#b7b7b7"/>
<polygon points="236.80,151.86 236.80,122.86 248.08,118.75 248.08,147.75" fill="#9a9a9a"/>
<polygon points="328.89,84.71 340.17,88.81 328.89,92.92 317.62,88.81" fill="#989898"/>
<polygon points="317.62,123.81 317.62,88.81 328.89,92.92 328.89,127.92" fill="#858585"/>
<polygon points="328.89,127.92 328.89,92.92 340.17,88.81 340.17,123.81" fill="#707070"/>
<polygon points="315.74,99.50 327.01,103.60 315.74,107.70 304.46,103.60" fill="#ffffff"/>
<polygon points="304.46,128.60 304.46,103.60 315.74,107.70 315.74,132.70" fill="#e0e0e0"/>
<polygon points="315.74,132.70 315.74,107.70 327.01,103.60 327.01,128.60" fill="#bcbcbc"/>
<polygon points="302.58,87.28 313.86,91.39 302.58,95.49 291.30,91.39" fill="#515151"/>
<polygon points="291.30,133.39 291.30,91.39 302.58,95.49 302.58,137.49" fill="#474747"/>
<polygon points="302.58,137.49 302.58,95.49 313.86,91.39 313.86,133.39" fill="#3b3b3b"/>
<polygon points="289.43,103.07 300.70,107.18 289.43,111.28 278.15,107.18" fill="#d1d1d1"/>
<polygon points="278.15,138.18 278.15,107.18 289.43,111.28 289.43,142.28" fill="#b7b7b7"/>
<polygon points="289.43,142.28 289.43,111.28 300.70,107.18 300.70,138.18" fill="#9a9a9a"/>
<polygon points="276.27,103.86 287.55,107.96 276.27,112.07 264.99,107.96" fill="#989898"/>
<polygon points="264.99,142.96 264.99,107.96 276.27,112.07 276.27,147.07" fill="#858585"/>
<polygon points="276.27,147.07 276.27,112.07 287.55,107.96 287.55,142.96" fill="#707070"/>
<polygon points="263.11,99.65 274.39,103.75 263.11,107.86 251.84,103.75" fill="#515151"/>
<polygon points="251.84,147.75 251.84,103.75 263.11,107.86 263.11,151.86" fill="#474747"/>
<polygon points="263.11,151.86 263.11,107.86 274.39,103.75 274.39,147.75" fill="#3b3b3b"/>
<polygon points="249.96,108.44 261.23,112.54 249.96,116.65 238.68,112.54" fill="#989898"/>
<polygon points="238.68,152.54 238.68,112.54 249.96,116.65 249.96,156.65" fill="#858585"/>
<polygon points="249.96,156.65 249.96,116.65 261.23,112.54 261.23,152.54" fill="#707070"/>
<polygon points="342.05,76.50 353.32,80.60 342.05,84.70 330.77,80.60" fill="#515151"/>
<polygon points="330.77,128.60 330.77,80.60 342.05,84.70 342.05,132.70" fill="#474747"/>
<polygon points="342.05,132.70 342.05,84.70 353.32,80.60 353.32,128.60" fill="#3b3b3b"/>
<polygon points="328.89,104.28 340.17,108.39 328.89,112.49 317.62,108.39" fill="#ffffff"/>
<polygon points="317.62,133.39 317.62,108.39 328.89,112.49 328.89,137.49" fill="#e0e0e0"/>
<polygon points="328.89,137.49 328.89,112.49 340.17,108.39 340.17,133.39" fill="#bcbcbc"/>
<polygon points="315.74,105.07 327.01,109.18 315.74,113.28 304.46,109.18" fill="#d1d1d1"/>
<polygon points="304.46,138.18 304.46,109.18 315.74,113.28 315.74,142.28" fill="#b7b7b7"/>
<polygon points="315.74,142.28 315.74,113.28 327.01,109.18 327.01,138.18" fill="#9a9a9a"/>
<polygon points="302.58,107.86 313.86,111.96 302.58,116.07 291.30,111.96" fill="#d1d1d1"/>
<polygon points="291.30,142.96 291.30,111.96 302.58,116.07 302.58,147.07" fill="#b7b7b7"/>
<polygon points="302.58,147.07 302.58,116.07 313.86,111.96 313.86,142.96" fill="#9a9a9a"/>
<polygon points="289.43,114.65 300.70,118.75 289.43,122.86 278.15,118.75" fill="#d1d1d1"/>
<polygon points="278.15,147.75 278.15,118.75 289.43,122.86 289.43,151.86" fill="#b7b7b7"/>
<polygon points="289.43,151.86 289.43,122.86 300.70,118.75 300.70,147.75" fill="#9a9a9a"/>
<polygon points="276.27,101.44 287.55,105.54 276.27,109.65 264.99,105.54" fill="#515151"/>
<polygon points="264.99,152.54 264.99,105.54 276.27,109.65 276.27,156.65" fill="#474747"/>
<polygon points="276.27,156.65 276.27,109.65 287.55,105.54 287.55,152.54" fill="#3b3b3b"/>
<polygon points="263.11,113.23 274.39,117.33 263.11,121.43 251.84,117.33" fill="#989898"/>
<polygon points="251.84,157.33 251.84,117.33 263.11,121.43 263.11,161.43" fill="#858585"/>
<polygon points="263.11,161.43 263.11,121.43 274.39,117.33 274.39,157.33" fill="#707070"/>
<polygon points="355.20,91.28 366.48,95.39 355.20,99.49 343.93,95.39" fill="#989898"/>
<polygon points="343.93,133.39 343.93,95.39 355.20,99.49 355.20,137.49" fill="#858585"/>
<polygon points="355.20,137.49 355.20,99.49 366.48,95.39 366.48,133.39" fill="#707070"/>
<polygon points="342.05,118.07 353.32,122.18 342.05,126.28 330.77,122.18" fill="#ffffff"/>
<polygon points="330.77,138.18 330.77,122.18 342.05,126.28 342.05,142.28" fill="#e0e0e0"/>
<polygon points="342.05,142.28 342.05,126.28 353.32,122.18 353.32,138.18" fill="#bcbcbc"/>
<polygon points="328.89,122.86 340.17,126.96 328.89,131.07 317.62,126.96" fill="#ffffff"/>
<polygon points="317.62,142.96 317.62,126.96 328.89,131.07 328.89,147.07" fill="#e0e0e0"/>
<polygon points="328.89,147.07 328.89,131.07 340.17,126.96 340.17,142.96" fill="#bcbcbc"/>
<polygon points="315.74,127.65 327.01,131.75 315.74,135.86 304.46,131.75" fill="#ffffff"/>
<polygon points="304.46,147.75 304.46,131.75 315.74,135.86 315.74,151.86" fill="#e0e0e0"/>
<polygon points="315.74,151.86 315.74,135.86 327.01,131.75 327.01,147.75" fill="#bcbcbc"/>
<polygon points="302.58,115.44 313.86,119.54 302.58,123.65 291.30,119.54" fill="#d1d1d1"/>
<polygon points="291.30,152.54 291.30,119.54 302.58,123.65 302.58,156.65" fill="#b7b7b7"/>
<polygon points="302.58,156.65 302.58,123.65 313.86,119.54 313.86,152.54" fill="#9a9a9a"/>
<polygon points="289.43,118.23 300.70,122.33 289.43,126.43 278.15,122.33" fill="#989898"/>
<polygon points="278.15,157.33 278.15,122.33 289.43,126.43 289.43,161.43" fill="#858585"/>
<polygon points="289.43,161.43 289.43,126.43 300.70,122.33 300.70,157.33" fill="#707070"/>
<polygon points="276.27,129.01 287.55,133.12 276.27,137.22 264.99,133.12" fill="#d1d1d1"/>
<polygon points="264.99,162.12 264.99,133.12 276.27,137.22 276.27,166.22" fill="#b7b7b7"/>
<polygon points="276.27,166.22 276.27,137.22 287.55,133.12 287.55,162.12" fill="#9a9a9a"/>
<polygon points="368.36,101.07 379.64,105.18 368.36,109.28 357.08,105.18" fill="#d1d1d1"/>
<polygon points="357.08,138.18 357.08,105.18 368.36,109.28 368.36,142.28" fill="#b7b7b7"/>
<polygon points="368.36,142.28 368.36,109.28 379.64,105.18 379.64,138.18" fill="#9a9a9a"/>
<polygon points="355.20,117.86 366.48,121.96 355.20,126.07 343.93,121.96" fill="#ffffff"/>
<polygon points="343.93,142.96 343.93,121.96 355.20,126.07 355.20,147.07" fill="#e0e0e0"/>
<polygon points="355.20,147.07 355.20,126.07 366.48,121.96 366.48,142.96" fill="#bcbcbc"/>
<polygon points="342.05,118.65 353.32,122.75 342.05,126.86 330.77,122.75" fill="#ffffff"/>
<polygon points="330.77,147.75 330.77,122.75 342.05,126.86 342.05,151.86" fill="#e0e0e0"/>
<polygon points="342.05,151.86 342.05,126.86 353.32,122.75 353.32,147.75" fill="#bcbcbc"/>
<polygon points="328.89,117.44 340.17,121.54 328.89,125.65 317.62,121.54" fill="#d1d1d1"/>
<polygon points="317.62,152.54 317.62,121.54 328.89,125.65 328.89,156.65" fill="#b7b7b7"/>
<polygon points="328.89,156.65 328.89,125.65 340.17,121.54 340.17,152.54" fill="#9a9a9a"/>
<polygon points="315.74,120.23 327.01,124.33 315.74,128.43 304.46,124.33" fill="#d1d1d1"/>
<polygon points="304.46,157.33 304.46,124.33 315.74,128.43 315.74,161.43" fill="#b7b7b7"/>
<polygon points="315.74,161.43 315.74,128.43 327.01,124.33 327.01,157.33" fill="#9a9a9a"/>
<polygon points="302.58,118.01 313.86,122.12 302.58,126.22 291.30,122.12" fill="#989898"/>
<polygon points="291.30,162.12 291.30,122.12 302.58,126.22 302.58,166.22" fill="#858585"/>
<polygon points="302.58,166.22 302.58,126.22 313.86,122.12 313.86,162.12" fill="#707070"/>
<polygon points="289.43,131.80 300.70,135.91 289.43,140.01 278.15,135.91" fill="#d1d1d1"/>
<polygon points="278.15,166.91 278.15,135.91 289.43,140.01 289.43,171.01" fill="#b7b7b7"/>
<polygon points="289.43,171.01 289.43,140.01 300.70,135.91 300.70,166.91" fill="#9a9a9a"/>
<polygon points="381.52,117.86 392.79,121.96 381.52,126.07 370.24,121.96" fill="#ffffff"/>
<polygon points="370.24,142.96 370.24,121.96 381.52,126.07 381.52,147.07" fill="#e0e0e0"/>
<polygon points="381.52,147.07 381.52,126.07 392.79,121.96 392.79,142.96" fill="#bcbcbc"/>
<polygon points="368.36,83.65 379.64,87.75 368.36,91.86 357.08,87.75" fill="#515151"/>
<polygon points="357.08,147.75 357.08,87.75 368.36,91.86 368.36,151.86" fill="#474747"/>
<polygon points="368.36,151.86 368.36,91.86 379.64,87.75 379.64,147.75" fill="#3b3b3b"/>
<polygon points="355.20,88.44 366.48,92.54 355.20,96.65 343.93,92.54" fill="#515151"/>
<polygon points="343.93,152.54 343.93,92.54 355.20,96.65 355.20,156.65" fill="#474747"/>
<polygon points="355.20,156.65 355.20,96.65 366.48,92.54 366.48,152.54" fill="#3b3b3b"/>
<polygon points="342.05,100.23 353.32,104.33 342.05,108.43 330.77,104.33" fill="#515151"/>
<polygon points="330.77,157.33 330.77,104.33 342.05,108.43 342.05,161.43" fill="#474747"/>
<polygon points="342.05,161.43 342.05,108.43 353.32,104.33 353.32,157.33" fill="#3b3b3b"/>
<polygon points="328.89,106.01 340.17,110.12 328.89,114.22 317.62,110.12" fill="#515151"/>
<polygon points="317.62,162.12 317.62,110.12 328.89,114.22 328.89,166.22" fill="#474747"/>
<polygon points="328.89,166.22 328.89,114.22 340.17,110.12 340.17,162.12" fill="#3b3b3b"/>
<polygon points="315.74,124.80 327.01,128.91 315.74,133.01 304.46,128.91" fill="#989898"/>
<polygon points="304.46,166.91 304.46,128.91 315.74,133.01 315.74,171.01" fill="#858585"/>
<polygon points="315.74,171.01 315.74,133.01 327.01,128.91 327.01,166.91" fill="#707070"/>
<polygon points="302.58,129.59 313.86,133.69 302.58,137.80 291.30,133.69" fill="#989898"/>
<polygon points="291.30,171.69 291.30,133.69 302.58,137.80 302.58,175.80" fill="#858585"/>
<polygon points="302.58,175.80 302.58,137.80 313.86,133.69 313.86,171.69" fill="#707070"/>
<polygon points="394.67,108.65 405.95,112.75 394.67,116.86 383.39,112.75" fill="#989898"/>
<polygon points="383.39,147.75 383.39,112.75 394.67,116.86 394.67,151.86" fill="#858585"/>
<polygon points="394.67,151.86 394.67,116.86 405.95,112.75 405.95,147.75" fill="#707070"/>
<polygon points="381.52,108.44 392.79,112.54 381.52,116.65 370.24,112.54" fill="#989898"/>
<polygon points="370.24,152.54 370.24,112.54 381.52,116.65 381.52,156.65" fill="#858585"/>
<polygon points="381.52,156.65 381.52,116.65 392.79,112.54 392.79,152.54" fill="#707070"/>
<polygon points="368.36,108.23 379.64,112.33 368.36,116.43 357.08,112.33" fill="#515151"/>
<polygon points="357.08,157.33 357.08,112.33 368.36,116.43 368.36,161.43" fill="#474747"/>
<polygon points="368.36,161.43 368.36,116.43 379.64,112.33 379.64,157.33" fill="#3b3b3b"/>
<polygon points="355.20,121.01 366.48,125.12 355.20,129.22 343.93,125.12" fill="#989898"/>
<polygon points="343.93,162.12 343.93,125.12 355.20,129.22 355.20,166.22" fill="#858585"/>
<polygon points="355.20,166.22 355.20,129.22 366.48,125.12 366.48,162.12" fill="#707070"/>
<polygon points="342.05,141.80 353.32,145.91 342.05,150.01 330.77,145.91" fill="#ffffff"/>
<polygon points="330.77,166.91 330.77,145.91 342.05,150.01 342.05,171.01" fill="#e0e0e0"/>
<polygon points="342.05,171.01 342.05,150.01 353.32,145.91 353.32,166.91" fill="#bcbcbc"/>
<polygon points="328.89,118.59 340.17,122.69 328.89,126.80 317.62,122.69" fill="#515151"/>
<polygon points="317.62,171.69 317.62,122.69 328.89,126.80 328.89,175.80" fill="#474747"/>
<polygon points="328.89,175.80 328.89,126.80 340.17,122.69 340.17,171.69" fill="#3b3b3b"/>
<polygon points="315.74,129.38 327.01,133.48 315.74,137.59 304.46,133.48" fill="#515151"/>
<polygon points="304.46,176.48 304.46,133.48 315.74,137.59 315.74,180.59" fill="#474747"/>
<polygon points="315.74,180.59 315.74,137.59 327.01,133.48 327.01,176.48" fill="#3b3b3b"/>
<polygon points="407.83,115.44 419.10,119.54 407.83,123.65 396.55,119.54" fill="#d1d1d1"/>
<polygon points="396.55,152.54 396.55,119.54 407.83,123.65 407.83,156.65" fill="#b7b7b7"/>
<polygon points="407.83,156.65 407.83,123.65 419.10,119.54 419.10,152.54" fill="#9a9a9a"/>
<polygon points="394.67,132.23 405.95,136.33 394.67,140.43 383.39,136.33" fill="#ffffff"/>
<polygon points="383.39,157.33 383.39,136.33 394.67,140.43 394.67,161.43" fill="#e0e0e0"/>
<polygon points="394.67,161.43 394.67,140.43 405.95,136.33 405.95,157.33" fill="#bcbcbc"/>
<polygon points="381.52,158.01 392.79,162.12 381.52,166.22 370.24,162.12" fill="#C2C3C6"/>
<polygon points="368.36,137.80 379.64,141.91 368.36,146.01 357.08,141.91" fill="#ffffff"/>
<polygon points="357.08,166.91 357.08,141.91 368.36,146.01 368.36,171.01" fill="#e0e0e0"/>
<polygon points="368.36,171.01 368.36,146.01 379.64,141.91 379.64,166.91" fill="#bcbcbc"/>
<polygon points="355.20,127.59 366.48,131.69 355.20,135.80 343.93,131.69" fill="#989898"/>
<polygon points="343.93,171.69 343.93,131.69 355.20,135.80 355.20,175.80" fill="#858585"/>
<polygon points="355.20,175.80 355.20,135.80 366.48,131.69 366.48,171.69" fill="#707070"/>
<polygon points="342.05,131.38 353.32,135.48 342.05,139.59 330.77,135.48" fill="#989898"/>
<polygon points="330.77,176.48 330.77,135.48 342.05,139.59 342.05,180.59" fill="#858585"/>
<polygon points="342.05,180.59 342.05,139.59 353.32,135.48 353.32,176.48" fill="#707070"/>
<polygon points="328.89,144.17 340.17,148.27 328.89,152.37 317.62,148.27" fill="#d1d1d1"/>
<polygon points="317.62,181.27 317.62,148.27 328.89,152.37 328.89,185.37" fill="#b7b7b7"/>
<polygon points="328.89,185.37 328.89,152.37 340.17,148.27 340.17,181.27" fill="#9a9a9a"/>
<polygon points="420.98,113.23 432.26,117.33 420.98,121.43 409.71,117.33" fill="#989898"/>
<polygon points="409.71,157.33 409.71,117.33 420.98,121.43 420.98,161.43" fill="#858585"/>
<polygon points="420.98,161.43 420.98,121.43 432.26,117.33 432.26,157.33" fill="#707070"/>
<polygon points="407.83,142.01 419.10,146.12 407.83,150.22 396.55,146.12" fill="#ffffff"/>
<polygon points="396.55,162.12 396.55,146.12 407.83,150.22 407.83,166.22" fill="#e0e0e0"/>
<polygon points="407.83,166.22 407.83,150.22 419.10,146.12 419.10,162.12" fill="#bcbcbc"/>
<polygon points="394.67,137.80 405.95,141.91 394.67,146.01 383.39,141.91" fill="#ffffff"/>
<polygon points="383.39,166.91 383.39,141.91 394.67,146.01 394.67,171.01" fill="#e0e0e0"/>
<polygon points="394.67,171.01 394.67,146.01 405.95,141.91 405.95,166.91" fill="#bcbcbc"/>
<polygon points="381.52,136.59 392.79,140.69 381.52,144.80 370.24,140.69" fill="#d1d1d1"/>
<polygon points="370.24,171.69 370.24,140.69 381.52,144.80 381.52,175.80" fill="#b7b7b7"/>
<polygon points="381.52,175.80 381.52,144.80 392.79,140.69 392.79,171.69" fill="#9a9a9a"/>
<polygon points="368.36,141.38 379.64,145.48 368.36,149.59 357.08,145.48" fill="#d1d1d1"/>
<polygon points="357.08,176.48 357.08,145.48 368.36,149.59 368.36,180.59" fill="#b7b7b7"/>
<polygon points="368.36,180.59 368.36,149.59 379.64,145.48 379.64,176.48" fill="#9a9a9a"/>
<polygon points="355.20,129.17 366.48,133.27 355.20,137.37 343.93,133.27" fill="#515151"/>
<polygon points="343.93,181.27 343.93,133.27 355.20,137.37 355.20,185.37" fill="#474747"/>
<polygon points="355.20,185.37 355.20,137.37 366.48,133.27 366.48,181.27" fill="#3b3b3b"/>
<polygon points="342.05,139.95 353.32,144.06 342.05,148.16 330.77,144.06" fill="#515151"/>
<polygon points="330.77,186.06 330.77,144.06 342.05,148.16 342.05,190.16" fill="#474747"/>
<polygon points="342.05,190.16 342.05,148.16 353.32,144.06 353.32,186.06" fill="#3b3b3b"/>
<polygon points="434.14,133.01 445.41,137.12 434.14,141.22 422.86,137.12" fill="#ffffff"/>
<polygon points="422.86,162.12 422.86,137.12 434.14,141.22 434.14,166.22" fill="#e0e0e0"/>
<polygon points="434.14,166.22 434.14,141.22 445.41,137.12 445.41,162.12" fill="#bcbcbc"/>
<polygon points="420.98,162.80 432.26,166.91 420.98,171.01 409.71,166.91" fill="#C2C3C6"/>
<polygon points="407.83,146.59 419.10,150.69 407.83,154.80 396.55,150.69" fill="#ffffff"/>
<polygon points="396.55,171.69 396.55,150.69 407.83,154.80 407.83,175.80" fill="#e0e0e0"/>
<polygon points="407.83,175.80 407.83,154.80 419.10,150.69 419.10,171.69" fill="#bcbcbc"/>
<polygon points="394.67,151.38 405.95,155.48 394.67,159.59 383.39,155.48" fill="#ffffff"/>
<polygon points="383.39,176.48 383.39,155.48 394.67,159.59 394.67,180.59" fill="#e0e0e0"/>
<polygon points="394.67,180.59 394.67,159.59 405.95,155.48 405.95,176.48" fill="#bcbcbc"/>
<polygon points="381.52,144.17 392.79,148.27 381.52,152.37 370.24,148.27" fill="#d1d1d1"/>
<polygon points="370.24,181.27 370.24,148.27 381.52,152.37 381.52,185.37" fill="#b7b7b7"/>
<polygon points="381.52,185.37 381.52,152.37 392.79,148.27 392.79,181.27" fill="#9a9a9a"/>
<polygon points="368.36,135.95 379.64,140.06 368.36,144.16 357.08,140.06" fill="#515151"/>
<polygon points="357.08,186.06 357.08,140.06 368.36,144.16 368.36,190.16" fill="#474747"/>
<polygon points="368.36,190.16 368.36,144.16 379.64,140.06 379.64,186.06" fill="#3b3b3b"/>
<polygon points="355.20,153.74 366.48,157.85 355.20,161.95 343.93,157.85" fill="#d1d1d1"/>
<polygon points="343.93,190.85 343.93,157.85 355.20,161.95 355.20,194.95" fill="#b7b7b7"/>
<polygon points="355.20,194.95 355.20,161.95 366.48,157.85 366.48,190.85" fill="#9a9a9a"/>
<polygon points="447.29,121.80 458.57,125.91 447.29,130.01 436.02,125.91" fill="#989898"/>
<polygon points="436.02,166.91 436.02,125.91 447.29,130.01 447.29,171.01" fill="#858585"/>
<polygon points="447.29,171.01 447.29,130.01 458.57,125.91 458.57,166.91" fill="#707070"/>
<polygon points="434.14,146.59 445.41,150.69 434.14,154.80 422.86,150.69" fill="#ffffff"/>
<polygon points="422.86,171.69 422.86,150.69 434.14,154.80 434.14,175.80" fill="#e0e0e0"/>
<polygon points="434.14,175.80 434.14,154.80 445.41,150.69 445.41,171.69" fill="#bcbcbc"/>
<polygon points="420.98,147.38 432.26,151.48 420.98,155.59 409.71,151.48" fill="#ffffff"/>
<polygon points="409.71,176.48 409.71,151.48 420.98,155.59 420.98,180.59" fill="#e0e0e0"/>
<polygon points="420.98,180.59 420.98,155.59 432.26,151.48 432.26,176.48" fill="#bcbcbc"/>
<polygon points="407.83,146.17 419.10,150.27 407.83,154.37 396.55,150.27" fill="#d1d1d1"/>
<polygon points="396.55,181.27 396.55,150.27 407.83,154.37 407.83,185.37" fill="#b7b7b7"/>
<polygon points="407.83,185.37 407.83,154.37 419.10,150.27 419.10,181.27" fill="#9a9a9a"/>
<polygon points="394.67,150.95 405.95,155.06 394.67,159.16 383.39,155.06" fill="#d1d1d1"/>
<polygon points="383.39,186.06 383.39,155.06 394.67,159.16 394.67,190.16" fill="#b7b7b7"/>
<polygon points="394.67,190.16 394.67,159.16 405.95,155.06 405.95,186.06" fill="#9a9a9a"/>
<polygon points="381.52,141.74 392.79,145.85 381.52,149.95 370.24,145.85" fill="#515151"/>
<polygon points="370.24,190.85 370.24,145.85 381.52,149.95 381.52,194.95" fill="#474747"/>
<polygon points="381.52,194.95 381.52,149.95 392.79,145.85 392.79,190.85" fill="#3b3b3b"/>
<polygon points="368.36,162.53 379.64,166.64 368.36,170.74 357.08,166.64" fill="#d1d1d1"/>
<polygon points="357.08,195.64 357.08,166.64 368.36,170.74 368.36,199.74" fill="#b7b7b7"/>
<polygon points="368.36,199.74 368.36,170.74 379.64,166.64 379.64,195.64" fill="#9a9a9a"/>
<polygon points="460.45,129.59 471.73,133.69 460.45,137.80 449.17,133.69" fill="#989898"/>
<polygon points="449.17,171.69 449.17,133.69 460.45,137.80 460.45,175.80" fill="#858585"/>
<polygon points="460.45,175.80 460.45,137.80 471.73,133.69 471.73,171.69" fill="#707070"/>
<polygon points="447.29,156.38 458.57,160.48 447.29,164.59 436.02,160.48" fill="#ffffff"/>
<polygon points="436.02,176.48 436.02,160.48 447.29,164.59 447.29,180.59" fill="#e0e0e0"/>
<polygon points="447.29,180.59 447.29,164.59 458.57,160.48 458.57,176.48" fill="#bcbcbc"/>
<polygon points="434.14,144.17 445.41,148.27 434.14,152.37 422.86,148.27" fill="#d1d1d1"/>
<polygon points="422.86,181.27 422.86,148.27 434.14,152.37 434.14,185.37" fill="#b7b7b7"/>
<polygon points="434.14,185.37 434.14,152.37 445.41,148.27 445.41,181.27" fill="#9a9a9a"/>
<polygon points="420.98,152.95 432.26,157.06 420.98,161.16 409.71,157.06" fill="#d1d1d1"/>
<polygon points="409.71,186.06 409.71,157.06 420.98,161.16 420.98,190.16" fill="#b7b7b7"/>
<polygon points="420.98,190.16 420.98,161.16 432.26,157.06 432.26,186.06" fill="#9a9a9a"/>
<polygon points="407.83,149.74 419.10,153.85 407.83,157.95 396.55,153.85" fill="#989898"/>
<polygon points="396.55,190.85 396.55,153.85 407.83,157.95 407.83,194.95" fill="#858585"/>
<polygon points="407.83,194.95 407.83,157.95 419.10,153.85 419.10,190.85" fill="#707070"/>
<polygon points="394.67,144.53 405.95,148.64 394.67,152.74 383.39,148.64" fill="#515151"/>
<polygon points="383.39,195.64 383.39,148.64 394.67,152.74 394.67,199.74" fill="#474747"/>
<polygon points="394.67,199.74 394.67,152.74 405.95,148.64 405.95,195.64" fill="#3b3b3b"/>
<polygon points="381.52,167.32 392.79,171.42 381.52,175.53 370.24,171.42" fill="#d1d1d1"/>
<polygon points="370.24,200.42 370.24,171.42 381.52,175.53 381.52,204.53" fill="#b7b7b7"/>
<polygon points="381.52,204.53 381.52,175.53 392.79,171.42 392.79,200.42" fill="#9a9a9a"/>
<polygon points="473.61,129.38 484.88,133.48 473.61,137.59 462.33,133.48" fill="#515151"/>
<polygon points="462.33,176.48 462.33,133.48 473.61,137.59 473.61,180.59" fill="#474747"/>
<polygon points="473.61,180.59 473.61,137.59 484.88,133.48 484.88,176.48" fill="#3b3b3b"/>
<polygon points="460.45,146.17 471.73,150.27 460.45,154.37 449.17,150.27" fill="#d1d1d1"/>
<polygon points="449.17,181.27 449.17,150.27 460.45,154.37 460.45,185.37" fill="#b7b7b7"/>
<polygon points="460.45,185.37 460.45,154.37 471.73,150.27 471.73,181.27" fill="#9a9a9a"/>
<polygon points="447.29,152.95 458.57,157.06 447.29,161.16 436.02,157.06" fill="#d1d1d1"/>
<polygon points="436.02,186.06 436.02,157.06 447.29,161.16 447.29,190.16" fill="#b7b7b7"/>
<polygon points="447.29,190.16 447.29,161.16 458.57,157.06 458.57,186.06" fill="#9a9a9a"/>
<polygon points="434.14,186.74 445.41,190.85 434.14,194.95 422.86,190.85" fill="#C2C3C6"/>
<polygon points="420.98,153.53 432.26,157.64 420.98,161.74 409.71,157.64" fill="#989898"/>
<polygon points="409.71,195.64 409.71,157.64 420.98,161.74 420.98,199.74" fill="#858585"/>
<polygon points="420.98,199.74 420.98,161.74 432.26,157.64 432.26,195.64" fill="#707070"/>
<polygon points="407.83,155.32 419.10,159.42 407.83,163.53 396.55,159.42" fill="#989898"/>
<polygon points="396.55,200.42 396.55,159.42 407.83,163.53 407.83,204.53" fill="#858585"/>
<polygon points="407.83,204.53 407.83,163.53 419.10,159.42 419.10,200.42" fill="#707070"/>
<polygon points="394.67,185.11 405.95,189.21 394.67,193.32 383.39,189.21" fill="#ffffff"/>
<polygon points="383.39,205.21 383.39,189.21 394.67,193.32 394.67,209.32" fill="#e0e0e0"/>
<polygon points="394.67,209.32 394.67,193.32 405.95,189.21 405.95,205.21" fill="#bcbcbc"/>
<polygon points="486.76,136.17 498.04,140.27 486.76,144.37 475.48,140.27" fill="#989898"/>
<polygon points="475.48,181.27 475.48,140.27 486.76,144.37 486.76,185.37" fill="#858585"/>
<polygon points="486.76,185.37 486.76,144.37 498.04,140.27 498.04,181.27" fill="#707070"/>
<polygon points="473.61,165.95 484.88,170.06 473.61,174.16 462.33,170.06" fill="#ffffff"/>
<polygon points="462.33,186.06 462.33,170.06 473.61,174.16 473.61,190.16" fill="#e0e0e0"/>
<polygon points="473.61,190.16 473.61,174.16 484.88,170.06 484.88,186.06" fill="#bcbcbc"/>
<polygon points="460.45,161.74 471.73,165.85 460.45,169.95 449.17,165.85" fill="#ffffff"/>
<polygon points="449.17,190.85 449.17,165.85 460.45,169.95 460.45,194.95" fill="#e0e0e0"/>
<polygon points="460.45,194.95 460.45,169.95 471.73,165.85 471.73,190.85" fill="#bcbcbc"/>
<polygon points="447.29,170.53 458.57,174.64 447.29,178.74 436.02,174.64" fill="#ffffff"/>
<polygon points="436.02,195.64 436.02,174.64 447.29,178.74 447.29,199.74" fill="#e0e0e0"/>
<polygon points="447.29,199.74 447.29,178.74 458.57,174.64 458.57,195.64" fill="#bcbcbc"/>
<polygon points="434.14,158.32 445.41,162.42 434.14,166.53 422.86,162.42" fill="#989898"/>
<polygon points="422.86,200.42 422.86,162.42 434.14,166.53 434.14,204.53" fill="#858585"/>
<polygon points="434.14,204.53 434.14,166.53 445.41,162.42 445.41,200.42" fill="#707070"/>
<polygon points="420.98,168.11 432.26,172.21 420.98,176.32 409.71,172.21" fill="#d1d1d1"/>
<polygon points="409.71,205.21 409.71,172.21 420.98,176.32 420.98,209.32" fill="#b7b7b7"/>
<polygon points="420.98,209.32 420.98,176.32 432.26,172.21 432.26,205.21" fill="#9a9a9a"/>
<polygon points="407.83,170.90 419.10,175.00 407.83,179.10 396.55,175.00" fill="#989898"/>
<polygon points="396.55,210.00 396.55,175.00 407.83,179.10 407.83,214.10" fill="#858585"/>
<polygon points="407.83,214.10 407.83,179.10 419.10,175.00 419.10,210.00" fill="#707070"/>
<polygon points="499.92,144.95 511.19,149.06 499.92,153.16 488.64,149.06" fill="#989898"/>
<polygon points="488.64,186.06 488.64,149.06 499.92,153.16 499.92,190.16" fill="#858585"/>
<polygon points="499.92,190.16 499.92,153.16 511.19,149.06 511.19,186.06" fill="#707070"/>
<polygon points="486.76,127.74 498.04,131.85 486.76,135.95 475.48,131.85" fill="#515151"/>
<polygon points="475.48,190.85 475.48,131.85 486.76,135.95 486.76,194.95" fill="#474747"/>
<polygon points="486.76,194.95 486.76,135.95 498.04,131.85 498.04,190.85" fill="#3b3b3b"/>
<polygon points="473.61,132.53 484.88,136.64 473.61,140.74 462.33,136.64" fill="#515151"/>
<polygon points="462.33,195.64 462.33,136.64 473.61,140.74 473.61,199.74" fill="#474747"/>
<polygon points="473.61,199.74 473.61,140.74 484.88,136.64 484.88,195.64" fill="#3b3b3b"/>
<polygon points="460.45,139.32 471.73,143.42 460.45,147.53 449.17,143.42" fill="#515151"/>
<polygon points="449.17,200.42 449.17,143.42 460.45,147.53 460.45,204.53" fill="#474747"/>
<polygon points="460.45,204.53 460.45,147.53 471.73,143.42 471.73,200.42" fill="#3b3b3b"/>
<polygon points="447.29,158.11 458.57,162.21 447.29,166.32 436.02,162.21" fill="#515151"/>
<polygon points="436.02,205.21 436.02,162.21 447.29,166.32 447.29,209.32" fill="#474747"/>
<polygon points="447.29,209.32 447.29,166.32 458.57,162.21 458.57,205.21" fill="#3b3b3b"/>
<polygon points="434.14,152.90 445.41,157.00 434.14,161.10 422.86,157.00" fill="#515151"/>
<polygon points="422.86,210.00 422.86,157.00 434.14,161.10 434.14,214.10" fill="#474747"/>
<polygon points="434.14,214.10 434.14,161.10 445.41,157.00 445.41,210.00" fill="#3b3b3b"/>
<polygon points="420.98,175.68 432.26,179.79 420.98,183.89 409.71,179.79" fill="#989898"/>
<polygon points="409.71,214.79 409.71,179.79 420.98,183.89 420.98,218.89" fill="#858585"/>
<polygon points="420.98,218.89 420.98,183.89 432.26,179.79 432.26,214.79" fill="#707070"/>
<polygon points="513.07,153.74 524.35,157.85 513.07,161.95 501.80,157.85" fill="#d1d1d1"/>
<polygon points="501.80,190.85 501.80,157.85 513.07,161.95 513.07,194.95" fill="#b7b7b7"/>
<polygon points="513.07,194.95 513.07,161.95 524.35,157.85 524.35,190.85" fill="#9a9a9a"/>
<polygon points="499.92,145.53 511.19,149.64 499.92,153.74 488.64,149.64" fill="#515151"/>
<polygon points="488.64,195.64 488.64,149.64 499.92,153.74 499.92,199.74" fill="#474747"/>
<polygon points="499.92,199.74 499.92,153.74 511.19,149.64 511.19,195.64" fill="#3b3b3b"/>
<polygon points="486.76,155.32 498.04,159.42 486.76,163.53 475.48,159.42" fill="#989898"/>
<polygon points="475.48,200.42 475.48,159.42 486.76,163.53 486.76,204.53" fill="#858585"/>
<polygon points="486.76,204.53 486.76,163.53 498.04,159.42 498.04,200.42" fill="#707070"/>
<polygon points="473.61,163.11 484.88,167.21 473.61,171.32 462.33,167.21" fill="#989898"/>
<polygon points="462.33,205.21 462.33,167.21 473.61,171.32 473.61,209.32" fill="#858585"/>
<polygon points="473.61,209.32 473.61,171.32 484.88,167.21 484.88,205.21" fill="#707070"/>
<polygon points="460.45,165.90 471.73,170.00 460.45,174.10 449.17,170.00" fill="#989898"/>
<polygon points="449.17,210.00 449.17,170.00 460.45,174.10 460.45,214.10" fill="#858585"/>
<polygon points="460.45,214.10 460.45,174.10 471.73,170.00 471.73,210.00" fill="#707070"/>
<polygon points="447.29,159.68 458.57,163.79 447.29,167.89 436.02,163.79" fill="#515151"/>
<polygon points="436.02,214.79 436.02,163.79 447.29,167.89 447.29,218.89" fill="#474747"/>
<polygon points="447.29,218.89 447.29,167.89 458.57,163.79 458.57,214.79" fill="#3b3b3b"/>
<polygon points="434.14,182.47 445.41,186.58 434.14,190.68 422.86,186.58" fill="#d1d1d1"/>
<polygon points="422.86,219.58 422.86,186.58 434.14,190.68 434.14,223.68" fill="#b7b7b7"/>
<polygon points="434.14,223.68 434.14,190.68 445.41,186.58 445.41,219.58" fill="#9a9a9a"/>
<polygon points="526.23,166.53 537.50,170.64 526.23,174.74 514.95,170.64" fill="#ffffff"/>
<polygon points="514.95,195.64 514.95,170.64 526.23,174.74 526.23,199.74" fill="#e0e0e0"/>
<polygon points="526.23,199.74 526.23,174.74 537.50,170.64 537.50,195.64" fill="#bcbcbc"/>
<polygon points="513.07,161.32 524.35,165.42 513.07,169.53 501.80,165.42" fill="#989898"/>
<polygon points="501.80,200.42 501.80,165.42 513.07,169.53 513.07,204.53" fill="#858585"/>
<polygon points="513.07,204.53 513.07,169.53 524.35,165.42 524.35,200.42" fill="#707070"/>
<polygon points="499.92,185.11 511.19,189.21 499.92,193.32 488.64,189.21" fill="#ffffff"/>
<polygon points="488.64,205.21 488.64,189.21 499.92,193.32 499.92,209.32" fill="#e0e0e0"/>
<polygon points="499.92,209.32 499.92,193.32 511.19,189.21 511.19,205.21" fill="#bcbcbc"/>
<polygon points="486.76,184.90 498.04,189.00 486.76,193.10 475.48,189.00" fill="#ffffff"/>
<polygon points="475.48,210.00 475.48,189.00 486.76,193.10 486.76,214.10" fill="#e0e0e0"/>
<polygon points="486.76,214.10 486.76,193.10 498.04,189.00 498.04,210.00" fill="#bcbcbc"/>
<polygon points="473.61,177.68 484.88,181.79 473.61,185.89 462.33,181.79" fill="#d1d1d1"/>
<polygon points="462.33,214.79 462.33,181.79 473.61,185.89 473.61,218.89" fill="#b7b7b7"/>
<polygon points="473.61,218.89 473.61,185.89 484.88,181.79 484.88,214.79" fill="#9a9a9a"/>
<polygon points="460.45,174.47 471.73,178.58 460.45,182.68 449.17,178.58" fill="#989898"/>
<polygon points="449.17,219.58 449.17,178.58 460.45,182.68 460.45,223.68" fill="#858585"/>
<polygon points="460.45,223.68 460.45,182.68 471.73,178.58 471.73,219.58" fill="#707070"/>
<polygon points="447.29,199.26 458.57,203.37 447.29,207.47 436.02,203.37" fill="#ffffff"/>
<polygon points="436.02,224.37 436.02,203.37 447.29,207.47 447.29,228.47" fill="#e0e0e0"/>
<polygon points="447.29,228.47 447.29,207.47 458.57,203.37 458.57,224.37" fill="#bcbcbc"/>
<polygon points="539.38,163.32 550.66,167.42 539.38,171.53 528.11,167.42" fill="#d1d1d1"/>
<polygon points="528.11,200.42 528.11,167.42 539.38,171.53 539.38,204.53" fill="#b7b7b7"/>
<polygon points="539.38,204.53 539.38,171.53 550.66,167.42 550.66,200.42" fill="#9a9a9a"/>
<polygon points="526.23,180.11 537.50,184.21 526.23,188.32 514.95,184.21" fill="#ffffff"/>
<polygon points="514.95,205.21 514.95,184.21 526.23,188.32 526.23,209.32" fill="#e0e0e0"/>
<polygon points="526.23,209.32 526.23,188.32 537.50,184.21 537.50,205.21" fill="#bcbcbc"/>
<polygon points="513.07,168.90 524.35,173.00 513.07,177.10 501.80,173.00" fill="#989898"/>
<polygon points="501.80,210.00 501.80,173.00 513.07,177.10 513.07,214.10" fill="#858585"/>
<polygon points="513.07,214.10 513.07,177.10 524.35,173.00 524.35,210.00" fill="#707070"/>
<polygon points="499.92,181.68 511.19,185.79 499.92,189.89 488.64,185.79" fill="#d1d1d1"/>
<polygon points="488.64,214.79 488.64,185.79 499.92,189.89 499.92,218.89" fill="#b7b7b7"/>
<polygon points="499.92,218.89 499.92,189.89 511.19,185.79 511.19,214.79" fill="#9a9a9a"/>
<polygon points="486.76,182.47 498.04,186.58 486.76,190.68 475.48,186.58" fill="#d1d1d1"/>
<polygon points="475.48,219.58 475.48,186.58 486.76,190.68 486.76,223.68" fill="#b7b7b7"/>
<polygon points="486.76,223.68 486.76,190.68 498.04,186.58 498.04,219.58" fill="#9a9a9a"/>
<polygon points="473.61,177.26 484.88,181.37 473.61,185.47 462.33,181.37" fill="#515151"/>
<polygon points="462.33,224.37 462.33,181.37 473.61,185.47 473.61,228.47" fill="#474747"/>
<polygon points="473.61,228.47 473.61,185.47 484.88,181.37 484.88,224.37" fill="#3b3b3b"/>
<polygon points="460.45,188.05 471.73,192.15 460.45,196.26 449.17,192.15" fill="#989898"/>
<polygon points="449.17,229.15 449.17,192.15 460.45,196.26 460.45,233.26" fill="#858585"/>
<polygon points="460.45,233.26 460.45,196.26 471.73,192.15 471.73,229.15" fill="#707070"/>
<polygon points="552.54,176.11 563.82,180.21 552.54,184.32 541.26,180.21" fill="#ffffff"/>
<polygon points="541.26,205.21 541.26,180.21 552.54,184.32 552.54,209.32" fill="#e0e0e0"/>
<polygon points="552.54,209.32 552.54,184.32 563.82,180.21 563.82,205.21" fill="#bcbcbc"/>
<polygon points="539.38,189.90 550.66,194.00 539.38,198.10 528.11,194.00" fill="#ffffff"/>
<polygon points="528.11,210.00 528.11,194.00 539.38,198.10 539.38,214.10" fill="#e0e0e0"/>
<polygon points="539.38,214.10 539.38,198.10 550.66,194.00 550.66,210.00" fill="#bcbcbc"/>
<polygon points="526.23,194.68 537.50,198.79 526.23,202.89 514.95,198.79" fill="#ffffff"/>
<polygon points="514.95,214.79 514.95,198.79 526.23,202.89 526.23,218.89" fill="#e0e0e0"/>
<polygon points="526.23,218.89 526.23,202.89 537.50,198.79 537.50,214.79" fill="#bcbcbc"/>
<polygon points="513.07,169.47 524.35,173.58 513.07,177.68 501.80,173.58" fill="#515151"/>
<polygon points="501.80,219.58 501.80,173.58 513.07,177.68 513.07,223.68" fill="#474747"/>
<polygon points="513.07,223.68 513.07,177.68 524.35,173.58 524.35,219.58" fill="#3b3b3b"/>
<polygon points="499.92,191.26 511.19,195.37 499.92,199.47 488.64,195.37" fill="#d1d1d1"/>
<polygon points="488.64,224.37 488.64,195.37 499.92,199.47 499.92,228.47" fill="#b7b7b7"/>
<polygon points="499.92,228.47 499.92,199.47 511.19,195.37 511.19,224.37" fill="#9a9a9a"/>
<polygon points="486.76,175.05 498.04,179.15 486.76,183.26 475.48,179.15" fill="#515151"/>
<polygon points="475.48,229.15 475.48,179.15 486.76,183.26 486.76,233.26" fill="#474747"/>
<polygon points="486.76,233.26 486.76,183.26 498.04,179.15 498.04,229.15" fill="#3b3b3b"/>
<polygon points="473.61,208.84 484.88,212.94 473.61,217.05 462.33,212.94" fill="#ffffff"/>
<polygon points="462.33,233.94 462.33,212.94 473.61,217.05 473.61,238.05" fill="#e0e0e0"/>
<polygon points="473.61,238.05 473.61,217.05 484.88,212.94 484.88,233.94" fill="#bcbcbc"/>
<polygon points="565.69,167.90 576.97,172.00 565.69,176.10 554.42,172.00" fill="#989898"/>
<polygon points="554.42,210.00 554.42,172.00 565.69,176.10 565.69,214.10" fill="#858585"/>
<polygon points="565.69,214.10 565.69,176.10 576.97,172.00 576.97,210.00" fill="#707070"/>
<polygon points="552.54,185.68 563.82,189.79 552.54,193.89 541.26,189.79" fill="#ffffff"/>
<polygon points="541.26,214.79 541.26,189.79 552.54,193.89 552.54,218.89" fill="#e0e0e0"/>
<polygon points="552.54,218.89 552.54,193.89 563.82,189.79 563.82,214.79" fill="#bcbcbc"/>
<polygon points="539.38,182.47 550.66,186.58 539.38,190.68 528.11,186.58" fill="#d1d1d1"/>
<polygon points="528.11,219.58 528.11,186.58 539.38,190.68 539.38,223.68" fill="#b7b7b7"/>
<polygon points="539.38,223.68 539.38,190.68 550.66,186.58 550.66,219.58" fill="#9a9a9a"/>
<polygon points="526.23,199.26 537.50,203.37 526.23,207.47 514.95,203.37" fill="#ffffff"/>
<polygon points="514.95,224.37 514.95,203.37 526.23,207.47 526.23,228.47" fill="#e0e0e0"/>
<polygon points="526.23,228.47 526.23,207.47 537.50,203.37 537.50,224.37" fill="#bcbcbc"/>
<polygon points="513.07,192.05 524.35,196.15 513.07,200.26 501.80,196.15" fill="#d1d1d1"/>
<polygon points="501.80,229.15 501.80,196.15 513.07,200.26 513.07,233.26" fill="#b7b7b7"/>
<polygon points="513.07,233.26 513.07,200.26 524.35,196.15 524.35,229.15" fill="#9a9a9a"/>
<polygon points="499.92,177.84 511.19,181.94 499.92,186.05 488.64,181.94" fill="#515151"/>
<polygon points="488.64,233.94 488.64,181.94 499.92,186.05 499.92,238.05" fill="#474747"/>
<polygon points="499.92,238.05 499.92,186.05 511.19,181.94 511.19,233.94" fill="#3b3b3b"/>
<polygon points="486.76,193.63 498.04,197.73 486.76,201.83 475.48,197.73" fill="#989898"/>
<polygon points="475.48,238.73 475.48,197.73 486.76,201.83 486.76,242.83" fill="#858585"/>
<polygon points="486.76,242.83 486.76,201.83 498.04,197.73 498.04,238.73" fill="#707070"/>
<polygon points="578.85,170.68 590.13,174.79 578.85,178.89 567.57,174.79" fill="#989898"/>
<polygon points="567.57,214.79 567.57,174.79 578.85,178.89 578.85,218.89" fill="#858585"/>
<polygon points="578.85,218.89 578.85,178.89 590.13,174.79 590.13,214.79" fill="#707070"/>
<polygon points="565.69,190.47 576.97,194.58 565.69,198.68 554.42,194.58" fill="#ffffff"/>
<polygon points="554.42,219.58 554.42,194.58 565.69,198.68 565.69,223.68" fill="#e0e0e0"/>
<polygon points="565.69,223.68 565.69,198.68 576.97,194.58 576.97,219.58" fill="#bcbcbc"/>
<polygon points="552.54,195.26 563.82,199.37 552.54,203.47 541.26,199.37" fill="#ffffff"/>
<polygon points="541.26,224.37 541.26,199.37 552.54,203.47 552.54,228.47" fill="#e0e0e0"/>
<polygon points="552.54,228.47 552.54,203.47 563.82,199.37 563.82,224.37" fill="#bcbcbc"/>
<polygon points="539.38,225.05 550.66,229.15 539.38,233.26 528.11,229.15" fill="#C2C3C6"/>
<polygon points="526.23,191.84 537.50,195.94 526.23,200.05 514.95,195.94" fill="#989898"/>
<polygon points="514.95,233.94 514.95,195.94 526.23,200.05 526.23,238.05" fill="#858585"/>
<polygon points="526.23,238.05 526.23,200.05 537.50,195.94 537.50,233.94" fill="#707070"/>
<polygon points="513.07,188.63 524.35,192.73 513.07,196.83 501.80,192.73" fill="#515151"/>
<polygon points="501.80,238.73 501.80,192.73 513.07,196.83 513.07,242.83" fill="#474747"/>
<polygon points="513.07,242.83 513.07,196.83 524.35,192.73 524.35,238.73" fill="#3b3b3b"/>
<polygon points="499.92,199.41 511.19,203.52 499.92,207.62 488.64,203.52" fill="#989898"/>
<polygon points="488.64,243.52 488.64,203.52 499.92,207.62 499.92,247.62" fill="#858585"/>
<polygon points="499.92,247.62 499.92,207.62 511.19,203.52 511.19,243.52" fill="#707070"/>
<polygon points="592.01,166.47 603.28,170.58 592.01,174.68 580.73,170.58" fill="#515151"/>
<polygon points="580.73,219.58 580.73,170.58 592.01,174.68 592.01,223.68" fill="#474747"/>
<polygon points="592.01,223.68 592.01,174.68 603.28,170.58 603.28,219.58" fill="#3b3b3b"/>
<polygon points="578.85,177.26 590.13,181.37 578.85,185.47 567.57,181.37" fill="#515151"/>
<polygon points="567.57,224.37 567.57,181.37 578.85,185.47 578.85,228.47" fill="#474747"/>
<polygon points="578.85,228.47 578.85,185.47 590.13,181.37 590.13,224.37" fill="#3b3b3b"/>
<polygon points="565.69,188.05 576.97,192.15 565.69,196.26 554.42,192.15" fill="#989898"/>
<polygon points="554.42,229.15 554.42,192.15 565.69,196.26 565.69,233.26" fill="#858585"/>
<polygon points="565.69,233.26 565.69,196.26 576.97,192.15 576.97,229.15" fill="#707070"/>
<polygon points="552.54,204.84 563.82,208.94 552.54,213.05 541.26,208.94" fill="#ffffff"/>
<polygon points="541.26,233.94 541.26,208.94 552.54,213.05 552.54,238.05" fill="#e0e0e0"/>
<polygon points="552.54,238.05 552.54,213.05 563.82,208.94 563.82,233.94" fill="#bcbcbc"/>
<polygon points="539.38,205.63 550.66,209.73 539.38,213.83 528.11,209.73" fill="#d1d1d1"/>
<polygon points="528.11,238.73 528.11,209.73 539.38,213.83 539.38,242.83" fill="#b7b7b7"/>
<polygon points="539.38,242.83 539.38,213.83 550.66,209.73 550.66,238.73" fill="#9a9a9a"/>
<polygon points="526.23,197.41 537.50,201.52 526.23,205.62 514.95,201.52" fill="#515151"/>
<polygon points="514.95,243.52 514.95,201.52 526.23,205.62 526.23,247.62" fill="#474747"/>
<polygon points="526.23,247.62 526.23,205.62 537.50,201.52 537.50,243.52" fill="#3b3b3b"/>
<polygon points="513.07,201.20 524.35,205.31 513.07,209.41 501.80,205.31" fill="#515151"/>
<polygon points="501.80,248.31 501.80,205.31 513.07,209.41 513.07,252.41" fill="#474747"/>
<polygon points="513.07,252.41 513.07,209.41 524.35,205.31 524.35,248.31" fill="#3b3b3b"/>
<polygon points="605.16,182.26 616.44,186.37 605.16,190.47 593.89,186.37" fill="#989898"/>
<polygon points="593.89,224.37 593.89,186.37 605.16,190.47 605.16,228.47" fill="#858585"/>
<polygon points="605.16,228.47 605.16,190.47 616.44,186.37 616.44,224.37" fill="#707070"/>
<polygon points="592.01,192.05 603.28,196.15 592.01,200.26 580.73,196.15" fill="#d1d1d1"/>
<polygon points="580.73,229.15 580.73,196.15 592.01,200.26 592.01,233.26" fill="#b7b7b7"/>
<polygon points="592.01,233.26 592.01,200.26 603.28,196.15 603.28,229.15" fill="#9a9a9a"/>
<polygon points="578.85,186.84 590.13,190.94 578.85,195.05 567.57,190.94" fill="#515151"/>
<polygon points="567.57,233.94 567.57,190.94 578.85,195.05 578.85,238.05" fill="#474747"/>
<polygon points="578.85,238.05 578.85,195.05 590.13,190.94 590.13,233.94" fill="#3b3b3b"/>
<polygon points="565.69,197.63 576.97,201.73 565.69,205.83 554.42,201.73" fill="#989898"/>
<polygon points="554.42,238.73 554.42,201.73 565.69,205.83 565.69,242.83" fill="#858585"/>
<polygon points="565.69,242.83 565.69,205.83 576.97,201.73 576.97,238.73" fill="#707070"/>
<polygon points="552.54,197.41 563.82,201.52 552.54,205.62 541.26,201.52" fill="#515151"/>
<polygon points="541.26,243.52 541.26,201.52 552.54,205.62 552.54,247.62" fill="#474747"/>
<polygon points="552.54,247.62 552.54,205.62 563.82,201.52 563.82,243.52" fill="#3b3b3b"/>
<polygon points="539.38,201.20 550.66,205.31 539.38,209.41 528.11,205.31" fill="#515151"/>
<polygon points="528.11,248.31 528.11,205.31 539.38,209.41 539.38,252.41" fill="#474747"/>
<polygon points="539.38,252.41 539.38,209.41 550.66,205.31 550.66,248.31" fill="#3b3b3b"/>
<polygon points="526.23,223.99 537.50,228.09 526.23,232.20 514.95,228.09" fill="#ffffff"/>
<polygon points="514.95,253.09 514.95,228.09 526.23,232.20 526.23,257.20" fill="#e0e0e0"/>
<polygon points="526.23,257.20 526.23,232.20 537.50,228.09 537.50,253.09" fill="#bcbcbc"/>
<polygon points="618.32,204.05 629.59,208.15 618.32,212.26 607.04,208.15" fill="#ffffff"/>
<polygon points="607.04,229.15 607.04,208.15 618.32,212.26 618.32,233.26" fill="#e0e0e0"/>
<polygon points="618.32,233.26 618.32,212.26 629.59,208.15 629.59,229.15" fill="#bcbcbc"/>
<polygon points="605.16,169.84 616.44,173.94 605.16,178.05 593.89,173.94" fill="#515151"/>
<polygon points="593.89,233.94 593.89,173.94 605.16,178.05 605.16,238.05" fill="#474747"/>
<polygon points="605.16,238.05 605.16,178.05 616.44,173.94 616.44,233.94" fill="#3b3b3b"/>
<polygon points="592.01,174.63 603.28,178.73 592.01,182.83 580.73,178.73" fill="#515151"/>
<polygon points="580.73,238.73 580.73,178.73 592.01,182.83 592.01,242.83" fill="#474747"/>
<polygon points="592.01,242.83 592.01,182.83 603.28,178.73 603.28,238.73" fill="#3b3b3b"/>
<polygon points="578.85,187.41 590.13,191.52 578.85,195.62 567.57,191.52" fill="#515151"/>
<polygon points="567.57,243.52 567.57,191.52 578.85,195.62 578.85,247.62" fill="#474747"/>
<polygon points="578.85,247.62 578.85,195.62 590.13,191.52 590.13,243.52" fill="#3b3b3b"/>
<polygon points="565.69,195.20 576.97,199.31 565.69,203.41 554.42,199.31" fill="#515151"/>
<polygon points="554.42,248.31 554.42,199.31 565.69,203.41 565.69,252.41" fill="#474747"/>
<polygon points="565.69,252.41 565.69,203.41 576.97,199.31 576.97,248.31" fill="#3b3b3b"/>
<polygon points="552.54,207.99 563.82,212.09 552.54,216.20 541.26,212.09" fill="#989898"/>
<polygon points="541.26,253.09 541.26,212.09 552.54,216.20 552.54,257.20" fill="#858585"/>
<polygon points="552.54,257.20 552.54,216.20 563.82,212.09 563.82,253.09" fill="#707070"/>
<polygon points="539.38,218.78 550.66,222.88 539.38,226.99 528.11,222.88" fill="#989898"/>
<polygon points="528.11,257.88 528.11,222.88 539.38,226.99 539.38,261.99" fill="#858585"/>
<polygon points="539.38,261.99 539.38,226.99 550.66,222.88 550.66,257.88" fill="#707070"/>
<polygon points="631.47,192.84 642.75,196.94 631.47,201.05 620.20,196.94" fill="#989898"/>
<polygon points="620.20,233.94 620.20,196.94 631.47,201.05 631.47,238.05" fill="#858585"/>
<polygon points="631.47,238.05 631.47,201.05 642.75,196.94 642.75,233.94" fill="#707070"/>
<polygon points="618.32,193.63 629.59,197.73 618.32,201.83 607.04,197.73" fill="#989898"/>
<polygon points="607.04,238.73 607.04,197.73 618.32,201.83 618.32,242.83" fill="#858585"/>
<polygon points="618.32,242.83 618.32,201.83 629.59,197.73 629.59,238.73" fill="#707070"/>
<polygon points="605.16,189.41 616.44,193.52 605.16,197.62 593.89,193.52" fill="#515151"/>
<polygon points="593.89,243.52 593.89,193.52 605.16,197.62 605.16,247.62" fill="#474747"/>
<polygon points="605.16,247.62 605.16,197.62 616.44,193.52 616.44,243.52" fill="#3b3b3b"/>
<polygon points="592.01,203.20 603.28,207.31 592.01,211.41 580.73,207.31" fill="#989898"/>
<polygon points="580.73,248.31 580.73,207.31 592.01,211.41 592.01,252.41" fill="#858585"/>
<polygon points="592.01,252.41 592.01,211.41 603.28,207.31 603.28,248.31" fill="#707070"/>
<polygon points="578.85,202.99 590.13,207.09 578.85,211.20 567.57,207.09" fill="#515151"/>
<polygon points="567.57,253.09 567.57,207.09 578.85,211.20 578.85,257.20" fill="#474747"/>
<polygon points="578.85,257.20 578.85,211.20 590.13,207.09 590.13,253.09" fill="#3b3b3b"/>
<polygon points="565.69,207.78 576.97,211.88 565.69,215.99 554.42,211.88" fill="#515151"/>
<polygon points="554.42,257.88 554.42,211.88 565.69,215.99 565.69,261.99" fill="#474747"/>
<polygon points="565.69,261.99 565.69,215.99 576.97,211.88 576.97,257.88" fill="#3b3b3b"/>
<polygon points="552.54,225.57 563.82,229.67 552.54,233.78 541.26,229.67" fill="#d1d1d1"/>
<polygon points="541.26,262.67 541.26,229.67 552.54,233.78 552.54,266.78" fill="#b7b7b7"/>
<polygon points="552.54,266.78 552.54,233.78 563.82,229.67 563.82,262.67" fill="#9a9a9a"/>
<polygon points="644.63,209.63 655.91,213.73 644.63,217.83 633.35,213.73" fill="#ffffff"/>
<polygon points="633.35,238.73 633.35,213.73 644.63,217.83 644.63,242.83" fill="#e0e0e0"/>
<polygon points="644.63,242.83 644.63,217.83 655.91,213.73 655.91,238.73" fill="#bcbcbc"/>
<polygon points="631.47,239.41 642.75,243.52 631.47,247.62 620.20,243.52" fill="#C2C3C6"/>
<polygon points="618.32,228.20 629.59,232.31 618.32,236.41 607.04,232.31" fill="#ffffff"/>
<polygon points="607.04,248.31 607.04,232.31 618.32,236.41 618.32,252.41" fill="#e0e0e0"/>
<polygon points="618.32,252.41 618.32,236.41 629.59,232.31 629.59,248.31" fill="#bcbcbc"/>
<polygon points="605.16,232.99 616.44,237.09 605.16,241.20 593.89,237.09" fill="#ffffff"/>
<polygon points="593.89,253.09 593.89,237.09 605.16,241.20 605.16,257.20" fill="#e0e0e0"/>
<polygon points="605.16,257.20 605.16,241.20 616.44,237.09 616.44,253.09" fill="#bcbcbc"/>
<polygon points="592.01,218.78 603.28,222.88 592.01,226.99 580.73,222.88" fill="#989898"/>
<polygon points="580.73,257.88 580.73,222.88 592.01,226.99 592.01,261.99" fill="#858585"/>
<polygon points="592.01,261.99 592.01,226.99 603.28,222.88 603.28,257.88" fill="#707070"/>
<polygon points="578.85,220.57 590.13,224.67 578.85,228.78 567.57,224.67" fill="#989898"/>
<polygon points="567.57,262.67 567.57,224.67 578.85,228.78 578.85,266.78" fill="#858585"/>
<polygon points="578.85,266.78 578.85,228.78 590.13,224.67 590.13,262.67" fill="#707070"/>
<polygon points="565.69,242.36 576.97,246.46 565.69,250.56 554.42,246.46" fill="#ffffff"/>
<polygon points="554.42,267.46 554.42,246.46 565.69,250.56 565.69,271.56" fill="#e0e0e0"/>
<polygon points="565.69,271.56 565.69,250.56 576.97,246.46 576.97,267.46" fill="#bcbcbc"/>
<polygon points="657.78,204.41 669.06,208.52 657.78,212.62 646.51,208.52" fill="#989898"/>
<polygon points="646.51,243.52 646.51,208.52 657.78,212.62 657.78,247.62" fill="#858585"/>
<polygon points="657.78,247.62 657.78,212.62 669.06,208.52 669.06,243.52" fill="#707070"/>
<polygon points="644.63,228.20 655.91,232.31 644.63,236.41 633.35,232.31" fill="#ffffff"/>
<polygon points="633.35,248.31 633.35,232.31 644.63,236.41 644.63,252.41" fill="#e0e0e0"/>
<polygon points="644.63,252.41 644.63,236.41 655.91,232.31 655.91,248.31" fill="#bcbcbc"/>
<polygon points="631.47,232.99 642.75,237.09 631.47,241.20 620.20,237.09" fill="#ffffff"/>
<polygon points="620.20,253.09 620.20,237.09 631.47,241.20 631.47,257.20" fill="#e0e0e0"/>
<polygon points="631.47,257.20 631.47,241.20 642.75,237.09 642.75,253.09" fill="#bcbcbc"/>
<polygon points="618.32,237.78 629.59,241.88 618.32,245.99 607.04,241.88" fill="#ffffff"/>
<polygon points="607.04,257.88 607.04,241.88 618.32,245.99 618.32,261.99" fill="#e0e0e0"/>
<polygon points="618.32,261.99 618.32,245.99 629.59,241.88 629.59,257.88" fill="#bcbcbc"/>
<polygon points="605.16,237.57 616.44,241.67 605.16,245.78 593.89,241.67" fill="#ffffff"/>
<polygon points="593.89,262.67 593.89,241.67 605.16,245.78 605.16,266.78" fill="#e0e0e0"/>
<polygon points="605.16,266.78 605.16,245.78 616.44,241.67 616.44,262.67" fill="#bcbcbc"/>
<polygon points="592.01,222.36 603.28,226.46 592.01,230.56 580.73,226.46" fill="#989898"/>
<polygon points="580.73,267.46 580.73,226.46 592.01,230.56 592.01,271.56" fill="#858585"/>
<polygon points="592.01,271.56 592.01,230.56 603.28,226.46 603.28,267.46" fill="#707070"/>
<polygon points="578.85,233.14 590.13,237.25 578.85,241.35 567.57,237.25" fill="#989898"/>
<polygon points="567.57,272.25 567.57,237.25 578.85,241.35 578.85,276.35" fill="#858585"/>
<polygon points="578.85,276.35 578.85,241.35 590.13,237.25 590.13,272.25" fill="#707070"/>
<polygon points="670.94,206.20 682.22,210.31 670.94,214.41 659.66,210.31" fill="#989898"/>
<polygon points="659.66,248.31 659.66,210.31 670.94,214.41 670.94,252.41" fill="#858585"/>
<polygon points="670.94,252.41 670.94,214.41 682.22,210.31 682.22,248.31" fill="#707070"/>
<polygon points="657.78,217.99 669.06,222.09 657.78,226.20 646.51,222.09" fill="#d1d1d1"/>
<polygon points="646.51,253.09 646.51,222.09 657.78,226.20 657.78,257.20" fill="#b7b7b7"/>
<polygon points="657.78,257.20 657.78,226.20 669.06,222.09 669.06,253.09" fill="#9a9a9a"/>
<polygon points="644.63,232.78 655.91,236.88 644.63,240.99 633.35,236.88" fill="#ffffff"/>
<polygon points="633.35,257.88 633.35,236.88 644.63,240.99 644.63,261.99" fill="#e0e0e0"/>
<polygon points="644.63,261.99 644.63,240.99 655.91,236.88 655.91,257.88" fill="#bcbcbc"/>
<polygon points="631.47,237.57 642.75,241.67 631.47,245.78 620.20,241.67" fill="#ffffff"/>
<polygon points="620.20,262.67 620.20,241.67 631.47,245.78 631.47,266.78" fill="#e0e0e0"/>
<polygon points="631.47,266.78 631.47,245.78 642.75,241.67 642.75,262.67" fill="#bcbcbc"/>
<polygon points="618.32,228.36 629.59,232.46 618.32,236.56 607.04,232.46" fill="#989898"/>
<polygon points="607.04,267.46 607.04,232.46 618.32,236.56 618.32,271.56" fill="#858585"/>
<polygon points="618.32,271.56 618.32,236.56 629.59,232.46 629.59,267.46" fill="#707070"/>
<polygon points="605.16,227.14 616.44,231.25 605.16,235.35 593.89,231.25" fill="#989898"/>
<polygon points="593.89,272.25 593.89,231.25 605.16,235.35 605.16,276.35" fill="#858585"/>
<polygon points="605.16,276.35 605.16,235.35 616.44,231.25 616.44,272.25" fill="#707070"/>
<polygon points="592.01,243.93 603.28,248.04 592.01,252.14 580.73,248.04" fill="#d1d1d1"/>
<polygon points="580.73,277.04 580.73,248.04 592.01,252.14 592.01,281.14" fill="#b7b7b7"/>
<polygon points="592.01,281.14 592.01,252.14 603.28,248.04 603.28,277.04" fill="#9a9a9a"/>
<polygon points="684.10,213.99 695.37,218.09 684.10,222.20 672.82,218.09" fill="#989898"/>
<polygon points="672.82,253.09 672.82,218.09 684.10,222.20 684.10,257.20" fill="#858585"/>
<polygon points="684.10,257.20 684.10,222.20 695.37,218.09 695.37,253.09" fill="#707070"/>
<polygon points="670.94,253.78 682.22,257.88 670.94,261.99 659.66,257.88" fill="#C2C3C6"/>
<polygon points="657.78,258.57 669.06,262.67 657.78,266.78 646.51,262.67" fill="#C2C3C6"/>
<polygon points="644.63,263.36 655.91,267.46 644.63,271.56 633.35,267.46" fill="#C2C3C6"/>
<polygon points="631.47,268.14 642.75,272.25 631.47,276.35 620.20,272.25" fill="#C2C3C6"/>
<polygon points="618.32,272.93 629.59,277.04 618.32,281.14 607.04,277.04" fill="#C2C3C6"/>
<polygon points="605.16,277.72 616.44,281.82 605.16,285.93 593.89,281.82" fill="#C2C3C6"/>
<text x="364.25" y="-164.00" font-family='-apple-system, BlinkMacSystemFont, "Segoe UI", Helvetica, Arial, sans-serif' font-size="15" font-weight="700" fill="#1f2328">Contributions/Submissions</text>
<rect x="364.25" y="-146.00" width="340.00" height="92.00" rx="10" fill="#ffffff" stroke="#d0d7de" stroke-width="0.8" fill-opacity="0.96"/>
<text x="386.25" y="-112.00" font-family='-apple-system, BlinkMacSystemFont, "Segoe UI", Helvetica, Arial, sans-serif' font-size="26" font-weight="700" fill="#515151">3,212</text>
<text x="386.25" y="-90.00" font-family='-apple-system, BlinkMacSystemFont, "Segoe UI", Helvetica, Arial, sans-serif' font-size="12" font-weight="600" fill="#1f2328">This year</text>
<text x="386.25" y="-72.00" font-family='-apple-system, BlinkMacSystemFont, "Segoe UI", Helvetica, Arial, sans-serif' font-size="10.5" fill="#59636e">Jul 20 → Jul 25</text>
<text x="499.59" y="-112.00" font-family='-apple-system, BlinkMacSystemFont, "Segoe UI", Helvetica, Arial, sans-serif' font-size="26" font-weight="700" fill="#515151">7</text>
<text x="499.59" y="-90.00" font-family='-apple-system, BlinkMacSystemFont, "Segoe UI", Helvetica, Arial, sans-serif' font-size="12" font-weight="600" fill="#1f2328">This week</text>
<text x="499.59" y="-72.00" font-family='-apple-system, BlinkMacSystemFont, "Segoe UI", Helvetica, Arial, sans-serif' font-size="10.5" fill="#59636e">Jul 19 → Jul 25</text>
<text x="612.92" y="-112.00" font-family='-apple-system, BlinkMacSystemFont, "Segoe UI", Helvetica, Arial, sans-serif' font-size="26" font-weight="700" fill="#515151">61</text>
<text x="612.92" y="-90.00" font-family='-apple-system, BlinkMacSystemFont, "Segoe UI", Helvetica, Arial, sans-serif' font-size="12" font-weight="600" fill="#1f2328">Best day</text>
<text x="612.92" y="-72.00" font-family='-apple-system, BlinkMacSystemFont, "Segoe UI", Helvetica, Arial, sans-serif' font-size="10.5" fill="#59636e">Jul 28</text>
<text x="704.25" y="-34.00" text-anchor="end" font-family='-apple-system, BlinkMacSystemFont, "Segoe UI", Helvetica, Arial, sans-serif' font-size="12" fill="#59636e">Average: <tspan font-weight="700" fill="#515151">8.7</tspan> / day</text>
<text x="-85.09" y="316.30" font-family='-apple-system, BlinkMacSystemFont, "Segoe UI", Helvetica, Arial, sans-serif' font-size="15" font-weight="700" fill="#1f2328">Streaks</text>
<rect x="-85.09" y="328.30" width="320.00" height="92.00" rx="10" fill="#ffffff" stroke="#d0d7de" stroke-width="0.8" fill-opacity="0.96"/>
<text x="-63.09" y="362.30" font-family='-apple-system, BlinkMacSystemFont, "Segoe UI", Helvetica, Arial, sans-serif' font-size="26" font-weight="700" fill="#515151">67<tspan font-size="12" font-weight="600" fill="#1f2328"> days</tspan></text>
<text x="-63.09" y="384.30" font-family='-apple-system, BlinkMacSystemFont, "Segoe UI", Helvetica, Arial, sans-serif' font-size="12" font-weight="600" fill="#1f2328">Longest</text>
<text x="-63.09" y="402.30" font-family='-apple-system, BlinkMacSystemFont, "Segoe UI", Helvetica, Arial, sans-serif' font-size="10.5" fill="#59636e">Dec 19 → Feb 23</text>
<text x="96.91" y="362.30" font-family='-apple-system, BlinkMacSystemFont, "Segoe UI", Helvetica, Arial, sans-serif' font-size="26" font-weight="700" fill="#515151">0<tspan font-size="12" font-weight="600" fill="#1f2328"> days</tspan></text>
<text x="96.91" y="384.30" font-family='-apple-system, BlinkMacSystemFont, "Segoe UI", Helvetica, Arial, sans-serif' font-size="12" font-weight="600" fill="#1f2328">Current</text>
<text x="96.91" y="402.30" font-family='-apple-system, BlinkMacSystemFont, "Segoe UI", Helvetica, Arial, sans-serif' font-size="10.5" fill="#59636e">No current streak</text>
<text x="716.25" y="432.30" text-anchor="end" font-family='-apple-system, BlinkMacSystemFont, "Segoe UI", Helvetica, Arial, sans-serif' font-size="9" fill="#59636e" opacity="0.6">Greyscale Light theme</text>
</svg>