<svg xmlns="http://www.w3.org/2000/svg" viewBox="-105.09 -199.00 829.34 639.30" width="829" height="639">
<rect x="-105.09" y="-199.00" width="829.34" height="639.30" fill="#0d1117"/>
<polygon points="0.00,-31.00 11.28,-26.90 0.00,-22.79 -11.28,-26.90" fill="#FFDA03"/>
<polygon points="-11.28,4.10 -11.28,-26.90 0.00,-22.79 0.00,8.21" fill="#e0bf02"/>
<polygon points="0.00,8.21 0.00,-22.79 11.28,-26.90 11.28,4.10" fill="#bca102"/>
<polygon points="-13.16,-11.21 -1.88,-7.11 -13.16,-3.00 -24.43,-7.11" fill="#FFE135"/>
<polygon points="-24.43,8.89 -24.43,-7.11 -13.16,-3.00 -13.16,13.00" fill="#e0c62e"/>
<polygon points="-13.16,13.00 -13.16,-3.00 -1.88,-7.11 -1.88,8.89" fill="#bca627"/>
<polygon points="-26.31,-11.42 -15.04,-7.32 -26.31,-3.21 -37.59,-7.32" fill="#FFE135"/>
<polygon points="-37.59,13.68 -37.59,-7.32 -26.31,-3.21 -26.31,17.79" fill="#e0c62e"/>
<polygon points="-26.31,17.79 -26.31,-3.21 -15.04,-7.32 -15.04,13.68" fill="#bca627"/>
<polygon points="-39.47,-6.64 -28.19,-2.53 -39.47,1.57 -50.74,-2.53" fill="#FFE135"/>
<polygon points="-50.74,18.47 -50.74,-2.53 -39.47,1.57 -39.47,22.57" fill="#e0c62e"/>
<polygon points="-39.47,22.57 -39.47,1.57 -28.19,-2.53 -28.19,18.47" fill="#bca627"/>
<polygon points="-52.62,-9.85 -41.35,-5.74 -52.62,-1.64 -63.90,-5.74" fill="#FFDA03"/>
<polygon points="-63.90,23.26 -63.90,-5.74 -52.62,-1.64 -52.62,27.36" fill="#e0bf02"/>
<polygon points="-52.62,27.36 -52.62,-1.64 -41.35,-5.74 -41.35,23.26" fill="#bca102"/>
<polygon points="-65.78,-23.06 -54.50,-18.95 -65.78,-14.85 -77.05,-18.95" fill="#C49102"/>
<polygon points="-77.05,28.05 -77.05,-18.95 -65.78,-14.85 -65.78,32.15" fill="#ac7f01"/>
<polygon points="-65.78,32.15 -65.78,-14.85 -54.50,-18.95 -54.50,28.05" fill="#916b01"/>
<polygon points="-78.93,-6.27 -67.66,-2.17 -78.93,1.94 -90.21,-2.17" fill="#EDC001"/>
<polygon points="-90.21,32.83 -90.21,-2.17 -78.93,1.94 -78.93,36.94" fill="#d0a800"/>
<polygon points="-78.93,36.94 -78.93,1.94 -67.66,-2.17 -67.66,32.83" fill="#af8e00"/>
<polygon points="13.16,-42.21 24.43,-38.11 13.16,-34.00 1.88,-38.11" fill="#C49102"/>
<polygon points="1.88,8.89 1.88,-38.11 13.16,-34.00 13.16,13.00" fill="#ac7f01"/>
<polygon points="13.16,13.00 13.16,-34.00 24.43,-38.11 24.43,8.89" fill="#916b01"/>
<polygon points="0.00,-6.42 11.28,-2.32 0.00,1.79 -11.28,-2.32" fill="#FFE135"/>
<polygon points="-11.28,13.68 -11.28,-2.32 0.00,1.79 0.00,17.79" fill="#e0c62e"/>
<polygon points="0.00,17.79 0.00,1.79 11.28,-2.32 11.28,13.68" fill="#bca627"/>
<polygon points="-13.16,-1.64 -1.88,2.47 -13.16,6.57 -24.43,2.47" fill="#FFE135"/>
<polygon points="-24.43,18.47 -24.43,2.47 -13.16,6.57 -13.16,22.57" fill="#e0c62e"/>
<polygon points="-13.16,22.57 -13.16,6.57 -1.88,2.47 -1.88,18.47" fill="#bca627"/>
<polygon points="-26.31,-13.85 -15.04,-9.74 -26.31,-5.64 -37.59,-9.74" fill="#FFDA03"/>
<polygon points="-37.59,23.26 -37.59,-9.74 -26.31,-5.64 -26.31,27.36" fill="#e0bf02"/>
<polygon points="-26.31,27.36 -26.31,-5.64 -15.04,-9.74 -15.04,23.26" fill="#bca102"/>
<polygon points="-39.47,-13.06 -28.19,-8.95 -39.47,-4.85 -50.74,-8.95" fill="#EDC001"/>
<polygon points="-50.74,28.05 -50.74,-8.95 -39.47,-4.85 -39.47,32.15" fill="#d0a800"/>
<polygon points="-39.47,32.15 -39.47,-4.85 -28.19,-8.95 -28.19,28.05" fill="#af8e00"/>
<polygon points="-52.62,-6.27 -41.35,-2.17 -52.62,1.94 -63.90,-2.17" fill="#EDC001"/>
<polygon points="-63.90,32.83 -63.90,-2.17 -52.62,1.94 -52.62,36.94" fill="#d0a800"/>
<polygon points="-52.62,36.94 -52.62,1.94 -41.35,-2.17 -41.35,32.83" fill="#af8e00"/>
<polygon points="-65.78,-1.48 -54.50,2.62 -65.78,6.73 -77.05,2.62" fill="#EDC001"/>
<polygon points="-77.05,37.62 -77.05,2.62 -65.78,6.73 -65.78,41.73" fill="#d0a800"/>
<polygon points="-65.78,41.73 -65.78,6.73 -54.50,2.62 -54.50,37.62" fill="#af8e00"/>
<polygon points="26.31,-15.42 37.59,-11.32 26.31,-7.21 15.04,-11.32" fill="#FFE135"/>
<polygon points="15.04,13.68 15.04,-11.32 26.31,-7.21 26.31,17.79" fill="#e0c62e"/>
<polygon points="26.31,17.79 26.31,-7.21 37.59,-11.32 37.59,13.68" fill="#bca627"/>
<polygon points="13.16,-49.64 24.43,-45.53 13.16,-41.43 1.88,-45.53" fill="#C49102"/>
<polygon points="1.88,18.47 1.88,-45.53 13.16,-41.43 13.16,22.57" fill="#ac7f01"/>
<polygon points="13.16,22.57 13.16,-41.43 24.43,-45.53 24.43,18.47" fill="#916b01"/>
<polygon points="0.00,-42.85 11.28,-38.74 0.00,-34.64 -11.28,-38.74" fill="#C49102"/>
<polygon points="-11.28,23.26 -11.28,-38.74 0.00,-34.64 0.00,27.36" fill="#ac7f01"/>
<polygon points="0.00,27.36 0.00,-34.64 11.28,-38.74 11.28,23.26" fill="#916b01"/>
<polygon points="-13.16,-23.06 -1.88,-18.95 -13.16,-14.85 -24.43,-18.95" fill="#C49102"/>
<polygon points="-24.43,28.05 -24.43,-18.95 -13.16,-14.85 -13.16,32.15" fill="#ac7f01"/>
<polygon points="-13.16,32.15 -13.16,-14.85 -1.88,-18.95 -1.88,28.05" fill="#916b01"/>
<polygon points="-26.31,-27.27 -15.04,-23.17 -26.31,-19.06 -37.59,-23.17" fill="#C49102"/>
<polygon points="-37.59,32.83 -37.59,-23.17 -26.31,-19.06 -26.31,36.94" fill="#ac7f01"/>
<polygon points="-26.31,36.94 -26.31,-19.06 -15.04,-23.17 -15.04,32.83" fill="#916b01"/>
<polygon points="-39.47,-11.48 -28.19,-7.38 -39.47,-3.27 -50.74,-7.38" fill="#C49102"/>
<polygon points="-50.74,37.62 -50.74,-7.38 -39.47,-3.27 -39.47,41.73" fill="#ac7f01"/>
<polygon points="-39.47,41.73 -39.47,-3.27 -28.19,-7.38 -28.19,37.62" fill="#916b01"/>
<polygon points="-52.62,13.31 -41.35,17.41 -52.62,21.51 -63.90,17.41" fill="#FFE135"/>
<polygon points="-63.90,42.41 -63.90,17.41 -52.62,21.51 -52.62,46.51" fill="#e0c62e"/>
<polygon points="-52.62,46.51 -52.62,21.51 -41.35,17.41 -41.35,42.41" fill="#bca627"/>
<polygon points="39.47,-23.64 50.74,-19.53 39.47,-15.43 28.19,-19.53" fill="#EDC001"/>
<polygon points="28.19,18.47 28.19,-19.53 39.47,-15.43 39.47,22.57" fill="#d0a800"/>
<polygon points="39.47,22.57 39.47,-15.43 50.74,-19.53 50.74,18.47" fill="#af8e00"/>
<polygon points="26.31,-13.85 37.59,-9.74 26.31,-5.64 15.04,-9.74" fill="#FFDA03"/>
<polygon points="15.04,23.26 15.04,-9.74 26.31,-5.64 26.31,27.36" fill="#e0bf02"/>
<polygon points="26.31,27.36 26.31,-5.64 37.59,-9.74 37.59,23.26" fill="#bca102"/>
<polygon points="13.16,-1.06 24.43,3.05 13.16,7.15 1.88,3.05" fill="#FFE135"/>
<polygon points="1.88,28.05 1.88,3.05 13.16,7.15 13.16,32.15" fill="#e0c62e"/>
<polygon points="13.16,32.15 13.16,7.15 24.43,3.05 24.43,28.05" fill="#bca627"/>
<polygon points="0.00,-2.27 11.28,1.83 0.00,5.94 -11.28,1.83" fill="#FFDA03"/>
<polygon points="-11.28,32.83 -11.28,1.83 0.00,5.94 0.00,36.94" fill="#e0bf02"/>
<polygon points="0.00,36.94 0.00,5.94 11.28,1.83 11.28,32.83" fill="#bca102"/>
<polygon points="-13.16,4.52 -1.88,8.62 -13.16,12.73 -24.43,8.62" fill="#FFDA03"/>
<polygon points="-24.43,37.62 -24.43,8.62 -13.16,12.73 -13.16,41.73" fill="#e0bf02"/>
<polygon points="-13.16,41.73 -13.16,12.73 -1.88,8.62 -1.88,37.62" fill="#bca102"/>
<polygon points="-26.31,5.31 -15.04,9.41 -26.31,13.51 -37.59,9.41" fill="#FFDA03"/>
<polygon points="-37.59,42.41 -37.59,9.41 -26.31,13.51 -26.31,46.51" fill="#e0bf02"/>
<polygon points="-26.31,46.51 -26.31,13.51 -15.04,9.41 -15.04,42.41" fill="#bca102"/>
<polygon points="-39.47,-3.91 -28.19,0.20 -39.47,4.30 -50.74,0.20" fill="#C49102"/>
<polygon points="-50.74,47.20 -50.74,0.20 -39.47,4.30 -39.47,51.30" fill="#ac7f01"/>
<polygon points="-39.47,51.30 -39.47,4.30 -28.19,0.20 -28.19,47.20" fill="#916b01"/>
<polygon points="52.62,-13.85 63.90,-9.74 52.62,-5.64 41.35,-9.74" fill="#FFDA03"/>
<polygon points="41.35,23.26 41.35,-9.74 52.62,-5.64 52.62,27.36" fill="#e0bf02"/>
<polygon points="52.62,27.36 52.62,-5.64 63.90,-9.74 63.90,23.26" fill="#bca102"/>
<polygon points="39.47,7.94 50.74,12.05 39.47,16.15 28.19,12.05" fill="#FFE135"/>
<polygon points="28.19,28.05 28.19,12.05 39.47,16.15 39.47,32.15" fill="#e0c62e"/>
<polygon points="39.47,32.15 39.47,16.15 50.74,12.05 50.74,28.05" fill="#bca627"/>
<polygon points="26.31,-4.27 37.59,-0.17 26.31,3.94 15.04,-0.17" fill="#FFDA03"/>
<polygon points="15.04,32.83 15.04,-0.17 26.31,3.94 26.31,36.94" fill="#e0bf02"/>
<polygon points="26.31,36.94 26.31,3.94 37.59,-0.17 37.59,32.83" fill="#bca102"/>
<polygon points="13.16,2.52 24.43,6.62 13.16,10.73 1.88,6.62" fill="#FFDA03"/>
<polygon points="1.88,37.62 1.88,6.62 13.16,10.73 13.16,41.73" fill="#e0bf02"/>
<polygon points="13.16,41.73 13.16,10.73 24.43,6.62 24.43,37.62" fill="#bca102"/>
<polygon points="0.00,1.31 11.28,5.41 0.00,9.51 -11.28,5.41" fill="#EDC001"/>
<polygon points="-11.28,42.41 -11.28,5.41 0.00,9.51 0.00,46.51" fill="#d0a800"/>
<polygon points="0.00,46.51 0.00,9.51 11.28,5.41 11.28,42.41" fill="#af8e00"/>
<polygon points="-13.16,3.09 -1.88,7.20 -13.16,11.30 -24.43,7.20" fill="#EDC001"/>
<polygon points="-24.43,47.20 -24.43,7.20 -13.16,11.30 -13.16,51.30" fill="#d0a800"/>
<polygon points="-13.16,51.30 -13.16,11.30 -1.88,7.20 -1.88,47.20" fill="#af8e00"/>
<polygon points="-26.31,22.88 -15.04,26.99 -26.31,31.09 -37.59,26.99" fill="#FFE135"/>
<polygon points="-37.59,51.99 -37.59,26.99 -26.31,31.09 -26.31,56.09" fill="#e0c62e"/>
<polygon points="-26.31,56.09 -26.31,31.09 -15.04,26.99 -15.04,51.99" fill="#bca627"/>
<polygon points="65.78,-9.06 77.05,-4.95 65.78,-0.85 54.50,-4.95" fill="#FFDA03"/>
<polygon points="54.50,28.05 54.50,-4.95 65.78,-0.85 65.78,32.15" fill="#e0bf02"/>
<polygon points="65.78,32.15 65.78,-0.85 77.05,-4.95 77.05,28.05" fill="#bca102"/>
<polygon points="52.62,3.73 63.90,7.83 52.62,11.94 41.35,7.83" fill="#FFE135"/>
<polygon points="41.35,32.83 41.35,7.83 52.62,11.94 52.62,36.94" fill="#e0c62e"/>
<polygon points="52.62,36.94 52.62,11.94 63.90,7.83 63.90,32.83" fill="#bca627"/>
<polygon points="39.47,2.52 50.74,6.62 39.47,10.73 28.19,6.62" fill="#FFDA03"/>
<polygon points="28.19,37.62 28.19,6.62 39.47,10.73 39.47,41.73" fill="#e0bf02"/>
<polygon points="39.47,41.73 39.47,10.73 50.74,6.62 50.74,37.62" fill="#bca102"/>
<polygon points="26.31,9.31 37.59,13.41 26.31,17.51 15.04,13.41" fill="#FFDA03"/>
<polygon points="15.04,42.41 15.04,13.41 26.31,17.51 26.31,46.51" fill="#e0bf02"/>
<polygon points="26.31,46.51 26.31,17.51 37.59,13.41 37.59,42.41" fill="#bca102"/>
<polygon points="13.16,3.09 24.43,7.20 13.16,11.30 1.88,7.20" fill="#EDC001"/>
<polygon points="1.88,47.20 1.88,7.20 13.16,11.30 13.16,51.30" fill="#d0a800"/>
<polygon points="13.16,51.30 13.16,11.30 24.43,7.20 24.43,47.20" fill="#af8e00"/>
<polygon points="0.00,2.88 11.28,6.99 0.00,11.09 -11.28,6.99" fill="#C49102"/>
<polygon points="-11.28,51.99 -11.28,6.99 0.00,11.09 0.00,56.09" fill="#ac7f01"/>
<polygon points="0.00,56.09 0.00,11.09 11.28,6.99 11.28,51.99" fill="#916b01"/>
<polygon points="-13.16,23.67 -1.88,27.78 -13.16,31.88 -24.43,27.78" fill="#FFDA03"/>
<polygon points="-24.43,56.78 -24.43,27.78 -13.16,31.88 -13.16,60.88" fill="#e0bf02"/>
<polygon points="-13.16,60.88 -13.16,31.88 -1.88,27.78 -1.88,56.78" fill="#bca102"/>
<polygon points="78.93,-4.27 90.21,-0.17 78.93,3.94 67.66,-0.17" fill="#FFDA03"/>
<polygon points="67.66,32.83 67.66,-0.17 78.93,3.94 78.93,36.94" fill="#e0bf02"/>
<polygon points="78.93,36.94 78.93,3.94 90.21,-0.17 90.21,32.83" fill="#bca102"/>
<polygon points="65.78,12.52 77.05,16.62 65.78,20.73 54.50,16.62" fill="#FFE135"/>
<polygon points="54.50,37.62 54.50,16.62 65.78,20.73 65.78,41.73" fill="#e0c62e"/>
<polygon points="65.78,41.73 65.78,20.73 77.05,16.62 77.05,37.62" fill="#bca627"/>
<polygon points="52.62,38.31 63.90,42.41 52.62,46.51 41.35,42.41" fill="#282828"/>
<polygon points="39.47,14.09 50.74,18.20 39.47,22.30 28.19,18.20" fill="#FFDA03"/>
<polygon points="28.19,47.20 28.19,18.20 39.47,22.30 39.47,51.30" fill="#e0bf02"/>
<polygon points="39.47,51.30 39.47,22.30 50.74,18.20 50.74,47.20" fill="#bca102"/>
<polygon points="26.31,6.88 37.59,10.99 26.31,15.09 15.04,10.99" fill="#EDC001"/>
<polygon points="15.04,51.99 15.04,10.99 26.31,15.09 26.31,56.09" fill="#d0a800"/>
<polygon points="26.31,56.09 26.31,15.09 37.59,10.99 37.59,51.99" fill="#af8e00"/>
<polygon points="13.16,17.67 24.43,21.78 13.16,25.88 1.88,21.78" fill="#EDC001"/>
<polygon points="1.88,56.78 1.88,21.78 13.16,25.88 13.16,60.88" fill="#d0a800"/>
<polygon points="13.16,60.88 13.16,25.88 24.43,21.78 24.43,56.78" fill="#af8e00"/>
<polygon points="0.00,41.46 11.28,45.56 0.00,49.67 -11.28,45.56" fill="#FFE135"/>
<polygon points="-11.28,61.56 -11.28,45.56 0.00,49.67 0.00,65.67" fill="#e0c62e"/>
<polygon points="0.00,65.67 0.00,49.67 11.28,45.56 11.28,61.56" fill="#bca627"/>
<polygon points="92.09,0.52 103.37,4.62 92.09,8.73 80.81,4.62" fill="#FFDA03"/>
<polygon points="80.81,37.62 80.81,4.62 92.09,8.73 92.09,41.73" fill="#e0bf02"/>
<polygon points="92.09,41.73 92.09,8.73 103.37,4.62 103.37,37.62" fill="#bca102"/>
<polygon points="78.93,38.31 90.21,42.41 78.93,46.51 67.66,42.41" fill="#282828"/>
<polygon points="65.78,18.09 77.05,22.20 65.78,26.30 54.50,22.20" fill="#FFE135"/>
<polygon points="54.50,47.20 54.50,22.20 65.78,26.30 65.78,51.30" fill="#e0c62e"/>
<polygon points="65.78,51.30 65.78,26.30 77.05,22.20 77.05,47.20" fill="#bca627"/>
<polygon points="52.62,16.88 63.90,20.99 52.62,25.09 41.35,20.99" fill="#FFDA03"/>
<polygon points="41.35,51.99 41.35,20.99 52.62,25.09 52.62,56.09" fill="#e0bf02"/>
<polygon points="52.62,56.09 52.62,25.09 63.90,20.99 63.90,51.99" fill="#bca102"/>
<polygon points="39.47,21.67 50.74,25.78 39.47,29.88 28.19,25.78" fill="#FFDA03"/>
<polygon points="28.19,56.78 28.19,25.78 39.47,29.88 39.47,60.88" fill="#e0bf02"/>
<polygon points="39.47,60.88 39.47,29.88 50.74,25.78 50.74,56.78" fill="#bca102"/>
<polygon points="26.31,14.46 37.59,18.56 26.31,22.67 15.04,18.56" fill="#C49102"/>
<polygon points="15.04,61.56 15.04,18.56 26.31,22.67 26.31,65.67" fill="#ac7f01"/>
<polygon points="26.31,65.67 26.31,22.67 37.59,18.56 37.59,61.56" fill="#916b01"/>
<polygon points="13.16,46.25 24.43,50.35 13.16,54.46 1.88,50.35" fill="#FFE135"/>
<polygon points="1.88,66.35 1.88,50.35 13.16,54.46 13.16,70.46" fill="#e0c62e"/>
<polygon points="13.16,70.46 13.16,54.46 24.43,50.35 24.43,66.35" fill="#bca627"/>
<polygon points="105.25,1.31 116.52,5.41 105.25,9.51 93.97,5.41" fill="#EDC001"/>
<polygon points="93.97,42.41 93.97,5.41 105.25,9.51 105.25,46.51" fill="#d0a800"/>
<polygon points="105.25,46.51 105.25,9.51 116.52,5.41 116.52,42.41" fill="#af8e00"/>
<polygon points="92.09,22.09 103.37,26.20 92.09,30.30 80.81,26.20" fill="#FFE135"/>
<polygon points="80.81,47.20 80.81,26.20 92.09,30.30 92.09,51.30" fill="#e0c62e"/>
<polygon points="92.09,51.30 92.09,30.30 103.37,26.20 103.37,47.20" fill="#bca627"/>
<polygon points="78.93,22.88 90.21,26.99 78.93,31.09 67.66,26.99" fill="#FFE135"/>
<polygon points="67.66,51.99 67.66,26.99 78.93,31.09 78.93,56.09" fill="#e0c62e"/>
<polygon points="78.93,56.09 78.93,31.09 90.21,26.99 90.21,51.99" fill="#bca627"/>
<polygon points="65.78,23.67 77.05,27.78 65.78,31.88 54.50,27.78" fill="#FFDA03"/>
<polygon points="54.50,56.78 54.50,27.78 65.78,31.88 65.78,60.88" fill="#e0bf02"/>
<polygon points="65.78,60.88 65.78,31.88 77.05,27.78 77.05,56.78" fill="#bca102"/>
<polygon points="52.62,24.46 63.90,28.56 52.62,32.67 41.35,28.56" fill="#FFDA03"/>
<polygon points="41.35,61.56 41.35,28.56 52.62,32.67 52.62,65.67" fill="#e0bf02"/>
<polygon points="52.62,65.67 52.62,32.67 63.90,28.56 63.90,61.56" fill="#bca102"/>
<polygon points="39.47,37.25 50.74,41.35 39.47,45.46 28.19,41.35" fill="#FFE135"/>
<polygon points="28.19,66.35 28.19,41.35 39.47,45.46 39.47,70.46" fill="#e0c62e"/>
<polygon points="39.47,70.46 39.47,45.46 50.74,41.35 50.74,66.35" fill="#bca627"/>
<polygon points="26.31,38.04 37.59,42.14 26.31,46.24 15.04,42.14" fill="#FFDA03"/>
<polygon points="15.04,71.14 15.04,42.14 26.31,46.24 26.31,75.24" fill="#e0bf02"/>
<polygon points="26.31,75.24 26.31,46.24 37.59,42.14 37.59,71.14" fill="#bca102"/>
<polygon points="118.40,6.09 129.68,10.20 118.40,14.30 107.12,10.20" fill="#EDC001"/>
<polygon points="107.12,47.20 107.12,10.20 118.40,14.30 118.40,51.30" fill="#d0a800"/>
<polygon points="118.40,51.30 118.40,14.30 129.68,10.20 129.68,47.20" fill="#af8e00"/>
<polygon points="105.25,14.88 116.52,18.99 105.25,23.09 93.97,18.99" fill="#FFDA03"/>
<polygon points="93.97,51.99 93.97,18.99 105.25,23.09 105.25,56.09" fill="#e0bf02"/>
<polygon points="105.25,56.09 105.25,23.09 116.52,18.99 116.52,51.99" fill="#bca102"/>
<polygon points="92.09,36.67 103.37,40.78 92.09,44.88 80.81,40.78" fill="#FFE135"/>
<polygon points="80.81,56.78 80.81,40.78 92.09,44.88 92.09,60.88" fill="#e0c62e"/>
<polygon points="92.09,60.88 92.09,44.88 103.37,40.78 103.37,56.78" fill="#bca627"/>
<polygon points="78.93,16.46 90.21,20.56 78.93,24.67 67.66,20.56" fill="#EDC001"/>
<polygon points="67.66,61.56 67.66,20.56 78.93,24.67 78.93,65.67" fill="#d0a800"/>
<polygon points="78.93,65.67 78.93,24.67 90.21,20.56 90.21,61.56" fill="#af8e00"/>
<polygon points="65.78,25.25 77.05,29.35 65.78,33.46 54.50,29.35" fill="#EDC001"/>
<polygon points="54.50,66.35 54.50,29.35 65.78,33.46 65.78,70.46" fill="#d0a800"/>
<polygon points="65.78,70.46 65.78,33.46 77.05,29.35 77.05,66.35" fill="#af8e00"/>
<polygon points="52.62,24.04 63.90,28.14 52.62,32.24 41.35,28.14" fill="#C49102"/>
<polygon points="41.35,71.14 41.35,28.14 52.62,32.24 52.62,75.24" fill="#ac7f01"/>
<polygon points="52.62,75.24 52.62,32.24 63.90,28.14 63.90,71.14" fill="#916b01"/>
<polygon points="39.47,34.82 50.74,38.93 39.47,43.03 28.19,38.93" fill="#EDC001"/>
<polygon points="28.19,75.93 28.19,38.93 39.47,43.03 39.47,80.03" fill="#d0a800"/>
<polygon points="39.47,80.03 39.47,43.03 50.74,38.93 50.74,75.93" fill="#af8e00"/>
<polygon points="131.56,16.88 142.83,20.99 131.56,25.09 120.28,20.99" fill="#FFDA03"/>
<polygon points="120.28,51.99 120.28,20.99 131.56,25.09 131.56,56.09" fill="#e0bf02"/>
<polygon points="131.56,56.09 131.56,25.09 142.83,20.99 142.83,51.99" fill="#bca102"/>
<polygon points="118.40,17.67 129.68,21.78 118.40,25.88 107.12,21.78" fill="#EDC001"/>
<polygon points="107.12,56.78 107.12,21.78 118.40,25.88 118.40,60.88" fill="#d0a800"/>
<polygon points="118.40,60.88 118.40,25.88 129.68,21.78 129.68,56.78" fill="#af8e00"/>
<polygon points="105.25,41.46 116.52,45.56 105.25,49.67 93.97,45.56" fill="#FFE135"/>
<polygon points="93.97,61.56 93.97,45.56 105.25,49.67 105.25,65.67" fill="#e0c62e"/>
<polygon points="105.25,65.67 105.25,49.67 116.52,45.56 116.52,61.56" fill="#bca627"/>
<polygon points="92.09,25.25 103.37,29.35 92.09,33.46 80.81,29.35" fill="#EDC001"/>
<polygon points="80.81,66.35 80.81,29.35 92.09,33.46 92.09,70.46" fill="#d0a800"/>
<polygon points="92.09,70.46 92.09,33.46 103.37,29.35 103.37,66.35" fill="#af8e00"/>
<polygon points="78.93,34.04 90.21,38.14 78.93,42.24 67.66,38.14" fill="#FFDA03"/>
<polygon points="67.66,71.14 67.66,38.14 78.93,42.24 78.93,75.24" fill="#e0bf02"/>
<polygon points="78.93,75.24 78.93,42.24 90.21,38.14 90.21,71.14" fill="#bca102"/>
<polygon points="65.78,25.82 77.05,29.93 65.78,34.03 54.50,29.93" fill="#C49102"/>
<polygon points="54.50,75.93 54.50,29.93 65.78,34.03 65.78,80.03" fill="#ac7f01"/>
<polygon points="65.78,80.03 65.78,34.03 77.05,29.93 77.05,75.93" fill="#916b01"/>
<polygon points="52.62,55.61 63.90,59.72 52.62,63.82 41.35,59.72" fill="#FFE135"/>
<polygon points="41.35,80.72 41.35,59.72 52.62,63.82 52.62,84.82" fill="#e0c62e"/>
<polygon points="52.62,84.82 52.62,63.82 63.90,59.72 63.90,80.72" fill="#bca627"/>
<polygon points="144.71,14.67 155.99,18.78 144.71,22.88 133.44,18.78" fill="#EDC001"/>
<polygon points="133.44,56.78 133.44,18.78 144.71,22.88 144.71,60.88" fill="#d0a800"/>
<polygon points="144.71,60.88 144.71,22.88 155.99,18.78 155.99,56.78" fill="#af8e00"/>
<polygon points="131.56,0.46 142.83,4.56 131.56,8.67 120.28,4.56" fill="#C49102"/>
<polygon points="120.28,61.56 120.28,4.56 131.56,8.67 131.56,65.67" fill="#ac7f01"/>
<polygon points="131.56,65.67 131.56,8.67 142.83,4.56 142.83,61.56" fill="#916b01"/>
<polygon points="118.40,6.25 129.68,10.35 118.40,14.46 107.12,10.35" fill="#C49102"/>
<polygon points="107.12,66.35 107.12,10.35 118.40,14.46 118.40,70.46" fill="#ac7f01"/>
<polygon points="118.40,70.46 118.40,14.46 129.68,10.35 129.68,66.35" fill="#916b01"/>
<polygon points="105.25,11.04 116.52,15.14 105.25,19.24 93.97,15.14" fill="#C49102"/>
<polygon points="93.97,71.14 93.97,15.14 105.25,19.24 105.25,75.24" fill="#ac7f01"/>
<polygon points="105.25,75.24 105.25,19.24 116.52,15.14 116.52,71.14" fill="#916b01"/>
<polygon points="92.09,30.82 103.37,34.93 92.09,39.03 80.81,34.93" fill="#EDC001"/>
<polygon points="80.81,75.93 80.81,34.93 92.09,39.03 92.09,80.03" fill="#d0a800"/>
<polygon points="92.09,80.03 92.09,39.03 103.37,34.93 103.37,75.93" fill="#af8e00"/>
<polygon points="78.93,21.61 90.21,25.72 78.93,29.82 67.66,25.72" fill="#C49102"/>
<polygon points="67.66,80.72 67.66,25.72 78.93,29.82 78.93,84.82" fill="#ac7f01"/>
<polygon points="78.93,84.82 78.93,29.82 90.21,25.72 90.21,80.72" fill="#916b01"/>
<polygon points="65.78,29.40 77.05,33.51 65.78,37.61 54.50,33.51" fill="#C49102"/>
<polygon points="54.50,85.51 54.50,33.51 65.78,37.61 65.78,89.61" fill="#ac7f01"/>
<polygon points="65.78,89.61 65.78,37.61 77.05,33.51 77.05,85.51" fill="#916b01"/>
<polygon points="157.87,17.46 169.14,21.56 157.87,25.67 146.59,21.56" fill="#EDC001"/>
<polygon points="146.59,61.56 146.59,21.56 157.87,25.67 157.87,65.67" fill="#d0a800"/>
<polygon points="157.87,65.67 157.87,25.67 169.14,21.56 169.14,61.56" fill="#af8e00"/>
<polygon points="144.71,21.25 155.99,25.35 144.71,29.46 133.44,25.35" fill="#EDC001"/>
<polygon points="133.44,66.35 133.44,25.35 144.71,29.46 144.71,70.46" fill="#d0a800"/>
<polygon points="144.71,70.46 144.71,29.46 155.99,25.35 155.99,66.35" fill="#af8e00"/>
<polygon points="131.56,24.04 142.83,28.14 131.56,32.24 120.28,28.14" fill="#C49102"/>
<polygon points="120.28,71.14 120.28,28.14 131.56,32.24 131.56,75.24" fill="#ac7f01"/>
<polygon points="131.56,75.24 131.56,32.24 142.83,28.14 142.83,71.14" fill="#916b01"/>
<polygon points="118.40,38.82 129.68,42.93 118.40,47.03 107.12,42.93" fill="#FFDA03"/>
<polygon points="107.12,75.93 107.12,42.93 118.40,47.03 118.40,80.03" fill="#e0bf02"/>
<polygon points="118.40,80.03 118.40,47.03 129.68,42.93 129.68,75.93" fill="#bca102"/>
<polygon points="105.25,45.61 116.52,49.72 105.25,53.82 93.97,49.72" fill="#FFDA03"/>
<polygon points="93.97,80.72 93.97,49.72 105.25,53.82 105.25,84.82" fill="#e0bf02"/>
<polygon points="105.25,84.82 105.25,53.82 116.52,49.72 116.52,80.72" fill="#bca102"/>
<polygon points="92.09,33.40 103.37,37.51 92.09,41.61 80.81,37.51" fill="#C49102"/>
<polygon points="80.81,85.51 80.81,37.51 92.09,41.61 92.09,89.61" fill="#ac7f01"/>
<polygon points="92.09,89.61 92.09,41.61 103.37,37.51 103.37,85.51" fill="#916b01"/>
<polygon points="78.93,46.19 90.21,50.29 78.93,54.40 67.66,50.29" fill="#EDC001"/>
<polygon points="67.66,90.29 67.66,50.29 78.93,54.40 78.93,94.40" fill="#d0a800"/>
<polygon points="78.93,94.40 78.93,54.40 90.21,50.29 90.21,90.29" fill="#af8e00"/>
<polygon points="171.02,37.25 182.30,41.35 171.02,45.46 159.75,41.35" fill="#FFE135"/>
<polygon points="159.75,66.35 159.75,41.35 171.02,45.46 171.02,70.46" fill="#e0c62e"/>
<polygon points="171.02,70.46 171.02,45.46 182.30,41.35 182.30,66.35" fill="#bca627"/>
<polygon points="157.87,67.04 169.14,71.14 157.87,75.24 146.59,71.14" fill="#282828"/>
<polygon points="144.71,42.82 155.99,46.93 144.71,51.03 133.44,46.93" fill="#FFDA03"/>
<polygon points="133.44,75.93 133.44,46.93 144.71,51.03 144.71,80.03" fill="#e0bf02"/>
<polygon points="144.71,80.03 144.71,51.03 155.99,46.93 155.99,75.93" fill="#bca102"/>
<polygon points="131.56,43.61 142.83,47.72 131.56,51.82 120.28,47.72" fill="#FFDA03"/>
<polygon points="120.28,80.72 120.28,47.72 131.56,51.82 131.56,84.82" fill="#e0bf02"/>
<polygon points="131.56,84.82 131.56,51.82 142.83,47.72 142.83,80.72" fill="#bca102"/>
<polygon points="118.40,50.40 129.68,54.51 118.40,58.61 107.12,54.51" fill="#FFDA03"/>
<polygon points="107.12,85.51 107.12,54.51 118.40,58.61 118.40,89.61" fill="#e0bf02"/>
<polygon points="118.40,89.61 118.40,58.61 129.68,54.51 129.68,85.51" fill="#bca102"/>
<polygon points="105.25,49.19 116.52,53.29 105.25,57.40 93.97,53.29" fill="#EDC001"/>
<polygon points="93.97,90.29 93.97,53.29 105.25,57.40 105.25,94.40" fill="#d0a800"/>
<polygon points="105.25,94.40 105.25,57.40 116.52,53.29 116.52,90.29" fill="#af8e00"/>
<polygon points="92.09,48.98 103.37,53.08 92.09,57.19 80.81,53.08" fill="#C49102"/>
<polygon points="80.81,95.08 80.81,53.08 92.09,57.19 92.09,99.19" fill="#ac7f01"/>
<polygon points="92.09,99.19 92.09,57.19 103.37,53.08 103.37,95.08" fill="#916b01"/>
<polygon points="184.18,38.04 195.46,42.14 184.18,46.24 172.90,42.14" fill="#FFDA03"/>
<polygon points="172.90,71.14 172.90,42.14 184.18,46.24 184.18,75.24" fill="#e0bf02"/>
<polygon points="184.18,75.24 184.18,46.24 195.46,42.14 195.46,71.14" fill="#bca102"/>
<polygon points="171.02,50.82 182.30,54.93 171.02,59.03 159.75,54.93" fill="#FFE135"/>
<polygon points="159.75,75.93 159.75,54.93 171.02,59.03 171.02,80.03" fill="#e0c62e"/>
<polygon points="171.02,80.03 171.02,59.03 182.30,54.93 182.30,75.93" fill="#bca627"/>
<polygon points="157.87,60.61 169.14,64.72 157.87,68.82 146.59,64.72" fill="#FFE135"/>
<polygon points="146.59,80.72 146.59,64.72 157.87,68.82 157.87,84.82" fill="#e0c62e"/>
<polygon points="157.87,84.82 157.87,68.82 169.14,64.72 169.14,80.72" fill="#bca627"/>
<polygon points="144.71,50.40 155.99,54.51 144.71,58.61 133.44,54.51" fill="#FFDA03"/>
<polygon points="133.44,85.51 133.44,54.51 144.71,58.61 144.71,89.61" fill="#e0bf02"/>
<polygon points="144.71,89.61 144.71,58.61 155.99,54.51 155.99,85.51" fill="#bca102"/>
<polygon points="131.56,53.19 142.83,57.29 131.56,61.40 120.28,57.29" fill="#FFDA03"/>
<polygon points="120.28,90.29 120.28,57.29 131.56,61.40 131.56,94.40" fill="#e0bf02"/>
<polygon points="131.56,94.40 131.56,61.40 142.83,57.29 142.83,90.29" fill="#bca102"/>
<polygon points="118.40,47.98 129.68,52.08 118.40,56.19 107.12,52.08" fill="#C49102"/>
<polygon points="107.12,95.08 107.12,52.08 118.40,56.19 118.40,99.19" fill="#ac7f01"/>
<polygon points="118.40,99.19 118.40,56.19 129.68,52.08 129.68,95.08" fill="#916b01"/>
<polygon points="105.25,66.77 116.52,70.87 105.25,74.97 93.97,70.87" fill="#FFDA03"/>
<polygon points="93.97,99.87 93.97,70.87 105.25,74.97 105.25,103.97" fill="#e0bf02"/>
<polygon points="105.25,103.97 105.25,74.97 116.52,70.87 116.52,99.87" fill="#bca102"/>
<polygon points="197.34,31.82 208.61,35.93 197.34,40.03 186.06,35.93" fill="#EDC001"/>
<polygon points="186.06,75.93 186.06,35.93 197.34,40.03 197.34,80.03" fill="#d0a800"/>
<polygon points="197.34,80.03 197.34,40.03 208.61,35.93 208.61,75.93" fill="#af8e00"/>
<polygon points="184.18,60.61 195.46,64.72 184.18,68.82 172.90,64.72" fill="#FFE135"/>
<polygon points="172.90,80.72 172.90,64.72 184.18,68.82 184.18,84.82" fill="#e0c62e"/>
<polygon points="184.18,84.82 184.18,68.82 195.46,64.72 195.46,80.72" fill="#bca627"/>
<polygon points="171.02,60.40 182.30,64.51 171.02,68.61 159.75,64.51" fill="#FFE135"/>
<polygon points="159.75,85.51 159.75,64.51 171.02,68.61 171.02,89.61" fill="#e0c62e"/>
<polygon points="171.02,89.61 171.02,68.61 182.30,64.51 182.30,85.51" fill="#bca627"/>
<polygon points="157.87,86.19 169.14,90.29 157.87,94.40 146.59,90.29" fill="#282828"/>
<polygon points="144.71,57.98 155.99,62.08 144.71,66.19 133.44,62.08" fill="#FFDA03"/>
<polygon points="133.44,95.08 133.44,62.08 144.71,66.19 144.71,99.19" fill="#e0bf02"/>
<polygon points="144.71,99.19 144.71,66.19 155.99,62.08 155.99,95.08" fill="#bca102"/>
<polygon points="131.56,55.77 142.83,59.87 131.56,63.97 120.28,59.87" fill="#EDC001"/>
<polygon points="120.28,99.87 120.28,59.87 131.56,63.97 131.56,103.97" fill="#d0a800"/>
<polygon points="131.56,103.97 131.56,63.97 142.83,59.87 142.83,99.87" fill="#af8e00"/>
<polygon points="118.40,63.55 129.68,67.66 118.40,71.76 107.12,67.66" fill="#EDC001"/>
<polygon points="107.12,104.66 107.12,67.66 118.40,71.76 118.40,108.76" fill="#d0a800"/>
<polygon points="118.40,108.76 118.40,71.76 129.68,67.66 129.68,104.66" fill="#af8e00"/>
<polygon points="210.49,60.61 221.77,64.72 210.49,68.82 199.21,64.72" fill="#FFE135"/>
<polygon points="199.21,80.72 199.21,64.72 210.49,68.82 210.49,84.82" fill="#e0c62e"/>
<polygon points="210.49,84.82 210.49,68.82 221.77,64.72 221.77,80.72" fill="#bca627"/>
<polygon points="197.34,81.40 208.61,85.51 197.34,89.61 186.06,85.51" fill="#282828"/>
<polygon points="184.18,61.19 195.46,65.29 184.18,69.40 172.90,65.29" fill="#FFE135"/>
<polygon points="172.90,90.29 172.90,65.29 184.18,69.40 184.18,94.40" fill="#e0c62e"/>
<polygon points="184.18,94.40 184.18,69.40 195.46,65.29 195.46,90.29" fill="#bca627"/>
<polygon points="171.02,61.98 182.30,66.08 171.02,70.19 159.75,66.08" fill="#FFDA03"/>
<polygon points="159.75,95.08 159.75,66.08 171.02,70.19 171.02,99.19" fill="#e0bf02"/>
<polygon points="171.02,99.19 171.02,70.19 182.30,66.08 182.30,95.08" fill="#bca102"/>
<polygon points="157.87,58.77 169.14,62.87 157.87,66.97 146.59,62.87" fill="#EDC001"/>
<polygon points="146.59,99.87 146.59,62.87 157.87,66.97 157.87,103.97" fill="#d0a800"/>
<polygon points="157.87,103.97 157.87,66.97 169.14,62.87 169.14,99.87" fill="#af8e00"/>
<polygon points="144.71,62.55 155.99,66.66 144.71,70.76 133.44,66.66" fill="#EDC001"/>
<polygon points="133.44,104.66 133.44,66.66 144.71,70.76 144.71,108.76" fill="#d0a800"/>
<polygon points="144.71,108.76 144.71,70.76 155.99,66.66 155.99,104.66" fill="#af8e00"/>
<polygon points="131.56,67.34 142.83,71.45 131.56,75.55 120.28,71.45" fill="#EDC001"/>
<polygon points="120.28,109.45 120.28,71.45 131.56,75.55 131.56,113.55" fill="#d0a800"/>
<polygon points="131.56,113.55 131.56,75.55 142.83,71.45 142.83,109.45" fill="#af8e00"/>
<polygon points="223.65,56.40 234.92,60.51 223.65,64.61 212.37,60.51" fill="#FFE135"/>
<polygon points="212.37,85.51 212.37,60.51 223.65,64.61 223.65,89.61" fill="#e0c62e"/>
<polygon points="223.65,89.61 223.65,64.61 234.92,60.51 234.92,85.51" fill="#bca627"/>
<polygon points="210.49,65.19 221.77,69.29 210.49,73.40 199.21,69.29" fill="#FFE135"/>
<polygon points="199.21,90.29 199.21,69.29 210.49,73.40 210.49,94.40" fill="#e0c62e"/>
<polygon points="210.49,94.40 210.49,73.40 221.77,69.29 221.77,90.29" fill="#bca627"/>
<polygon points="197.34,65.98 208.61,70.08 197.34,74.19 186.06,70.08" fill="#FFE135"/>
<polygon points="186.06,95.08 186.06,70.08 197.34,74.19 197.34,99.19" fill="#e0c62e"/>
<polygon points="197.34,99.19 197.34,74.19 208.61,70.08 208.61,95.08" fill="#bca627"/>
<polygon points="184.18,66.77 195.46,70.87 184.18,74.97 172.90,70.87" fill="#FFDA03"/>
<polygon points="172.90,99.87 172.90,70.87 184.18,74.97 184.18,103.97" fill="#e0bf02"/>
<polygon points="184.18,103.97 184.18,74.97 195.46,70.87 195.46,99.87" fill="#bca102"/>
<polygon points="171.02,62.55 182.30,66.66 171.02,70.76 159.75,66.66" fill="#EDC001"/>
<polygon points="159.75,104.66 159.75,66.66 171.02,70.76 171.02,108.76" fill="#d0a800"/>
<polygon points="171.02,108.76 171.02,70.76 182.30,66.66 182.30,104.66" fill="#af8e00"/>
<polygon points="157.87,60.34 169.14,64.45 157.87,68.55 146.59,64.45" fill="#C49102"/>
<polygon points="146.59,109.45 146.59,64.45 157.87,68.55 157.87,113.55" fill="#ac7f01"/>
<polygon points="157.87,113.55 157.87,68.55 169.14,64.45 169.14,109.45" fill="#916b01"/>
<polygon points="144.71,79.13 155.99,83.23 144.71,87.34 133.44,83.23" fill="#FFDA03"/>
<polygon points="133.44,114.23 133.44,83.23 144.71,87.34 144.71,118.34" fill="#e0bf02"/>
<polygon points="144.71,118.34 144.71,87.34 155.99,83.23 155.99,114.23" fill="#bca102"/>
<polygon points="236.80,55.19 248.08,59.29 236.80,63.40 225.53,59.29" fill="#FFDA03"/>
<polygon points="225.53,90.29 225.53,59.29 236.80,63.40 236.80,94.40" fill="#e0bf02"/>
<polygon points="236.80,94.40 236.80,63.40 248.08,59.29 248.08,90.29" fill="#bca102"/>
<polygon points="223.65,65.98 234.92,70.08 223.65,74.19 212.37,70.08" fill="#FFE135"/>
<polygon points="212.37,95.08 212.37,70.08 223.65,74.19 223.65,99.19" fill="#e0c62e"/>
<polygon points="223.65,99.19 223.65,74.19 234.92,70.08 234.92,95.08" fill="#bca627"/>
<polygon points="210.49,74.77 221.77,78.87 210.49,82.97 199.21,78.87" fill="#FFE135"/>
<polygon points="199.21,99.87 199.21,78.87 210.49,82.97 210.49,103.97" fill="#e0c62e"/>
<polygon points="210.49,103.97 210.49,82.97 221.77,78.87 221.77,99.87" fill="#bca627"/>
<polygon points="197.34,71.55 208.61,75.66 197.34,79.76 186.06,75.66" fill="#FFDA03"/>
<polygon points="186.06,104.66 186.06,75.66 197.34,79.76 197.34,108.76" fill="#e0bf02"/>
<polygon points="197.34,108.76 197.34,79.76 208.61,75.66 208.61,104.66" fill="#bca102"/>
<polygon points="184.18,70.34 195.46,74.45 184.18,78.55 172.90,74.45" fill="#EDC001"/>
<polygon points="172.90,109.45 172.90,74.45 184.18,78.55 184.18,113.55" fill="#d0a800"/>
<polygon points="184.18,113.55 184.18,78.55 195.46,74.45 195.46,109.45" fill="#af8e00"/>
<polygon points="171.02,72.13 182.30,76.23 171.02,80.34 159.75,76.23" fill="#EDC001"/>
<polygon points="159.75,114.23 159.75,76.23 171.02,80.34 171.02,118.34" fill="#d0a800"/>
<polygon points="171.02,118.34 171.02,80.34 182.30,76.23 182.30,114.23" fill="#af8e00"/>
<polygon points="157.87,79.92 169.14,84.02 157.87,88.13 146.59,84.02" fill="#EDC001"/>
<polygon points="146.59,119.02 146.59,84.02 157.87,88.13 157.87,123.13" fill="#d0a800"/>
<polygon points="157.87,123.13 157.87,88.13 169.14,84.02 169.14,119.02" fill="#af8e00"/>
<polygon points="249.96,55.98 261.23,60.08 249.96,64.19 238.68,60.08" fill="#EDC001"/>
<polygon points="238.68,95.08 238.68,60.08 249.96,64.19 249.96,99.19" fill="#d0a800"/>
<polygon points="249.96,99.19 249.96,64.19 261.23,60.08 261.23,95.08" fill="#af8e00"/>
<polygon points="236.80,70.77 248.08,74.87 236.80,78.97 225.53,74.87" fill="#FFE135"/>
<polygon points="225.53,99.87 225.53,74.87 236.80,78.97 236.80,103.97" fill="#e0c62e"/>
<polygon points="236.80,103.97 236.80,78.97 248.08,74.87 248.08,99.87" fill="#bca627"/>
<polygon points="223.65,75.55 234.92,79.66 223.65,83.76 212.37,79.66" fill="#FFE135"/>
<polygon points="212.37,104.66 212.37,79.66 223.65,83.76 223.65,108.76" fill="#e0c62e"/>
<polygon points="223.65,108.76 223.65,83.76 234.92,79.66 234.92,104.66" fill="#bca627"/>
<polygon points="210.49,68.34 221.77,72.45 210.49,76.55 199.21,72.45" fill="#EDC001"/>
<polygon points="199.21,109.45 199.21,72.45 210.49,76.55 210.49,113.55" fill="#d0a800"/>
<polygon points="210.49,113.55 210.49,76.55 221.77,72.45 221.77,109.45" fill="#af8e00"/>
<polygon points="197.34,73.13 208.61,77.23 197.34,81.34 186.06,77.23" fill="#EDC001"/>
<polygon points="186.06,114.23 186.06,77.23 197.34,81.34 197.34,118.34" fill="#d0a800"/>
<polygon points="197.34,118.34 197.34,81.34 208.61,77.23 208.61,114.23" fill="#af8e00"/>
<polygon points="184.18,73.92 195.46,78.02 184.18,82.13 172.90,78.02" fill="#EDC001"/>
<polygon points="172.90,119.02 172.90,78.02 184.18,82.13 184.18,123.13" fill="#d0a800"/>
<polygon points="184.18,123.13 184.18,82.13 195.46,78.02 195.46,119.02" fill="#af8e00"/>
<polygon points="171.02,103.71 182.30,107.81 171.02,111.92 159.75,107.81" fill="#FFE135"/>
<polygon points="159.75,123.81 159.75,107.81 171.02,111.92 171.02,127.92" fill="#e0c62e"/>
<polygon points="171.02,127.92 171.02,111.92 182.30,107.81 182.30,123.81" fill="#bca627"/>
<polygon points="263.11,74.77 274.39,78.87 263.11,82.97 251.84,78.87" fill="#FFE135"/>
<polygon points="251.84,99.87 251.84,78.87 263.11,82.97 263.11,103.97" fill="#e0c62e"/>
<polygon points="263.11,103.97 263.11,82.97 274.39,78.87 274.39,99.87" fill="#bca627"/>
<polygon points="249.96,49.55 261.23,53.66 249.96,57.76 238.68,53.66" fill="#C49102"/>
<polygon points="238.68,104.66 238.68,53.66 249.96,57.76 249.96,108.76" fill="#ac7f01"/>
<polygon points="249.96,108.76 249.96,57.76 261.23,53.66 261.23,104.66" fill="#916b01"/>
<polygon points="236.80,49.34 248.08,53.45 236.80,57.55 225.53,53.45" fill="#C49102"/>
<polygon points="225.53,109.45 225.53,53.45 236.80,57.55 236.80,113.55" fill="#ac7f01"/>
<polygon points="236.80,113.55 236.80,57.55 248.08,53.45 248.08,109.45" fill="#916b01"/>
<polygon points="223.65,53.13 234.92,57.23 223.65,61.34 212.37,57.23" fill="#C49102"/>
<polygon points="212.37,114.23 212.37,57.23 223.65,61.34 223.65,118.34" fill="#ac7f01"/>
<polygon points="223.65,118.34 223.65,61.34 234.92,57.23 234.92,114.23" fill="#916b01"/>
<polygon points="210.49,58.92 221.77,63.02 210.49,67.13 199.21,63.02" fill="#C49102"/>
<polygon points="199.21,119.02 199.21,63.02 210.49,67.13 210.49,123.13" fill="#ac7f01"/>
<polygon points="210.49,123.13 210.49,67.13 221.77,63.02 221.77,119.02" fill="#916b01"/>
<polygon points="197.34,63.71 208.61,67.81 197.34,71.92 186.06,67.81" fill="#C49102"/>
<polygon points="186.06,123.81 186.06,67.81 197.34,71.92 197.34,127.92" fill="#ac7f01"/>
<polygon points="197.34,127.92 197.34,71.92 208.61,67.81 208.61,123.81" fill="#916b01"/>
<polygon points="184.18,71.50 195.46,75.60 184.18,79.70 172.90,75.60" fill="#C49102"/>
<polygon points="172.90,128.60 172.90,75.60 184.18,79.70 184.18,132.70" fill="#ac7f01"/>
<polygon points="184.18,132.70 184.18,79.70 195.46,75.60 195.46,128.60" fill="#916b01"/>
<polygon points="276.27,75.55 287.55,79.66 276.27,83.76 264.99,79.66" fill="#FFE135"/>
<polygon points="264.99,104.66 264.99,79.66 276.27,83.76 276.27,108.76" fill="#e0c62e"/>
<polygon points="276.27,108.76 276.27,83.76 287.55,79.66 287.55,104.66" fill="#bca627"/>
<polygon points="263.11,84.34 274.39,88.45 263.11,92.55 251.84,88.45" fill="#FFE135"/>
<polygon points="251.84,109.45 251.84,88.45 263.11,92.55 263.11,113.55" fill="#e0c62e"/>
<polygon points="263.11,113.55 263.11,92.55 274.39,88.45 274.39,109.45" fill="#bca627"/>
<polygon points="249.96,70.13 261.23,74.23 249.96,78.34 238.68,74.23" fill="#EDC001"/>
<polygon points="238.68,114.23 238.68,74.23 249.96,78.34 249.96,118.34" fill="#d0a800"/>
<polygon points="249.96,118.34 249.96,78.34 261.23,74.23 261.23,114.23" fill="#af8e00"/>
<polygon points="236.80,74.92 248.08,79.02 236.80,83.13 225.53,79.02" fill="#EDC001"/>
<polygon points="225.53,119.02 225.53,79.02 236.80,83.13 236.80,123.13" fill="#d0a800"/>
<polygon points="236.80,123.13 236.80,83.13 248.08,79.02 248.08,119.02" fill="#af8e00"/>
<polygon points="223.65,82.71 234.92,86.81 223.65,90.92 212.37,86.81" fill="#EDC001"/>
<polygon points="212.37,123.81 212.37,86.81 223.65,90.92 223.65,127.92" fill="#d0a800"/>
<polygon points="223.65,127.92 223.65,90.92 234.92,86.81 234.92,123.81" fill="#af8e00"/>
<polygon points="210.49,91.50 221.77,95.60 210.49,99.70 199.21,95.60" fill="#FFDA03"/>
<polygon points="199.21,128.60 199.21,95.60 210.49,99.70 210.49,132.70" fill="#e0bf02"/>
<polygon points="210.49,132.70 210.49,99.70 221.77,95.60 221.77,128.60" fill="#bca102"/>
<polygon points="197.34,86.28 208.61,90.39 197.34,94.49 186.06,90.39" fill="#C49102"/>
<polygon points="186.06,133.39 186.06,90.39 197.34,94.49 197.34,137.49" fill="#ac7f01"/>
<polygon points="197.34,137.49 197.34,94.49 208.61,90.39 208.61,133.39" fill="#916b01"/>
<polygon points="289.43,68.34 300.70,72.45 289.43,76.55 278.15,72.45" fill="#EDC001"/>
<polygon points="278.15,109.45 278.15,72.45 289.43,76.55 289.43,113.55" fill="#d0a800"/>
<polygon points="289.43,113.55 289.43,76.55 300.70,72.45 300.70,109.45" fill="#af8e00"/>
<polygon points="276.27,110.13 287.55,114.23 276.27,118.34 264.99,114.23" fill="#282828"/>
<polygon points="263.11,83.92 274.39,88.02 263.11,92.13 251.84,88.02" fill="#FFDA03"/>
<polygon points="251.84,119.02 251.84,88.02 263.11,92.13 263.11,123.13" fill="#e0bf02"/>
<polygon points="263.11,123.13 263.11,92.13 274.39,88.02 274.39,119.02" fill="#bca102"/>
<polygon points="249.96,98.71 261.23,102.81 249.96,106.92 238.68,102.81" fill="#FFE135"/>
<polygon points="238.68,123.81 238.68,102.81 249.96,106.92 249.96,127.92" fill="#e0c62e"/>
<polygon points="249.96,127.92 249.96,106.92 261.23,102.81 261.23,123.81" fill="#bca627"/>
<polygon points="236.80,124.50 248.08,128.60 236.80,132.70 225.53,128.60" fill="#282828"/>
<polygon points="223.65,91.28 234.92,95.39 223.65,99.49 212.37,95.39" fill="#EDC001"/>
<polygon points="212.37,133.39 212.37,95.39 223.65,99.49 223.65,137.49" fill="#d0a800"/>
<polygon points="223.65,137.49 223.65,99.49 234.92,95.39 234.92,133.39" fill="#af8e00"/>
<polygon points="210.49,88.07 221.77,92.18 210.49,96.28 199.21,92.18" fill="#C49102"/>
<polygon points="199.21,138.18 199.21,92.18 210.49,96.28 210.49,142.28" fill="#ac7f01"/>
<polygon points="210.49,142.28 210.49,96.28 221.77,92.18 221.77,138.18" fill="#916b01"/>
<polygon points="302.58,75.13 313.86,79.23 302.58,83.34 291.30,79.23" fill="#EDC001"/>
<polygon points="291.30,114.23 291.30,79.23 302.58,83.34 302.58,118.34" fill="#d0a800"/>
<polygon points="302.58,118.34 302.58,83.34 313.86,79.23 313.86,114.23" fill="#af8e00"/>
<polygon points="289.43,93.92 300.70,98.02 289.43,102.13 278.15,98.02" fill="#FFE135"/>
<polygon points="278.15,119.02 278.15,98.02 289.43,102.13 289.43,123.13" fill="#e0c62e"/>
<polygon points="289.43,123.13 289.43,102.13 300.70,98.02 300.70,119.02" fill="#bca627"/>
<polygon points="276.27,98.71 287.55,102.81 276.27,106.92 264.99,102.81" fill="#FFE135"/>
<polygon points="264.99,123.81 264.99,102.81 276.27,106.92 276.27,127.92" fill="#e0c62e"/>
<polygon points="276.27,127.92 276.27,106.92 287.55,102.81 287.55,123.81" fill="#bca627"/>
<polygon points="263.11,99.50 274.39,103.60 263.11,107.70 251.84,103.60" fill="#FFE135"/>
<polygon points="251.84,128.60 251.84,103.60 263.11,107.70 263.11,132.70" fill="#e0c62e"/>
<polygon points="263.11,132.70 263.11,107.70 274.39,103.60 274.39,128.60" fill="#bca627"/>
<polygon points="249.96,113.28 261.23,117.39 249.96,121.49 238.68,117.39" fill="#FFE135"/>
<polygon points="238.68,133.39 238.68,117.39 249.96,121.49 249.96,137.49" fill="#e0c62e"/>
<polygon points="249.96,137.49 249.96,121.49 261.23,117.39 261.23,133.39" fill="#bca627"/>
<polygon points="236.80,94.07 248.08,98.18 236.80,102.28 225.53,98.18" fill="#EDC001"/>
<polygon points="225.53,138.18 225.53,98.18 236.80,102.28 236.80,142.28" fill="#d0a800"/>
<polygon points="236.80,142.28 236.80,102.28 248.08,98.18 248.08,138.18" fill="#af8e00"/>
<polygon points="223.65,101.86 234.92,105.96 223.65,110.07 212.37,105.96" fill="#EDC001"/>
<polygon points="212.37,142.96 212.37,105.96 223.65,110.07 223.65,147.07" fill="#d0a800"/>
<polygon points="223.65,147.07 223.65,110.07 234.92,105.96 234.92,142.96" fill="#af8e00"/>
<polygon points="315.74,74.92 327.01,79.02 315.74,83.13 304.46,79.02" fill="#EDC001"/>
<polygon points="304.46,119.02 304.46,79.02 315.74,83.13 315.74,123.13" fill="#d0a800"/>
<polygon points="315.74,123.13 315.74,83.13 327.01,79.02 327.01,119.02" fill="#af8e00"/>
<polygon points="302.58,94.71 313.86,98.81 302.58,102.92 291.30,98.81" fill="#FFE135"/>
<polygon points="291.30,123.81 291.30,98.81 302.58,102.92 302.58,127.92" fill="#e0c62e"/>
<polygon points="302.58,127.92 302.58,102.92 313.86,98.81 313.86,123.81" fill="#bca627"/>
<polygon points="289.43,95.50 300.70,99.60 289.43,103.70 278.15,99.60" fill="#FFDA03"/>
<polygon points="278.15,128.60 278.15,99.60 289.43,103.70 289.43,132.70" fill="#e0bf02"/>
<polygon points="289.43,132.70 289.43,103.70 300.70,99.60 300.70,128.60" fill="#bca102"/>
<polygon points="276.27,96.28 287.55,100.39 276.27,104.49 264.99,100.39" fill="#FFDA03"/>
<polygon points="264.99,133.39 264.99,100.39 276.27,104.49 276.27,137.49" fill="#e0bf02"/>
<polygon points="276.27,137.49 276.27,104.49 287.55,100.39 287.55,133.39" fill="#bca102"/>
<polygon points="263.11,105.07 274.39,109.18 263.11,113.28 251.84,109.18" fill="#FFDA03"/>
<polygon points="251.84,138.18 251.84,109.18 263.11,113.28 263.11,142.28" fill="#e0bf02"/>
<polygon points="263.11,142.28 263.11,113.28 274.39,109.18 274.39,138.18" fill="#bca102"/>
<polygon points="249.96,92.86 261.23,96.96 249.96,101.07 238.68,96.96" fill="#C49102"/>
<polygon points="238.68,142.96 238.68,96.96 249.96,101.07 249.96,147.07" fill="#ac7f01"/>
<polygon points="249.96,147.07 249.96,101.07 261.23,96.96 261.23,142.96" fill="#916b01"/>
<polygon points="236.80,118.65 248.08,122.75 236.80,126.86 225.53,122.75" fill="#FFE135"/>
<polygon points="225.53,147.75 225.53,122.75 236.80,126.86 236.80,151.86" fill="#e0c62e"/>
<polygon points="236.80,151.86 236.80,126.86 248.08,122.75 248.08,147.75" fill="#bca627"/>
<polygon points="328.89,84.71 340.17,88.81 328.89,92.92 317.62,88.81" fill="#EDC001"/>
<polygon points="317.62,123.81 317.62,88.81 328.89,92.92 328.89,127.92" fill="#d0a800"/>
<polygon points="328.89,127.92 328.89,92.92 340.17,88.81 340.17,123.81" fill="#af8e00"/>
<polygon points="315.74,99.50 327.01,103.60 315.74,107.70 304.46,103.60" fill="#FFE135"/>
<polygon points="304.46,128.60 304.46,103.60 315.74,107.70 315.74,132.70" fill="#e0c62e"/>
<polygon points="315.74,132.70 315.74,107.70 327.01,103.60 327.01,128.60" fill="#bca627"/>
<polygon points="302.58,108.28 313.86,112.39 302.58,116.49 291.30,112.39" fill="#FFE135"/>
<polygon points="291.30,133.39 291.30,112.39 302.58,116.49 302.58,137.49" fill="#e0c62e"/>
<polygon points="302.58,137.49 302.58,116.49 313.86,112.39 313.86,133.39" fill="#bca627"/>
<polygon points="289.43,93.07 300.70,97.18 289.43,101.28 278.15,97.18" fill="#EDC001"/>
<polygon points="278.15,138.18 278.15,97.18 289.43,101.28 289.43,142.28" fill="#d0a800"/>
<polygon points="289.43,142.28 289.43,101.28 300.70,97.18 300.70,138.18" fill="#af8e00"/>
<polygon points="276.27,97.86 287.55,101.96 276.27,106.07 264.99,101.96" fill="#EDC001"/>
<polygon points="264.99,142.96 264.99,101.96 276.27,106.07 276.27,147.07" fill="#d0a800"/>
<polygon points="276.27,147.07 276.27,106.07 287.55,101.96 287.55,142.96" fill="#af8e00"/>
<polygon points="263.11,98.65 274.39,102.75 263.11,106.86 251.84,102.75" fill="#C49102"/>
<polygon points="251.84,147.75 251.84,102.75 263.11,106.86 263.11,151.86" fill="#ac7f01"/>
<polygon points="263.11,151.86 263.11,106.86 274.39,102.75 274.39,147.75" fill="#916b01"/>
<polygon points="249.96,119.44 261.23,123.54 249.96,127.65 238.68,123.54" fill="#FFDA03"/>
<polygon points="238.68,152.54 238.68,123.54 249.96,127.65 249.96,156.65" fill="#e0bf02"/>
<polygon points="249.96,156.65 249.96,127.65 261.23,123.54 261.23,152.54" fill="#bca102"/>
<polygon points="342.05,89.50 353.32,93.60 342.05,97.70 330.77,93.60" fill="#EDC001"/>
<polygon points="330.77,128.60 330.77,93.60 342.05,97.70 342.05,132.70" fill="#d0a800"/>
<polygon points="342.05,132.70 342.05,97.70 353.32,93.60 353.32,128.60" fill="#af8e00"/>
<polygon points="328.89,104.28 340.17,108.39 328.89,112.49 317.62,108.39" fill="#FFE135"/>
<polygon points="317.62,133.39 317.62,108.39 328.89,112.49 328.89,137.49" fill="#e0c62e"/>
<polygon points="328.89,137.49 328.89,112.49 340.17,108.39 340.17,133.39" fill="#bca627"/>
<polygon points="315.74,92.07 327.01,96.18 315.74,100.28 304.46,96.18" fill="#C49102"/>
<polygon points="304.46,138.18 304.46,96.18 315.74,100.28 315.74,142.28" fill="#ac7f01"/>
<polygon points="315.74,142.28 315.74,100.28 327.01,96.18 327.01,138.18" fill="#916b01"/>
<polygon points="302.58,107.86 313.86,111.96 302.58,116.07 291.30,111.96" fill="#FFDA03"/>
<polygon points="291.30,142.96 291.30,111.96 302.58,116.07 302.58,147.07" fill="#e0bf02"/>
<polygon points="302.58,147.07 302.58,116.07 313.86,111.96 313.86,142.96" fill="#bca102"/>
<polygon points="289.43,108.65 300.70,112.75 289.43,116.86 278.15,112.75" fill="#EDC001"/>
<polygon points="278.15,147.75 278.15,112.75 289.43,116.86 289.43,151.86" fill="#d0a800"/>
<polygon points="289.43,151.86 289.43,116.86 300.70,112.75 300.70,147.75" fill="#af8e00"/>
<polygon points="276.27,104.44 287.55,108.54 276.27,112.65 264.99,108.54" fill="#C49102"/>
<polygon points="264.99,152.54 264.99,108.54 276.27,112.65 276.27,156.65" fill="#ac7f01"/>
<polygon points="276.27,156.65 276.27,112.65 287.55,108.54 287.55,152.54" fill="#916b01"/>
<polygon points="263.11,113.23 274.39,117.33 263.11,121.43 251.84,117.33" fill="#EDC001"/>
<polygon points="251.84,157.33 251.84,117.33 263.11,121.43 263.11,161.43" fill="#d0a800"/>
<polygon points="263.11,161.43 263.11,121.43 274.39,117.33 274.39,157.33" fill="#af8e00"/>
<polygon points="355.20,81.28 366.48,85.39 355.20,89.49 343.93,85.39" fill="#C49102"/>
<polygon points="343.93,133.39 343.93,85.39 355.20,89.49 355.20,137.49" fill="#ac7f01"/>
<polygon points="355.20,137.49 355.20,89.49 366.48,85.39 366.48,133.39" fill="#916b01"/>
<polygon points="342.05,109.07 353.32,113.18 342.05,117.28 330.77,113.18" fill="#FFE135"/>
<polygon points="330.77,138.18 330.77,113.18 342.05,117.28 342.05,142.28" fill="#e0c62e"/>
<polygon points="342.05,142.28 342.05,117.28 353.32,113.18 353.32,138.18" fill="#bca627"/>
<polygon points="328.89,109.86 340.17,113.96 328.89,118.07 317.62,113.96" fill="#FFDA03"/>
<polygon points="317.62,142.96 317.62,113.96 328.89,118.07 328.89,147.07" fill="#e0bf02"/>
<polygon points="328.89,147.07 328.89,118.07 340.17,113.96 340.17,142.96" fill="#bca102"/>
<polygon points="315.74,112.65 327.01,116.75 315.74,120.86 304.46,116.75" fill="#FFDA03"/>
<polygon points="304.46,147.75 304.46,116.75 315.74,120.86 315.74,151.86" fill="#e0bf02"/>
<polygon points="315.74,151.86 315.74,120.86 327.01,116.75 327.01,147.75" fill="#bca102"/>
<polygon points="302.58,119.44 313.86,123.54 302.58,127.65 291.30,123.54" fill="#FFDA03"/>
<polygon points="291.30,152.54 291.30,123.54 302.58,127.65 302.58,156.65" fill="#e0bf02"/>
<polygon points="302.58,156.65 302.58,127.65 313.86,123.54 313.86,152.54" fill="#bca102"/>
<polygon points="289.43,106.23 300.70,110.33 289.43,114.43 278.15,110.33" fill="#C49102"/>
<polygon points="278.15,157.33 278.15,110.33 289.43,114.43 289.43,161.43" fill="#ac7f01"/>
<polygon points="289.43,161.43 289.43,114.43 300.70,110.33 300.70,157.33" fill="#916b01"/>
<polygon points="276.27,118.01 287.55,122.12 276.27,126.22 264.99,122.12" fill="#EDC001"/>
<polygon points="264.99,162.12 264.99,122.12 276.27,126.22 276.27,166.22" fill="#d0a800"/>
<polygon points="276.27,166.22 276.27,126.22 287.55,122.12 287.55,162.12" fill="#af8e00"/>
<polygon points="368.36,96.07 379.64,100.18 368.36,104.28 357.08,100.18" fill="#EDC001"/>
<polygon points="357.08,138.18 357.08,100.18 368.36,104.28 368.36,142.28" fill="#d0a800"/>
<polygon points="368.36,142.28 368.36,104.28 379.64,100.18 379.64,138.18" fill="#af8e00"/>
<polygon points="355.20,122.86 366.48,126.96 355.20,131.07 343.93,126.96" fill="#FFE135"/>
<polygon points="343.93,142.96 343.93,126.96 355.20,131.07 355.20,147.07" fill="#e0c62e"/>
<polygon points="355.20,147.07 355.20,131.07 366.48,126.96 366.48,142.96" fill="#bca627"/>
<polygon points="342.05,127.65 353.32,131.75 342.05,135.86 330.77,131.75" fill="#FFE135"/>
<polygon points="330.77,147.75 330.77,131.75 342.05,135.86 342.05,151.86" fill="#e0c62e"/>
<polygon points="342.05,151.86 342.05,135.86 353.32,131.75 353.32,147.75" fill="#bca627"/>
<polygon points="328.89,132.44 340.17,136.54 328.89,140.65 317.62,136.54" fill="#FFE135"/>
<polygon points="317.62,152.54 317.62,136.54 328.89,140.65 328.89,156.65" fill="#e0c62e"/>
<polygon points="328.89,156.65 328.89,140.65 340.17,136.54 340.17,152.54" fill="#bca627"/>
<polygon points="315.74,120.23 327.01,124.33 315.74,128.43 304.46,124.33" fill="#FFDA03"/>
<polygon points="304.46,157.33 304.46,124.33 315.74,128.43 315.74,161.43" fill="#e0bf02"/>
<polygon points="315.74,161.43 315.74,128.43 327.01,124.33 327.01,157.33" fill="#bca102"/>
<polygon points="302.58,123.01 313.86,127.12 302.58,131.22 291.30,127.12" fill="#EDC001"/>
<polygon points="291.30,162.12 291.30,127.12 302.58,131.22 302.58,166.22" fill="#d0a800"/>
<polygon points="302.58,166.22 302.58,131.22 313.86,127.12 313.86,162.12" fill="#af8e00"/>
<polygon points="289.43,133.80 300.70,137.91 289.43,142.01 278.15,137.91" fill="#FFDA03"/>
<polygon points="278.15,166.91 278.15,137.91 289.43,142.01 289.43,171.01" fill="#e0bf02"/>
<polygon points="289.43,171.01 289.43,142.01 300.70,137.91 300.70,166.91" fill="#bca102"/>
<polygon points="381.52,105.86 392.79,109.96 381.52,114.07 370.24,109.96" fill="#FFDA03"/>
<polygon points="370.24,142.96 370.24,109.96 381.52,114.07 381.52,147.07" fill="#e0bf02"/>
<polygon points="381.52,147.07 381.52,114.07 392.79,109.96 392.79,142.96" fill="#bca102"/>
<polygon points="368.36,122.65 379.64,126.75 368.36,130.86 357.08,126.75" fill="#FFE135"/>
<polygon points="357.08,147.75 357.08,126.75 368.36,130.86 368.36,151.86" fill="#e0c62e"/>
<polygon points="368.36,151.86 368.36,130.86 379.64,126.75 379.64,147.75" fill="#bca627"/>
<polygon points="355.20,123.44 366.48,127.54 355.20,131.65 343.93,127.54" fill="#FFE135"/>
<polygon points="343.93,152.54 343.93,127.54 355.20,131.65 355.20,156.65" fill="#e0c62e"/>
<polygon points="355.20,156.65 355.20,131.65 366.48,127.54 366.48,152.54" fill="#bca627"/>
<polygon points="342.05,122.23 353.32,126.33 342.05,130.43 330.77,126.33" fill="#FFDA03"/>
<polygon points="330.77,157.33 330.77,126.33 342.05,130.43 342.05,161.43" fill="#e0bf02"/>
<polygon points="342.05,161.43 342.05,130.43 353.32,126.33 353.32,157.33" fill="#bca102"/>
<polygon points="328.89,125.01 340.17,129.12 328.89,133.22 317.62,129.12" fill="#FFDA03"/>
<polygon points="317.62,162.12 317.62,129.12 328.89,133.22 328.89,166.22" fill="#e0bf02"/>
<polygon points="328.89,166.22 328.89,133.22 340.17,129.12 340.17,162.12" fill="#bca102"/>
<polygon points="315.74,122.80 327.01,126.91 315.74,131.01 304.46,126.91" fill="#EDC001"/>
<polygon points="304.46,166.91 304.46,126.91 315.74,131.01 315.74,171.01" fill="#d0a800"/>
<polygon points="315.74,171.01 315.74,131.01 327.01,126.91 327.01,166.91" fill="#af8e00"/>
<polygon points="302.58,136.59 313.86,140.69 302.58,144.80 291.30,140.69" fill="#FFDA03"/>
<polygon points="291.30,171.69 291.30,140.69 302.58,144.80 302.58,175.80" fill="#e0bf02"/>
<polygon points="302.58,175.80 302.58,144.80 313.86,140.69 313.86,171.69" fill="#bca102"/>
<polygon points="394.67,122.65 405.95,126.75 394.67,130.86 383.39,126.75" fill="#FFE135"/>
<polygon points="383.39,147.75 383.39,126.75 394.67,130.86 394.67,151.86" fill="#e0c62e"/>
<polygon points="394.67,151.86 394.67,130.86 405.95,126.75 405.95,147.75" fill="#bca627"/>
<polygon points="381.52,88.44 392.79,92.54 381.52,96.65 370.24,92.54" fill="#C49102"/>
<polygon points="370.24,152.54 370.24,92.54 381.52,96.65 381.52,156.65" fill="#ac7f01"/>
<polygon points="381.52,156.65 381.52,96.65 392.79,92.54 392.79,152.54" fill="#916b01"/>
<polygon points="368.36,93.23 379.64,97.33 368.36,101.43 357.08,97.33" fill="#C49102"/>
<polygon points="357.08,157.33 357.08,97.33 368.36,101.43 368.36,161.43" fill="#ac7f01"/>
<polygon points="368.36,161.43 368.36,101.43 379.64,97.33 379.64,157.33" fill="#916b01"/>
<polygon points="355.20,105.01 366.48,109.12 355.20,113.22 343.93,109.12" fill="#C49102"/>
<polygon points="343.93,162.12 343.93,109.12 355.20,113.22 355.20,166.22" fill="#ac7f01"/>
<polygon points="355.20,166.22 355.20,113.22 366.48,109.12 366.48,162.12" fill="#916b01"/>
<polygon points="342.05,110.80 353.32,114.91 342.05,119.01 330.77,114.91" fill="#C49102"/>
<polygon points="330.77,166.91 330.77,114.91 342.05,119.01 342.05,171.01" fill="#ac7f01"/>
<polygon points="342.05,171.01 342.05,119.01 353.32,114.91 353.32,166.91" fill="#916b01"/>
<polygon points="328.89,129.59 340.17,133.69 328.89,137.80 317.62,133.69" fill="#EDC001"/>
<polygon points="317.62,171.69 317.62,133.69 328.89,137.80 328.89,175.80" fill="#d0a800"/>
<polygon points="328.89,175.80 328.89,137.80 340.17,133.69 340.17,171.69" fill="#af8e00"/>
<polygon points="315.74,134.38 327.01,138.48 315.74,142.59 304.46,138.48" fill="#EDC001"/>
<polygon points="304.46,176.48 304.46,138.48 315.74,142.59 315.74,180.59" fill="#d0a800"/>
<polygon points="315.74,180.59 315.74,142.59 327.01,138.48 327.01,176.48" fill="#af8e00"/>
<polygon points="407.83,113.44 419.10,117.54 407.83,121.65 396.55,117.54" fill="#EDC001"/>
<polygon points="396.55,152.54 396.55,117.54 407.83,121.65 407.83,156.65" fill="#d0a800"/>
<polygon points="407.83,156.65 407.83,121.65 419.10,117.54 419.10,152.54" fill="#af8e00"/>
<polygon points="394.67,113.23 405.95,117.33 394.67,121.43 383.39,117.33" fill="#EDC001"/>
<polygon points="383.39,157.33 383.39,117.33 394.67,121.43 394.67,161.43" fill="#d0a800"/>
<polygon points="394.67,161.43 394.67,121.43 405.95,117.33 405.95,157.33" fill="#af8e00"/>
<polygon points="381.52,113.01 392.79,117.12 381.52,121.22 370.24,117.12" fill="#C49102"/>
<polygon points="370.24,162.12 370.24,117.12 381.52,121.22 381.52,166.22" fill="#ac7f01"/>
<polygon points="381.52,166.22 381.52,121.22 392.79,117.12 392.79,162.12" fill="#916b01"/>
<polygon points="368.36,125.80 379.64,129.91 368.36,134.01 357.08,129.91" fill="#EDC001"/>
<polygon points="357.08,166.91 357.08,129.91 368.36,134.01 368.36,171.01" fill="#d0a800"/>
<polygon points="368.36,171.01 368.36,134.01 379.64,129.91 379.64,166.91" fill="#af8e00"/>
<polygon points="355.20,146.59 366.48,150.69 355.20,154.80 343.93,150.69" fill="#FFE135"/>
<polygon points="343.93,171.69 343.93,150.69 355.20,154.80 355.20,175.80" fill="#e0c62e"/>
<polygon points="355.20,175.80 355.20,154.80 366.48,150.69 366.48,171.69" fill="#bca627"/>
<polygon points="342.05,123.38 353.32,127.48 342.05,131.59 330.77,127.48" fill="#C49102"/>
<polygon points="330.77,176.48 330.77,127.48 342.05,131.59 342.05,180.59" fill="#ac7f01"/>
<polygon points="342.05,180.59 342.05,131.59 353.32,127.48 353.32,176.48" fill="#916b01"/>
<polygon points="328.89,134.17 340.17,138.27 328.89,142.37 317.62,138.27" fill="#C49102"/>
<polygon points="317.62,181.27 317.62,138.27 328.89,142.37 328.89,185.37" fill="#ac7f01"/>
<polygon points="328.89,185.37 328.89,142.37 340.17,138.27 340.17,181.27" fill="#916b01"/>
<polygon points="420.98,120.23 432.26,124.33 420.98,128.43 409.71,124.33" fill="#FFDA03"/>
<polygon points="409.71,157.33 409.71,124.33 420.98,128.43 420.98,161.43" fill="#e0bf02"/>
<polygon points="420.98,161.43 420.98,128.43 432.26,124.33 432.26,157.33" fill="#bca102"/>
<polygon points="407.83,137.01 419.10,141.12 407.83,145.22 396.55,141.12" fill="#FFE135"/>
<polygon points="396.55,162.12 396.55,141.12 407.83,145.22 407.83,166.22" fill="#e0c62e"/>
<polygon points="407.83,166.22 407.83,145.22 419.10,141.12 419.10,162.12" fill="#bca627"/>
<polygon points="394.67,162.80 405.95,166.91 394.67,171.01 383.39,166.91" fill="#282828"/>
<polygon points="381.52,142.59 392.79,146.69 381.52,150.80 370.24,146.69" fill="#FFE135"/>
<polygon points="370.24,171.69 370.24,146.69 381.52,150.80 381.52,175.80" fill="#e0c62e"/>
<polygon points="381.52,175.80 381.52,150.80 392.79,146.69 392.79,171.69" fill="#bca627"/>
<polygon points="368.36,132.38 379.64,136.48 368.36,140.59 357.08,136.48" fill="#EDC001"/>
<polygon points="357.08,176.48 357.08,136.48 368.36,140.59 368.36,180.59" fill="#d0a800"/>
<polygon points="368.36,180.59 368.36,140.59 379.64,136.48 379.64,176.48" fill="#af8e00"/>
<polygon points="355.20,136.17 366.48,140.27 355.20,144.37 343.93,140.27" fill="#EDC001"/>
<polygon points="343.93,181.27 343.93,140.27 355.20,144.37 355.20,185.37" fill="#d0a800"/>
<polygon points="355.20,185.37 355.20,144.37 366.48,140.27 366.48,181.27" fill="#af8e00"/>
<polygon points="342.05,148.95 353.32,153.06 342.05,157.16 330.77,153.06" fill="#FFDA03"/>
<polygon points="330.77,186.06 330.77,153.06 342.05,157.16 342.05,190.16" fill="#e0bf02"/>
<polygon points="342.05,190.16 342.05,157.16 353.32,153.06 353.32,186.06" fill="#bca102"/>
<polygon points="434.14,118.01 445.41,122.12 434.14,126.22 422.86,122.12" fill="#EDC001"/>
<polygon points="422.86,162.12 422.86,122.12 434.14,126.22 434.14,166.22" fill="#d0a800"/>
<polygon points="434.14,166.22 434.14,126.22 445.41,122.12 445.41,162.12" fill="#af8e00"/>
<polygon points="420.98,146.80 432.26,150.91 420.98,155.01 409.71,150.91" fill="#FFE135"/>
<polygon points="409.71,166.91 409.71,150.91 420.98,155.01 420.98,171.01" fill="#e0c62e"/>
<polygon points="420.98,171.01 420.98,155.01 432.26,150.91 432.26,166.91" fill="#bca627"/>
<polygon points="407.83,142.59 419.10,146.69 407.83,150.80 396.55,146.69" fill="#FFE135"/>
<polygon points="396.55,171.69 396.55,146.69 407.83,150.80 407.83,175.80" fill="#e0c62e"/>
<polygon points="407.83,175.80 407.83,150.80 419.10,146.69 419.10,171.69" fill="#bca627"/>
<polygon points="394.67,141.38 405.95,145.48 394.67,149.59 383.39,145.48" fill="#FFDA03"/>
<polygon points="383.39,176.48 383.39,145.48 394.67,149.59 394.67,180.59" fill="#e0bf02"/>
<polygon points="394.67,180.59 394.67,149.59 405.95,145.48 405.95,176.48" fill="#bca102"/>
<polygon points="381.52,146.17 392.79,150.27 381.52,154.37 370.24,150.27" fill="#FFDA03"/>
<polygon points="370.24,181.27 370.24,150.27 381.52,154.37 381.52,185.37" fill="#e0bf02"/>
<polygon points="381.52,185.37 381.52,154.37 392.79,150.27 392.79,181.27" fill="#bca102"/>
<polygon points="368.36,133.95 379.64,138.06 368.36,142.16 357.08,138.06" fill="#C49102"/>
<polygon points="357.08,186.06 357.08,138.06 368.36,142.16 368.36,190.16" fill="#ac7f01"/>
<polygon points="368.36,190.16 368.36,142.16 379.64,138.06 379.64,186.06" fill="#916b01"/>
<polygon points="355.20,144.74 366.48,148.85 355.20,152.95 343.93,148.85" fill="#C49102"/>
<polygon points="343.93,190.85 343.93,148.85 355.20,152.95 355.20,194.95" fill="#ac7f01"/>
<polygon points="355.20,194.95 355.20,152.95 366.48,148.85 366.48,190.85" fill="#916b01"/>
<polygon points="447.29,137.80 458.57,141.91 447.29,146.01 436.02,141.91" fill="#FFE135"/>
<polygon points="436.02,166.91 436.02,141.91 447.29,146.01 447.29,171.01" fill="#e0c62e"/>
<polygon points="447.29,171.01 447.29,146.01 458.57,141.91 458.57,166.91" fill="#bca627"/>
<polygon points="434.14,167.59 445.41,171.69 434.14,175.80 422.86,171.69" fill="#282828"/>
<polygon points="420.98,151.38 432.26,155.48 420.98,159.59 409.71,155.48" fill="#FFE135"/>
<polygon points="409.71,176.48 409.71,155.48 420.98,159.59 420.98,180.59" fill="#e0c62e"/>
<polygon points="420.98,180.59 420.98,159.59 432.26,155.48 432.26,176.48" fill="#bca627"/>
<polygon points="407.83,156.17 419.10,160.27 407.83,164.37 396.55,160.27" fill="#FFE135"/>
<polygon points="396.55,181.27 396.55,160.27 407.83,164.37 407.83,185.37" fill="#e0c62e"/>
<polygon points="407.83,185.37 407.83,164.37 419.10,160.27 419.10,181.27" fill="#bca627"/>
<polygon points="394.67,148.95 405.95,153.06 394.67,157.16 383.39,153.06" fill="#FFDA03"/>
<polygon points="383.39,186.06 383.39,153.06 394.67,157.16 394.67,190.16" fill="#e0bf02"/>
<polygon points="394.67,190.16 394.67,157.16 405.95,153.06 405.95,186.06" fill="#bca102"/>
<polygon points="381.52,140.74 392.79,144.85 381.52,148.95 370.24,144.85" fill="#C49102"/>
<polygon points="370.24,190.85 370.24,144.85 381.52,148.95 381.52,194.95" fill="#ac7f01"/>
<polygon points="381.52,194.95 381.52,148.95 392.79,144.85 392.79,190.85" fill="#916b01"/>
<polygon points="368.36,158.53 379.64,162.64 368.36,166.74 357.08,162.64" fill="#FFDA03"/>
<polygon points="357.08,195.64 357.08,162.64 368.36,166.74 368.36,199.74" fill="#e0bf02"/>
<polygon points="368.36,199.74 368.36,166.74 379.64,162.64 379.64,195.64" fill="#bca102"/>
<polygon points="460.45,126.59 471.73,130.69 460.45,134.80 449.17,130.69" fill="#EDC001"/>
<polygon points="449.17,171.69 449.17,130.69 460.45,134.80 460.45,175.80" fill="#d0a800"/>
<polygon points="460.45,175.80 460.45,134.80 471.73,130.69 471.73,171.69" fill="#af8e00"/>
<polygon points="447.29,151.38 458.57,155.48 447.29,159.59 436.02,155.48" fill="#FFE135"/>
<polygon points="436.02,176.48 436.02,155.48 447.29,159.59 447.29,180.59" fill="#e0c62e"/>
<polygon points="447.29,180.59 447.29,159.59 458.57,155.48 458.57,176.48" fill="#bca627"/>
<polygon points="434.14,152.17 445.41,156.27 434.14,160.37 422.86,156.27" fill="#FFE135"/>
<polygon points="422.86,181.27 422.86,156.27 434.14,160.37 434.14,185.37" fill="#e0c62e"/>
<polygon points="434.14,185.37 434.14,160.37 445.41,156.27 445.41,181.27" fill="#bca627"/>
<polygon points="420.98,150.95 432.26,155.06 420.98,159.16 409.71,155.06" fill="#FFDA03"/>
<polygon points="409.71,186.06 409.71,155.06 420.98,159.16 420.98,190.16" fill="#e0bf02"/>
<polygon points="420.98,190.16 420.98,159.16 432.26,155.06 432.26,186.06" fill="#bca102"/>
<polygon points="407.83,155.74 419.10,159.85 407.83,163.95 396.55,159.85" fill="#FFDA03"/>
<polygon points="396.55,190.85 396.55,159.85 407.83,163.95 407.83,194.95" fill="#e0bf02"/>
<polygon points="407.83,194.95 407.83,163.95 419.10,159.85 419.10,190.85" fill="#bca102"/>
<polygon points="394.67,146.53 405.95,150.64 394.67,154.74 383.39,150.64" fill="#C49102"/>
<polygon points="383.39,195.64 383.39,150.64 394.67,154.74 394.67,199.74" fill="#ac7f01"/>
<polygon points="394.67,199.74 394.67,154.74 405.95,150.64 405.95,195.64" fill="#916b01"/>
<polygon points="381.52,167.32 392.79,171.42 381.52,175.53 370.24,171.42" fill="#FFDA03"/>
<polygon points="370.24,200.42 370.24,171.42 381.52,175.53 381.52,204.53" fill="#e0bf02"/>
<polygon points="381.52,204.53 381.52,175.53 392.79,171.42 392.79,200.42" fill="#bca102"/>
<polygon points="473.61,134.38 484.88,138.48 473.61,142.59 462.33,138.48" fill="#EDC001"/>
<polygon points="462.33,176.48 462.33,138.48 473.61,142.59 473.61,180.59" fill="#d0a800"/>
<polygon points="473.61,180.59 473.61,142.59 484.88,138.48 484.88,176.48" fill="#af8e00"/>
<polygon points="460.45,161.17 471.73,165.27 460.45,169.37 449.17,165.27" fill="#FFE135"/>
<polygon points="449.17,181.27 449.17,165.27 460.45,169.37 460.45,185.37" fill="#e0c62e"/>
<polygon points="460.45,185.37 460.45,169.37 471.73,165.27 471.73,181.27" fill="#bca627"/>
<polygon points="447.29,148.95 458.57,153.06 447.29,157.16 436.02,153.06" fill="#FFDA03"/>
<polygon points="436.02,186.06 436.02,153.06 447.29,157.16 447.29,190.16" fill="#e0bf02"/>
<polygon points="447.29,190.16 447.29,157.16 458.57,153.06 458.57,186.06" fill="#bca102"/>
<polygon points="434.14,157.74 445.41,161.85 434.14,165.95 422.86,161.85" fill="#FFDA03"/>
<polygon points="422.86,190.85 422.86,161.85 434.14,165.95 434.14,194.95" fill="#e0bf02"/>
<polygon points="434.14,194.95 434.14,165.95 445.41,161.85 445.41,190.85" fill="#bca102"/>
<polygon points="420.98,154.53 432.26,158.64 420.98,162.74 409.71,158.64" fill="#EDC001"/>
<polygon points="409.71,195.64 409.71,158.64 420.98,162.74 420.98,199.74" fill="#d0a800"/>
<polygon points="420.98,199.74 420.98,162.74 432.26,158.64 432.26,195.64" fill="#af8e00"/>
<polygon points="407.83,149.32 419.10,153.42 407.83,157.53 396.55,153.42" fill="#C49102"/>
<polygon points="396.55,200.42 396.55,153.42 407.83,157.53 407.83,204.53" fill="#ac7f01"/>
<polygon points="407.83,204.53 407.83,157.53 419.10,153.42 419.10,200.42" fill="#916b01"/>
<polygon points="394.67,172.11 405.95,176.21 394.67,180.32 383.39,176.21" fill="#FFDA03"/>
<polygon points="383.39,205.21 383.39,176.21 394.67,180.32 394.67,209.32" fill="#e0bf02"/>
<polygon points="394.67,209.32 394.67,180.32 405.95,176.21 405.95,205.21" fill="#bca102"/>
<polygon points="486.76,134.17 498.04,138.27 486.76,142.37 475.48,138.27" fill="#C49102"/>
<polygon points="475.48,181.27 475.48,138.27 486.76,142.37 486.76,185.37" fill="#ac7f01"/>
<polygon points="486.76,185.37 486.76,142.37 498.04,138.27 498.04,181.27" fill="#916b01"/>
<polygon points="473.61,150.95 484.88,155.06 473.61,159.16 462.33,155.06" fill="#FFDA03"/>
<polygon points="462.33,186.06 462.33,155.06 473.61,159.16 473.61,190.16" fill="#e0bf02"/>
<polygon points="473.61,190.16 473.61,159.16 484.88,155.06 484.88,186.06" fill="#bca102"/>
<polygon points="460.45,157.74 471.73,161.85 460.45,165.95 449.17,161.85" fill="#FFDA03"/>
<polygon points="449.17,190.85 449.17,161.85 460.45,165.95 460.45,194.95" fill="#e0bf02"/>
<polygon points="460.45,194.95 460.45,165.95 471.73,161.85 471.73,190.85" fill="#bca102"/>
<polygon points="447.29,191.53 458.57,195.64 447.29,199.74 436.02,195.64" fill="#282828"/>
<polygon points="434.14,158.32 445.41,162.42 434.14,166.53 422.86,162.42" fill="#EDC001"/>
<polygon points="422.86,200.42 422.86,162.42 434.14,166.53 434.14,204.53" fill="#d0a800"/>
<polygon points="434.14,204.53 434.14,166.53 445.41,162.42 445.41,200.42" fill="#af8e00"/>
<polygon points="420.98,160.11 432.26,164.21 420.98,168.32 409.71,164.21" fill="#EDC001"/>
<polygon points="409.71,205.21 409.71,164.21 420.98,168.32 420.98,209.32" fill="#d0a800"/>
<polygon points="420.98,209.32 420.98,168.32 432.26,164.21 432.26,205.21" fill="#af8e00"/>
<polygon points="407.83,189.90 419.10,194.00 407.83,198.10 396.55,194.00" fill="#FFE135"/>
<polygon points="396.55,210.00 396.55,194.00 407.83,198.10 407.83,214.10" fill="#e0c62e"/>
<polygon points="407.83,214.10 407.83,198.10 419.10,194.00 419.10,210.00" fill="#bca627"/>
<polygon points="499.92,140.95 511.19,145.06 499.92,149.16 488.64,145.06" fill="#EDC001"/>
<polygon points="488.64,186.06 488.64,145.06 499.92,149.16 499.92,190.16" fill="#d0a800"/>
<polygon points="499.92,190.16 499.92,149.16 511.19,145.06 511.19,186.06" fill="#af8e00"/>
<polygon points="486.76,170.74 498.04,174.85 486.76,178.95 475.48,174.85" fill="#FFE135"/>
<polygon points="475.48,190.85 475.48,174.85 486.76,178.95 486.76,194.95" fill="#e0c62e"/>
<polygon points="486.76,194.95 486.76,178.95 498.04,174.85 498.04,190.85" fill="#bca627"/>
<polygon points="473.61,166.53 484.88,170.64 473.61,174.74 462.33,170.64" fill="#FFE135"/>
<polygon points="462.33,195.64 462.33,170.64 473.61,174.74 473.61,199.74" fill="#e0c62e"/>
<polygon points="473.61,199.74 473.61,174.74 484.88,170.64 484.88,195.64" fill="#bca627"/>
<polygon points="460.45,175.32 471.73,179.42 460.45,183.53 449.17,179.42" fill="#FFE135"/>
<polygon points="449.17,200.42 449.17,179.42 460.45,183.53 460.45,204.53" fill="#e0c62e"/>
<polygon points="460.45,204.53 460.45,183.53 471.73,179.42 471.73,200.42" fill="#bca627"/>
<polygon points="447.29,163.11 458.57,167.21 447.29,171.32 436.02,167.21" fill="#EDC001"/>
<polygon points="436.02,205.21 436.02,167.21 447.29,171.32 447.29,209.32" fill="#d0a800"/>
<polygon points="447.29,209.32 447.29,171.32 458.57,167.21 458.57,205.21" fill="#af8e00"/>
<polygon points="434.14,172.90 445.41,177.00 434.14,181.10 422.86,177.00" fill="#FFDA03"/>
<polygon points="422.86,210.00 422.86,177.00 434.14,181.10 434.14,214.10" fill="#e0bf02"/>
<polygon points="434.14,214.10 434.14,181.10 445.41,177.00 445.41,210.00" fill="#bca102"/>
<polygon points="420.98,175.68 432.26,179.79 420.98,183.89 409.71,179.79" fill="#EDC001"/>
<polygon points="409.71,214.79 409.71,179.79 420.98,183.89 420.98,218.89" fill="#d0a800"/>
<polygon points="420.98,218.89 420.98,183.89 432.26,179.79 432.26,214.79" fill="#af8e00"/>
<polygon points="513.07,149.74 524.35,153.85 513.07,157.95 501.80,153.85" fill="#EDC001"/>
<polygon points="501.80,190.85 501.80,153.85 513.07,157.95 513.07,194.95" fill="#d0a800"/>
<polygon points="513.07,194.95 513.07,157.95 524.35,153.85 524.35,190.85" fill="#af8e00"/>
<polygon points="499.92,132.53 511.19,136.64 499.92,140.74 488.64,136.64" fill="#C49102"/>
<polygon points="488.64,195.64 488.64,136.64 499.92,140.74 499.92,199.74" fill="#ac7f01"/>
<polygon points="499.92,199.74 499.92,140.74 511.19,136.64 511.19,195.64" fill="#916b01"/>
<polygon points="486.76,137.32 498.04,141.42 486.76,145.53 475.48,141.42" fill="#C49102"/>
<polygon points="475.48,200.42 475.48,141.42 486.76,145.53 486.76,204.53" fill="#ac7f01"/>
<polygon points="486.76,204.53 486.76,145.53 498.04,141.42 498.04,200.42" fill="#916b01"/>
<polygon points="473.61,144.11 484.88,148.21 473.61,152.32 462.33,148.21" fill="#C49102"/>
<polygon points="462.33,205.21 462.33,148.21 473.61,152.32 473.61,209.32" fill="#ac7f01"/>
<polygon points="473.61,209.32 473.61,152.32 484.88,148.21 484.88,205.21" fill="#916b01"/>
<polygon points="460.45,162.90 471.73,167.00 460.45,171.10 449.17,167.00" fill="#C49102"/>
<polygon points="449.17,210.00 449.17,167.00 460.45,171.10 460.45,214.10" fill="#ac7f01"/>
<polygon points="460.45,214.10 460.45,171.10 471.73,167.00 471.73,210.00" fill="#916b01"/>
<polygon points="447.29,157.68 458.57,161.79 447.29,165.89 436.02,161.79" fill="#C49102"/>
<polygon points="436.02,214.79 436.02,161.79 447.29,165.89 447.29,218.89" fill="#ac7f01"/>
<polygon points="447.29,218.89 447.29,165.89 458.57,161.79 458.57,214.79" fill="#916b01"/>
<polygon points="434.14,180.47 445.41,184.58 434.14,188.68 422.86,184.58" fill="#EDC001"/>
<polygon points="422.86,219.58 422.86,184.58 434.14,188.68 434.14,223.68" fill="#d0a800"/>
<polygon points="434.14,223.68 434.14,188.68 445.41,184.58 445.41,219.58" fill="#af8e00"/>
<polygon points="526.23,158.53 537.50,162.64 526.23,166.74 514.95,162.64" fill="#FFDA03"/>
<polygon points="514.95,195.64 514.95,162.64 526.23,166.74 526.23,199.74" fill="#e0bf02"/>
<polygon points="526.23,199.74 526.23,166.74 537.50,162.64 537.50,195.64" fill="#bca102"/>
<polygon points="513.07,150.32 524.35,154.42 513.07,158.53 501.80,154.42" fill="#C49102"/>
<polygon points="501.80,200.42 501.80,154.42 513.07,158.53 513.07,204.53" fill="#ac7f01"/>
<polygon points="513.07,204.53 513.07,158.53 524.35,154.42 524.35,200.42" fill="#916b01"/>
<polygon points="499.92,160.11 511.19,164.21 499.92,168.32 488.64,164.21" fill="#EDC001"/>
<polygon points="488.64,205.21 488.64,164.21 499.92,168.32 499.92,209.32" fill="#d0a800"/>
<polygon points="499.92,209.32 499.92,168.32 511.19,164.21 511.19,205.21" fill="#af8e00"/>
<polygon points="486.76,167.90 498.04,172.00 486.76,176.10 475.48,172.00" fill="#EDC001"/>
<polygon points="475.48,210.00 475.48,172.00 486.76,176.10 486.76,214.10" fill="#d0a800"/>
<polygon points="486.76,214.10 486.76,176.10 498.04,172.00 498.04,210.00" fill="#af8e00"/>
<polygon points="473.61,170.68 484.88,174.79 473.61,178.89 462.33,174.79" fill="#EDC001"/>
<polygon points="462.33,214.79 462.33,174.79 473.61,178.89 473.61,218.89" fill="#d0a800"/>
<polygon points="473.61,218.89 473.61,178.89 484.88,174.79 484.88,214.79" fill="#af8e00"/>
<polygon points="460.45,164.47 471.73,168.58 460.45,172.68 449.17,168.58" fill="#C49102"/>
<polygon points="449.17,219.58 449.17,168.58 460.45,172.68 460.45,223.68" fill="#ac7f01"/>
<polygon points="460.45,223.68 460.45,172.68 471.73,168.58 471.73,219.58" fill="#916b01"/>
<polygon points="447.29,187.26 458.57,191.37 447.29,195.47 436.02,191.37" fill="#FFDA03"/>
<polygon points="436.02,224.37 436.02,191.37 447.29,195.47 447.29,228.47" fill="#e0bf02"/>
<polygon points="447.29,228.47 447.29,195.47 458.57,191.37 458.57,224.37" fill="#bca102"/>
<polygon points="539.38,171.32 550.66,175.42 539.38,179.53 528.11,175.42" fill="#FFE135"/>
<polygon points="528.11,200.42 528.11,175.42 539.38,179.53 539.38,204.53" fill="#e0c62e"/>
<polygon points="539.38,204.53 539.38,179.53 550.66,175.42 550.66,200.42" fill="#bca627"/>
<polygon points="526.23,166.11 537.50,170.21 526.23,174.32 514.95,170.21" fill="#EDC001"/>
<polygon points="514.95,205.21 514.95,170.21 526.23,174.32 526.23,209.32" fill="#d0a800"/>
<polygon points="526.23,209.32 526.23,174.32 537.50,170.21 537.50,205.21" fill="#af8e00"/>
<polygon points="513.07,189.90 524.35,194.00 513.07,198.10 501.80,194.00" fill="#FFE135"/>
<polygon points="501.80,210.00 501.80,194.00 513.07,198.10 513.07,214.10" fill="#e0c62e"/>
<polygon points="513.07,214.10 513.07,198.10 524.35,194.00 524.35,210.00" fill="#bca627"/>
<polygon points="499.92,189.68 511.19,193.79 499.92,197.89 488.64,193.79" fill="#FFE135"/>
<polygon points="488.64,214.79 488.64,193.79 499.92,197.89 499.92,218.89" fill="#e0c62e"/>
<polygon points="499.92,218.89 499.92,197.89 511.19,193.79 511.19,214.79" fill="#bca627"/>
<polygon points="486.76,182.47 498.04,186.58 486.76,190.68 475.48,186.58" fill="#FFDA03"/>
<polygon points="475.48,219.58 475.48,186.58 486.76,190.68 486.76,223.68" fill="#e0bf02"/>
<polygon points="486.76,223.68 486.76,190.68 498.04,186.58 498.04,219.58" fill="#bca102"/>
<polygon points="473.61,179.26 484.88,183.37 473.61,187.47 462.33,183.37" fill="#EDC001"/>
<polygon points="462.33,224.37 462.33,183.37 473.61,187.47 473.61,228.47" fill="#d0a800"/>
<polygon points="473.61,228.47 473.61,187.47 484.88,183.37 484.88,224.37" fill="#af8e00"/>
<polygon points="460.45,204.05 471.73,208.15 460.45,212.26 449.17,208.15" fill="#FFE135"/>
<polygon points="449.17,229.15 449.17,208.15 460.45,212.26 460.45,233.26" fill="#e0c62e"/>
<polygon points="460.45,233.26 460.45,212.26 471.73,208.15 471.73,229.15" fill="#bca627"/>
<polygon points="552.54,168.11 563.82,172.21 552.54,176.32 541.26,172.21" fill="#FFDA03"/>
<polygon points="541.26,205.21 541.26,172.21 552.54,176.32 552.54,209.32" fill="#e0bf02"/>
<polygon points="552.54,209.32 552.54,176.32 563.82,172.21 563.82,205.21" fill="#bca102"/>
<polygon points="539.38,184.90 550.66,189.00 539.38,193.10 528.11,189.00" fill="#FFE135"/>
<polygon points="528.11,210.00 528.11,189.00 539.38,193.10 539.38,214.10" fill="#e0c62e"/>
<polygon points="539.38,214.10 539.38,193.10 550.66,189.00 550.66,210.00" fill="#bca627"/>
<polygon points="526.23,173.68 537.50,177.79 526.23,181.89 514.95,177.79" fill="#EDC001"/>
<polygon points="514.95,214.79 514.95,177.79 526.23,181.89 526.23,218.89" fill="#d0a800"/>
<polygon points="526.23,218.89 526.23,181.89 537.50,177.79 537.50,214.79" fill="#af8e00"/>
<polygon points="513.07,186.47 524.35,190.58 513.07,194.68 501.80,190.58" fill="#FFDA03"/>
<polygon points="501.80,219.58 501.80,190.58 513.07,194.68 513.07,223.68" fill="#e0bf02"/>
<polygon points="513.07,223.68 513.07,194.68 524.35,190.58 524.35,219.58" fill="#bca102"/>
<polygon points="499.92,187.26 511.19,191.37 499.92,195.47 488.64,191.37" fill="#FFDA03"/>
<polygon points="488.64,224.37 488.64,191.37 499.92,195.47 499.92,228.47" fill="#e0bf02"/>
<polygon points="499.92,228.47 499.92,195.47 511.19,191.37 511.19,224.37" fill="#bca102"/>
<polygon points="486.76,182.05 498.04,186.15 486.76,190.26 475.48,186.15" fill="#C49102"/>
<polygon points="475.48,229.15 475.48,186.15 486.76,190.26 486.76,233.26" fill="#ac7f01"/>
<polygon points="486.76,233.26 486.76,190.26 498.04,186.15 498.04,229.15" fill="#916b01"/>
<polygon points="473.61,192.84 484.88,196.94 473.61,201.05 462.33,196.94" fill="#EDC001"/>
<polygon points="462.33,233.94 462.33,196.94 473.61,201.05 473.61,238.05" fill="#d0a800"/>
<polygon points="473.61,238.05 473.61,201.05 484.88,196.94 484.88,233.94" fill="#af8e00"/>
<polygon points="565.69,180.90 576.97,185.00 565.69,189.10 554.42,185.00" fill="#FFE135"/>
<polygon points="554.42,210.00 554.42,185.00 565.69,189.10 565.69,214.10" fill="#e0c62e"/>
<polygon points="565.69,214.10 565.69,189.10 576.97,185.00 576.97,210.00" fill="#bca627"/>
<polygon points="552.54,194.68 563.82,198.79 552.54,202.89 541.26,198.79" fill="#FFE135"/>
<polygon points="541.26,214.79 541.26,198.79 552.54,202.89 552.54,218.89" fill="#e0c62e"/>
<polygon points="552.54,218.89 552.54,202.89 563.82,198.79 563.82,214.79" fill="#bca627"/>
<polygon points="539.38,199.47 550.66,203.58 539.38,207.68 528.11,203.58" fill="#FFE135"/>
<polygon points="528.11,219.58 528.11,203.58 539.38,207.68 539.38,223.68" fill="#e0c62e"/>
<polygon points="539.38,223.68 539.38,207.68 550.66,203.58 550.66,219.58" fill="#bca627"/>
<polygon points="526.23,174.26 537.50,178.37 526.23,182.47 514.95,178.37" fill="#C49102"/>
<polygon points="514.95,224.37 514.95,178.37 526.23,182.47 526.23,228.47" fill="#ac7f01"/>
<polygon points="526.23,228.47 526.23,182.47 537.50,178.37 537.50,224.37" fill="#916b01"/>
<polygon points="513.07,196.05 524.35,200.15 513.07,204.26 501.80,200.15" fill="#FFDA03"/>
<polygon points="501.80,229.15 501.80,200.15 513.07,204.26 513.07,233.26" fill="#e0bf02"/>
<polygon points="513.07,233.26 513.07,204.26 524.35,200.15 524.35,229.15" fill="#bca102"/>
<polygon points="499.92,179.84 511.19,183.94 499.92,188.05 488.64,183.94" fill="#C49102"/>
<polygon points="488.64,233.94 488.64,183.94 499.92,188.05 499.92,238.05" fill="#ac7f01"/>
<polygon points="499.92,238.05 499.92,188.05 511.19,183.94 511.19,233.94" fill="#916b01"/>
<polygon points="486.76,213.63 498.04,217.73 486.76,221.83 475.48,217.73" fill="#FFE135"/>
<polygon points="475.48,238.73 475.48,217.73 486.76,221.83 486.76,242.83" fill="#e0c62e"/>
<polygon points="486.76,242.83 486.76,221.83 498.04,217.73 498.04,238.73" fill="#bca627"/>
<polygon points="578.85,172.68 590.13,176.79 578.85,180.89 567.57,176.79" fill="#EDC001"/>
<polygon points="567.57,214.79 567.57,176.79 578.85,180.89 578.85,218.89" fill="#d0a800"/>
<polygon points="578.85,218.89 578.85,180.89 590.13,176.79 590.13,214.79" fill="#af8e00"/>
<polygon points="565.69,190.47 576.97,194.58 565.69,198.68 554.42,194.58" fill="#FFE135"/>
<polygon points="554.42,219.58 554.42,194.58 565.69,198.68 565.69,223.68" fill="#e0c62e"/>
<polygon points="565.69,223.68 565.69,198.68 576.97,194.58 576.97,219.58" fill="#bca627"/>
<polygon points="552.54,187.26 563.82,191.37 552.54,195.47 541.26,191.37" fill="#FFDA03"/>
<polygon points="541.26,224.37 541.26,191.37 552.54,195.47 552.54,228.47" fill="#e0bf02"/>
<polygon points="552.54,228.47 552.54,195.47 563.82,191.37 563.82,224.37" fill="#bca102"/>
<polygon points="539.38,204.05 550.66,208.15 539.38,212.26 528.11,208.15" fill="#FFE135"/>
<polygon points="528.11,229.15 528.11,208.15 539.38,212.26 539.38,233.26" fill="#e0c62e"/>
<polygon points="539.38,233.26 539.38,212.26 550.66,208.15 550.66,229.15" fill="#bca627"/>
<polygon points="526.23,196.84 537.50,200.94 526.23,205.05 514.95,200.94" fill="#FFDA03"/>
<polygon points="514.95,233.94 514.95,200.94 526.23,205.05 526.23,238.05" fill="#e0bf02"/>
<polygon points="526.23,238.05 526.23,205.05 537.50,200.94 537.50,233.94" fill="#bca102"/>
<polygon points="513.07,182.63 524.35,186.73 513.07,190.83 501.80,186.73" fill="#C49102"/>
<polygon points="501.80,238.73 501.80,186.73 513.07,190.83 513.07,242.83" fill="#ac7f01"/>
<polygon points="513.07,242.83 513.07,190.83 524.35,186.73 524.35,238.73" fill="#916b01"/>
<polygon points="499.92,198.41 511.19,202.52 499.92,206.62 488.64,202.52" fill="#EDC001"/>
<polygon points="488.64,243.52 488.64,202.52 499.92,206.62 499.92,247.62" fill="#d0a800"/>
<polygon points="499.92,247.62 499.92,206.62 511.19,202.52 511.19,243.52" fill="#af8e00"/>
<polygon points="592.01,175.47 603.28,179.58 592.01,183.68 580.73,179.58" fill="#EDC001"/>
<polygon points="580.73,219.58 580.73,179.58 592.01,183.68 592.01,223.68" fill="#d0a800"/>
<polygon points="592.01,223.68 592.01,183.68 603.28,179.58 603.28,219.58" fill="#af8e00"/>
<polygon points="578.85,195.26 590.13,199.37 578.85,203.47 567.57,199.37" fill="#FFE135"/>
<polygon points="567.57,224.37 567.57,199.37 578.85,203.47 578.85,228.47" fill="#e0c62e"/>
<polygon points="578.85,228.47 578.85,203.47 590.13,199.37 590.13,224.37" fill="#bca627"/>
<polygon points="565.69,200.05 576.97,204.15 565.69,208.26 554.42,204.15" fill="#FFE135"/>
<polygon points="554.42,229.15 554.42,204.15 565.69,208.26 565.69,233.26" fill="#e0c62e"/>
<polygon points="565.69,233.26 565.69,208.26 576.97,204.15 576.97,229.15" fill="#bca627"/>
<polygon points="552.54,229.84 563.82,233.94 552.54,238.05 541.26,233.94" fill="#282828"/>
<polygon points="539.38,196.63 550.66,200.73 539.38,204.83 528.11,200.73" fill="#EDC001"/>
<polygon points="528.11,238.73 528.11,200.73 539.38,204.83 539.38,242.83" fill="#d0a800"/>
<polygon points="539.38,242.83 539.38,204.83 550.66,200.73 550.66,238.73" fill="#af8e00"/>
<polygon points="526.23,193.41 537.50,197.52 526.23,201.62 514.95,197.52" fill="#C49102"/>
<polygon points="514.95,243.52 514.95,197.52 526.23,201.62 526.23,247.62" fill="#ac7f01"/>
<polygon points="526.23,247.62 526.23,201.62 537.50,197.52 537.50,243.52" fill="#916b01"/>
<polygon points="513.07,204.20 524.35,208.31 513.07,212.41 501.80,208.31" fill="#EDC001"/>
<polygon points="501.80,248.31 501.80,208.31 513.07,212.41 513.07,252.41" fill="#d0a800"/>
<polygon points="513.07,252.41 513.07,212.41 524.35,208.31 524.35,248.31" fill="#af8e00"/>
<polygon points="605.16,171.26 616.44,175.37 605.16,179.47 593.89,175.37" fill="#C49102"/>
<polygon points="593.89,224.37 593.89,175.37 605.16,179.47 605.16,228.47" fill="#ac7f01"/>
<polygon points="605.16,228.47 605.16,179.47 616.44,175.37 616.44,224.37" fill="#916b01"/>
<polygon points="592.01,182.05 603.28,186.15 592.01,190.26 580.73,186.15" fill="#C49102"/>
<polygon points="580.73,229.15 580.73,186.15 592.01,190.26 592.01,233.26" fill="#ac7f01"/>
<polygon points="592.01,233.26 592.01,190.26 603.28,186.15 603.28,229.15" fill="#916b01"/>
<polygon points="578.85,192.84 590.13,196.94 578.85,201.05 567.57,196.94" fill="#EDC001"/>
<polygon points="567.57,233.94 567.57,196.94 578.85,201.05 578.85,238.05" fill="#d0a800"/>
<polygon points="578.85,238.05 578.85,201.05 590.13,196.94 590.13,233.94" fill="#af8e00"/>
<polygon points="565.69,209.63 576.97,213.73 565.69,217.83 554.42,213.73" fill="#FFE135"/>
<polygon points="554.42,238.73 554.42,213.73 565.69,217.83 565.69,242.83" fill="#e0c62e"/>
<polygon points="565.69,242.83 565.69,217.83 576.97,213.73 576.97,238.73" fill="#bca627"/>
<polygon points="552.54,210.41 563.82,214.52 552.54,218.62 541.26,214.52" fill="#FFDA03"/>
<polygon points="541.26,243.52 541.26,214.52 552.54,218.62 552.54,247.62" fill="#e0bf02"/>
<polygon points="552.54,247.62 552.54,218.62 563.82,214.52 563.82,243.52" fill="#bca102"/>
<polygon points="539.38,202.20 550.66,206.31 539.38,210.41 528.11,206.31" fill="#C49102"/>
<polygon points="528.11,248.31 528.11,206.31 539.38,210.41 539.38,252.41" fill="#ac7f01"/>
<polygon points="539.38,252.41 539.38,210.41 550.66,206.31 550.66,248.31" fill="#916b01"/>
<polygon points="526.23,205.99 537.50,210.09 526.23,214.20 514.95,210.09" fill="#C49102"/>
<polygon points="514.95,253.09 514.95,210.09 526.23,214.20 526.23,257.20" fill="#ac7f01"/>
<polygon points="526.23,257.20 526.23,214.20 537.50,210.09 537.50,253.09" fill="#916b01"/>
<polygon points="618.32,187.05 629.59,191.15 618.32,195.26 607.04,191.15" fill="#EDC001"/>
<polygon points="607.04,229.15 607.04,191.15 618.32,195.26 618.32,233.26" fill="#d0a800"/>
<polygon points="618.32,233.26 618.32,195.26 629.59,191.15 629.59,229.15" fill="#af8e00"/>
<polygon points="605.16,196.84 616.44,200.94 605.16,205.05 593.89,200.94" fill="#FFDA03"/>
<polygon points="593.89,233.94 593.89,200.94 605.16,205.05 605.16,238.05" fill="#e0bf02"/>
<polygon points="605.16,238.05 605.16,205.05 616.44,200.94 616.44,233.94" fill="#bca102"/>
<polygon points="592.01,191.63 603.28,195.73 592.01,199.83 580.73,195.73" fill="#C49102"/>
<polygon points="580.73,238.73 580.73,195.73 592.01,199.83 592.01,242.83" fill="#ac7f01"/>
<polygon points="592.01,242.83 592.01,199.83 603.28,195.73 603.28,238.73" fill="#916b01"/>
<polygon points="578.85,202.41 590.13,206.52 578.85,210.62 567.57,206.52" fill="#EDC001"/>
<polygon points="567.57,243.52 567.57,206.52 578.85,210.62 578.85,247.62" fill="#d0a800"/>
<polygon points="578.85,247.62 578.85,210.62 590.13,206.52 590.13,243.52" fill="#af8e00"/>
<polygon points="565.69,202.20 576.97,206.31 565.69,210.41 554.42,206.31" fill="#C49102"/>
<polygon points="554.42,248.31 554.42,206.31 565.69,210.41 565.69,252.41" fill="#ac7f01"/>
<polygon points="565.69,252.41 565.69,210.41 576.97,206.31 576.97,248.31" fill="#916b01"/>
<polygon points="552.54,205.99 563.82,210.09 552.54,214.20 541.26,210.09" fill="#C49102"/>
<polygon points="541.26,253.09 541.26,210.09 552.54,214.20 552.54,257.20" fill="#ac7f01"/>
<polygon points="552.54,257.20 552.54,214.20 563.82,210.09 563.82,253.09" fill="#916b01"/>
<polygon points="539.38,228.78 550.66,232.88 539.38,236.99 528.11,232.88" fill="#FFE135"/>
<polygon points="528.11,257.88 528.11,232.88 539.38,236.99 539.38,261.99" fill="#e0c62e"/>
<polygon points="539.38,261.99 539.38,236.99 550.66,232.88 550.66,257.88" fill="#bca627"/>
<polygon points="631.47,208.84 642.75,212.94 631.47,217.05 620.20,212.94" fill="#FFE135"/>
<polygon points="620.20,233.94 620.20,212.94 631.47,217.05 631.47,238.05" fill="#e0c62e"/>
<polygon points="631.47,238.05 631.47,217.05 642.75,212.94 642.75,233.94" fill="#bca627"/>
<polygon points="618.32,174.63 629.59,178.73 618.32,182.83 607.04,178.73" fill="#C49102"/>
<polygon points="607.04,238.73 607.04,178.73 618.32,182.83 618.32,242.83" fill="#ac7f01"/>
<polygon points="618.32,242.83 618.32,182.83 629.59,178.73 629.59,238.73" fill="#916b01"/>
<polygon points="605.16,179.41 616.44,183.52 605.16,187.62 593.89,183.52" fill="#C49102"/>
<polygon points="593.89,243.52 593.89,183.52 605.16,187.62 605.16,247.62" fill="#ac7f01"/>
<polygon points="605.16,247.62 605.16,187.62 616.44,183.52 616.44,243.52" fill="#916b01"/>
<polygon points="592.01,192.20 603.28,196.31 592.01,200.41 580.73,196.31" fill="#C49102"/>
<polygon points="580.73,248.31 580.73,196.31 592.01,200.41 592.01,252.41" fill="#ac7f01"/>
<polygon points="592.01,252.41 592.01,200.41 603.28,196.31 603.28,248.31" fill="#916b01"/>
<polygon points="578.85,199.99 590.13,204.09 578.85,208.20 567.57,204.09" fill="#C49102"/>
<polygon points="567.57,253.09 567.57,204.09 578.85,208.20 578.85,257.20" fill="#ac7f01"/>
<polygon points="578.85,257.20 578.85,208.20 590.13,204.09 590.13,253.09" fill="#916b01"/>
<polygon points="565.69,212.78 576.97,216.88 565.69,220.99 554.42,216.88" fill="#EDC001"/>
<polygon points="554.42,257.88 554.42,216.88 565.69,220.99 565.69,261.99" fill="#d0a800"/>
<polygon points="565.69,261.99 565.69,220.99 576.97,216.88 576.97,257.88" fill="#af8e00"/>
<polygon points="552.54,223.57 563.82,227.67 552.54,231.78 541.26,227.67" fill="#EDC001"/>
<polygon points="541.26,262.67 541.26,227.67 552.54,231.78 552.54,266.78" fill="#d0a800"/>
<polygon points="552.54,266.78 552.54,231.78 563.82,227.67 563.82,262.67" fill="#af8e00"/>
<polygon points="644.63,197.63 655.91,201.73 644.63,205.83 633.35,201.73" fill="#EDC001"/>
<polygon points="633.35,238.73 633.35,201.73 644.63,205.83 644.63,242.83" fill="#d0a800"/>
<polygon points="644.63,242.83 644.63,205.83 655.91,201.73 655.91,238.73" fill="#af8e00"/>
<polygon points="631.47,198.41 642.75,202.52 631.47,206.62 620.20,202.52" fill="#EDC001"/>
<polygon points="620.20,243.52 620.20,202.52 631.47,206.62 631.47,247.62" fill="#d0a800"/>
<polygon points="631.47,247.62 631.47,206.62 642.75,202.52 642.75,243.52" fill="#af8e00"/>
<polygon points="618.32,194.20 629.59,198.31 618.32,202.41 607.04,198.31" fill="#C49102"/>
<polygon points="607.04,248.31 607.04,198.31 618.32,202.41 618.32,252.41" fill="#ac7f01"/>
<polygon points="618.32,252.41 618.32,202.41 629.59,198.31 629.59,248.31" fill="#916b01"/>
<polygon points="605.16,207.99 616.44,212.09 605.16,216.20 593.89,212.09" fill="#EDC001"/>
<polygon points="593.89,253.09 593.89,212.09 605.16,216.20 605.16,257.20" fill="#d0a800"/>
<polygon points="605.16,257.20 605.16,216.20 616.44,212.09 616.44,253.09" fill="#af8e00"/>
<polygon points="592.01,207.78 603.28,211.88 592.01,215.99 580.73,211.88" fill="#C49102"/>
<polygon points="580.73,257.88 580.73,211.88 592.01,215.99 592.01,261.99" fill="#ac7f01"/>
<polygon points="592.01,261.99 592.01,215.99 603.28,211.88 603.28,257.88" fill="#916b01"/>
<polygon points="578.85,212.57 590.13,216.67 578.85,220.78 567.57,216.67" fill="#C49102"/>
<polygon points="567.57,262.67 567.57,216.67 578.85,220.78 578.85,266.78" fill="#ac7f01"/>
<polygon points="578.85,266.78 578.85,220.78 590.13,216.67 590.13,262.67" fill="#916b01"/>
<polygon points="565.69,230.36 576.97,234.46 565.69,238.56 554.42,234.46" fill="#FFDA03"/>
<polygon points="554.42,267.46 554.42,234.46 565.69,238.56 565.69,271.56" fill="#e0bf02"/>
<polygon points="565.69,271.56 565.69,238.56 576.97,234.46 576.97,267.46" fill="#bca102"/>
<polygon points="657.78,214.41 669.06,218.52 657.78,222.62 646.51,218.52" fill="#FFE135"/>
<polygon points="646.51,243.52 646.51,218.52 657.78,222.62 657.78,247.62" fill="#e0c62e"/>
<polygon points="657.78,247.62 657.78,222.62 669.06,218.52 669.06,243.52" fill="#bca627"/>
<polygon points="644.63,244.20 655.91,248.31 644.63,252.41 633.35,248.31" fill="#282828"/>
<polygon points="631.47,232.99 642.75,237.09 631.47,241.20 620.20,237.09" fill="#FFE135"/>
<polygon points="620.20,253.09 620.20,237.09 631.47,241.20 631.47,257.20" fill="#e0c62e"/>
<polygon points="631.47,257.20 631.47,241.20 642.75,237.09 642.75,253.09" fill="#bca627"/>
<polygon points="618.32,237.78 629.59,241.88 618.32,245.99 607.04,241.88" fill="#FFE135"/>
<polygon points="607.04,257.88 607.04,241.88 618.32,245.99 618.32,261.99" fill="#e0c62e"/>
<polygon points="618.32,261.99 618.32,245.99 629.59,241.88 629.59,257.88" fill="#bca627"/>
<polygon points="605.16,223.57 616.44,227.67 605.16,231.78 593.89,227.67" fill="#EDC001"/>
<polygon points="593.89,262.67 593.89,227.67 605.16,231.78 605.16,266.78" fill="#d0a800"/>
<polygon points="605.16,266.78 605.16,231.78 616.44,227.67 616.44,262.67" fill="#af8e00"/>
<polygon points="592.01,225.36 603.28,229.46 592.01,233.56 580.73,229.46" fill="#EDC001"/>
<polygon points="580.73,267.46 580.73,229.46 592.01,233.56 592.01,271.56" fill="#d0a800"/>
<polygon points="592.01,271.56 592.01,233.56 603.28,229.46 603.28,267.46" fill="#af8e00"/>
<polygon points="578.85,247.14 590.13,251.25 578.85,255.35 567.57,251.25" fill="#FFE135"/>
<polygon points="567.57,272.25 567.57,251.25 578.85,255.35 578.85,276.35" fill="#e0c62e"/>
<polygon points="578.85,276.35 578.85,255.35 590.13,251.25 590.13,272.25" fill="#bca627"/>
<polygon points="670.94,209.20 682.22,213.31 670.94,217.41 659.66,213.31" fill="#EDC001"/>
<polygon points="659.66,248.31 659.66,213.31 670.94,217.41 670.94,252.41" fill="#d0a800"/>
<polygon points="670.94,252.41 670.94,217.41 682.22,213.31 682.22,248.31" fill="#af8e00"/>
<polygon points="657.78,232.99 669.06,237.09 657.78,241.20 646.51,237.09" fill="#FFE135"/>
<polygon points="646.51,253.09 646.51,237.09 657.78,241.20 657.78,257.20" fill="#e0c62e"/>
<polygon points="657.78,257.20 657.78,241.20 669.06,237.09 669.06,253.09" fill="#bca627"/>
<polygon points="644.63,237.78 655.91,241.88 644.63,245.99 633.35,241.88" fill="#FFE135"/>
<polygon points="633.35,257.88 633.35,241.88 644.63,245.99 644.63,261.99" fill="#e0c62e"/>
<polygon points="644.63,261.99 644.63,245.99 655.91,241.88 655.91,257.88" fill="#bca627"/>
<polygon points="631.47,242.57 642.75,246.67 631.47,250.78 620.20,246.67" fill="#FFE135"/>
<polygon points="620.20,262.67 620.20,246.67 631.47,250.78 631.47,266.78" fill="#e0c62e"/>
<polygon points="631.47,266.78 631.47,250.78 642.75,246.67 642.75,262.67" fill="#bca627"/>
<polygon points="618.32,242.36 629.59,246.46 618.32,250.56 607.04,246.46" fill="#FFE135"/>
<polygon points="607.04,267.46 607.04,246.46 618.32,250.56 618.32,271.56" fill="#e0c62e"/>
<polygon points="618.32,271.56 618.32,250.56 629.59,246.46 629.59,267.46" fill="#bca627"/>
<polygon points="605.16,227.14 616.44,231.25 605.16,235.35 593.89,231.25" fill="#EDC001"/>
<polygon points="593.89,272.25 593.89,231.25 605.16,235.35 605.16,276.35" fill="#d0a800"/>
<polygon points="605.16,276.35 605.16,235.35 616.44,231.25 616.44,272.25" fill="#af8e00"/>
<polygon points="592.01,237.93 603.28,242.04 592.01,246.14 580.73,242.04" fill="#EDC001"/>
<polygon points="580.73,277.04 580.73,242.04 592.01,246.14 592.01,281.14" fill="#d0a800"/>
<polygon points="592.01,281.14 592.01,246.14 603.28,242.04 603.28,277.04" fill="#af8e00"/>
<polygon points="684.10,210.99 695.37,215.09 684.10,219.20 672.82,215.09" fill="#EDC001"/>
<polygon points="672.82,253.09 672.82,215.09 684.10,219.20 684.10,257.20" fill="#d0a800"/>
<polygon points="684.10,257.20 684.10,219.20 695.37,215.09 695.37,253.09" fill="#af8e00"/>
<polygon points="670.94,222.78 682.22,226.88 670.94,230.99 659.66,226.88" fill="#FFDA03"/>
<polygon points="659.66,257.88 659.66,226.88 670.94,230.99 670.94,261.99" fill="#e0bf02"/>
<polygon points="670.94,261.99 670.94,230.99 682.22,226.88 682.22,257.88" fill="#bca102"/>
<polygon points="657.78,237.57 669.06,241.67 657.78,245.78 646.51,241.67" fill="#FFE135"/>
<polygon points="646.51,262.67 646.51,241.67 657.78,245.78 657.78,266.78" fill="#e0c62e"/>
<polygon points="657.78,266.78 657.78,245.78 669.06,241.67 669.06,262.67" fill="#bca627"/>
<polygon points="644.63,263.36 655.91,267.46 644.63,271.56 633.35,267.46" fill="#282828"/>
<polygon points="631.47,268.14 642.75,272.25 631.47,276.35 620.20,272.25" fill="#282828"/>
<polygon points="618.32,272.93 629.59,277.04 618.32,281.14 607.04,277.04" fill="#282828"/>
<polygon points="605.16,277.72 616.44,281.82 605.16,285.93 593.89,281.82" fill="#282828"/>
<text x="364.25" y="-164.00" font-family='-apple-system, BlinkMacSystemFont, "Segoe UI", Helvetica, Arial, sans-serif' font-size="15" font-weight="700" fill="#e6edf3">Contributions/Submissions</text>
<rect x="364.25" y="-146.00" width="340.00" height="92.00" rx="10" fill="#0d1117" stroke="#30363d" stroke-width="0.8" fill-opacity="0.96"/>
<text x="386.25" y="-112.00" font-family='-apple-system, BlinkMacSystemFont, "Segoe UI", Helvetica, Arial, sans-serif' font-size="26" font-weight="700" fill="#FFDA03">3,220</text>
<text x="386.25" y="-90.00" font-family='-apple-system, BlinkMacSystemFont, "Segoe UI", Helvetica, Arial, sans-serif' font-size="12" font-weight="600" fill="#e6edf3">This year</text>
<text x="386.25" y="-72.00" font-family='-apple-system, BlinkMacSystemFont, "Segoe UI", Helvetica, Arial, sans-serif' font-size="10.5" fill="#7d8590">Jul 13 → Jul 18</text>
<text x="499.59" y="-112.00" font-family='-apple-system, BlinkMacSystemFont, "Segoe UI", Helvetica, Arial, sans-serif' font-size="26" font-weight="700" fill="#FFDA03">16</text>
<text x="499.59" y="-90.00" font-family='-apple-system, BlinkMacSystemFont, "Segoe UI", Helvetica, Arial, sans-serif' font-size="12" font-weight="600" fill="#e6edf3">This week</text>
<text x="499.59" y="-72.00" font-family='-apple-system, BlinkMacSystemFont, "Segoe UI", Helvetica, Arial, sans-serif' font-size="10.5" fill="#7d8590">Jul 12 → Jul 18</text>
<text x="612.92" y="-112.00" font-family='-apple-system, BlinkMacSystemFont, "Segoe UI", Helvetica, Arial, sans-serif' font-size="26" font-weight="700" fill="#FFDA03">61</text>
<text x="612.92" y="-90.00" font-family='-apple-system, BlinkMacSystemFont, "Segoe UI", Helvetica, Arial, sans-serif' font-size="12" font-weight="600" fill="#e6edf3">Best day</text>
<text x="612.92" y="-72.00" font-family='-apple-system, BlinkMacSystemFont, "Segoe UI", Helvetica, Arial, sans-serif' font-size="10.5" fill="#7d8590">Jul 28</text>
<text x="704.25" y="-34.00" text-anchor="end" font-family='-apple-system, BlinkMacSystemFont, "Segoe UI", Helvetica, Arial, sans-serif' font-size="12" fill="#7d8590">Average: <tspan font-weight="700" fill="#FFDA03">8.7</tspan> / day</text>
<text x="-85.09" y="316.30" font-family='-apple-system, BlinkMacSystemFont, "Segoe UI", Helvetica, Arial, sans-serif' font-size="15" font-weight="700" fill="#e6edf3">Streaks</text>
<rect x="-85.09" y="328.30" width="320.00" height="92.00" rx="10" fill="#0d1117" stroke="#30363d" stroke-width="0.8" fill-opacity="0.96"/>
<text x="-63.09" y="362.30" font-family='-apple-system, BlinkMacSystemFont, "Segoe UI", Helvetica, Arial, sans-serif' font-size="26" font-weight="700" fill="#FFDA03">67<tspan font-size="12" font-weight="600" fill="#e6edf3"> days</tspan></text>
<text x="-63.09" y="384.30" font-family='-apple-system, BlinkMacSystemFont, "Segoe UI", Helvetica, Arial, sans-serif' font-size="12" font-weight="600" fill="#e6edf3">Longest</text>
<text x="-63.09" y="402.30" font-family='-apple-system, BlinkMacSystemFont, "Segoe UI", Helvetica, Arial, sans-serif' font-size="10.5" fill="#7d8590">Dec 19 → Feb 23</text>
<text x="96.91" y="362.30" font-family='-apple-system, BlinkMacSystemFont, "Segoe UI", Helvetica, Arial, sans-serif' font-size="26" font-weight="700" fill="#FFDA03">0<tspan font-size="12" font-weight="600" fill="#e6edf3"> days</tspan></text>
<text x="96.91" y="384.30" font-family='-apple-system, BlinkMacSystemFont, "Segoe UI", Helvetica, Arial, sans-serif' font-size="12" font-weight="600" fill="#e6edf3">Current</text>
<text x="96.91" y="402.30" font-family='-apple-system, BlinkMacSystemFont, "Segoe UI", Helvetica, Arial, sans-serif' font-size="10.5" fill="#7d8590">No current streak</text>
<text x="716.25" y="432.30" text-anchor="end" font-family='-apple-system, BlinkMacSystemFont, "Segoe UI", Helvetica, Arial, sans-serif' font-size="9" fill="#7d8590" opacity="0.6">Yellow theme</text>
</svg>