<svg xmlns="http://www.w3.org/2000/svg" viewBox="-105.09 -199.00 829.34 639.30" width="829" height="639">
<rect x="-105.09" y="-199.00" width="829.34" height="639.30" fill="#222323"/>
<polygon points="0.00,0.00 11.28,4.10 0.00,8.21 -11.28,4.10" fill="#373b42"/>
<polygon points="-13.16,-39.21 -1.88,-35.11 -13.16,-31.00 -24.43,-35.11" fill="#d1d1d1"/>
<polygon points="-24.43,8.89 -24.43,-35.11 -13.16,-31.00 -13.16,13.00" fill="#b7b7b7"/>
<polygon points="-13.16,13.00 -13.16,-31.00 -1.88,-35.11 -1.88,8.89" fill="#9a9a9a"/>
<polygon points="-26.31,-32.42 -15.04,-28.32 -26.31,-24.21 -37.59,-28.32" fill="#989898"/>
<polygon points="-37.59,13.68 -37.59,-28.32 -26.31,-24.21 -26.31,17.79" fill="#858585"/>
<polygon points="-26.31,17.79 -26.31,-24.21 -15.04,-28.32 -15.04,13.68" fill="#707070"/>
<polygon points="-39.47,-27.64 -28.19,-23.53 -39.47,-19.43 -50.74,-23.53" fill="#989898"/>
<polygon points="-50.74,18.47 -50.74,-23.53 -39.47,-19.43 -39.47,22.57" fill="#858585"/>
<polygon points="-39.47,22.57 -39.47,-19.43 -28.19,-23.53 -28.19,18.47" fill="#707070"/>
<polygon points="-52.62,19.15 -41.35,23.26 -52.62,27.36 -63.90,23.26" fill="#373b42"/>
<polygon points="-65.78,-22.06 -54.50,-17.95 -65.78,-13.85 -77.05,-17.95" fill="#d1d1d1"/>
<polygon points="-77.05,28.05 -77.05,-17.95 -65.78,-13.85 -65.78,32.15" fill="#b7b7b7"/>
<polygon points="-65.78,32.15 -65.78,-13.85 -54.50,-17.95 -54.50,28.05" fill="#9a9a9a"/>
<polygon points="-78.93,28.73 -67.66,32.83 -78.93,36.94 -90.21,32.83" fill="#373b42"/>
<polygon points="13.16,4.79 24.43,8.89 13.16,13.00 1.88,8.89" fill="#373b42"/>
<polygon points="0.00,9.58 11.28,13.68 0.00,17.79 -11.28,13.68" fill="#373b42"/>
<polygon points="-13.16,14.36 -1.88,18.47 -13.16,22.57 -24.43,18.47" fill="#373b42"/>
<polygon points="-26.31,-15.85 -15.04,-11.74 -26.31,-7.64 -37.59,-11.74" fill="#515151"/>
<polygon points="-37.59,23.26 -37.59,-11.74 -26.31,-7.64 -26.31,27.36" fill="#474747"/>
<polygon points="-26.31,27.36 -26.31,-7.64 -15.04,-11.74 -15.04,23.26" fill="#3b3b3b"/>
<polygon points="-39.47,-2.06 -28.19,2.05 -39.47,6.15 -50.74,2.05" fill="#515151"/>
<polygon points="-50.74,28.05 -50.74,2.05 -39.47,6.15 -39.47,32.15" fill="#474747"/>
<polygon points="-39.47,32.15 -39.47,6.15 -28.19,2.05 -28.19,28.05" fill="#3b3b3b"/>
<polygon points="-52.62,-13.27 -41.35,-9.17 -52.62,-5.06 -63.90,-9.17" fill="#989898"/>
<polygon points="-63.90,32.83 -63.90,-9.17 -52.62,-5.06 -52.62,36.94" fill="#858585"/>
<polygon points="-52.62,36.94 -52.62,-5.06 -41.35,-9.17 -41.35,32.83" fill="#707070"/>
<polygon points="-65.78,7.52 -54.50,11.62 -65.78,15.73 -77.05,11.62" fill="#515151"/>
<polygon points="-77.05,37.62 -77.05,11.62 -65.78,15.73 -65.78,41.73" fill="#474747"/>
<polygon points="-65.78,41.73 -65.78,15.73 -54.50,11.62 -54.50,37.62" fill="#3b3b3b"/>
<polygon points="26.31,-34.42 37.59,-30.32 26.31,-26.21 15.04,-30.32" fill="#d1d1d1"/>
<polygon points="15.04,13.68 15.04,-30.32 26.31,-26.21 26.31,17.79" fill="#b7b7b7"/>
<polygon points="26.31,17.79 26.31,-26.21 37.59,-30.32 37.59,13.68" fill="#9a9a9a"/>
<polygon points="13.16,14.36 24.43,18.47 13.16,22.57 1.88,18.47" fill="#373b42"/>
<polygon points="0.00,19.15 11.28,23.26 0.00,27.36 -11.28,23.26" fill="#373b42"/>
<polygon points="-13.16,-20.06 -1.88,-15.95 -13.16,-11.85 -24.43,-15.95" fill="#d1d1d1"/>
<polygon points="-24.43,28.05 -24.43,-15.95 -13.16,-11.85 -13.16,32.15" fill="#b7b7b7"/>
<polygon points="-13.16,32.15 -13.16,-11.85 -1.88,-15.95 -1.88,28.05" fill="#9a9a9a"/>
<polygon points="-26.31,28.73 -15.04,32.83 -26.31,36.94 -37.59,32.83" fill="#373b42"/>
<polygon points="-39.47,-1.48 -28.19,2.62 -39.47,6.73 -50.74,2.62" fill="#515151"/>
<polygon points="-50.74,37.62 -50.74,2.62 -39.47,6.73 -39.47,41.73" fill="#474747"/>
<polygon points="-39.47,41.73 -39.47,6.73 -28.19,2.62 -28.19,37.62" fill="#3b3b3b"/>
<polygon points="-52.62,-9.69 -41.35,-5.59 -52.62,-1.49 -63.90,-5.59" fill="#d1d1d1"/>
<polygon points="-63.90,42.41 -63.90,-5.59 -52.62,-1.49 -52.62,46.51" fill="#b7b7b7"/>
<polygon points="-52.62,46.51 -52.62,-1.49 -41.35,-5.59 -41.35,42.41" fill="#9a9a9a"/>
<polygon points="39.47,-39.64 50.74,-35.53 39.47,-31.43 28.19,-35.53" fill="#ffffff"/>
<polygon points="28.19,18.47 28.19,-35.53 39.47,-31.43 39.47,22.57" fill="#e0e0e0"/>
<polygon points="39.47,22.57 39.47,-31.43 50.74,-35.53 50.74,18.47" fill="#bcbcbc"/>
<polygon points="26.31,19.15 37.59,23.26 26.31,27.36 15.04,23.26" fill="#373b42"/>
<polygon points="13.16,23.94 24.43,28.05 13.16,32.15 1.88,28.05" fill="#373b42"/>
<polygon points="0.00,28.73 11.28,32.83 0.00,36.94 -11.28,32.83" fill="#373b42"/>
<polygon points="-13.16,33.52 -1.88,37.62 -13.16,41.73 -24.43,37.62" fill="#373b42"/>
<polygon points="-26.31,38.31 -15.04,42.41 -26.31,46.51 -37.59,42.41" fill="#373b42"/>
<polygon points="-39.47,43.09 -28.19,47.20 -39.47,51.30 -50.74,47.20" fill="#373b42"/>
<polygon points="52.62,-38.85 63.90,-34.74 52.62,-30.64 41.35,-34.74" fill="#ffffff"/>
<polygon points="41.35,23.26 41.35,-34.74 52.62,-30.64 52.62,27.36" fill="#e0e0e0"/>
<polygon points="52.62,27.36 52.62,-30.64 63.90,-34.74 63.90,23.26" fill="#bcbcbc"/>
<polygon points="39.47,23.94 50.74,28.05 39.47,32.15 28.19,28.05" fill="#373b42"/>
<polygon points="26.31,28.73 37.59,32.83 26.31,36.94 15.04,32.83" fill="#373b42"/>
<polygon points="13.16,33.52 24.43,37.62 13.16,41.73 1.88,37.62" fill="#373b42"/>
<polygon points="0.00,3.31 11.28,7.41 0.00,11.51 -11.28,7.41" fill="#515151"/>
<polygon points="-11.28,42.41 -11.28,7.41 0.00,11.51 0.00,46.51" fill="#474747"/>
<polygon points="0.00,46.51 0.00,11.51 11.28,7.41 11.28,42.41" fill="#3b3b3b"/>
<polygon points="-13.16,-6.91 -1.88,-2.80 -13.16,1.30 -24.43,-2.80" fill="#ffffff"/>
<polygon points="-24.43,47.20 -24.43,-2.80 -13.16,1.30 -13.16,51.30" fill="#e0e0e0"/>
<polygon points="-13.16,51.30 -13.16,1.30 -1.88,-2.80 -1.88,47.20" fill="#bcbcbc"/>
<polygon points="-26.31,47.88 -15.04,51.99 -26.31,56.09 -37.59,51.99" fill="#373b42"/>
<polygon points="65.78,-24.06 77.05,-19.95 65.78,-15.85 54.50,-19.95" fill="#d1d1d1"/>
<polygon points="54.50,28.05 54.50,-19.95 65.78,-15.85 65.78,32.15" fill="#b7b7b7"/>
<polygon points="65.78,32.15 65.78,-15.85 77.05,-19.95 77.05,28.05" fill="#9a9a9a"/>
<polygon points="52.62,28.73 63.90,32.83 52.62,36.94 41.35,32.83" fill="#373b42"/>
<polygon points="39.47,-8.48 50.74,-4.38 39.47,-0.27 28.19,-4.38" fill="#989898"/>
<polygon points="28.19,37.62 28.19,-4.38 39.47,-0.27 39.47,41.73" fill="#858585"/>
<polygon points="39.47,41.73 39.47,-0.27 50.74,-4.38 50.74,37.62" fill="#707070"/>
<polygon points="26.31,38.31 37.59,42.41 26.31,46.51 15.04,42.41" fill="#373b42"/>
<polygon points="13.16,43.09 24.43,47.20 13.16,51.30 1.88,47.20" fill="#373b42"/>
<polygon points="0.00,1.88 11.28,5.99 0.00,10.09 -11.28,5.99" fill="#d1d1d1"/>
<polygon points="-11.28,51.99 -11.28,5.99 0.00,10.09 0.00,56.09" fill="#b7b7b7"/>
<polygon points="0.00,56.09 0.00,10.09 11.28,5.99 11.28,51.99" fill="#9a9a9a"/>
<polygon points="-13.16,52.67 -1.88,56.78 -13.16,60.88 -24.43,56.78" fill="#373b42"/>
<polygon points="78.93,28.73 90.21,32.83 78.93,36.94 67.66,32.83" fill="#373b42"/>
<polygon points="65.78,-23.48 77.05,-19.38 65.78,-15.27 54.50,-19.38" fill="#ffffff"/>
<polygon points="54.50,37.62 54.50,-19.38 65.78,-15.27 65.78,41.73" fill="#e0e0e0"/>
<polygon points="65.78,41.73 65.78,-15.27 77.05,-19.38 77.05,37.62" fill="#bcbcbc"/>
<polygon points="52.62,38.31 63.90,42.41 52.62,46.51 41.35,42.41" fill="#373b42"/>
<polygon points="39.47,43.09 50.74,47.20 39.47,51.30 28.19,47.20" fill="#373b42"/>
<polygon points="26.31,47.88 37.59,51.99 26.31,56.09 15.04,51.99" fill="#373b42"/>
<polygon points="13.16,52.67 24.43,56.78 13.16,60.88 1.88,56.78" fill="#373b42"/>
<polygon points="0.00,57.46 11.28,61.56 0.00,65.67 -11.28,61.56" fill="#373b42"/>
<polygon points="92.09,-28.48 103.37,-24.38 92.09,-20.27 80.81,-24.38" fill="#ffffff"/>
<polygon points="80.81,37.62 80.81,-24.38 92.09,-20.27 92.09,41.73" fill="#e0e0e0"/>
<polygon points="92.09,41.73 92.09,-20.27 103.37,-24.38 103.37,37.62" fill="#bcbcbc"/>
<polygon points="78.93,38.31 90.21,42.41 78.93,46.51 67.66,42.41" fill="#373b42"/>
<polygon points="65.78,43.09 77.05,47.20 65.78,51.30 54.50,47.20" fill="#373b42"/>
<polygon points="52.62,5.88 63.90,9.99 52.62,14.09 41.35,9.99" fill="#989898"/>
<polygon points="41.35,51.99 41.35,9.99 52.62,14.09 52.62,56.09" fill="#858585"/>
<polygon points="52.62,56.09 52.62,14.09 63.90,9.99 63.90,51.99" fill="#707070"/>
<polygon points="39.47,17.67 50.74,21.78 39.47,25.88 28.19,21.78" fill="#515151"/>
<polygon points="28.19,56.78 28.19,21.78 39.47,25.88 39.47,60.88" fill="#474747"/>
<polygon points="39.47,60.88 39.47,25.88 50.74,21.78 50.74,56.78" fill="#3b3b3b"/>
<polygon points="26.31,18.46 37.59,22.56 26.31,26.67 15.04,22.56" fill="#989898"/>
<polygon points="15.04,61.56 15.04,22.56 26.31,26.67 26.31,65.67" fill="#858585"/>
<polygon points="26.31,65.67 26.31,26.67 37.59,22.56 37.59,61.56" fill="#707070"/>
<polygon points="13.16,62.25 24.43,66.35 13.16,70.46 1.88,66.35" fill="#373b42"/>
<polygon points="105.25,-21.69 116.52,-17.59 105.25,-13.49 93.97,-17.59" fill="#ffffff"/>
<polygon points="93.97,42.41 93.97,-17.59 105.25,-13.49 105.25,46.51" fill="#e0e0e0"/>
<polygon points="105.25,46.51 105.25,-13.49 116.52,-17.59 116.52,42.41" fill="#bcbcbc"/>
<polygon points="92.09,43.09 103.37,47.20 92.09,51.30 80.81,47.20" fill="#373b42"/>
<polygon points="78.93,47.88 90.21,51.99 78.93,56.09 67.66,51.99" fill="#373b42"/>
<polygon points="65.78,1.67 77.05,5.78 65.78,9.88 54.50,5.78" fill="#ffffff"/>
<polygon points="54.50,56.78 54.50,5.78 65.78,9.88 65.78,60.88" fill="#e0e0e0"/>
<polygon points="65.78,60.88 65.78,9.88 77.05,5.78 77.05,56.78" fill="#bcbcbc"/>
<polygon points="52.62,57.46 63.90,61.56 52.62,65.67 41.35,61.56" fill="#373b42"/>
<polygon points="39.47,62.25 50.74,66.35 39.47,70.46 28.19,66.35" fill="#373b42"/>
<polygon points="26.31,67.04 37.59,71.14 26.31,75.24 15.04,71.14" fill="#373b42"/>
<polygon points="118.40,-15.91 129.68,-11.80 118.40,-7.70 107.12,-11.80" fill="#ffffff"/>
<polygon points="107.12,47.20 107.12,-11.80 118.40,-7.70 118.40,51.30" fill="#e0e0e0"/>
<polygon points="118.40,51.30 118.40,-7.70 129.68,-11.80 129.68,47.20" fill="#bcbcbc"/>
<polygon points="105.25,47.88 116.52,51.99 105.25,56.09 93.97,51.99" fill="#373b42"/>
<polygon points="92.09,52.67 103.37,56.78 92.09,60.88 80.81,56.78" fill="#373b42"/>
<polygon points="78.93,57.46 90.21,61.56 78.93,65.67 67.66,61.56" fill="#373b42"/>
<polygon points="65.78,20.25 77.05,24.35 65.78,28.46 54.50,24.35" fill="#989898"/>
<polygon points="54.50,66.35 54.50,24.35 65.78,28.46 65.78,70.46" fill="#858585"/>
<polygon points="65.78,70.46 65.78,28.46 77.05,24.35 77.05,66.35" fill="#707070"/>
<polygon points="52.62,67.04 63.90,71.14 52.62,75.24 41.35,71.14" fill="#373b42"/>
<polygon points="39.47,27.82 50.74,31.93 39.47,36.03 28.19,31.93" fill="#d1d1d1"/>
<polygon points="28.19,75.93 28.19,31.93 39.47,36.03 39.47,80.03" fill="#b7b7b7"/>
<polygon points="39.47,80.03 39.47,36.03 50.74,31.93 50.74,75.93" fill="#9a9a9a"/>
<polygon points="131.56,-0.12 142.83,3.99 131.56,8.09 120.28,3.99" fill="#d1d1d1"/>
<polygon points="120.28,51.99 120.28,3.99 131.56,8.09 131.56,56.09" fill="#b7b7b7"/>
<polygon points="131.56,56.09 131.56,8.09 142.83,3.99 142.83,51.99" fill="#9a9a9a"/>
<polygon points="118.40,52.67 129.68,56.78 118.40,60.88 107.12,56.78" fill="#373b42"/>
<polygon points="105.25,57.46 116.52,61.56 105.25,65.67 93.97,61.56" fill="#373b42"/>
<polygon points="92.09,62.25 103.37,66.35 92.09,70.46 80.81,66.35" fill="#373b42"/>
<polygon points="78.93,67.04 90.21,71.14 78.93,75.24 67.66,71.14" fill="#373b42"/>
<polygon points="65.78,71.82 77.05,75.93 65.78,80.03 54.50,75.93" fill="#373b42"/>
<polygon points="52.62,76.61 63.90,80.72 52.62,84.82 41.35,80.72" fill="#373b42"/>
<polygon points="144.71,52.67 155.99,56.78 144.71,60.88 133.44,56.78" fill="#373b42"/>
<polygon points="131.56,57.46 142.83,61.56 131.56,65.67 120.28,61.56" fill="#373b42"/>
<polygon points="118.40,62.25 129.68,66.35 118.40,70.46 107.12,66.35" fill="#373b42"/>
<polygon points="105.25,67.04 116.52,71.14 105.25,75.24 93.97,71.14" fill="#373b42"/>
<polygon points="92.09,71.82 103.37,75.93 92.09,80.03 80.81,75.93" fill="#373b42"/>
<polygon points="78.93,76.61 90.21,80.72 78.93,84.82 67.66,80.72" fill="#373b42"/>
<polygon points="65.78,81.40 77.05,85.51 65.78,89.61 54.50,85.51" fill="#373b42"/>
<polygon points="157.87,15.46 169.14,19.56 157.87,23.67 146.59,19.56" fill="#989898"/>
<polygon points="146.59,61.56 146.59,19.56 157.87,23.67 157.87,65.67" fill="#858585"/>
<polygon points="157.87,65.67 157.87,23.67 169.14,19.56 169.14,61.56" fill="#707070"/>
<polygon points="144.71,62.25 155.99,66.35 144.71,70.46 133.44,66.35" fill="#373b42"/>
<polygon points="131.56,67.04 142.83,71.14 131.56,75.24 120.28,71.14" fill="#373b42"/>
<polygon points="118.40,71.82 129.68,75.93 118.40,80.03 107.12,75.93" fill="#373b42"/>
<polygon points="105.25,41.61 116.52,45.72 105.25,49.82 93.97,45.72" fill="#515151"/>
<polygon points="93.97,80.72 93.97,45.72 105.25,49.82 105.25,84.82" fill="#474747"/>
<polygon points="105.25,84.82 105.25,49.82 116.52,45.72 116.52,80.72" fill="#3b3b3b"/>
<polygon points="92.09,81.40 103.37,85.51 92.09,89.61 80.81,85.51" fill="#373b42"/>
<polygon points="78.93,86.19 90.21,90.29 78.93,94.40 67.66,90.29" fill="#373b42"/>
<polygon points="171.02,8.25 182.30,12.35 171.02,16.46 159.75,12.35" fill="#ffffff"/>
<polygon points="159.75,66.35 159.75,12.35 171.02,16.46 171.02,70.46" fill="#e0e0e0"/>
<polygon points="171.02,70.46 171.02,16.46 182.30,12.35 182.30,66.35" fill="#bcbcbc"/>
<polygon points="157.87,17.04 169.14,21.14 157.87,25.24 146.59,21.14" fill="#ffffff"/>
<polygon points="146.59,71.14 146.59,21.14 157.87,25.24 157.87,75.24" fill="#e0e0e0"/>
<polygon points="157.87,75.24 157.87,25.24 169.14,21.14 169.14,71.14" fill="#bcbcbc"/>
<polygon points="144.71,71.82 155.99,75.93 144.71,80.03 133.44,75.93" fill="#373b42"/>
<polygon points="131.56,76.61 142.83,80.72 131.56,84.82 120.28,80.72" fill="#373b42"/>
<polygon points="118.40,81.40 129.68,85.51 118.40,89.61 107.12,85.51" fill="#373b42"/>
<polygon points="105.25,86.19 116.52,90.29 105.25,94.40 93.97,90.29" fill="#373b42"/>
<polygon points="92.09,42.98 103.37,47.08 92.09,51.19 80.81,47.08" fill="#d1d1d1"/>
<polygon points="80.81,95.08 80.81,47.08 92.09,51.19 92.09,99.19" fill="#b7b7b7"/>
<polygon points="92.09,99.19 92.09,51.19 103.37,47.08 103.37,95.08" fill="#9a9a9a"/>
<polygon points="184.18,14.04 195.46,18.14 184.18,22.24 172.90,18.14" fill="#ffffff"/>
<polygon points="172.90,71.14 172.90,18.14 184.18,22.24 184.18,75.24" fill="#e0e0e0"/>
<polygon points="184.18,75.24 184.18,22.24 195.46,18.14 195.46,71.14" fill="#bcbcbc"/>
<polygon points="171.02,71.82 182.30,75.93 171.02,80.03 159.75,75.93" fill="#373b42"/>
<polygon points="157.87,76.61 169.14,80.72 157.87,84.82 146.59,80.72" fill="#373b42"/>
<polygon points="144.71,46.40 155.99,50.51 144.71,54.61 133.44,50.51" fill="#515151"/>
<polygon points="133.44,85.51 133.44,50.51 144.71,54.61 144.71,89.61" fill="#474747"/>
<polygon points="144.71,89.61 144.71,54.61 155.99,50.51 155.99,85.51" fill="#3b3b3b"/>
<polygon points="131.56,47.19 142.83,51.29 131.56,55.40 120.28,51.29" fill="#989898"/>
<polygon points="120.28,90.29 120.28,51.29 131.56,55.40 131.56,94.40" fill="#858585"/>
<polygon points="131.56,94.40 131.56,55.40 142.83,51.29 142.83,90.29" fill="#707070"/>
<polygon points="118.40,90.98 129.68,95.08 118.40,99.19 107.12,95.08" fill="#373b42"/>
<polygon points="105.25,95.77 116.52,99.87 105.25,103.97 93.97,99.87" fill="#373b42"/>
<polygon points="197.34,21.82 208.61,25.93 197.34,30.03 186.06,25.93" fill="#ffffff"/>
<polygon points="186.06,75.93 186.06,25.93 197.34,30.03 197.34,80.03" fill="#e0e0e0"/>
<polygon points="197.34,80.03 197.34,30.03 208.61,25.93 208.61,75.93" fill="#bcbcbc"/>
<polygon points="184.18,76.61 195.46,80.72 184.18,84.82 172.90,80.72" fill="#373b42"/>
<polygon points="171.02,30.40 182.30,34.51 171.02,38.61 159.75,34.51" fill="#ffffff"/>
<polygon points="159.75,85.51 159.75,34.51 171.02,38.61 171.02,89.61" fill="#e0e0e0"/>
<polygon points="171.02,89.61 171.02,38.61 182.30,34.51 182.30,85.51" fill="#bcbcbc"/>
<polygon points="157.87,51.19 169.14,55.29 157.87,59.40 146.59,55.29" fill="#515151"/>
<polygon points="146.59,90.29 146.59,55.29 157.87,59.40 157.87,94.40" fill="#474747"/>
<polygon points="157.87,94.40 157.87,59.40 169.14,55.29 169.14,90.29" fill="#3b3b3b"/>
<polygon points="144.71,51.98 155.99,56.08 144.71,60.19 133.44,56.08" fill="#989898"/>
<polygon points="133.44,95.08 133.44,56.08 144.71,60.19 144.71,99.19" fill="#858585"/>
<polygon points="144.71,99.19 144.71,60.19 155.99,56.08 155.99,95.08" fill="#707070"/>
<polygon points="131.56,49.77 142.83,53.87 131.56,57.97 120.28,53.87" fill="#d1d1d1"/>
<polygon points="120.28,99.87 120.28,53.87 131.56,57.97 131.56,103.97" fill="#b7b7b7"/>
<polygon points="131.56,103.97 131.56,57.97 142.83,53.87 142.83,99.87" fill="#9a9a9a"/>
<polygon points="118.40,61.55 129.68,65.66 118.40,69.76 107.12,65.66" fill="#989898"/>
<polygon points="107.12,104.66 107.12,65.66 118.40,69.76 118.40,108.76" fill="#858585"/>
<polygon points="118.40,108.76 118.40,69.76 129.68,65.66 129.68,104.66" fill="#707070"/>
<polygon points="210.49,30.61 221.77,34.72 210.49,38.82 199.21,34.72" fill="#d1d1d1"/>
<polygon points="199.21,80.72 199.21,34.72 210.49,38.82 210.49,84.82" fill="#b7b7b7"/>
<polygon points="210.49,84.82 210.49,38.82 221.77,34.72 221.77,80.72" fill="#9a9a9a"/>
<polygon points="197.34,81.40 208.61,85.51 197.34,89.61 186.06,85.51" fill="#373b42"/>
<polygon points="184.18,55.19 195.46,59.29 184.18,63.40 172.90,59.29" fill="#515151"/>
<polygon points="172.90,90.29 172.90,59.29 184.18,63.40 184.18,94.40" fill="#474747"/>
<polygon points="184.18,94.40 184.18,63.40 195.46,59.29 195.46,90.29" fill="#3b3b3b"/>
<polygon points="171.02,90.98 182.30,95.08 171.02,99.19 159.75,95.08" fill="#373b42"/>
<polygon points="157.87,56.77 169.14,60.87 157.87,64.97 146.59,60.87" fill="#989898"/>
<polygon points="146.59,99.87 146.59,60.87 157.87,64.97 157.87,103.97" fill="#858585"/>
<polygon points="157.87,103.97 157.87,64.97 169.14,60.87 169.14,99.87" fill="#707070"/>
<polygon points="144.71,100.55 155.99,104.66 144.71,108.76 133.44,104.66" fill="#373b42"/>
<polygon points="131.56,105.34 142.83,109.45 131.56,113.55 120.28,109.45" fill="#373b42"/>
<polygon points="223.65,46.40 234.92,50.51 223.65,54.61 212.37,50.51" fill="#515151"/>
<polygon points="212.37,85.51 212.37,50.51 223.65,54.61 223.65,89.61" fill="#474747"/>
<polygon points="223.65,89.61 223.65,54.61 234.92,50.51 234.92,85.51" fill="#3b3b3b"/>
<polygon points="210.49,86.19 221.77,90.29 210.49,94.40 199.21,90.29" fill="#373b42"/>
<polygon points="197.34,90.98 208.61,95.08 197.34,99.19 186.06,95.08" fill="#373b42"/>
<polygon points="184.18,64.77 195.46,68.87 184.18,72.97 172.90,68.87" fill="#515151"/>
<polygon points="172.90,99.87 172.90,68.87 184.18,72.97 184.18,103.97" fill="#474747"/>
<polygon points="184.18,103.97 184.18,72.97 195.46,68.87 195.46,99.87" fill="#3b3b3b"/>
<polygon points="171.02,81.55 182.30,85.66 171.02,89.76 159.75,85.66" fill="#515151"/>
<polygon points="159.75,104.66 159.75,85.66 171.02,89.76 171.02,108.76" fill="#474747"/>
<polygon points="171.02,108.76 171.02,89.76 182.30,85.66 182.30,104.66" fill="#3b3b3b"/>
<polygon points="157.87,105.34 169.14,109.45 157.87,113.55 146.59,109.45" fill="#373b42"/>
<polygon points="144.71,75.13 155.99,79.23 144.71,83.34 133.44,79.23" fill="#515151"/>
<polygon points="133.44,114.23 133.44,79.23 144.71,83.34 144.71,118.34" fill="#474747"/>
<polygon points="144.71,118.34 144.71,83.34 155.99,79.23 155.99,114.23" fill="#3b3b3b"/>
<polygon points="236.80,86.19 248.08,90.29 236.80,94.40 225.53,90.29" fill="#373b42"/>
<polygon points="223.65,90.98 234.92,95.08 223.65,99.19 212.37,95.08" fill="#373b42"/>
<polygon points="210.49,95.77 221.77,99.87 210.49,103.97 199.21,99.87" fill="#373b42"/>
<polygon points="197.34,100.55 208.61,104.66 197.34,108.76 186.06,104.66" fill="#373b42"/>
<polygon points="184.18,105.34 195.46,109.45 184.18,113.55 172.90,109.45" fill="#373b42"/>
<polygon points="171.02,110.13 182.30,114.23 171.02,118.34 159.75,114.23" fill="#373b42"/>
<polygon points="157.87,114.92 169.14,119.02 157.87,123.13 146.59,119.02" fill="#373b42"/>
<polygon points="249.96,90.98 261.23,95.08 249.96,99.19 238.68,95.08" fill="#373b42"/>
<polygon points="236.80,60.77 248.08,64.87 236.80,68.97 225.53,64.87" fill="#515151"/>
<polygon points="225.53,99.87 225.53,64.87 236.80,68.97 236.80,103.97" fill="#474747"/>
<polygon points="236.80,103.97 236.80,68.97 248.08,64.87 248.08,99.87" fill="#3b3b3b"/>
<polygon points="223.65,58.55 234.92,62.66 223.65,66.76 212.37,62.66" fill="#989898"/>
<polygon points="212.37,104.66 212.37,62.66 223.65,66.76 223.65,108.76" fill="#858585"/>
<polygon points="223.65,108.76 223.65,66.76 234.92,62.66 234.92,104.66" fill="#707070"/>
<polygon points="210.49,105.34 221.77,109.45 210.49,113.55 199.21,109.45" fill="#373b42"/>
<polygon points="197.34,110.13 208.61,114.23 197.34,118.34 186.06,114.23" fill="#373b42"/>
<polygon points="184.18,114.92 195.46,119.02 184.18,123.13 172.90,119.02" fill="#373b42"/>
<polygon points="171.02,73.71 182.30,77.81 171.02,81.92 159.75,77.81" fill="#d1d1d1"/>
<polygon points="159.75,123.81 159.75,77.81 171.02,81.92 171.02,127.92" fill="#b7b7b7"/>
<polygon points="171.02,127.92 171.02,81.92 182.30,77.81 182.30,123.81" fill="#9a9a9a"/>
<polygon points="263.11,60.77 274.39,64.87 263.11,68.97 251.84,64.87" fill="#515151"/>
<polygon points="251.84,99.87 251.84,64.87 263.11,68.97 263.11,103.97" fill="#474747"/>
<polygon points="263.11,103.97 263.11,68.97 274.39,64.87 274.39,99.87" fill="#3b3b3b"/>
<polygon points="249.96,100.55 261.23,104.66 249.96,108.76 238.68,104.66" fill="#373b42"/>
<polygon points="236.80,66.34 248.08,70.45 236.80,74.55 225.53,70.45" fill="#989898"/>
<polygon points="225.53,109.45 225.53,70.45 236.80,74.55 236.80,113.55" fill="#858585"/>
<polygon points="236.80,113.55 236.80,74.55 248.08,70.45 248.08,109.45" fill="#707070"/>
<polygon points="223.65,79.13 234.92,83.23 223.65,87.34 212.37,83.23" fill="#515151"/>
<polygon points="212.37,114.23 212.37,83.23 223.65,87.34 223.65,118.34" fill="#474747"/>
<polygon points="223.65,118.34 223.65,87.34 234.92,83.23 234.92,114.23" fill="#3b3b3b"/>
<polygon points="210.49,79.92 221.77,84.02 210.49,88.13 199.21,84.02" fill="#515151"/>
<polygon points="199.21,119.02 199.21,84.02 210.49,88.13 210.49,123.13" fill="#474747"/>
<polygon points="210.49,123.13 210.49,88.13 221.77,84.02 221.77,119.02" fill="#3b3b3b"/>
<polygon points="197.34,119.71 208.61,123.81 197.34,127.92 186.06,123.81" fill="#373b42"/>
<polygon points="184.18,124.50 195.46,128.60 184.18,132.70 172.90,128.60" fill="#373b42"/>
<polygon points="276.27,65.55 287.55,69.66 276.27,73.76 264.99,69.66" fill="#515151"/>
<polygon points="264.99,104.66 264.99,69.66 276.27,73.76 276.27,108.76" fill="#474747"/>
<polygon points="276.27,108.76 276.27,73.76 287.55,69.66 287.55,104.66" fill="#3b3b3b"/>
<polygon points="263.11,105.34 274.39,109.45 263.11,113.55 251.84,109.45" fill="#373b42"/>
<polygon points="249.96,110.13 261.23,114.23 249.96,118.34 238.68,114.23" fill="#373b42"/>
<polygon points="236.80,114.92 248.08,119.02 236.80,123.13 225.53,119.02" fill="#373b42"/>
<polygon points="223.65,119.71 234.92,123.81 223.65,127.92 212.37,123.81" fill="#373b42"/>
<polygon points="210.49,124.50 221.77,128.60 210.49,132.70 199.21,128.60" fill="#373b42"/>
<polygon points="197.34,94.28 208.61,98.39 197.34,102.49 186.06,98.39" fill="#515151"/>
<polygon points="186.06,133.39 186.06,98.39 197.34,102.49 197.34,137.49" fill="#474747"/>
<polygon points="197.34,137.49 197.34,102.49 208.61,98.39 208.61,133.39" fill="#3b3b3b"/>
<polygon points="289.43,59.34 300.70,63.45 289.43,67.55 278.15,63.45" fill="#d1d1d1"/>
<polygon points="278.15,109.45 278.15,63.45 289.43,67.55 289.43,113.55" fill="#b7b7b7"/>
<polygon points="289.43,113.55 289.43,67.55 300.70,63.45 300.70,109.45" fill="#9a9a9a"/>
<polygon points="276.27,110.13 287.55,114.23 276.27,118.34 264.99,114.23" fill="#373b42"/>
<polygon points="263.11,75.92 274.39,80.02 263.11,84.13 251.84,80.02" fill="#989898"/>
<polygon points="251.84,119.02 251.84,80.02 263.11,84.13 263.11,123.13" fill="#858585"/>
<polygon points="263.11,123.13 263.11,84.13 274.39,80.02 274.39,119.02" fill="#707070"/>
<polygon points="249.96,119.71 261.23,123.81 249.96,127.92 238.68,123.81" fill="#373b42"/>
<polygon points="236.80,124.50 248.08,128.60 236.80,132.70 225.53,128.60" fill="#373b42"/>
<polygon points="223.65,129.28 234.92,133.39 223.65,137.49 212.37,133.39" fill="#373b42"/>
<polygon points="210.49,134.07 221.77,138.18 210.49,142.28 199.21,138.18" fill="#373b42"/>
<polygon points="302.58,75.13 313.86,79.23 302.58,83.34 291.30,79.23" fill="#515151"/>
<polygon points="291.30,114.23 291.30,79.23 302.58,83.34 302.58,118.34" fill="#474747"/>
<polygon points="302.58,118.34 302.58,83.34 313.86,79.23 313.86,114.23" fill="#3b3b3b"/>
<polygon points="289.43,114.92 300.70,119.02 289.43,123.13 278.15,119.02" fill="#373b42"/>
<polygon points="276.27,84.71 287.55,88.81 276.27,92.92 264.99,88.81" fill="#515151"/>
<polygon points="264.99,123.81 264.99,88.81 276.27,92.92 276.27,127.92" fill="#474747"/>
<polygon points="276.27,127.92 276.27,92.92 287.55,88.81 287.55,123.81" fill="#3b3b3b"/>
<polygon points="263.11,89.50 274.39,93.60 263.11,97.70 251.84,93.60" fill="#515151"/>
<polygon points="251.84,128.60 251.84,93.60 263.11,97.70 263.11,132.70" fill="#474747"/>
<polygon points="263.11,132.70 263.11,97.70 274.39,93.60 274.39,128.60" fill="#3b3b3b"/>
<polygon points="249.96,129.28 261.23,133.39 249.96,137.49 238.68,133.39" fill="#373b42"/>
<polygon points="236.80,134.07 248.08,138.18 236.80,142.28 225.53,138.18" fill="#373b42"/>
<polygon points="223.65,138.86 234.92,142.96 223.65,147.07 212.37,142.96" fill="#373b42"/>
<polygon points="315.74,72.92 327.01,77.02 315.74,81.13 304.46,77.02" fill="#989898"/>
<polygon points="304.46,119.02 304.46,77.02 315.74,81.13 315.74,123.13" fill="#858585"/>
<polygon points="315.74,123.13 315.74,81.13 327.01,77.02 327.01,119.02" fill="#707070"/>
<polygon points="302.58,119.71 313.86,123.81 302.58,127.92 291.30,123.81" fill="#373b42"/>
<polygon points="289.43,124.50 300.70,128.60 289.43,132.70 278.15,128.60" fill="#373b42"/>
<polygon points="276.27,129.28 287.55,133.39 276.27,137.49 264.99,133.39" fill="#373b42"/>
<polygon points="263.11,134.07 274.39,138.18 263.11,142.28 251.84,138.18" fill="#373b42"/>
<polygon points="249.96,138.86 261.23,142.96 249.96,147.07 238.68,142.96" fill="#373b42"/>
<polygon points="236.80,143.65 248.08,147.75 236.80,151.86 225.53,147.75" fill="#373b42"/>
<polygon points="328.89,71.71 340.17,75.81 328.89,79.92 317.62,75.81" fill="#d1d1d1"/>
<polygon points="317.62,123.81 317.62,75.81 328.89,79.92 328.89,127.92" fill="#b7b7b7"/>
<polygon points="328.89,127.92 328.89,79.92 340.17,75.81 340.17,123.81" fill="#9a9a9a"/>
<polygon points="315.74,124.50 327.01,128.60 315.74,132.70 304.46,128.60" fill="#373b42"/>
<polygon points="302.58,129.28 313.86,133.39 302.58,137.49 291.30,133.39" fill="#373b42"/>
<polygon points="289.43,95.07 300.70,99.18 289.43,103.28 278.15,99.18" fill="#989898"/>
<polygon points="278.15,138.18 278.15,99.18 289.43,103.28 289.43,142.28" fill="#858585"/>
<polygon points="289.43,142.28 289.43,103.28 300.70,99.18 300.70,138.18" fill="#707070"/>
<polygon points="276.27,138.86 287.55,142.96 276.27,147.07 264.99,142.96" fill="#373b42"/>
<polygon points="263.11,143.65 274.39,147.75 263.11,151.86 251.84,147.75" fill="#373b42"/>
<polygon points="249.96,148.44 261.23,152.54 249.96,156.65 238.68,152.54" fill="#373b42"/>
<polygon points="342.05,124.50 353.32,128.60 342.05,132.70 330.77,128.60" fill="#373b42"/>
<polygon points="328.89,81.28 340.17,85.39 328.89,89.49 317.62,85.39" fill="#d1d1d1"/>
<polygon points="317.62,133.39 317.62,85.39 328.89,89.49 328.89,137.49" fill="#b7b7b7"/>
<polygon points="328.89,137.49 328.89,89.49 340.17,85.39 340.17,133.39" fill="#9a9a9a"/>
<polygon points="315.74,134.07 327.01,138.18 315.74,142.28 304.46,138.18" fill="#373b42"/>
<polygon points="302.58,74.86 313.86,78.96 302.58,83.07 291.30,78.96" fill="#ffffff"/>
<polygon points="291.30,142.96 291.30,78.96 302.58,83.07 302.58,147.07" fill="#e0e0e0"/>
<polygon points="302.58,147.07 302.58,83.07 313.86,78.96 313.86,142.96" fill="#bcbcbc"/>
<polygon points="289.43,143.65 300.70,147.75 289.43,151.86 278.15,147.75" fill="#373b42"/>
<polygon points="276.27,148.44 287.55,152.54 276.27,156.65 264.99,152.54" fill="#373b42"/>
<polygon points="263.11,153.23 274.39,157.33 263.11,161.43 251.84,157.33" fill="#373b42"/>
<polygon points="355.20,85.28 366.48,89.39 355.20,93.49 343.93,89.39" fill="#d1d1d1"/>
<polygon points="343.93,133.39 343.93,89.39 355.20,93.49 355.20,137.49" fill="#b7b7b7"/>
<polygon points="355.20,137.49 355.20,93.49 366.48,89.39 366.48,133.39" fill="#9a9a9a"/>
<polygon points="342.05,134.07 353.32,138.18 342.05,142.28 330.77,138.18" fill="#373b42"/>
<polygon points="328.89,138.86 340.17,142.96 328.89,147.07 317.62,142.96" fill="#373b42"/>
<polygon points="315.74,143.65 327.01,147.75 315.74,151.86 304.46,147.75" fill="#373b42"/>
<polygon points="302.58,148.44 313.86,152.54 302.58,156.65 291.30,152.54" fill="#373b42"/>
<polygon points="289.43,153.23 300.70,157.33 289.43,161.43 278.15,157.33" fill="#373b42"/>
<polygon points="276.27,158.01 287.55,162.12 276.27,166.22 264.99,162.12" fill="#373b42"/>
<polygon points="368.36,86.07 379.64,90.18 368.36,94.28 357.08,90.18" fill="#d1d1d1"/>
<polygon points="357.08,138.18 357.08,90.18 368.36,94.28 368.36,142.28" fill="#b7b7b7"/>
<polygon points="368.36,142.28 368.36,94.28 379.64,90.18 379.64,138.18" fill="#9a9a9a"/>
<polygon points="355.20,138.86 366.48,142.96 355.20,147.07 343.93,142.96" fill="#373b42"/>
<polygon points="342.05,143.65 353.32,147.75 342.05,151.86 330.77,147.75" fill="#373b42"/>
<polygon points="328.89,148.44 340.17,152.54 328.89,156.65 317.62,152.54" fill="#373b42"/>
<polygon points="315.74,118.23 327.01,122.33 315.74,126.43 304.46,122.33" fill="#515151"/>
<polygon points="304.46,157.33 304.46,122.33 315.74,126.43 315.74,161.43" fill="#474747"/>
<polygon points="315.74,161.43 315.74,126.43 327.01,122.33 327.01,157.33" fill="#3b3b3b"/>
<polygon points="302.58,123.01 313.86,127.12 302.58,131.22 291.30,127.12" fill="#515151"/>
<polygon points="291.30,162.12 291.30,127.12 302.58,131.22 302.58,166.22" fill="#474747"/>
<polygon points="302.58,166.22 302.58,131.22 313.86,127.12 313.86,162.12" fill="#3b3b3b"/>
<polygon points="289.43,162.80 300.70,166.91 289.43,171.01 278.15,166.91" fill="#373b42"/>
<polygon points="381.52,90.86 392.79,94.96 381.52,99.07 370.24,94.96" fill="#d1d1d1"/>
<polygon points="370.24,142.96 370.24,94.96 381.52,99.07 381.52,147.07" fill="#b7b7b7"/>
<polygon points="381.52,147.07 381.52,99.07 392.79,94.96 392.79,142.96" fill="#9a9a9a"/>
<polygon points="368.36,143.65 379.64,147.75 368.36,151.86 357.08,147.75" fill="#373b42"/>
<polygon points="355.20,148.44 366.48,152.54 355.20,156.65 343.93,152.54" fill="#373b42"/>
<polygon points="342.05,153.23 353.32,157.33 342.05,161.43 330.77,157.33" fill="#373b42"/>
<polygon points="328.89,158.01 340.17,162.12 328.89,166.22 317.62,162.12" fill="#373b42"/>
<polygon points="315.74,162.80 327.01,166.91 315.74,171.01 304.46,166.91" fill="#373b42"/>
<polygon points="302.58,132.59 313.86,136.69 302.58,140.80 291.30,136.69" fill="#515151"/>
<polygon points="291.30,171.69 291.30,136.69 302.58,140.80 302.58,175.80" fill="#474747"/>
<polygon points="302.58,175.80 302.58,140.80 313.86,136.69 313.86,171.69" fill="#3b3b3b"/>
<polygon points="394.67,86.65 405.95,90.75 394.67,94.86 383.39,90.75" fill="#ffffff"/>
<polygon points="383.39,147.75 383.39,90.75 394.67,94.86 394.67,151.86" fill="#e0e0e0"/>
<polygon points="394.67,151.86 394.67,94.86 405.95,90.75 405.95,147.75" fill="#bcbcbc"/>
<polygon points="381.52,100.44 392.79,104.54 381.52,108.65 370.24,104.54" fill="#d1d1d1"/>
<polygon points="370.24,152.54 370.24,104.54 381.52,108.65 381.52,156.65" fill="#b7b7b7"/>
<polygon points="381.52,156.65 381.52,108.65 392.79,104.54 392.79,152.54" fill="#9a9a9a"/>
<polygon points="368.36,153.23 379.64,157.33 368.36,161.43 357.08,157.33" fill="#373b42"/>
<polygon points="355.20,123.01 366.48,127.12 355.20,131.22 343.93,127.12" fill="#515151"/>
<polygon points="343.93,162.12 343.93,127.12 355.20,131.22 355.20,166.22" fill="#474747"/>
<polygon points="355.20,166.22 355.20,131.22 366.48,127.12 366.48,162.12" fill="#3b3b3b"/>
<polygon points="342.05,127.80 353.32,131.91 342.05,136.01 330.77,131.91" fill="#515151"/>
<polygon points="330.77,166.91 330.77,131.91 342.05,136.01 342.05,171.01" fill="#474747"/>
<polygon points="342.05,171.01 342.05,136.01 353.32,131.91 353.32,166.91" fill="#3b3b3b"/>
<polygon points="328.89,123.59 340.17,127.69 328.89,131.80 317.62,127.69" fill="#d1d1d1"/>
<polygon points="317.62,171.69 317.62,127.69 328.89,131.80 328.89,175.80" fill="#b7b7b7"/>
<polygon points="328.89,175.80 328.89,131.80 340.17,127.69 340.17,171.69" fill="#9a9a9a"/>
<polygon points="315.74,130.38 327.01,134.48 315.74,138.59 304.46,134.48" fill="#989898"/>
<polygon points="304.46,176.48 304.46,134.48 315.74,138.59 315.74,180.59" fill="#858585"/>
<polygon points="315.74,180.59 315.74,138.59 327.01,134.48 327.01,176.48" fill="#707070"/>
<polygon points="407.83,104.44 419.10,108.54 407.83,112.65 396.55,108.54" fill="#d1d1d1"/>
<polygon points="396.55,152.54 396.55,108.54 407.83,112.65 407.83,156.65" fill="#b7b7b7"/>
<polygon points="407.83,156.65 407.83,112.65 419.10,108.54 419.10,152.54" fill="#9a9a9a"/>
<polygon points="394.67,153.23 405.95,157.33 394.67,161.43 383.39,157.33" fill="#373b42"/>
<polygon points="381.52,158.01 392.79,162.12 381.52,166.22 370.24,162.12" fill="#373b42"/>
<polygon points="368.36,162.80 379.64,166.91 368.36,171.01 357.08,166.91" fill="#373b42"/>
<polygon points="355.20,167.59 366.48,171.69 355.20,175.80 343.93,171.69" fill="#373b42"/>
<polygon points="342.05,172.38 353.32,176.48 342.05,180.59 330.77,176.48" fill="#373b42"/>
<polygon points="328.89,177.17 340.17,181.27 328.89,185.37 317.62,181.27" fill="#373b42"/>
<polygon points="420.98,103.23 432.26,107.33 420.98,111.43 409.71,107.33" fill="#ffffff"/>
<polygon points="409.71,157.33 409.71,107.33 420.98,111.43 420.98,161.43" fill="#e0e0e0"/>
<polygon points="420.98,161.43 420.98,111.43 432.26,107.33 432.26,157.33" fill="#bcbcbc"/>
<polygon points="407.83,158.01 419.10,162.12 407.83,166.22 396.55,162.12" fill="#373b42"/>
<polygon points="394.67,162.80 405.95,166.91 394.67,171.01 383.39,166.91" fill="#373b42"/>
<polygon points="381.52,119.59 392.79,123.69 381.52,127.80 370.24,123.69" fill="#d1d1d1"/>
<polygon points="370.24,171.69 370.24,123.69 381.52,127.80 381.52,175.80" fill="#b7b7b7"/>
<polygon points="381.52,175.80 381.52,127.80 392.79,123.69 392.79,171.69" fill="#9a9a9a"/>
<polygon points="368.36,172.38 379.64,176.48 368.36,180.59 357.08,176.48" fill="#373b42"/>
<polygon points="355.20,126.17 366.48,130.27 355.20,134.37 343.93,130.27" fill="#ffffff"/>
<polygon points="343.93,181.27 343.93,130.27 355.20,134.37 355.20,185.37" fill="#e0e0e0"/>
<polygon points="355.20,185.37 355.20,134.37 366.48,130.27 366.48,181.27" fill="#bcbcbc"/>
<polygon points="342.05,150.95 353.32,155.06 342.05,159.16 330.77,155.06" fill="#515151"/>
<polygon points="330.77,186.06 330.77,155.06 342.05,159.16 342.05,190.16" fill="#474747"/>
<polygon points="342.05,190.16 342.05,159.16 353.32,155.06 353.32,186.06" fill="#3b3b3b"/>
<polygon points="434.14,116.01 445.41,120.12 434.14,124.22 422.86,120.12" fill="#989898"/>
<polygon points="422.86,162.12 422.86,120.12 434.14,124.22 434.14,166.22" fill="#858585"/>
<polygon points="434.14,166.22 434.14,124.22 445.41,120.12 445.41,162.12" fill="#707070"/>
<polygon points="420.98,162.80 432.26,166.91 420.98,171.01 409.71,166.91" fill="#373b42"/>
<polygon points="407.83,121.59 419.10,125.69 407.83,129.80 396.55,125.69" fill="#d1d1d1"/>
<polygon points="396.55,171.69 396.55,125.69 407.83,129.80 407.83,175.80" fill="#b7b7b7"/>
<polygon points="407.83,175.80 407.83,129.80 419.10,125.69 419.10,171.69" fill="#9a9a9a"/>
<polygon points="394.67,122.38 405.95,126.48 394.67,130.59 383.39,126.48" fill="#ffffff"/>
<polygon points="383.39,176.48 383.39,126.48 394.67,130.59 394.67,180.59" fill="#e0e0e0"/>
<polygon points="394.67,180.59 394.67,130.59 405.95,126.48 405.95,176.48" fill="#bcbcbc"/>
<polygon points="381.52,142.17 392.79,146.27 381.52,150.37 370.24,146.27" fill="#515151"/>
<polygon points="370.24,181.27 370.24,146.27 381.52,150.37 381.52,185.37" fill="#474747"/>
<polygon points="381.52,185.37 381.52,150.37 392.79,146.27 392.79,181.27" fill="#3b3b3b"/>
<polygon points="368.36,162.95 379.64,167.06 368.36,171.16 357.08,167.06" fill="#515151"/>
<polygon points="357.08,186.06 357.08,167.06 368.36,171.16 368.36,190.16" fill="#474747"/>
<polygon points="368.36,190.16 368.36,171.16 379.64,167.06 379.64,186.06" fill="#3b3b3b"/>
<polygon points="355.20,151.74 366.48,155.85 355.20,159.95 343.93,155.85" fill="#515151"/>
<polygon points="343.93,190.85 343.93,155.85 355.20,159.95 355.20,194.95" fill="#474747"/>
<polygon points="355.20,194.95 355.20,159.95 366.48,155.85 366.48,190.85" fill="#3b3b3b"/>
<polygon points="447.29,120.80 458.57,124.91 447.29,129.01 436.02,124.91" fill="#989898"/>
<polygon points="436.02,166.91 436.02,124.91 447.29,129.01 447.29,171.01" fill="#858585"/>
<polygon points="447.29,171.01 447.29,129.01 458.57,124.91 458.57,166.91" fill="#707070"/>
<polygon points="434.14,167.59 445.41,171.69 434.14,175.80 422.86,171.69" fill="#373b42"/>
<polygon points="420.98,130.38 432.26,134.48 420.98,138.59 409.71,134.48" fill="#989898"/>
<polygon points="409.71,176.48 409.71,134.48 420.98,138.59 420.98,180.59" fill="#858585"/>
<polygon points="420.98,180.59 420.98,138.59 432.26,134.48 432.26,176.48" fill="#707070"/>
<polygon points="407.83,177.17 419.10,181.27 407.83,185.37 396.55,181.27" fill="#373b42"/>
<polygon points="394.67,142.95 405.95,147.06 394.67,151.16 383.39,147.06" fill="#989898"/>
<polygon points="383.39,186.06 383.39,147.06 394.67,151.16 394.67,190.16" fill="#858585"/>
<polygon points="394.67,190.16 394.67,151.16 405.95,147.06 405.95,186.06" fill="#707070"/>
<polygon points="381.52,186.74 392.79,190.85 381.52,194.95 370.24,190.85" fill="#373b42"/>
<polygon points="368.36,191.53 379.64,195.64 368.36,199.74 357.08,195.64" fill="#373b42"/>
<polygon points="460.45,116.59 471.73,120.69 460.45,124.80 449.17,120.69" fill="#ffffff"/>
<polygon points="449.17,171.69 449.17,120.69 460.45,124.80 460.45,175.80" fill="#e0e0e0"/>
<polygon points="460.45,175.80 460.45,124.80 471.73,120.69 471.73,171.69" fill="#bcbcbc"/>
<polygon points="447.29,172.38 458.57,176.48 447.29,180.59 436.02,176.48" fill="#373b42"/>
<polygon points="434.14,177.17 445.41,181.27 434.14,185.37 422.86,181.27" fill="#373b42"/>
<polygon points="420.98,181.95 432.26,186.06 420.98,190.16 409.71,186.06" fill="#373b42"/>
<polygon points="407.83,147.74 419.10,151.85 407.83,155.95 396.55,151.85" fill="#989898"/>
<polygon points="396.55,190.85 396.55,151.85 407.83,155.95 407.83,194.95" fill="#858585"/>
<polygon points="407.83,194.95 407.83,155.95 419.10,151.85 419.10,190.85" fill="#707070"/>
<polygon points="394.67,191.53 405.95,195.64 394.67,199.74 383.39,195.64" fill="#373b42"/>
<polygon points="381.52,145.32 392.79,149.42 381.52,153.53 370.24,149.42" fill="#ffffff"/>
<polygon points="370.24,200.42 370.24,149.42 381.52,153.53 381.52,204.53" fill="#e0e0e0"/>
<polygon points="381.52,204.53 381.52,153.53 392.79,149.42 392.79,200.42" fill="#bcbcbc"/>
<polygon points="473.61,172.38 484.88,176.48 473.61,180.59 462.33,176.48" fill="#373b42"/>
<polygon points="460.45,177.17 471.73,181.27 460.45,185.37 449.17,181.27" fill="#373b42"/>
<polygon points="447.29,181.95 458.57,186.06 447.29,190.16 436.02,186.06" fill="#373b42"/>
<polygon points="434.14,151.74 445.41,155.85 434.14,159.95 422.86,155.85" fill="#515151"/>
<polygon points="422.86,190.85 422.86,155.85 434.14,159.95 434.14,194.95" fill="#474747"/>
<polygon points="434.14,194.95 434.14,159.95 445.41,155.85 445.41,190.85" fill="#3b3b3b"/>
<polygon points="420.98,191.53 432.26,195.64 420.98,199.74 409.71,195.64" fill="#373b42"/>
<polygon points="407.83,196.32 419.10,200.42 407.83,204.53 396.55,200.42" fill="#373b42"/>
<polygon points="394.67,201.11 405.95,205.21 394.67,209.32 383.39,205.21" fill="#373b42"/>
<polygon points="486.76,129.17 498.04,133.27 486.76,137.37 475.48,133.27" fill="#d1d1d1"/>
<polygon points="475.48,181.27 475.48,133.27 486.76,137.37 486.76,185.37" fill="#b7b7b7"/>
<polygon points="486.76,185.37 486.76,137.37 498.04,133.27 498.04,181.27" fill="#9a9a9a"/>
<polygon points="473.61,181.95 484.88,186.06 473.61,190.16 462.33,186.06" fill="#373b42"/>
<polygon points="460.45,186.74 471.73,190.85 460.45,194.95 449.17,190.85" fill="#373b42"/>
<polygon points="447.29,191.53 458.57,195.64 447.29,199.74 436.02,195.64" fill="#373b42"/>
<polygon points="434.14,196.32 445.41,200.42 434.14,204.53 422.86,200.42" fill="#373b42"/>
<polygon points="420.98,201.11 432.26,205.21 420.98,209.32 409.71,205.21" fill="#373b42"/>
<polygon points="407.83,205.90 419.10,210.00 407.83,214.10 396.55,210.00" fill="#373b42"/>
<polygon points="499.92,181.95 511.19,186.06 499.92,190.16 488.64,186.06" fill="#373b42"/>
<polygon points="486.76,186.74 498.04,190.85 486.76,194.95 475.48,190.85" fill="#373b42"/>
<polygon points="473.61,152.53 484.88,156.64 473.61,160.74 462.33,156.64" fill="#989898"/>
<polygon points="462.33,195.64 462.33,156.64 473.61,160.74 473.61,199.74" fill="#858585"/>
<polygon points="473.61,199.74 473.61,160.74 484.88,156.64 484.88,195.64" fill="#707070"/>
<polygon points="460.45,148.32 471.73,152.42 460.45,156.53 449.17,152.42" fill="#d1d1d1"/>
<polygon points="449.17,200.42 449.17,152.42 460.45,156.53 460.45,204.53" fill="#b7b7b7"/>
<polygon points="460.45,204.53 460.45,156.53 471.73,152.42 471.73,200.42" fill="#9a9a9a"/>
<polygon points="447.29,201.11 458.57,205.21 447.29,209.32 436.02,205.21" fill="#373b42"/>
<polygon points="434.14,205.90 445.41,210.00 434.14,214.10 422.86,210.00" fill="#373b42"/>
<polygon points="420.98,210.68 432.26,214.79 420.98,218.89 409.71,214.79" fill="#373b42"/>
<polygon points="513.07,131.74 524.35,135.85 513.07,139.95 501.80,135.85" fill="#ffffff"/>
<polygon points="501.80,190.85 501.80,135.85 513.07,139.95 513.07,194.95" fill="#e0e0e0"/>
<polygon points="513.07,194.95 513.07,139.95 524.35,135.85 524.35,190.85" fill="#bcbcbc"/>
<polygon points="499.92,191.53 511.19,195.64 499.92,199.74 488.64,195.64" fill="#373b42"/>
<polygon points="486.76,196.32 498.04,200.42 486.76,204.53 475.48,200.42" fill="#373b42"/>
<polygon points="473.61,151.11 484.88,155.21 473.61,159.32 462.33,155.21" fill="#ffffff"/>
<polygon points="462.33,205.21 462.33,155.21 473.61,159.32 473.61,209.32" fill="#e0e0e0"/>
<polygon points="473.61,209.32 473.61,159.32 484.88,155.21 484.88,205.21" fill="#bcbcbc"/>
<polygon points="460.45,151.90 471.73,156.00 460.45,160.10 449.17,156.00" fill="#ffffff"/>
<polygon points="449.17,210.00 449.17,156.00 460.45,160.10 460.45,214.10" fill="#e0e0e0"/>
<polygon points="460.45,214.10 460.45,160.10 471.73,156.00 471.73,210.00" fill="#bcbcbc"/>
<polygon points="447.29,171.68 458.57,175.79 447.29,179.89 436.02,175.79" fill="#989898"/>
<polygon points="436.02,214.79 436.02,175.79 447.29,179.89 447.29,218.89" fill="#858585"/>
<polygon points="447.29,218.89 447.29,179.89 458.57,175.79 458.57,214.79" fill="#707070"/>
<polygon points="434.14,215.47 445.41,219.58 434.14,223.68 422.86,219.58" fill="#373b42"/>
<polygon points="526.23,147.53 537.50,151.64 526.23,155.74 514.95,151.64" fill="#d1d1d1"/>
<polygon points="514.95,195.64 514.95,151.64 526.23,155.74 526.23,199.74" fill="#b7b7b7"/>
<polygon points="526.23,199.74 526.23,155.74 537.50,151.64 537.50,195.64" fill="#9a9a9a"/>
<polygon points="513.07,196.32 524.35,200.42 513.07,204.53 501.80,200.42" fill="#373b42"/>
<polygon points="499.92,201.11 511.19,205.21 499.92,209.32 488.64,205.21" fill="#373b42"/>
<polygon points="486.76,205.90 498.04,210.00 486.76,214.10 475.48,210.00" fill="#373b42"/>
<polygon points="473.61,179.68 484.88,183.79 473.61,187.89 462.33,183.79" fill="#515151"/>
<polygon points="462.33,214.79 462.33,183.79 473.61,187.89 473.61,218.89" fill="#474747"/>
<polygon points="473.61,218.89 473.61,187.89 484.88,183.79 484.88,214.79" fill="#3b3b3b"/>
<polygon points="460.45,180.47 471.73,184.58 460.45,188.68 449.17,184.58" fill="#515151"/>
<polygon points="449.17,219.58 449.17,184.58 460.45,188.68 460.45,223.68" fill="#474747"/>
<polygon points="460.45,223.68 460.45,188.68 471.73,184.58 471.73,219.58" fill="#3b3b3b"/>
<polygon points="447.29,220.26 458.57,224.37 447.29,228.47 436.02,224.37" fill="#373b42"/>
<polygon points="539.38,170.32 550.66,174.42 539.38,178.53 528.11,174.42" fill="#515151"/>
<polygon points="528.11,200.42 528.11,174.42 539.38,178.53 539.38,204.53" fill="#474747"/>
<polygon points="539.38,204.53 539.38,178.53 550.66,174.42 550.66,200.42" fill="#3b3b3b"/>
<polygon points="526.23,201.11 537.50,205.21 526.23,209.32 514.95,205.21" fill="#373b42"/>
<polygon points="513.07,179.90 524.35,184.00 513.07,188.10 501.80,184.00" fill="#515151"/>
<polygon points="501.80,210.00 501.80,184.00 513.07,188.10 513.07,214.10" fill="#474747"/>
<polygon points="513.07,214.10 513.07,188.10 524.35,184.00 524.35,210.00" fill="#3b3b3b"/>
<polygon points="499.92,210.68 511.19,214.79 499.92,218.89 488.64,214.79" fill="#373b42"/>
<polygon points="486.76,215.47 498.04,219.58 486.76,223.68 475.48,219.58" fill="#373b42"/>
<polygon points="473.61,220.26 484.88,224.37 473.61,228.47 462.33,224.37" fill="#373b42"/>
<polygon points="460.45,181.05 471.73,185.15 460.45,189.26 449.17,185.15" fill="#d1d1d1"/>
<polygon points="449.17,229.15 449.17,185.15 460.45,189.26 460.45,233.26" fill="#b7b7b7"/>
<polygon points="460.45,233.26 460.45,189.26 471.73,185.15 471.73,229.15" fill="#9a9a9a"/>
<polygon points="552.54,153.11 563.82,157.21 552.54,161.32 541.26,157.21" fill="#d1d1d1"/>
<polygon points="541.26,205.21 541.26,157.21 552.54,161.32 552.54,209.32" fill="#b7b7b7"/>
<polygon points="552.54,209.32 552.54,161.32 563.82,157.21 563.82,205.21" fill="#9a9a9a"/>
<polygon points="539.38,179.90 550.66,184.00 539.38,188.10 528.11,184.00" fill="#515151"/>
<polygon points="528.11,210.00 528.11,184.00 539.38,188.10 539.38,214.10" fill="#474747"/>
<polygon points="539.38,214.10 539.38,188.10 550.66,184.00 550.66,210.00" fill="#3b3b3b"/>
<polygon points="526.23,210.68 537.50,214.79 526.23,218.89 514.95,214.79" fill="#373b42"/>
<polygon points="513.07,215.47 524.35,219.58 513.07,223.68 501.80,219.58" fill="#373b42"/>
<polygon points="499.92,220.26 511.19,224.37 499.92,228.47 488.64,224.37" fill="#373b42"/>
<polygon points="486.76,225.05 498.04,229.15 486.76,233.26 475.48,229.15" fill="#373b42"/>
<polygon points="473.61,229.84 484.88,233.94 473.61,238.05 462.33,233.94" fill="#373b42"/>
<polygon points="565.69,157.90 576.97,162.00 565.69,166.10 554.42,162.00" fill="#d1d1d1"/>
<polygon points="554.42,210.00 554.42,162.00 565.69,166.10 565.69,214.10" fill="#b7b7b7"/>
<polygon points="565.69,214.10 565.69,166.10 576.97,162.00 576.97,210.00" fill="#9a9a9a"/>
<polygon points="552.54,210.68 563.82,214.79 552.54,218.89 541.26,214.79" fill="#373b42"/>
<polygon points="539.38,215.47 550.66,219.58 539.38,223.68 528.11,219.58" fill="#373b42"/>
<polygon points="526.23,220.26 537.50,224.37 526.23,228.47 514.95,224.37" fill="#373b42"/>
<polygon points="513.07,225.05 524.35,229.15 513.07,233.26 501.80,229.15" fill="#373b42"/>
<polygon points="499.92,229.84 511.19,233.94 499.92,238.05 488.64,233.94" fill="#373b42"/>
<polygon points="486.76,177.63 498.04,181.73 486.76,185.83 475.48,181.73" fill="#ffffff"/>
<polygon points="475.48,238.73 475.48,181.73 486.76,185.83 486.76,242.83" fill="#e0e0e0"/>
<polygon points="486.76,242.83 486.76,185.83 498.04,181.73 498.04,238.73" fill="#bcbcbc"/>
<polygon points="578.85,210.68 590.13,214.79 578.85,218.89 567.57,214.79" fill="#373b42"/>
<polygon points="565.69,215.47 576.97,219.58 565.69,223.68 554.42,219.58" fill="#373b42"/>
<polygon points="552.54,220.26 563.82,224.37 552.54,228.47 541.26,224.37" fill="#373b42"/>
<polygon points="539.38,225.05 550.66,229.15 539.38,233.26 528.11,229.15" fill="#373b42"/>
<polygon points="526.23,229.84 537.50,233.94 526.23,238.05 514.95,233.94" fill="#373b42"/>
<polygon points="513.07,183.63 524.35,187.73 513.07,191.83 501.80,187.73" fill="#ffffff"/>
<polygon points="501.80,238.73 501.80,187.73 513.07,191.83 513.07,242.83" fill="#e0e0e0"/>
<polygon points="513.07,242.83 513.07,191.83 524.35,187.73 524.35,238.73" fill="#bcbcbc"/>
<polygon points="499.92,220.41 511.19,224.52 499.92,228.62 488.64,224.52" fill="#515151"/>
<polygon points="488.64,243.52 488.64,224.52 499.92,228.62 499.92,247.62" fill="#474747"/>
<polygon points="499.92,247.62 499.92,228.62 511.19,224.52 511.19,243.52" fill="#3b3b3b"/>
<polygon points="592.01,169.47 603.28,173.58 592.01,177.68 580.73,173.58" fill="#d1d1d1"/>
<polygon points="580.73,219.58 580.73,173.58 592.01,177.68 592.01,223.68" fill="#b7b7b7"/>
<polygon points="592.01,223.68 592.01,177.68 603.28,173.58 603.28,219.58" fill="#9a9a9a"/>
<polygon points="578.85,220.26 590.13,224.37 578.85,228.47 567.57,224.37" fill="#373b42"/>
<polygon points="565.69,225.05 576.97,229.15 565.69,233.26 554.42,229.15" fill="#373b42"/>
<polygon points="552.54,190.84 563.82,194.94 552.54,199.05 541.26,194.94" fill="#989898"/>
<polygon points="541.26,233.94 541.26,194.94 552.54,199.05 552.54,238.05" fill="#858585"/>
<polygon points="552.54,238.05 552.54,199.05 563.82,194.94 563.82,233.94" fill="#707070"/>
<polygon points="539.38,190.63 550.66,194.73 539.38,198.83 528.11,194.73" fill="#d1d1d1"/>
<polygon points="528.11,238.73 528.11,194.73 539.38,198.83 539.38,242.83" fill="#b7b7b7"/>
<polygon points="539.38,242.83 539.38,198.83 550.66,194.73 550.66,238.73" fill="#9a9a9a"/>
<polygon points="526.23,191.41 537.50,195.52 526.23,199.62 514.95,195.52" fill="#d1d1d1"/>
<polygon points="514.95,243.52 514.95,195.52 526.23,199.62 526.23,247.62" fill="#b7b7b7"/>
<polygon points="526.23,247.62 526.23,199.62 537.50,195.52 537.50,243.52" fill="#9a9a9a"/>
<polygon points="513.07,205.20 524.35,209.31 513.07,213.41 501.80,209.31" fill="#989898"/>
<polygon points="501.80,248.31 501.80,209.31 513.07,213.41 513.07,252.41" fill="#858585"/>
<polygon points="513.07,252.41 513.07,213.41 524.35,209.31 524.35,248.31" fill="#707070"/>
<polygon points="605.16,189.26 616.44,193.37 605.16,197.47 593.89,193.37" fill="#515151"/>
<polygon points="593.89,224.37 593.89,193.37 605.16,197.47 605.16,228.47" fill="#474747"/>
<polygon points="605.16,228.47 605.16,197.47 616.44,193.37 616.44,224.37" fill="#3b3b3b"/>
<polygon points="592.01,225.05 603.28,229.15 592.01,233.26 580.73,229.15" fill="#373b42"/>
<polygon points="578.85,179.84 590.13,183.94 578.85,188.05 567.57,183.94" fill="#ffffff"/>
<polygon points="567.57,233.94 567.57,183.94 578.85,188.05 578.85,238.05" fill="#e0e0e0"/>
<polygon points="578.85,238.05 578.85,188.05 590.13,183.94 590.13,233.94" fill="#bcbcbc"/>
<polygon points="565.69,199.63 576.97,203.73 565.69,207.83 554.42,203.73" fill="#515151"/>
<polygon points="554.42,238.73 554.42,203.73 565.69,207.83 565.69,242.83" fill="#474747"/>
<polygon points="565.69,242.83 565.69,207.83 576.97,203.73 576.97,238.73" fill="#3b3b3b"/>
<polygon points="552.54,239.41 563.82,243.52 552.54,247.62 541.26,243.52" fill="#373b42"/>
<polygon points="539.38,182.20 550.66,186.31 539.38,190.41 528.11,186.31" fill="#ffffff"/>
<polygon points="528.11,248.31 528.11,186.31 539.38,190.41 539.38,252.41" fill="#e0e0e0"/>
<polygon points="539.38,252.41 539.38,190.41 550.66,186.31 550.66,248.31" fill="#bcbcbc"/>
<polygon points="526.23,248.99 537.50,253.09 526.23,257.20 514.95,253.09" fill="#373b42"/>
<polygon points="618.32,181.05 629.59,185.15 618.32,189.26 607.04,185.15" fill="#d1d1d1"/>
<polygon points="607.04,229.15 607.04,185.15 618.32,189.26 618.32,233.26" fill="#b7b7b7"/>
<polygon points="618.32,233.26 618.32,189.26 629.59,185.15 629.59,229.15" fill="#9a9a9a"/>
<polygon points="605.16,229.84 616.44,233.94 605.16,238.05 593.89,233.94" fill="#373b42"/>
<polygon points="592.01,234.63 603.28,238.73 592.01,242.83 580.73,238.73" fill="#373b42"/>
<polygon points="578.85,239.41 590.13,243.52 578.85,247.62 567.57,243.52" fill="#373b42"/>
<polygon points="565.69,244.20 576.97,248.31 565.69,252.41 554.42,248.31" fill="#373b42"/>
<polygon points="552.54,248.99 563.82,253.09 552.54,257.20 541.26,253.09" fill="#373b42"/>
<polygon points="539.38,253.78 550.66,257.88 539.38,261.99 528.11,257.88" fill="#373b42"/>
<polygon points="631.47,172.84 642.75,176.94 631.47,181.05 620.20,176.94" fill="#ffffff"/>
<polygon points="620.20,233.94 620.20,176.94 631.47,181.05 631.47,238.05" fill="#e0e0e0"/>
<polygon points="631.47,238.05 631.47,181.05 642.75,176.94 642.75,233.94" fill="#bcbcbc"/>
<polygon points="618.32,234.63 629.59,238.73 618.32,242.83 607.04,238.73" fill="#373b42"/>
<polygon points="605.16,239.41 616.44,243.52 605.16,247.62 593.89,243.52" fill="#373b42"/>
<polygon points="592.01,244.20 603.28,248.31 592.01,252.41 580.73,248.31" fill="#373b42"/>
<polygon points="578.85,248.99 590.13,253.09 578.85,257.20 567.57,253.09" fill="#373b42"/>
<polygon points="565.69,253.78 576.97,257.88 565.69,261.99 554.42,257.88" fill="#373b42"/>
<polygon points="552.54,219.57 563.82,223.67 552.54,227.78 541.26,223.67" fill="#989898"/>
<polygon points="541.26,262.67 541.26,223.67 552.54,227.78 552.54,266.78" fill="#858585"/>
<polygon points="552.54,266.78 552.54,227.78 563.82,223.67 563.82,262.67" fill="#707070"/>
<polygon points="644.63,234.63 655.91,238.73 644.63,242.83 633.35,238.73" fill="#373b42"/>
<polygon points="631.47,239.41 642.75,243.52 631.47,247.62 620.20,243.52" fill="#373b42"/>
<polygon points="618.32,244.20 629.59,248.31 618.32,252.41 607.04,248.31" fill="#373b42"/>
<polygon points="605.16,248.99 616.44,253.09 605.16,257.20 593.89,253.09" fill="#373b42"/>
<polygon points="592.01,234.78 603.28,238.88 592.01,242.99 580.73,238.88" fill="#515151"/>
<polygon points="580.73,257.88 580.73,238.88 592.01,242.99 592.01,261.99" fill="#474747"/>
<polygon points="592.01,261.99 592.01,242.99 603.28,238.88 603.28,257.88" fill="#3b3b3b"/>
<polygon points="578.85,223.57 590.13,227.67 578.85,231.78 567.57,227.67" fill="#515151"/>
<polygon points="567.57,262.67 567.57,227.67 578.85,231.78 578.85,266.78" fill="#474747"/>
<polygon points="578.85,266.78 578.85,231.78 590.13,227.67 590.13,262.67" fill="#3b3b3b"/>
<polygon points="565.69,213.36 576.97,217.46 565.69,221.56 554.42,217.46" fill="#ffffff"/>
<polygon points="554.42,267.46 554.42,217.46 565.69,221.56 565.69,271.56" fill="#e0e0e0"/>
<polygon points="565.69,271.56 565.69,221.56 576.97,217.46 576.97,267.46" fill="#bcbcbc"/>
<polygon points="657.78,189.41 669.06,193.52 657.78,197.62 646.51,193.52" fill="#ffffff"/>
<polygon points="646.51,243.52 646.51,193.52 657.78,197.62 657.78,247.62" fill="#e0e0e0"/>
<polygon points="657.78,247.62 657.78,197.62 669.06,193.52 669.06,243.52" fill="#bcbcbc"/>
<polygon points="644.63,244.20 655.91,248.31 644.63,252.41 633.35,248.31" fill="#373b42"/>
<polygon points="631.47,248.99 642.75,253.09 631.47,257.20 620.20,253.09" fill="#373b42"/>
<polygon points="618.32,253.78 629.59,257.88 618.32,261.99 607.04,257.88" fill="#373b42"/>
<polygon points="605.16,258.57 616.44,262.67 605.16,266.78 593.89,262.67" fill="#373b42"/>
<polygon points="592.01,263.36 603.28,267.46 592.01,271.56 580.73,267.46" fill="#373b42"/>
<polygon points="578.85,211.14 590.13,215.25 578.85,219.35 567.57,215.25" fill="#ffffff"/>
<polygon points="567.57,272.25 567.57,215.25 578.85,219.35 578.85,276.35" fill="#e0e0e0"/>
<polygon points="578.85,276.35 578.85,219.35 590.13,215.25 590.13,272.25" fill="#bcbcbc"/>
<polygon points="670.94,194.20 682.22,198.31 670.94,202.41 659.66,198.31" fill="#ffffff"/>
<polygon points="659.66,248.31 659.66,198.31 670.94,202.41 670.94,252.41" fill="#e0e0e0"/>
<polygon points="670.94,252.41 670.94,202.41 682.22,198.31 682.22,248.31" fill="#bcbcbc"/>
<polygon points="657.78,248.99 669.06,253.09 657.78,257.20 646.51,253.09" fill="#373b42"/>
<polygon points="644.63,253.78 655.91,257.88 644.63,261.99 633.35,257.88" fill="#373b42"/>
<polygon points="631.47,258.57 642.75,262.67 631.47,266.78 620.20,262.67" fill="#373b42"/>
<polygon points="618.32,263.36 629.59,267.46 618.32,271.56 607.04,267.46" fill="#373b42"/>
<polygon points="605.16,268.14 616.44,272.25 605.16,276.35 593.89,272.25" fill="#373b42"/>
<polygon points="592.01,224.93 603.28,229.04 592.01,233.14 580.73,229.04" fill="#d1d1d1"/>
<polygon points="580.73,277.04 580.73,229.04 592.01,233.14 592.01,281.14" fill="#b7b7b7"/>
<polygon points="592.01,281.14 592.01,233.14 603.28,229.04 603.28,277.04" fill="#9a9a9a"/>
<polygon points="684.10,200.99 695.37,205.09 684.10,209.20 672.82,205.09" fill="#d1d1d1"/>
<polygon points="672.82,253.09 672.82,205.09 684.10,209.20 684.10,257.20" fill="#b7b7b7"/>
<polygon points="684.10,257.20 684.10,209.20 695.37,205.09 695.37,253.09" fill="#9a9a9a"/>
<polygon points="670.94,253.78 682.22,257.88 670.94,261.99 659.66,257.88" fill="#373b42"/>
<polygon points="657.78,258.57 669.06,262.67 657.78,266.78 646.51,262.67" fill="#373b42"/>
<polygon points="644.63,263.36 655.91,267.46 644.63,271.56 633.35,267.46" fill="#373b42"/>
<polygon points="631.47,268.14 642.75,272.25 631.47,276.35 620.20,272.25" fill="#373b42"/>
<polygon points="618.32,272.93 629.59,277.04 618.32,281.14 607.04,277.04" fill="#373b42"/>
<polygon points="605.16,277.72 616.44,281.82 605.16,285.93 593.89,281.82" fill="#373b42"/>
<text x="364.25" y="-164.00" font-family='-apple-system, BlinkMacSystemFont, "Segoe UI", Helvetica, Arial, sans-serif' font-size="15" font-weight="700" fill="#e6edf3">Contributions/Submissions</text>
<rect x="364.25" y="-146.00" width="340.00" height="92.00" rx="10" fill="#3B3B3B" stroke="#424141" stroke-width="0.8" fill-opacity="0.96"/>
<text x="386.25" y="-112.00" font-family='-apple-system, BlinkMacSystemFont, "Segoe UI", Helvetica, Arial, sans-serif' font-size="26" font-weight="700" fill="#ffffff">1,012</text>
<text x="386.25" y="-90.00" font-family='-apple-system, BlinkMacSystemFont, "Segoe UI", Helvetica, Arial, sans-serif' font-size="12" font-weight="600" fill="#e6edf3">This year</text>
<text x="386.25" y="-72.00" font-family='-apple-system, BlinkMacSystemFont, "Segoe UI", Helvetica, Arial, sans-serif' font-size="10.5" fill="#7d8590">Jul 20 → Jul 25</text>
<text x="499.59" y="-112.00" font-family='-apple-system, BlinkMacSystemFont, "Segoe UI", Helvetica, Arial, sans-serif' font-size="26" font-weight="700" fill="#ffffff">9</text>
<text x="499.59" y="-90.00" font-family='-apple-system, BlinkMacSystemFont, "Segoe UI", Helvetica, Arial, sans-serif' font-size="12" font-weight="600" fill="#e6edf3">This week</text>
<text x="499.59" y="-72.00" font-family='-apple-system, BlinkMacSystemFont, "Segoe UI", Helvetica, Arial, sans-serif' font-size="10.5" fill="#7d8590">Jul 19 → Jul 25</text>
<text x="612.92" y="-112.00" font-family='-apple-system, BlinkMacSystemFont, "Segoe UI", Helvetica, Arial, sans-serif' font-size="26" font-weight="700" fill="#ffffff">23</text>
<text x="612.92" y="-90.00" font-family='-apple-system, BlinkMacSystemFont, "Segoe UI", Helvetica, Arial, sans-serif' font-size="12" font-weight="600" fill="#e6edf3">Best day</text>
<text x="612.92" y="-72.00" font-family='-apple-system, BlinkMacSystemFont, "Segoe UI", Helvetica, Arial, sans-serif' font-size="10.5" fill="#7d8590">Jan 21</text>
<text x="704.25" y="-34.00" text-anchor="end" font-family='-apple-system, BlinkMacSystemFont, "Segoe UI", Helvetica, Arial, sans-serif' font-size="12" fill="#7d8590">Average: <tspan font-weight="700" fill="#ffffff">2.7</tspan> / day</text>
<text x="-85.09" y="316.30" font-family='-apple-system, BlinkMacSystemFont, "Segoe UI", Helvetica, Arial, sans-serif' font-size="15" font-weight="700" fill="#e6edf3">Streaks</text>
<rect x="-85.09" y="328.30" width="320.00" height="92.00" rx="10" fill="#3B3B3B" stroke="#424141" stroke-width="0.8" fill-opacity="0.96"/>
<text x="-63.09" y="362.30" font-family='-apple-system, BlinkMacSystemFont, "Segoe UI", Helvetica, Arial, sans-serif' font-size="26" font-weight="700" fill="#ffffff">6<tspan font-size="12" font-weight="600" fill="#e6edf3"> days</tspan></text>
<text x="-63.09" y="384.30" font-family='-apple-system, BlinkMacSystemFont, "Segoe UI", Helvetica, Arial, sans-serif' font-size="12" font-weight="600" fill="#e6edf3">Longest</text>
<text x="-63.09" y="402.30" font-family='-apple-system, BlinkMacSystemFont, "Segoe UI", Helvetica, Arial, sans-serif' font-size="10.5" fill="#7d8590">Nov 4 → Nov 9</text>
<text x="96.91" y="362.30" font-family='-apple-system, BlinkMacSystemFont, "Segoe UI", Helvetica, Arial, sans-serif' font-size="26" font-weight="700" fill="#ffffff">0<tspan font-size="12" font-weight="600" fill="#e6edf3"> days</tspan></text>
<text x="96.91" y="384.30" font-family='-apple-system, BlinkMacSystemFont, "Segoe UI", Helvetica, Arial, sans-serif' font-size="12" font-weight="600" fill="#e6edf3">Current</text>
<text x="96.91" y="402.30" font-family='-apple-system, BlinkMacSystemFont, "Segoe UI", Helvetica, Arial, sans-serif' font-size="10.5" fill="#7d8590">No current streak</text>
<text x="716.25" y="432.30" text-anchor="end" font-family='-apple-system, BlinkMacSystemFont, "Segoe UI", Helvetica, Arial, sans-serif' font-size="9" fill="#7d8590" opacity="0.6">Greyscale Dark theme</text>
</svg>