<svg xmlns="http://www.w3.org/2000/svg" viewBox="-105.09 -199.00 829.34 639.30" width="829" height="639">
<rect x="-105.09" y="-199.00" width="829.34" height="639.30" fill="#ffffff"/>
<polygon points="0.00,0.00 11.28,4.10 0.00,8.21 -11.28,4.10" fill="#C2C3C6"/>
<polygon points="-13.16,4.79 -1.88,8.89 -13.16,13.00 -24.43,8.89" fill="#C2C3C6"/>
<polygon points="-26.31,-37.42 -15.04,-33.32 -26.31,-29.21 -37.59,-33.32" fill="#216e39"/>
<polygon points="-37.59,13.68 -37.59,-33.32 -26.31,-29.21 -26.31,17.79" fill="#1d6032"/>
<polygon points="-26.31,17.79 -26.31,-29.21 -15.04,-33.32 -15.04,13.68" fill="#18512a"/>
<polygon points="-39.47,-32.64 -28.19,-28.53 -39.47,-24.43 -50.74,-28.53" fill="#216e39"/>
<polygon points="-50.74,18.47 -50.74,-28.53 -39.47,-24.43 -39.47,22.57" fill="#1d6032"/>
<polygon points="-39.47,22.57 -39.47,-24.43 -28.19,-28.53 -28.19,18.47" fill="#18512a"/>
<polygon points="-52.62,-18.85 -41.35,-14.74 -52.62,-10.64 -63.90,-14.74" fill="#30a14e"/>
<polygon points="-63.90,23.26 -63.90,-14.74 -52.62,-10.64 -52.62,27.36" fill="#2a8d44"/>
<polygon points="-52.62,27.36 -52.62,-10.64 -41.35,-14.74 -41.35,23.26" fill="#237739"/>
<polygon points="-65.78,3.94 -54.50,8.05 -65.78,12.15 -77.05,8.05" fill="#9be9a8"/>
<polygon points="-77.05,28.05 -77.05,8.05 -65.78,12.15 -65.78,32.15" fill="#88cd93"/>
<polygon points="-65.78,32.15 -65.78,12.15 -54.50,8.05 -54.50,28.05" fill="#72ac7c"/>
<polygon points="-78.93,8.73 -67.66,12.83 -78.93,16.94 -90.21,12.83" fill="#9be9a8"/>
<polygon points="-90.21,32.83 -90.21,12.83 -78.93,16.94 -78.93,36.94" fill="#88cd93"/>
<polygon points="-78.93,36.94 -78.93,16.94 -67.66,12.83 -67.66,32.83" fill="#72ac7c"/>
<polygon points="13.16,4.79 24.43,8.89 13.16,13.00 1.88,8.89" fill="#C2C3C6"/>
<polygon points="0.00,-10.42 11.28,-6.32 0.00,-2.21 -11.28,-6.32" fill="#9be9a8"/>
<polygon points="-11.28,13.68 -11.28,-6.32 0.00,-2.21 0.00,17.79" fill="#88cd93"/>
<polygon points="0.00,17.79 0.00,-2.21 11.28,-6.32 11.28,13.68" fill="#72ac7c"/>
<polygon points="-13.16,-5.64 -1.88,-1.53 -13.16,2.57 -24.43,-1.53" fill="#9be9a8"/>
<polygon points="-24.43,18.47 -24.43,-1.53 -13.16,2.57 -13.16,22.57" fill="#88cd93"/>
<polygon points="-13.16,22.57 -13.16,2.57 -1.88,-1.53 -1.88,18.47" fill="#72ac7c"/>
<polygon points="-26.31,19.15 -15.04,23.26 -26.31,27.36 -37.59,23.26" fill="#C2C3C6"/>
<polygon points="-39.47,23.94 -28.19,28.05 -39.47,32.15 -50.74,28.05" fill="#C2C3C6"/>
<polygon points="-52.62,-4.27 -41.35,-0.17 -52.62,3.94 -63.90,-0.17" fill="#30a14e"/>
<polygon points="-63.90,32.83 -63.90,-0.17 -52.62,3.94 -52.62,36.94" fill="#2a8d44"/>
<polygon points="-52.62,36.94 -52.62,3.94 -41.35,-0.17 -41.35,32.83" fill="#237739"/>
<polygon points="-65.78,0.52 -54.50,4.62 -65.78,8.73 -77.05,4.62" fill="#30a14e"/>
<polygon points="-77.05,37.62 -77.05,4.62 -65.78,8.73 -65.78,41.73" fill="#2a8d44"/>
<polygon points="-65.78,41.73 -65.78,8.73 -54.50,4.62 -54.50,37.62" fill="#237739"/>
<polygon points="26.31,-39.42 37.59,-35.32 26.31,-31.21 15.04,-35.32" fill="#216e39"/>
<polygon points="15.04,13.68 15.04,-35.32 26.31,-31.21 26.31,17.79" fill="#1d6032"/>
<polygon points="26.31,17.79 26.31,-31.21 37.59,-35.32 37.59,13.68" fill="#18512a"/>
<polygon points="13.16,-5.64 24.43,-1.53 13.16,2.57 1.88,-1.53" fill="#9be9a8"/>
<polygon points="1.88,18.47 1.88,-1.53 13.16,2.57 13.16,22.57" fill="#88cd93"/>
<polygon points="13.16,22.57 13.16,2.57 24.43,-1.53 24.43,18.47" fill="#72ac7c"/>
<polygon points="0.00,19.15 11.28,23.26 0.00,27.36 -11.28,23.26" fill="#C2C3C6"/>
<polygon points="-13.16,23.94 -1.88,28.05 -13.16,32.15 -24.43,28.05" fill="#C2C3C6"/>
<polygon points="-26.31,-9.27 -15.04,-5.17 -26.31,-1.06 -37.59,-5.17" fill="#30a14e"/>
<polygon points="-37.59,32.83 -37.59,-5.17 -26.31,-1.06 -26.31,36.94" fill="#2a8d44"/>
<polygon points="-26.31,36.94 -26.31,-1.06 -15.04,-5.17 -15.04,32.83" fill="#237739"/>
<polygon points="-39.47,13.52 -28.19,17.62 -39.47,21.73 -50.74,17.62" fill="#9be9a8"/>
<polygon points="-50.74,37.62 -50.74,17.62 -39.47,21.73 -39.47,41.73" fill="#88cd93"/>
<polygon points="-39.47,41.73 -39.47,21.73 -28.19,17.62 -28.19,37.62" fill="#72ac7c"/>
<polygon points="-52.62,38.31 -41.35,42.41 -52.62,46.51 -63.90,42.41" fill="#C2C3C6"/>
<polygon points="39.47,14.36 50.74,18.47 39.47,22.57 28.19,18.47" fill="#C2C3C6"/>
<polygon points="26.31,-0.85 37.59,3.26 26.31,7.36 15.04,3.26" fill="#9be9a8"/>
<polygon points="15.04,23.26 15.04,3.26 26.31,7.36 26.31,27.36" fill="#88cd93"/>
<polygon points="26.31,27.36 26.31,7.36 37.59,3.26 37.59,23.26" fill="#72ac7c"/>
<polygon points="13.16,23.94 24.43,28.05 13.16,32.15 1.88,28.05" fill="#C2C3C6"/>
<polygon points="0.00,28.73 11.28,32.83 0.00,36.94 -11.28,32.83" fill="#C2C3C6"/>
<polygon points="-13.16,33.52 -1.88,37.62 -13.16,41.73 -24.43,37.62" fill="#C2C3C6"/>
<polygon points="-26.31,38.31 -15.04,42.41 -26.31,46.51 -37.59,42.41" fill="#C2C3C6"/>
<polygon points="-39.47,43.09 -28.19,47.20 -39.47,51.30 -50.74,47.20" fill="#C2C3C6"/>
<polygon points="52.62,-29.85 63.90,-25.74 52.62,-21.64 41.35,-25.74" fill="#216e39"/>
<polygon points="41.35,23.26 41.35,-25.74 52.62,-21.64 52.62,27.36" fill="#1d6032"/>
<polygon points="52.62,27.36 52.62,-21.64 63.90,-25.74 63.90,23.26" fill="#18512a"/>
<polygon points="39.47,3.94 50.74,8.05 39.47,12.15 28.19,8.05" fill="#9be9a8"/>
<polygon points="28.19,28.05 28.19,8.05 39.47,12.15 39.47,32.15" fill="#88cd93"/>
<polygon points="39.47,32.15 39.47,12.15 50.74,8.05 50.74,28.05" fill="#72ac7c"/>
<polygon points="26.31,0.73 37.59,4.83 26.31,8.94 15.04,4.83" fill="#40c463"/>
<polygon points="15.04,32.83 15.04,4.83 26.31,8.94 26.31,36.94" fill="#38ac57"/>
<polygon points="26.31,36.94 26.31,8.94 37.59,4.83 37.59,32.83" fill="#2f9149"/>
<polygon points="13.16,13.52 24.43,17.62 13.16,21.73 1.88,17.62" fill="#9be9a8"/>
<polygon points="1.88,37.62 1.88,17.62 13.16,21.73 13.16,41.73" fill="#88cd93"/>
<polygon points="13.16,41.73 13.16,21.73 24.43,17.62 24.43,37.62" fill="#72ac7c"/>
<polygon points="0.00,18.31 11.28,22.41 0.00,26.51 -11.28,22.41" fill="#9be9a8"/>
<polygon points="-11.28,42.41 -11.28,22.41 0.00,26.51 0.00,46.51" fill="#88cd93"/>
<polygon points="0.00,46.51 0.00,26.51 11.28,22.41 11.28,42.41" fill="#72ac7c"/>
<polygon points="-13.16,23.09 -1.88,27.20 -13.16,31.30 -24.43,27.20" fill="#9be9a8"/>
<polygon points="-24.43,47.20 -24.43,27.20 -13.16,31.30 -13.16,51.30" fill="#88cd93"/>
<polygon points="-13.16,51.30 -13.16,31.30 -1.88,27.20 -1.88,47.20" fill="#72ac7c"/>
<polygon points="-26.31,27.88 -15.04,31.99 -26.31,36.09 -37.59,31.99" fill="#9be9a8"/>
<polygon points="-37.59,51.99 -37.59,31.99 -26.31,36.09 -26.31,56.09" fill="#88cd93"/>
<polygon points="-26.31,56.09 -26.31,36.09 -15.04,31.99 -15.04,51.99" fill="#72ac7c"/>
<polygon points="65.78,-31.06 77.05,-26.95 65.78,-22.85 54.50,-26.95" fill="#216e39"/>
<polygon points="54.50,28.05 54.50,-26.95 65.78,-22.85 65.78,32.15" fill="#1d6032"/>
<polygon points="65.78,32.15 65.78,-22.85 77.05,-26.95 77.05,28.05" fill="#18512a"/>
<polygon points="52.62,-9.27 63.90,-5.17 52.62,-1.06 41.35,-5.17" fill="#30a14e"/>
<polygon points="41.35,32.83 41.35,-5.17 52.62,-1.06 52.62,36.94" fill="#2a8d44"/>
<polygon points="52.62,36.94 52.62,-1.06 63.90,-5.17 63.90,32.83" fill="#237739"/>
<polygon points="39.47,-10.48 50.74,-6.38 39.47,-2.27 28.19,-6.38" fill="#216e39"/>
<polygon points="28.19,37.62 28.19,-6.38 39.47,-2.27 39.47,41.73" fill="#1d6032"/>
<polygon points="39.47,41.73 39.47,-2.27 50.74,-6.38 50.74,37.62" fill="#18512a"/>
<polygon points="26.31,38.31 37.59,42.41 26.31,46.51 15.04,42.41" fill="#C2C3C6"/>
<polygon points="13.16,23.09 24.43,27.20 13.16,31.30 1.88,27.20" fill="#9be9a8"/>
<polygon points="1.88,47.20 1.88,27.20 13.16,31.30 13.16,51.30" fill="#88cd93"/>
<polygon points="13.16,51.30 13.16,31.30 24.43,27.20 24.43,47.20" fill="#72ac7c"/>
<polygon points="0.00,27.88 11.28,31.99 0.00,36.09 -11.28,31.99" fill="#9be9a8"/>
<polygon points="-11.28,51.99 -11.28,31.99 0.00,36.09 0.00,56.09" fill="#88cd93"/>
<polygon points="0.00,56.09 0.00,36.09 11.28,31.99 11.28,51.99" fill="#72ac7c"/>
<polygon points="-13.16,52.67 -1.88,56.78 -13.16,60.88 -24.43,56.78" fill="#C2C3C6"/>
<polygon points="78.93,-12.27 90.21,-8.17 78.93,-4.06 67.66,-8.17" fill="#30a14e"/>
<polygon points="67.66,32.83 67.66,-8.17 78.93,-4.06 78.93,36.94" fill="#2a8d44"/>
<polygon points="78.93,36.94 78.93,-4.06 90.21,-8.17 90.21,32.83" fill="#237739"/>
<polygon points="65.78,33.52 77.05,37.62 65.78,41.73 54.50,37.62" fill="#C2C3C6"/>
<polygon points="52.62,38.31 63.90,42.41 52.62,46.51 41.35,42.41" fill="#C2C3C6"/>
<polygon points="39.47,43.09 50.74,47.20 39.47,51.30 28.19,47.20" fill="#C2C3C6"/>
<polygon points="26.31,47.88 37.59,51.99 26.31,56.09 15.04,51.99" fill="#C2C3C6"/>
<polygon points="13.16,32.67 24.43,36.78 13.16,40.88 1.88,36.78" fill="#9be9a8"/>
<polygon points="1.88,56.78 1.88,36.78 13.16,40.88 13.16,60.88" fill="#88cd93"/>
<polygon points="13.16,60.88 13.16,40.88 24.43,36.78 24.43,56.78" fill="#72ac7c"/>
<polygon points="0.00,57.46 11.28,61.56 0.00,65.67 -11.28,61.56" fill="#C2C3C6"/>
<polygon points="92.09,33.52 103.37,37.62 92.09,41.73 80.81,37.62" fill="#C2C3C6"/>
<polygon points="78.93,38.31 90.21,42.41 78.93,46.51 67.66,42.41" fill="#C2C3C6"/>
<polygon points="65.78,43.09 77.05,47.20 65.78,51.30 54.50,47.20" fill="#C2C3C6"/>
<polygon points="52.62,27.88 63.90,31.99 52.62,36.09 41.35,31.99" fill="#9be9a8"/>
<polygon points="41.35,51.99 41.35,31.99 52.62,36.09 52.62,56.09" fill="#88cd93"/>
<polygon points="52.62,56.09 52.62,36.09 63.90,31.99 63.90,51.99" fill="#72ac7c"/>
<polygon points="39.47,19.67 50.74,23.78 39.47,27.88 28.19,23.78" fill="#30a14e"/>
<polygon points="28.19,56.78 28.19,23.78 39.47,27.88 39.47,60.88" fill="#2a8d44"/>
<polygon points="39.47,60.88 39.47,27.88 50.74,23.78 50.74,56.78" fill="#237739"/>
<polygon points="26.31,57.46 37.59,61.56 26.31,65.67 15.04,61.56" fill="#C2C3C6"/>
<polygon points="13.16,34.25 24.43,38.35 13.16,42.46 1.88,38.35" fill="#40c463"/>
<polygon points="1.88,66.35 1.88,38.35 13.16,42.46 13.16,70.46" fill="#38ac57"/>
<polygon points="13.16,70.46 13.16,42.46 24.43,38.35 24.43,66.35" fill="#2f9149"/>
<polygon points="105.25,38.31 116.52,42.41 105.25,46.51 93.97,42.41" fill="#C2C3C6"/>
<polygon points="92.09,43.09 103.37,47.20 92.09,51.30 80.81,47.20" fill="#C2C3C6"/>
<polygon points="78.93,47.88 90.21,51.99 78.93,56.09 67.66,51.99" fill="#C2C3C6"/>
<polygon points="65.78,52.67 77.05,56.78 65.78,60.88 54.50,56.78" fill="#C2C3C6"/>
<polygon points="52.62,29.46 63.90,33.56 52.62,37.67 41.35,33.56" fill="#40c463"/>
<polygon points="41.35,61.56 41.35,33.56 52.62,37.67 52.62,65.67" fill="#38ac57"/>
<polygon points="52.62,65.67 52.62,37.67 63.90,33.56 63.90,61.56" fill="#2f9149"/>
<polygon points="39.47,62.25 50.74,66.35 39.47,70.46 28.19,66.35" fill="#C2C3C6"/>
<polygon points="26.31,39.04 37.59,43.14 26.31,47.24 15.04,43.14" fill="#40c463"/>
<polygon points="15.04,71.14 15.04,43.14 26.31,47.24 26.31,75.24" fill="#38ac57"/>
<polygon points="26.31,75.24 26.31,47.24 37.59,43.14 37.59,71.14" fill="#2f9149"/>
<polygon points="118.40,23.09 129.68,27.20 118.40,31.30 107.12,27.20" fill="#9be9a8"/>
<polygon points="107.12,47.20 107.12,27.20 118.40,31.30 118.40,51.30" fill="#88cd93"/>
<polygon points="118.40,51.30 118.40,31.30 129.68,27.20 129.68,47.20" fill="#72ac7c"/>
<polygon points="105.25,47.88 116.52,51.99 105.25,56.09 93.97,51.99" fill="#C2C3C6"/>
<polygon points="92.09,52.67 103.37,56.78 92.09,60.88 80.81,56.78" fill="#C2C3C6"/>
<polygon points="78.93,57.46 90.21,61.56 78.93,65.67 67.66,61.56" fill="#C2C3C6"/>
<polygon points="65.78,62.25 77.05,66.35 65.78,70.46 54.50,66.35" fill="#C2C3C6"/>
<polygon points="52.62,20.04 63.90,24.14 52.62,28.24 41.35,24.14" fill="#216e39"/>
<polygon points="41.35,71.14 41.35,24.14 52.62,28.24 52.62,75.24" fill="#1d6032"/>
<polygon points="52.62,75.24 52.62,28.24 63.90,24.14 63.90,71.14" fill="#18512a"/>
<polygon points="39.47,71.82 50.74,75.93 39.47,80.03 28.19,75.93" fill="#C2C3C6"/>
<polygon points="131.56,47.88 142.83,51.99 131.56,56.09 120.28,51.99" fill="#C2C3C6"/>
<polygon points="118.40,52.67 129.68,56.78 118.40,60.88 107.12,56.78" fill="#C2C3C6"/>
<polygon points="105.25,57.46 116.52,61.56 105.25,65.67 93.97,61.56" fill="#C2C3C6"/>
<polygon points="92.09,62.25 103.37,66.35 92.09,70.46 80.81,66.35" fill="#C2C3C6"/>
<polygon points="78.93,67.04 90.21,71.14 78.93,75.24 67.66,71.14" fill="#C2C3C6"/>
<polygon points="65.78,71.82 77.05,75.93 65.78,80.03 54.50,75.93" fill="#C2C3C6"/>
<polygon points="52.62,56.61 63.90,60.72 52.62,64.82 41.35,60.72" fill="#9be9a8"/>
<polygon points="41.35,80.72 41.35,60.72 52.62,64.82 52.62,84.82" fill="#88cd93"/>
<polygon points="52.62,84.82 52.62,64.82 63.90,60.72 63.90,80.72" fill="#72ac7c"/>
<polygon points="144.71,24.67 155.99,28.78 144.71,32.88 133.44,28.78" fill="#40c463"/>
<polygon points="133.44,56.78 133.44,28.78 144.71,32.88 144.71,60.88" fill="#38ac57"/>
<polygon points="144.71,60.88 144.71,32.88 155.99,28.78 155.99,56.78" fill="#2f9149"/>
<polygon points="131.56,37.46 142.83,41.56 131.56,45.67 120.28,41.56" fill="#9be9a8"/>
<polygon points="120.28,61.56 120.28,41.56 131.56,45.67 131.56,65.67" fill="#88cd93"/>
<polygon points="131.56,65.67 131.56,45.67 142.83,41.56 142.83,61.56" fill="#72ac7c"/>
<polygon points="118.40,42.25 129.68,46.35 118.40,50.46 107.12,46.35" fill="#9be9a8"/>
<polygon points="107.12,66.35 107.12,46.35 118.40,50.46 118.40,70.46" fill="#88cd93"/>
<polygon points="118.40,70.46 118.40,50.46 129.68,46.35 129.68,66.35" fill="#72ac7c"/>
<polygon points="105.25,47.04 116.52,51.14 105.25,55.24 93.97,51.14" fill="#9be9a8"/>
<polygon points="93.97,71.14 93.97,51.14 105.25,55.24 105.25,75.24" fill="#88cd93"/>
<polygon points="105.25,75.24 105.25,55.24 116.52,51.14 116.52,71.14" fill="#72ac7c"/>
<polygon points="92.09,8.82 103.37,12.93 92.09,17.03 80.81,12.93" fill="#216e39"/>
<polygon points="80.81,75.93 80.81,12.93 92.09,17.03 92.09,80.03" fill="#1d6032"/>
<polygon points="92.09,80.03 92.09,17.03 103.37,12.93 103.37,75.93" fill="#18512a"/>
<polygon points="78.93,56.61 90.21,60.72 78.93,64.82 67.66,60.72" fill="#9be9a8"/>
<polygon points="67.66,80.72 67.66,60.72 78.93,64.82 78.93,84.82" fill="#88cd93"/>
<polygon points="78.93,84.82 78.93,64.82 90.21,60.72 90.21,80.72" fill="#72ac7c"/>
<polygon points="65.78,61.40 77.05,65.51 65.78,69.61 54.50,65.51" fill="#9be9a8"/>
<polygon points="54.50,85.51 54.50,65.51 65.78,69.61 65.78,89.61" fill="#88cd93"/>
<polygon points="65.78,89.61 65.78,69.61 77.05,65.51 77.05,85.51" fill="#72ac7c"/>
<polygon points="157.87,57.46 169.14,61.56 157.87,65.67 146.59,61.56" fill="#C2C3C6"/>
<polygon points="144.71,62.25 155.99,66.35 144.71,70.46 133.44,66.35" fill="#C2C3C6"/>
<polygon points="131.56,47.04 142.83,51.14 131.56,55.24 120.28,51.14" fill="#9be9a8"/>
<polygon points="120.28,71.14 120.28,51.14 131.56,55.24 131.56,75.24" fill="#88cd93"/>
<polygon points="131.56,75.24 131.56,55.24 142.83,51.14 142.83,71.14" fill="#72ac7c"/>
<polygon points="118.40,71.82 129.68,75.93 118.40,80.03 107.12,75.93" fill="#C2C3C6"/>
<polygon points="105.25,76.61 116.52,80.72 105.25,84.82 93.97,80.72" fill="#C2C3C6"/>
<polygon points="92.09,53.40 103.37,57.51 92.09,61.61 80.81,57.51" fill="#40c463"/>
<polygon points="80.81,85.51 80.81,57.51 92.09,61.61 92.09,89.61" fill="#38ac57"/>
<polygon points="92.09,89.61 92.09,61.61 103.37,57.51 103.37,85.51" fill="#2f9149"/>
<polygon points="78.93,53.19 90.21,57.29 78.93,61.40 67.66,57.29" fill="#30a14e"/>
<polygon points="67.66,90.29 67.66,57.29 78.93,61.40 78.93,94.40" fill="#2a8d44"/>
<polygon points="78.93,94.40 78.93,61.40 90.21,57.29 90.21,90.29" fill="#237739"/>
<polygon points="171.02,42.25 182.30,46.35 171.02,50.46 159.75,46.35" fill="#9be9a8"/>
<polygon points="159.75,66.35 159.75,46.35 171.02,50.46 171.02,70.46" fill="#88cd93"/>
<polygon points="171.02,70.46 171.02,50.46 182.30,46.35 182.30,66.35" fill="#72ac7c"/>
<polygon points="157.87,39.04 169.14,43.14 157.87,47.24 146.59,43.14" fill="#40c463"/>
<polygon points="146.59,71.14 146.59,43.14 157.87,47.24 157.87,75.24" fill="#38ac57"/>
<polygon points="157.87,75.24 157.87,47.24 169.14,43.14 169.14,71.14" fill="#2f9149"/>
<polygon points="144.71,30.82 155.99,34.93 144.71,39.03 133.44,34.93" fill="#30a14e"/>
<polygon points="133.44,75.93 133.44,34.93 144.71,39.03 144.71,80.03" fill="#2a8d44"/>
<polygon points="144.71,80.03 144.71,39.03 155.99,34.93 155.99,75.93" fill="#237739"/>
<polygon points="131.56,56.61 142.83,60.72 131.56,64.82 120.28,60.72" fill="#9be9a8"/>
<polygon points="120.28,80.72 120.28,60.72 131.56,64.82 131.56,84.82" fill="#88cd93"/>
<polygon points="131.56,84.82 131.56,64.82 142.83,60.72 142.83,80.72" fill="#72ac7c"/>
<polygon points="118.40,40.40 129.68,44.51 118.40,48.61 107.12,44.51" fill="#30a14e"/>
<polygon points="107.12,85.51 107.12,44.51 118.40,48.61 118.40,89.61" fill="#2a8d44"/>
<polygon points="118.40,89.61 118.40,48.61 129.68,44.51 129.68,85.51" fill="#237739"/>
<polygon points="105.25,86.19 116.52,90.29 105.25,94.40 93.97,90.29" fill="#C2C3C6"/>
<polygon points="92.09,52.98 103.37,57.08 92.09,61.19 80.81,57.08" fill="#30a14e"/>
<polygon points="80.81,95.08 80.81,57.08 92.09,61.19 92.09,99.19" fill="#2a8d44"/>
<polygon points="92.09,99.19 92.09,61.19 103.37,57.08 103.37,95.08" fill="#237739"/>
<polygon points="184.18,16.04 195.46,20.14 184.18,24.24 172.90,20.14" fill="#216e39"/>
<polygon points="172.90,71.14 172.90,20.14 184.18,24.24 184.18,75.24" fill="#1d6032"/>
<polygon points="184.18,75.24 184.18,24.24 195.46,20.14 195.46,71.14" fill="#18512a"/>
<polygon points="171.02,38.82 182.30,42.93 171.02,47.03 159.75,42.93" fill="#30a14e"/>
<polygon points="159.75,75.93 159.75,42.93 171.02,47.03 171.02,80.03" fill="#2a8d44"/>
<polygon points="171.02,80.03 171.02,47.03 182.30,42.93 182.30,75.93" fill="#237739"/>
<polygon points="157.87,21.61 169.14,25.72 157.87,29.82 146.59,25.72" fill="#216e39"/>
<polygon points="146.59,80.72 146.59,25.72 157.87,29.82 157.87,84.82" fill="#1d6032"/>
<polygon points="157.87,84.82 157.87,29.82 169.14,25.72 169.14,80.72" fill="#18512a"/>
<polygon points="144.71,48.40 155.99,52.51 144.71,56.61 133.44,52.51" fill="#30a14e"/>
<polygon points="133.44,85.51 133.44,52.51 144.71,56.61 144.71,89.61" fill="#2a8d44"/>
<polygon points="144.71,89.61 144.71,56.61 155.99,52.51 155.99,85.51" fill="#237739"/>
<polygon points="131.56,48.19 142.83,52.29 131.56,56.40 120.28,52.29" fill="#30a14e"/>
<polygon points="120.28,90.29 120.28,52.29 131.56,56.40 131.56,94.40" fill="#2a8d44"/>
<polygon points="131.56,94.40 131.56,56.40 142.83,52.29 142.83,90.29" fill="#237739"/>
<polygon points="118.40,46.98 129.68,51.08 118.40,55.19 107.12,51.08" fill="#216e39"/>
<polygon points="107.12,95.08 107.12,51.08 118.40,55.19 118.40,99.19" fill="#1d6032"/>
<polygon points="118.40,99.19 118.40,55.19 129.68,51.08 129.68,95.08" fill="#18512a"/>
<polygon points="105.25,48.77 116.52,52.87 105.25,56.97 93.97,52.87" fill="#216e39"/>
<polygon points="93.97,99.87 93.97,52.87 105.25,56.97 105.25,103.97" fill="#1d6032"/>
<polygon points="105.25,103.97 105.25,56.97 116.52,52.87 116.52,99.87" fill="#18512a"/>
<polygon points="197.34,43.82 208.61,47.93 197.34,52.03 186.06,47.93" fill="#40c463"/>
<polygon points="186.06,75.93 186.06,47.93 197.34,52.03 197.34,80.03" fill="#38ac57"/>
<polygon points="197.34,80.03 197.34,52.03 208.61,47.93 208.61,75.93" fill="#2f9149"/>
<polygon points="184.18,48.61 195.46,52.72 184.18,56.82 172.90,52.72" fill="#40c463"/>
<polygon points="172.90,80.72 172.90,52.72 184.18,56.82 184.18,84.82" fill="#38ac57"/>
<polygon points="184.18,84.82 184.18,56.82 195.46,52.72 195.46,80.72" fill="#2f9149"/>
<polygon points="171.02,48.40 182.30,52.51 171.02,56.61 159.75,52.51" fill="#30a14e"/>
<polygon points="159.75,85.51 159.75,52.51 171.02,56.61 171.02,89.61" fill="#2a8d44"/>
<polygon points="171.02,89.61 171.02,56.61 182.30,52.51 182.30,85.51" fill="#237739"/>
<polygon points="157.87,53.19 169.14,57.29 157.87,61.40 146.59,57.29" fill="#30a14e"/>
<polygon points="146.59,90.29 146.59,57.29 157.87,61.40 157.87,94.40" fill="#2a8d44"/>
<polygon points="157.87,94.40 157.87,61.40 169.14,57.29 169.14,90.29" fill="#237739"/>
<polygon points="144.71,70.98 155.99,75.08 144.71,79.19 133.44,75.08" fill="#9be9a8"/>
<polygon points="133.44,95.08 133.44,75.08 144.71,79.19 144.71,99.19" fill="#88cd93"/>
<polygon points="144.71,99.19 144.71,79.19 155.99,75.08 155.99,95.08" fill="#72ac7c"/>
<polygon points="131.56,57.77 142.83,61.87 131.56,65.97 120.28,61.87" fill="#30a14e"/>
<polygon points="120.28,99.87 120.28,61.87 131.56,65.97 131.56,103.97" fill="#2a8d44"/>
<polygon points="131.56,103.97 131.56,65.97 142.83,61.87 142.83,99.87" fill="#237739"/>
<polygon points="118.40,62.55 129.68,66.66 118.40,70.76 107.12,66.66" fill="#30a14e"/>
<polygon points="107.12,104.66 107.12,66.66 118.40,70.76 118.40,108.76" fill="#2a8d44"/>
<polygon points="118.40,108.76 118.40,70.76 129.68,66.66 129.68,104.66" fill="#237739"/>
<polygon points="210.49,35.61 221.77,39.72 210.49,43.82 199.21,39.72" fill="#30a14e"/>
<polygon points="199.21,80.72 199.21,39.72 210.49,43.82 210.49,84.82" fill="#2a8d44"/>
<polygon points="210.49,84.82 210.49,43.82 221.77,39.72 221.77,80.72" fill="#237739"/>
<polygon points="197.34,61.40 208.61,65.51 197.34,69.61 186.06,65.51" fill="#9be9a8"/>
<polygon points="186.06,85.51 186.06,65.51 197.34,69.61 197.34,89.61" fill="#88cd93"/>
<polygon points="197.34,89.61 197.34,69.61 208.61,65.51 208.61,85.51" fill="#72ac7c"/>
<polygon points="184.18,66.19 195.46,70.29 184.18,74.40 172.90,70.29" fill="#9be9a8"/>
<polygon points="172.90,90.29 172.90,70.29 184.18,74.40 184.18,94.40" fill="#88cd93"/>
<polygon points="184.18,94.40 184.18,74.40 195.46,70.29 195.46,90.29" fill="#72ac7c"/>
<polygon points="171.02,90.98 182.30,95.08 171.02,99.19 159.75,95.08" fill="#C2C3C6"/>
<polygon points="157.87,95.77 169.14,99.87 157.87,103.97 146.59,99.87" fill="#C2C3C6"/>
<polygon points="144.71,100.55 155.99,104.66 144.71,108.76 133.44,104.66" fill="#C2C3C6"/>
<polygon points="131.56,105.34 142.83,109.45 131.56,113.55 120.28,109.45" fill="#C2C3C6"/>
<polygon points="223.65,81.40 234.92,85.51 223.65,89.61 212.37,85.51" fill="#C2C3C6"/>
<polygon points="210.49,86.19 221.77,90.29 210.49,94.40 199.21,90.29" fill="#C2C3C6"/>
<polygon points="197.34,90.98 208.61,95.08 197.34,99.19 186.06,95.08" fill="#C2C3C6"/>
<polygon points="184.18,62.77 195.46,66.87 184.18,70.97 172.90,66.87" fill="#30a14e"/>
<polygon points="172.90,99.87 172.90,66.87 184.18,70.97 184.18,103.97" fill="#2a8d44"/>
<polygon points="184.18,103.97 184.18,70.97 195.46,66.87 195.46,99.87" fill="#237739"/>
<polygon points="171.02,80.55 182.30,84.66 171.02,88.76 159.75,84.66" fill="#9be9a8"/>
<polygon points="159.75,104.66 159.75,84.66 171.02,88.76 171.02,108.76" fill="#88cd93"/>
<polygon points="171.02,108.76 171.02,88.76 182.30,84.66 182.30,104.66" fill="#72ac7c"/>
<polygon points="157.87,48.34 169.14,52.45 157.87,56.55 146.59,52.45" fill="#216e39"/>
<polygon points="146.59,109.45 146.59,52.45 157.87,56.55 157.87,113.55" fill="#1d6032"/>
<polygon points="157.87,113.55 157.87,56.55 169.14,52.45 169.14,109.45" fill="#18512a"/>
<polygon points="144.71,90.13 155.99,94.23 144.71,98.34 133.44,94.23" fill="#9be9a8"/>
<polygon points="133.44,114.23 133.44,94.23 144.71,98.34 144.71,118.34" fill="#88cd93"/>
<polygon points="144.71,118.34 144.71,98.34 155.99,94.23 155.99,114.23" fill="#72ac7c"/>
<polygon points="236.80,58.19 248.08,62.29 236.80,66.40 225.53,62.29" fill="#40c463"/>
<polygon points="225.53,90.29 225.53,62.29 236.80,66.40 236.80,94.40" fill="#38ac57"/>
<polygon points="236.80,94.40 236.80,66.40 248.08,62.29 248.08,90.29" fill="#2f9149"/>
<polygon points="223.65,62.98 234.92,67.08 223.65,71.19 212.37,67.08" fill="#40c463"/>
<polygon points="212.37,95.08 212.37,67.08 223.65,71.19 223.65,99.19" fill="#38ac57"/>
<polygon points="223.65,99.19 223.65,71.19 234.92,67.08 234.92,95.08" fill="#2f9149"/>
<polygon points="210.49,75.77 221.77,79.87 210.49,83.97 199.21,79.87" fill="#9be9a8"/>
<polygon points="199.21,99.87 199.21,79.87 210.49,83.97 210.49,103.97" fill="#88cd93"/>
<polygon points="210.49,103.97 210.49,83.97 221.77,79.87 221.77,99.87" fill="#72ac7c"/>
<polygon points="197.34,56.55 208.61,60.66 197.34,64.76 186.06,60.66" fill="#216e39"/>
<polygon points="186.06,104.66 186.06,60.66 197.34,64.76 197.34,108.76" fill="#1d6032"/>
<polygon points="197.34,108.76 197.34,64.76 208.61,60.66 208.61,104.66" fill="#18512a"/>
<polygon points="184.18,105.34 195.46,109.45 184.18,113.55 172.90,109.45" fill="#C2C3C6"/>
<polygon points="171.02,59.13 182.30,63.23 171.02,67.34 159.75,63.23" fill="#216e39"/>
<polygon points="159.75,114.23 159.75,63.23 171.02,67.34 171.02,118.34" fill="#1d6032"/>
<polygon points="171.02,118.34 171.02,67.34 182.30,63.23 182.30,114.23" fill="#18512a"/>
<polygon points="157.87,94.92 169.14,99.02 157.87,103.13 146.59,99.02" fill="#9be9a8"/>
<polygon points="146.59,119.02 146.59,99.02 157.87,103.13 157.87,123.13" fill="#88cd93"/>
<polygon points="157.87,123.13 157.87,103.13 169.14,99.02 169.14,119.02" fill="#72ac7c"/>
<polygon points="249.96,43.98 261.23,48.08 249.96,52.19 238.68,48.08" fill="#216e39"/>
<polygon points="238.68,95.08 238.68,48.08 249.96,52.19 249.96,99.19" fill="#1d6032"/>
<polygon points="249.96,99.19 249.96,52.19 261.23,48.08 261.23,95.08" fill="#18512a"/>
<polygon points="236.80,62.77 248.08,66.87 236.80,70.97 225.53,66.87" fill="#30a14e"/>
<polygon points="225.53,99.87 225.53,66.87 236.80,70.97 236.80,103.97" fill="#2a8d44"/>
<polygon points="236.80,103.97 236.80,70.97 248.08,66.87 248.08,99.87" fill="#237739"/>
<polygon points="223.65,56.55 234.92,60.66 223.65,64.76 212.37,60.66" fill="#216e39"/>
<polygon points="212.37,104.66 212.37,60.66 223.65,64.76 223.65,108.76" fill="#1d6032"/>
<polygon points="223.65,108.76 223.65,64.76 234.92,60.66 234.92,104.66" fill="#18512a"/>
<polygon points="210.49,85.34 221.77,89.45 210.49,93.55 199.21,89.45" fill="#9be9a8"/>
<polygon points="199.21,109.45 199.21,89.45 210.49,93.55 210.49,113.55" fill="#88cd93"/>
<polygon points="210.49,113.55 210.49,93.55 221.77,89.45 221.77,109.45" fill="#72ac7c"/>
<polygon points="197.34,69.13 208.61,73.23 197.34,77.34 186.06,73.23" fill="#30a14e"/>
<polygon points="186.06,114.23 186.06,73.23 197.34,77.34 197.34,118.34" fill="#2a8d44"/>
<polygon points="197.34,118.34 197.34,77.34 208.61,73.23 208.61,114.23" fill="#237739"/>
<polygon points="184.18,114.92 195.46,119.02 184.18,123.13 172.90,119.02" fill="#C2C3C6"/>
<polygon points="171.02,91.71 182.30,95.81 171.02,99.92 159.75,95.81" fill="#40c463"/>
<polygon points="159.75,123.81 159.75,95.81 171.02,99.92 171.02,127.92" fill="#38ac57"/>
<polygon points="171.02,127.92 171.02,99.92 182.30,95.81 182.30,123.81" fill="#2f9149"/>
<polygon points="263.11,46.77 274.39,50.87 263.11,54.97 251.84,50.87" fill="#216e39"/>
<polygon points="251.84,99.87 251.84,50.87 263.11,54.97 263.11,103.97" fill="#1d6032"/>
<polygon points="263.11,103.97 263.11,54.97 274.39,50.87 274.39,99.87" fill="#18512a"/>
<polygon points="249.96,100.55 261.23,104.66 249.96,108.76 238.68,104.66" fill="#C2C3C6"/>
<polygon points="236.80,105.34 248.08,109.45 236.80,113.55 225.53,109.45" fill="#C2C3C6"/>
<polygon points="223.65,110.13 234.92,114.23 223.65,118.34 212.37,114.23" fill="#C2C3C6"/>
<polygon points="210.49,81.92 221.77,86.02 210.49,90.13 199.21,86.02" fill="#30a14e"/>
<polygon points="199.21,119.02 199.21,86.02 210.49,90.13 210.49,123.13" fill="#2a8d44"/>
<polygon points="210.49,123.13 210.49,90.13 221.77,86.02 221.77,119.02" fill="#237739"/>
<polygon points="197.34,78.71 208.61,82.81 197.34,86.92 186.06,82.81" fill="#30a14e"/>
<polygon points="186.06,123.81 186.06,82.81 197.34,86.92 197.34,127.92" fill="#2a8d44"/>
<polygon points="197.34,127.92 197.34,86.92 208.61,82.81 208.61,123.81" fill="#237739"/>
<polygon points="184.18,80.50 195.46,84.60 184.18,88.70 172.90,84.60" fill="#216e39"/>
<polygon points="172.90,128.60 172.90,84.60 184.18,88.70 184.18,132.70" fill="#1d6032"/>
<polygon points="184.18,132.70 184.18,88.70 195.46,84.60 195.46,128.60" fill="#18512a"/>
<polygon points="276.27,72.55 287.55,76.66 276.27,80.76 264.99,76.66" fill="#40c463"/>
<polygon points="264.99,104.66 264.99,76.66 276.27,80.76 276.27,108.76" fill="#38ac57"/>
<polygon points="276.27,108.76 276.27,80.76 287.55,76.66 287.55,104.66" fill="#2f9149"/>
<polygon points="263.11,77.34 274.39,81.45 263.11,85.55 251.84,81.45" fill="#40c463"/>
<polygon points="251.84,109.45 251.84,81.45 263.11,85.55 263.11,113.55" fill="#38ac57"/>
<polygon points="263.11,113.55 263.11,85.55 274.39,81.45 274.39,109.45" fill="#2f9149"/>
<polygon points="249.96,82.13 261.23,86.23 249.96,90.34 238.68,86.23" fill="#40c463"/>
<polygon points="238.68,114.23 238.68,86.23 249.96,90.34 249.96,118.34" fill="#38ac57"/>
<polygon points="249.96,118.34 249.96,90.34 261.23,86.23 261.23,114.23" fill="#2f9149"/>
<polygon points="236.80,114.92 248.08,119.02 236.80,123.13 225.53,119.02" fill="#C2C3C6"/>
<polygon points="223.65,119.71 234.92,123.81 223.65,127.92 212.37,123.81" fill="#C2C3C6"/>
<polygon points="210.49,124.50 221.77,128.60 210.49,132.70 199.21,128.60" fill="#C2C3C6"/>
<polygon points="197.34,129.28 208.61,133.39 197.34,137.49 186.06,133.39" fill="#C2C3C6"/>
<polygon points="289.43,67.34 300.70,71.45 289.43,75.55 278.15,71.45" fill="#30a14e"/>
<polygon points="278.15,109.45 278.15,71.45 289.43,75.55 289.43,113.55" fill="#2a8d44"/>
<polygon points="289.43,113.55 289.43,75.55 300.70,71.45 300.70,109.45" fill="#237739"/>
<polygon points="276.27,82.13 287.55,86.23 276.27,90.34 264.99,86.23" fill="#40c463"/>
<polygon points="264.99,114.23 264.99,86.23 276.27,90.34 276.27,118.34" fill="#38ac57"/>
<polygon points="276.27,118.34 276.27,90.34 287.55,86.23 287.55,114.23" fill="#2f9149"/>
<polygon points="263.11,114.92 274.39,119.02 263.11,123.13 251.84,119.02" fill="#C2C3C6"/>
<polygon points="249.96,119.71 261.23,123.81 249.96,127.92 238.68,123.81" fill="#C2C3C6"/>
<polygon points="236.80,124.50 248.08,128.60 236.80,132.70 225.53,128.60" fill="#C2C3C6"/>
<polygon points="223.65,88.28 234.92,92.39 223.65,96.49 212.37,92.39" fill="#30a14e"/>
<polygon points="212.37,133.39 212.37,92.39 223.65,96.49 223.65,137.49" fill="#2a8d44"/>
<polygon points="223.65,137.49 223.65,96.49 234.92,92.39 234.92,133.39" fill="#237739"/>
<polygon points="210.49,106.07 221.77,110.18 210.49,114.28 199.21,110.18" fill="#40c463"/>
<polygon points="199.21,138.18 199.21,110.18 210.49,114.28 210.49,142.28" fill="#38ac57"/>
<polygon points="210.49,142.28 210.49,114.28 221.77,110.18 221.77,138.18" fill="#2f9149"/>
<polygon points="302.58,55.13 313.86,59.23 302.58,63.34 291.30,59.23" fill="#216e39"/>
<polygon points="291.30,114.23 291.30,59.23 302.58,63.34 302.58,118.34" fill="#1d6032"/>
<polygon points="302.58,118.34 302.58,63.34 313.86,59.23 313.86,114.23" fill="#18512a"/>
<polygon points="289.43,76.92 300.70,81.02 289.43,85.13 278.15,81.02" fill="#30a14e"/>
<polygon points="278.15,119.02 278.15,81.02 289.43,85.13 289.43,123.13" fill="#2a8d44"/>
<polygon points="289.43,123.13 289.43,85.13 300.70,81.02 300.70,119.02" fill="#237739"/>
<polygon points="276.27,86.71 287.55,90.81 276.27,94.92 264.99,90.81" fill="#30a14e"/>
<polygon points="264.99,123.81 264.99,90.81 276.27,94.92 276.27,127.92" fill="#2a8d44"/>
<polygon points="276.27,127.92 276.27,94.92 287.55,90.81 287.55,123.81" fill="#237739"/>
<polygon points="263.11,124.50 274.39,128.60 263.11,132.70 251.84,128.60" fill="#C2C3C6"/>
<polygon points="249.96,85.28 261.23,89.39 249.96,93.49 238.68,89.39" fill="#216e39"/>
<polygon points="238.68,133.39 238.68,89.39 249.96,93.49 249.96,137.49" fill="#1d6032"/>
<polygon points="249.96,137.49 249.96,93.49 261.23,89.39 261.23,133.39" fill="#18512a"/>
<polygon points="236.80,114.07 248.08,118.18 236.80,122.28 225.53,118.18" fill="#9be9a8"/>
<polygon points="225.53,138.18 225.53,118.18 236.80,122.28 236.80,142.28" fill="#88cd93"/>
<polygon points="236.80,142.28 236.80,122.28 248.08,118.18 248.08,138.18" fill="#72ac7c"/>
<polygon points="223.65,118.86 234.92,122.96 223.65,127.07 212.37,122.96" fill="#9be9a8"/>
<polygon points="212.37,142.96 212.37,122.96 223.65,127.07 223.65,147.07" fill="#88cd93"/>
<polygon points="223.65,147.07 223.65,127.07 234.92,122.96 234.92,142.96" fill="#72ac7c"/>
<polygon points="315.74,53.92 327.01,58.02 315.74,62.13 304.46,58.02" fill="#216e39"/>
<polygon points="304.46,119.02 304.46,58.02 315.74,62.13 315.74,123.13" fill="#1d6032"/>
<polygon points="315.74,123.13 315.74,62.13 327.01,58.02 327.01,119.02" fill="#18512a"/>
<polygon points="302.58,99.71 313.86,103.81 302.58,107.92 291.30,103.81" fill="#9be9a8"/>
<polygon points="291.30,123.81 291.30,103.81 302.58,107.92 302.58,127.92" fill="#88cd93"/>
<polygon points="302.58,127.92 302.58,107.92 313.86,103.81 313.86,123.81" fill="#72ac7c"/>
<polygon points="289.43,124.50 300.70,128.60 289.43,132.70 278.15,128.60" fill="#C2C3C6"/>
<polygon points="276.27,91.28 287.55,95.39 276.27,99.49 264.99,95.39" fill="#30a14e"/>
<polygon points="264.99,133.39 264.99,95.39 276.27,99.49 276.27,137.49" fill="#2a8d44"/>
<polygon points="276.27,137.49 276.27,99.49 287.55,95.39 287.55,133.39" fill="#237739"/>
<polygon points="263.11,114.07 274.39,118.18 263.11,122.28 251.84,118.18" fill="#9be9a8"/>
<polygon points="251.84,138.18 251.84,118.18 263.11,122.28 263.11,142.28" fill="#88cd93"/>
<polygon points="263.11,142.28 263.11,122.28 274.39,118.18 274.39,138.18" fill="#72ac7c"/>
<polygon points="249.96,97.86 261.23,101.96 249.96,106.07 238.68,101.96" fill="#30a14e"/>
<polygon points="238.68,142.96 238.68,101.96 249.96,106.07 249.96,147.07" fill="#2a8d44"/>
<polygon points="249.96,147.07 249.96,106.07 261.23,101.96 261.23,142.96" fill="#237739"/>
<polygon points="236.80,110.65 248.08,114.75 236.80,118.86 225.53,114.75" fill="#30a14e"/>
<polygon points="225.53,147.75 225.53,114.75 236.80,118.86 236.80,151.86" fill="#2a8d44"/>
<polygon points="236.80,151.86 236.80,118.86 248.08,114.75 248.08,147.75" fill="#237739"/>
<polygon points="328.89,60.71 340.17,64.81 328.89,68.92 317.62,64.81" fill="#216e39"/>
<polygon points="317.62,123.81 317.62,64.81 328.89,68.92 328.89,127.92" fill="#1d6032"/>
<polygon points="328.89,127.92 328.89,68.92 340.17,64.81 340.17,123.81" fill="#18512a"/>
<polygon points="315.74,96.50 327.01,100.60 315.74,104.70 304.46,100.60" fill="#40c463"/>
<polygon points="304.46,128.60 304.46,100.60 315.74,104.70 315.74,132.70" fill="#38ac57"/>
<polygon points="315.74,132.70 315.74,104.70 327.01,100.60 327.01,128.60" fill="#2f9149"/>
<polygon points="302.58,109.28 313.86,113.39 302.58,117.49 291.30,113.39" fill="#9be9a8"/>
<polygon points="291.30,133.39 291.30,113.39 302.58,117.49 302.58,137.49" fill="#88cd93"/>
<polygon points="302.58,137.49 302.58,117.49 313.86,113.39 313.86,133.39" fill="#72ac7c"/>
<polygon points="289.43,101.07 300.70,105.18 289.43,109.28 278.15,105.18" fill="#30a14e"/>
<polygon points="278.15,138.18 278.15,105.18 289.43,109.28 289.43,142.28" fill="#2a8d44"/>
<polygon points="289.43,142.28 289.43,109.28 300.70,105.18 300.70,138.18" fill="#237739"/>
<polygon points="276.27,97.86 287.55,101.96 276.27,106.07 264.99,101.96" fill="#30a14e"/>
<polygon points="264.99,142.96 264.99,101.96 276.27,106.07 276.27,147.07" fill="#2a8d44"/>
<polygon points="276.27,147.07 276.27,106.07 287.55,101.96 287.55,142.96" fill="#237739"/>
<polygon points="263.11,96.65 274.39,100.75 263.11,104.86 251.84,100.75" fill="#216e39"/>
<polygon points="251.84,147.75 251.84,100.75 263.11,104.86 263.11,151.86" fill="#1d6032"/>
<polygon points="263.11,151.86 263.11,104.86 274.39,100.75 274.39,147.75" fill="#18512a"/>
<polygon points="249.96,115.44 261.23,119.54 249.96,123.65 238.68,119.54" fill="#30a14e"/>
<polygon points="238.68,152.54 238.68,119.54 249.96,123.65 249.96,156.65" fill="#2a8d44"/>
<polygon points="249.96,156.65 249.96,123.65 261.23,119.54 261.23,152.54" fill="#237739"/>
<polygon points="342.05,80.50 353.32,84.60 342.05,88.70 330.77,84.60" fill="#216e39"/>
<polygon points="330.77,128.60 330.77,84.60 342.05,88.70 342.05,132.70" fill="#1d6032"/>
<polygon points="342.05,132.70 342.05,88.70 353.32,84.60 353.32,128.60" fill="#18512a"/>
<polygon points="328.89,109.28 340.17,113.39 328.89,117.49 317.62,113.39" fill="#9be9a8"/>
<polygon points="317.62,133.39 317.62,113.39 328.89,117.49 328.89,137.49" fill="#88cd93"/>
<polygon points="328.89,137.49 328.89,117.49 340.17,113.39 340.17,133.39" fill="#72ac7c"/>
<polygon points="315.74,87.07 327.01,91.18 315.74,95.28 304.46,91.18" fill="#216e39"/>
<polygon points="304.46,138.18 304.46,91.18 315.74,95.28 315.74,142.28" fill="#1d6032"/>
<polygon points="315.74,142.28 315.74,95.28 327.01,91.18 327.01,138.18" fill="#18512a"/>
<polygon points="302.58,85.86 313.86,89.96 302.58,94.07 291.30,89.96" fill="#216e39"/>
<polygon points="291.30,142.96 291.30,89.96 302.58,94.07 302.58,147.07" fill="#1d6032"/>
<polygon points="302.58,147.07 302.58,94.07 313.86,89.96 313.86,142.96" fill="#18512a"/>
<polygon points="289.43,94.65 300.70,98.75 289.43,102.86 278.15,98.75" fill="#216e39"/>
<polygon points="278.15,147.75 278.15,98.75 289.43,102.86 289.43,151.86" fill="#1d6032"/>
<polygon points="289.43,151.86 289.43,102.86 300.70,98.75 300.70,147.75" fill="#18512a"/>
<polygon points="276.27,104.44 287.55,108.54 276.27,112.65 264.99,108.54" fill="#216e39"/>
<polygon points="264.99,152.54 264.99,108.54 276.27,112.65 276.27,156.65" fill="#1d6032"/>
<polygon points="276.27,156.65 276.27,112.65 287.55,108.54 287.55,152.54" fill="#18512a"/>
<polygon points="263.11,102.23 274.39,106.33 263.11,110.43 251.84,106.33" fill="#216e39"/>
<polygon points="251.84,157.33 251.84,106.33 263.11,110.43 263.11,161.43" fill="#1d6032"/>
<polygon points="263.11,161.43 263.11,110.43 274.39,106.33 274.39,157.33" fill="#18512a"/>
<polygon points="355.20,65.28 366.48,69.39 355.20,73.49 343.93,69.39" fill="#216e39"/>
<polygon points="343.93,133.39 343.93,69.39 355.20,73.49 355.20,137.49" fill="#1d6032"/>
<polygon points="355.20,137.49 355.20,73.49 366.48,69.39 366.48,133.39" fill="#18512a"/>
<polygon points="342.05,106.07 353.32,110.18 342.05,114.28 330.77,110.18" fill="#40c463"/>
<polygon points="330.77,138.18 330.77,110.18 342.05,114.28 342.05,142.28" fill="#38ac57"/>
<polygon points="342.05,142.28 342.05,114.28 353.32,110.18 353.32,138.18" fill="#2f9149"/>
<polygon points="328.89,105.86 340.17,109.96 328.89,114.07 317.62,109.96" fill="#30a14e"/>
<polygon points="317.62,142.96 317.62,109.96 328.89,114.07 328.89,147.07" fill="#2a8d44"/>
<polygon points="328.89,147.07 328.89,114.07 340.17,109.96 340.17,142.96" fill="#237739"/>
<polygon points="315.74,123.65 327.01,127.75 315.74,131.86 304.46,127.75" fill="#9be9a8"/>
<polygon points="304.46,147.75 304.46,127.75 315.74,131.86 315.74,151.86" fill="#88cd93"/>
<polygon points="315.74,151.86 315.74,131.86 327.01,127.75 327.01,147.75" fill="#72ac7c"/>
<polygon points="302.58,120.44 313.86,124.54 302.58,128.65 291.30,124.54" fill="#40c463"/>
<polygon points="291.30,152.54 291.30,124.54 302.58,128.65 302.58,156.65" fill="#38ac57"/>
<polygon points="302.58,156.65 302.58,128.65 313.86,124.54 313.86,152.54" fill="#2f9149"/>
<polygon points="289.43,104.23 300.70,108.33 289.43,112.43 278.15,108.33" fill="#216e39"/>
<polygon points="278.15,157.33 278.15,108.33 289.43,112.43 289.43,161.43" fill="#1d6032"/>
<polygon points="289.43,161.43 289.43,112.43 300.70,108.33 300.70,157.33" fill="#18512a"/>
<polygon points="276.27,105.01 287.55,109.12 276.27,113.22 264.99,109.12" fill="#216e39"/>
<polygon points="264.99,162.12 264.99,109.12 276.27,113.22 276.27,166.22" fill="#1d6032"/>
<polygon points="276.27,166.22 276.27,113.22 287.55,109.12 287.55,162.12" fill="#18512a"/>
<polygon points="368.36,83.07 379.64,87.18 368.36,91.28 357.08,87.18" fill="#216e39"/>
<polygon points="357.08,138.18 357.08,87.18 368.36,91.28 368.36,142.28" fill="#1d6032"/>
<polygon points="368.36,142.28 368.36,91.28 379.64,87.18 379.64,138.18" fill="#18512a"/>
<polygon points="355.20,110.86 366.48,114.96 355.20,119.07 343.93,114.96" fill="#40c463"/>
<polygon points="343.93,142.96 343.93,114.96 355.20,119.07 355.20,147.07" fill="#38ac57"/>
<polygon points="355.20,147.07 355.20,119.07 366.48,114.96 366.48,142.96" fill="#2f9149"/>
<polygon points="342.05,115.65 353.32,119.75 342.05,123.86 330.77,119.75" fill="#40c463"/>
<polygon points="330.77,147.75 330.77,119.75 342.05,123.86 342.05,151.86" fill="#38ac57"/>
<polygon points="342.05,151.86 342.05,123.86 353.32,119.75 353.32,147.75" fill="#2f9149"/>
<polygon points="328.89,148.44 340.17,152.54 328.89,156.65 317.62,152.54" fill="#C2C3C6"/>
<polygon points="315.74,120.23 327.01,124.33 315.74,128.43 304.46,124.33" fill="#30a14e"/>
<polygon points="304.46,157.33 304.46,124.33 315.74,128.43 315.74,161.43" fill="#2a8d44"/>
<polygon points="315.74,161.43 315.74,128.43 327.01,124.33 327.01,157.33" fill="#237739"/>
<polygon points="302.58,158.01 313.86,162.12 302.58,166.22 291.30,162.12" fill="#C2C3C6"/>
<polygon points="289.43,134.80 300.70,138.91 289.43,143.01 278.15,138.91" fill="#40c463"/>
<polygon points="278.15,166.91 278.15,138.91 289.43,143.01 289.43,171.01" fill="#38ac57"/>
<polygon points="289.43,171.01 289.43,143.01 300.70,138.91 300.70,166.91" fill="#2f9149"/>
<polygon points="381.52,118.86 392.79,122.96 381.52,127.07 370.24,122.96" fill="#9be9a8"/>
<polygon points="370.24,142.96 370.24,122.96 381.52,127.07 381.52,147.07" fill="#88cd93"/>
<polygon points="381.52,147.07 381.52,127.07 392.79,122.96 392.79,142.96" fill="#72ac7c"/>
<polygon points="368.36,115.65 379.64,119.75 368.36,123.86 357.08,119.75" fill="#40c463"/>
<polygon points="357.08,147.75 357.08,119.75 368.36,123.86 368.36,151.86" fill="#38ac57"/>
<polygon points="368.36,151.86 368.36,123.86 379.64,119.75 379.64,147.75" fill="#2f9149"/>
<polygon points="355.20,115.44 366.48,119.54 355.20,123.65 343.93,119.54" fill="#30a14e"/>
<polygon points="343.93,152.54 343.93,119.54 355.20,123.65 355.20,156.65" fill="#2a8d44"/>
<polygon points="355.20,156.65 355.20,123.65 366.48,119.54 366.48,152.54" fill="#237739"/>
<polygon points="342.05,133.23 353.32,137.33 342.05,141.43 330.77,137.33" fill="#9be9a8"/>
<polygon points="330.77,157.33 330.77,137.33 342.05,141.43 342.05,161.43" fill="#88cd93"/>
<polygon points="342.05,161.43 342.05,141.43 353.32,137.33 353.32,157.33" fill="#72ac7c"/>
<polygon points="328.89,125.01 340.17,129.12 328.89,133.22 317.62,129.12" fill="#30a14e"/>
<polygon points="317.62,162.12 317.62,129.12 328.89,133.22 328.89,166.22" fill="#2a8d44"/>
<polygon points="328.89,166.22 328.89,133.22 340.17,129.12 340.17,162.12" fill="#237739"/>
<polygon points="315.74,115.80 327.01,119.91 315.74,124.01 304.46,119.91" fill="#216e39"/>
<polygon points="304.46,166.91 304.46,119.91 315.74,124.01 315.74,171.01" fill="#1d6032"/>
<polygon points="315.74,171.01 315.74,124.01 327.01,119.91 327.01,166.91" fill="#18512a"/>
<polygon points="302.58,147.59 313.86,151.69 302.58,155.80 291.30,151.69" fill="#9be9a8"/>
<polygon points="291.30,171.69 291.30,151.69 302.58,155.80 302.58,175.80" fill="#88cd93"/>
<polygon points="302.58,175.80 302.58,155.80 313.86,151.69 313.86,171.69" fill="#72ac7c"/>
<polygon points="394.67,84.65 405.95,88.75 394.67,92.86 383.39,88.75" fill="#216e39"/>
<polygon points="383.39,147.75 383.39,88.75 394.67,92.86 394.67,151.86" fill="#1d6032"/>
<polygon points="394.67,151.86 394.67,92.86 405.95,88.75 405.95,147.75" fill="#18512a"/>
<polygon points="381.52,128.44 392.79,132.54 381.52,136.65 370.24,132.54" fill="#9be9a8"/>
<polygon points="370.24,152.54 370.24,132.54 381.52,136.65 381.52,156.65" fill="#88cd93"/>
<polygon points="381.52,156.65 381.52,136.65 392.79,132.54 392.79,152.54" fill="#72ac7c"/>
<polygon points="368.36,133.23 379.64,137.33 368.36,141.43 357.08,137.33" fill="#9be9a8"/>
<polygon points="357.08,157.33 357.08,137.33 368.36,141.43 368.36,161.43" fill="#88cd93"/>
<polygon points="368.36,161.43 368.36,141.43 379.64,137.33 379.64,157.33" fill="#72ac7c"/>
<polygon points="355.20,138.01 366.48,142.12 355.20,146.22 343.93,142.12" fill="#9be9a8"/>
<polygon points="343.93,162.12 343.93,142.12 355.20,146.22 355.20,166.22" fill="#88cd93"/>
<polygon points="355.20,166.22 355.20,146.22 366.48,142.12 366.48,162.12" fill="#72ac7c"/>
<polygon points="342.05,162.80 353.32,166.91 342.05,171.01 330.77,166.91" fill="#C2C3C6"/>
<polygon points="328.89,147.59 340.17,151.69 328.89,155.80 317.62,151.69" fill="#9be9a8"/>
<polygon points="317.62,171.69 317.62,151.69 328.89,155.80 328.89,175.80" fill="#88cd93"/>
<polygon points="328.89,175.80 328.89,155.80 340.17,151.69 340.17,171.69" fill="#72ac7c"/>
<polygon points="315.74,172.38 327.01,176.48 315.74,180.59 304.46,176.48" fill="#C2C3C6"/>
<polygon points="407.83,128.44 419.10,132.54 407.83,136.65 396.55,132.54" fill="#9be9a8"/>
<polygon points="396.55,152.54 396.55,132.54 407.83,136.65 407.83,156.65" fill="#88cd93"/>
<polygon points="407.83,156.65 407.83,136.65 419.10,132.54 419.10,152.54" fill="#72ac7c"/>
<polygon points="394.67,133.23 405.95,137.33 394.67,141.43 383.39,137.33" fill="#9be9a8"/>
<polygon points="383.39,157.33 383.39,137.33 394.67,141.43 394.67,161.43" fill="#88cd93"/>
<polygon points="394.67,161.43 394.67,141.43 405.95,137.33 405.95,157.33" fill="#72ac7c"/>
<polygon points="381.52,158.01 392.79,162.12 381.52,166.22 370.24,162.12" fill="#C2C3C6"/>
<polygon points="368.36,142.80 379.64,146.91 368.36,151.01 357.08,146.91" fill="#9be9a8"/>
<polygon points="357.08,166.91 357.08,146.91 368.36,151.01 368.36,171.01" fill="#88cd93"/>
<polygon points="368.36,171.01 368.36,151.01 379.64,146.91 379.64,166.91" fill="#72ac7c"/>
<polygon points="355.20,147.59 366.48,151.69 355.20,155.80 343.93,151.69" fill="#9be9a8"/>
<polygon points="343.93,171.69 343.93,151.69 355.20,155.80 355.20,175.80" fill="#88cd93"/>
<polygon points="355.20,175.80 355.20,155.80 366.48,151.69 366.48,171.69" fill="#72ac7c"/>
<polygon points="342.05,172.38 353.32,176.48 342.05,180.59 330.77,176.48" fill="#C2C3C6"/>
<polygon points="328.89,177.17 340.17,181.27 328.89,185.37 317.62,181.27" fill="#C2C3C6"/>
<polygon points="420.98,102.23 432.26,106.33 420.98,110.43 409.71,106.33" fill="#216e39"/>
<polygon points="409.71,157.33 409.71,106.33 420.98,110.43 420.98,161.43" fill="#1d6032"/>
<polygon points="420.98,161.43 420.98,110.43 432.26,106.33 432.26,157.33" fill="#18512a"/>
<polygon points="407.83,111.01 419.10,115.12 407.83,119.22 396.55,115.12" fill="#216e39"/>
<polygon points="396.55,162.12 396.55,115.12 407.83,119.22 407.83,166.22" fill="#1d6032"/>
<polygon points="407.83,166.22 407.83,119.22 419.10,115.12 419.10,162.12" fill="#18512a"/>
<polygon points="394.67,129.80 405.95,133.91 394.67,138.01 383.39,133.91" fill="#30a14e"/>
<polygon points="383.39,166.91 383.39,133.91 394.67,138.01 394.67,171.01" fill="#2a8d44"/>
<polygon points="394.67,171.01 394.67,138.01 405.95,133.91 405.95,166.91" fill="#237739"/>
<polygon points="381.52,147.59 392.79,151.69 381.52,155.80 370.24,151.69" fill="#9be9a8"/>
<polygon points="370.24,171.69 370.24,151.69 381.52,155.80 381.52,175.80" fill="#88cd93"/>
<polygon points="381.52,175.80 381.52,155.80 392.79,151.69 392.79,171.69" fill="#72ac7c"/>
<polygon points="368.36,152.38 379.64,156.48 368.36,160.59 357.08,156.48" fill="#9be9a8"/>
<polygon points="357.08,176.48 357.08,156.48 368.36,160.59 368.36,180.59" fill="#88cd93"/>
<polygon points="368.36,180.59 368.36,160.59 379.64,156.48 379.64,176.48" fill="#72ac7c"/>
<polygon points="355.20,177.17 366.48,181.27 355.20,185.37 343.93,181.27" fill="#C2C3C6"/>
<polygon points="342.05,143.95 353.32,148.06 342.05,152.16 330.77,148.06" fill="#30a14e"/>
<polygon points="330.77,186.06 330.77,148.06 342.05,152.16 342.05,190.16" fill="#2a8d44"/>
<polygon points="342.05,190.16 342.05,152.16 353.32,148.06 353.32,186.06" fill="#237739"/>
<polygon points="434.14,120.01 445.41,124.12 434.14,128.22 422.86,124.12" fill="#30a14e"/>
<polygon points="422.86,162.12 422.86,124.12 434.14,128.22 434.14,166.22" fill="#2a8d44"/>
<polygon points="434.14,166.22 434.14,128.22 445.41,124.12 445.41,162.12" fill="#237739"/>
<polygon points="420.98,134.80 432.26,138.91 420.98,143.01 409.71,138.91" fill="#40c463"/>
<polygon points="409.71,166.91 409.71,138.91 420.98,143.01 420.98,171.01" fill="#38ac57"/>
<polygon points="420.98,171.01 420.98,143.01 432.26,138.91 432.26,166.91" fill="#2f9149"/>
<polygon points="407.83,147.59 419.10,151.69 407.83,155.80 396.55,151.69" fill="#9be9a8"/>
<polygon points="396.55,171.69 396.55,151.69 407.83,155.80 407.83,175.80" fill="#88cd93"/>
<polygon points="407.83,175.80 407.83,155.80 419.10,151.69 419.10,171.69" fill="#72ac7c"/>
<polygon points="394.67,152.38 405.95,156.48 394.67,160.59 383.39,156.48" fill="#9be9a8"/>
<polygon points="383.39,176.48 383.39,156.48 394.67,160.59 394.67,180.59" fill="#88cd93"/>
<polygon points="394.67,180.59 394.67,160.59 405.95,156.48 405.95,176.48" fill="#72ac7c"/>
<polygon points="381.52,139.17 392.79,143.27 381.52,147.37 370.24,143.27" fill="#30a14e"/>
<polygon points="370.24,181.27 370.24,143.27 381.52,147.37 381.52,185.37" fill="#2a8d44"/>
<polygon points="381.52,185.37 381.52,147.37 392.79,143.27 392.79,181.27" fill="#237739"/>
<polygon points="368.36,153.95 379.64,158.06 368.36,162.16 357.08,158.06" fill="#40c463"/>
<polygon points="357.08,186.06 357.08,158.06 368.36,162.16 368.36,190.16" fill="#38ac57"/>
<polygon points="368.36,190.16 368.36,162.16 379.64,158.06 379.64,186.06" fill="#2f9149"/>
<polygon points="355.20,148.74 366.48,152.85 355.20,156.95 343.93,152.85" fill="#30a14e"/>
<polygon points="343.93,190.85 343.93,152.85 355.20,156.95 355.20,194.95" fill="#2a8d44"/>
<polygon points="355.20,194.95 355.20,156.95 366.48,152.85 366.48,190.85" fill="#237739"/>
<polygon points="447.29,142.80 458.57,146.91 447.29,151.01 436.02,146.91" fill="#9be9a8"/>
<polygon points="436.02,166.91 436.02,146.91 447.29,151.01 447.29,171.01" fill="#88cd93"/>
<polygon points="447.29,171.01 447.29,151.01 458.57,146.91 458.57,166.91" fill="#72ac7c"/>
<polygon points="434.14,110.59 445.41,114.69 434.14,118.80 422.86,114.69" fill="#216e39"/>
<polygon points="422.86,171.69 422.86,114.69 434.14,118.80 434.14,175.80" fill="#1d6032"/>
<polygon points="434.14,175.80 434.14,118.80 445.41,114.69 445.41,171.69" fill="#18512a"/>
<polygon points="420.98,139.38 432.26,143.48 420.98,147.59 409.71,143.48" fill="#30a14e"/>
<polygon points="409.71,176.48 409.71,143.48 420.98,147.59 420.98,180.59" fill="#2a8d44"/>
<polygon points="420.98,180.59 420.98,147.59 432.26,143.48 432.26,176.48" fill="#237739"/>
<polygon points="407.83,128.17 419.10,132.27 407.83,136.37 396.55,132.27" fill="#216e39"/>
<polygon points="396.55,181.27 396.55,132.27 407.83,136.37 407.83,185.37" fill="#1d6032"/>
<polygon points="407.83,185.37 407.83,136.37 419.10,132.27 419.10,181.27" fill="#18512a"/>
<polygon points="394.67,161.95 405.95,166.06 394.67,170.16 383.39,166.06" fill="#9be9a8"/>
<polygon points="383.39,186.06 383.39,166.06 394.67,170.16 394.67,190.16" fill="#88cd93"/>
<polygon points="394.67,190.16 394.67,170.16 405.95,166.06 405.95,186.06" fill="#72ac7c"/>
<polygon points="381.52,153.74 392.79,157.85 381.52,161.95 370.24,157.85" fill="#30a14e"/>
<polygon points="370.24,190.85 370.24,157.85 381.52,161.95 381.52,194.95" fill="#2a8d44"/>
<polygon points="381.52,194.95 381.52,161.95 392.79,157.85 392.79,190.85" fill="#237739"/>
<polygon points="368.36,163.53 379.64,167.64 368.36,171.74 357.08,167.64" fill="#40c463"/>
<polygon points="357.08,195.64 357.08,167.64 368.36,171.74 368.36,199.74" fill="#38ac57"/>
<polygon points="368.36,199.74 368.36,171.74 379.64,167.64 379.64,195.64" fill="#2f9149"/>
<polygon points="460.45,114.59 471.73,118.69 460.45,122.80 449.17,118.69" fill="#216e39"/>
<polygon points="449.17,171.69 449.17,118.69 460.45,122.80 460.45,175.80" fill="#1d6032"/>
<polygon points="460.45,175.80 460.45,122.80 471.73,118.69 471.73,171.69" fill="#18512a"/>
<polygon points="447.29,152.38 458.57,156.48 447.29,160.59 436.02,156.48" fill="#9be9a8"/>
<polygon points="436.02,176.48 436.02,156.48 447.29,160.59 447.29,180.59" fill="#88cd93"/>
<polygon points="447.29,180.59 447.29,160.59 458.57,156.48 458.57,176.48" fill="#72ac7c"/>
<polygon points="434.14,157.17 445.41,161.27 434.14,165.37 422.86,161.27" fill="#9be9a8"/>
<polygon points="422.86,181.27 422.86,161.27 434.14,165.37 434.14,185.37" fill="#88cd93"/>
<polygon points="434.14,185.37 434.14,165.37 445.41,161.27 445.41,181.27" fill="#72ac7c"/>
<polygon points="420.98,161.95 432.26,166.06 420.98,170.16 409.71,166.06" fill="#9be9a8"/>
<polygon points="409.71,186.06 409.71,166.06 420.98,170.16 420.98,190.16" fill="#88cd93"/>
<polygon points="420.98,190.16 420.98,170.16 432.26,166.06 432.26,186.06" fill="#72ac7c"/>
<polygon points="407.83,166.74 419.10,170.85 407.83,174.95 396.55,170.85" fill="#9be9a8"/>
<polygon points="396.55,190.85 396.55,170.85 407.83,174.95 407.83,194.95" fill="#88cd93"/>
<polygon points="407.83,194.95 407.83,174.95 419.10,170.85 419.10,190.85" fill="#72ac7c"/>
<polygon points="394.67,191.53 405.95,195.64 394.67,199.74 383.39,195.64" fill="#C2C3C6"/>
<polygon points="381.52,158.32 392.79,162.42 381.52,166.53 370.24,162.42" fill="#30a14e"/>
<polygon points="370.24,200.42 370.24,162.42 381.52,166.53 381.52,204.53" fill="#2a8d44"/>
<polygon points="381.52,204.53 381.52,166.53 392.79,162.42 392.79,200.42" fill="#237739"/>
<polygon points="473.61,125.38 484.88,129.48 473.61,133.59 462.33,129.48" fill="#216e39"/>
<polygon points="462.33,176.48 462.33,129.48 473.61,133.59 473.61,180.59" fill="#1d6032"/>
<polygon points="473.61,180.59 473.61,133.59 484.88,129.48 484.88,176.48" fill="#18512a"/>
<polygon points="460.45,139.17 471.73,143.27 460.45,147.37 449.17,143.27" fill="#30a14e"/>
<polygon points="449.17,181.27 449.17,143.27 460.45,147.37 460.45,185.37" fill="#2a8d44"/>
<polygon points="460.45,185.37 460.45,147.37 471.73,143.27 471.73,181.27" fill="#237739"/>
<polygon points="447.29,148.95 458.57,153.06 447.29,157.16 436.02,153.06" fill="#30a14e"/>
<polygon points="436.02,186.06 436.02,153.06 447.29,157.16 447.29,190.16" fill="#2a8d44"/>
<polygon points="447.29,190.16 447.29,157.16 458.57,153.06 458.57,186.06" fill="#237739"/>
<polygon points="434.14,158.74 445.41,162.85 434.14,166.95 422.86,162.85" fill="#40c463"/>
<polygon points="422.86,190.85 422.86,162.85 434.14,166.95 434.14,194.95" fill="#38ac57"/>
<polygon points="434.14,194.95 434.14,166.95 445.41,162.85 445.41,190.85" fill="#2f9149"/>
<polygon points="420.98,171.53 432.26,175.64 420.98,179.74 409.71,175.64" fill="#9be9a8"/>
<polygon points="409.71,195.64 409.71,175.64 420.98,179.74 420.98,199.74" fill="#88cd93"/>
<polygon points="420.98,199.74 420.98,179.74 432.26,175.64 432.26,195.64" fill="#72ac7c"/>
<polygon points="407.83,168.32 419.10,172.42 407.83,176.53 396.55,172.42" fill="#40c463"/>
<polygon points="396.55,200.42 396.55,172.42 407.83,176.53 407.83,204.53" fill="#38ac57"/>
<polygon points="407.83,204.53 407.83,176.53 419.10,172.42 419.10,200.42" fill="#2f9149"/>
<polygon points="394.67,168.11 405.95,172.21 394.67,176.32 383.39,172.21" fill="#30a14e"/>
<polygon points="383.39,205.21 383.39,172.21 394.67,176.32 394.67,209.32" fill="#2a8d44"/>
<polygon points="394.67,209.32 394.67,176.32 405.95,172.21 405.95,205.21" fill="#237739"/>
<polygon points="486.76,133.17 498.04,137.27 486.76,141.37 475.48,137.27" fill="#216e39"/>
<polygon points="475.48,181.27 475.48,137.27 486.76,141.37 486.76,185.37" fill="#1d6032"/>
<polygon points="486.76,185.37 486.76,141.37 498.04,137.27 498.04,181.27" fill="#18512a"/>
<polygon points="473.61,153.95 484.88,158.06 473.61,162.16 462.33,158.06" fill="#40c463"/>
<polygon points="462.33,186.06 462.33,158.06 473.61,162.16 473.61,190.16" fill="#38ac57"/>
<polygon points="473.61,190.16 473.61,162.16 484.88,158.06 484.88,186.06" fill="#2f9149"/>
<polygon points="460.45,145.74 471.73,149.85 460.45,153.95 449.17,149.85" fill="#30a14e"/>
<polygon points="449.17,190.85 449.17,149.85 460.45,153.95 460.45,194.95" fill="#2a8d44"/>
<polygon points="460.45,194.95 460.45,153.95 471.73,149.85 471.73,190.85" fill="#237739"/>
<polygon points="447.29,150.53 458.57,154.64 447.29,158.74 436.02,154.64" fill="#30a14e"/>
<polygon points="436.02,195.64 436.02,154.64 447.29,158.74 447.29,199.74" fill="#2a8d44"/>
<polygon points="447.29,199.74 447.29,158.74 458.57,154.64 458.57,195.64" fill="#237739"/>
<polygon points="434.14,168.32 445.41,172.42 434.14,176.53 422.86,172.42" fill="#40c463"/>
<polygon points="422.86,200.42 422.86,172.42 434.14,176.53 434.14,204.53" fill="#38ac57"/>
<polygon points="434.14,204.53 434.14,176.53 445.41,172.42 445.41,200.42" fill="#2f9149"/>
<polygon points="420.98,181.11 432.26,185.21 420.98,189.32 409.71,185.21" fill="#9be9a8"/>
<polygon points="409.71,205.21 409.71,185.21 420.98,189.32 420.98,209.32" fill="#88cd93"/>
<polygon points="420.98,209.32 420.98,189.32 432.26,185.21 432.26,205.21" fill="#72ac7c"/>
<polygon points="407.83,185.90 419.10,190.00 407.83,194.10 396.55,190.00" fill="#9be9a8"/>
<polygon points="396.55,210.00 396.55,190.00 407.83,194.10 407.83,214.10" fill="#88cd93"/>
<polygon points="407.83,214.10 407.83,194.10 419.10,190.00 419.10,210.00" fill="#72ac7c"/>
<polygon points="499.92,153.95 511.19,158.06 499.92,162.16 488.64,158.06" fill="#40c463"/>
<polygon points="488.64,186.06 488.64,158.06 499.92,162.16 499.92,190.16" fill="#38ac57"/>
<polygon points="499.92,190.16 499.92,162.16 511.19,158.06 511.19,186.06" fill="#2f9149"/>
<polygon points="486.76,166.74 498.04,170.85 486.76,174.95 475.48,170.85" fill="#9be9a8"/>
<polygon points="475.48,190.85 475.48,170.85 486.76,174.95 486.76,194.95" fill="#88cd93"/>
<polygon points="486.76,194.95 486.76,174.95 498.04,170.85 498.04,190.85" fill="#72ac7c"/>
<polygon points="473.61,171.53 484.88,175.64 473.61,179.74 462.33,175.64" fill="#9be9a8"/>
<polygon points="462.33,195.64 462.33,175.64 473.61,179.74 473.61,199.74" fill="#88cd93"/>
<polygon points="473.61,199.74 473.61,179.74 484.88,175.64 484.88,195.64" fill="#72ac7c"/>
<polygon points="460.45,196.32 471.73,200.42 460.45,204.53 449.17,200.42" fill="#C2C3C6"/>
<polygon points="447.29,173.11 458.57,177.21 447.29,181.32 436.02,177.21" fill="#40c463"/>
<polygon points="436.02,205.21 436.02,177.21 447.29,181.32 447.29,209.32" fill="#38ac57"/>
<polygon points="447.29,209.32 447.29,181.32 458.57,177.21 458.57,205.21" fill="#2f9149"/>
<polygon points="434.14,205.90 445.41,210.00 434.14,214.10 422.86,210.00" fill="#C2C3C6"/>
<polygon points="420.98,210.68 432.26,214.79 420.98,218.89 409.71,214.79" fill="#C2C3C6"/>
<polygon points="513.07,186.74 524.35,190.85 513.07,194.95 501.80,190.85" fill="#C2C3C6"/>
<polygon points="499.92,171.53 511.19,175.64 499.92,179.74 488.64,175.64" fill="#9be9a8"/>
<polygon points="488.64,195.64 488.64,175.64 499.92,179.74 499.92,199.74" fill="#88cd93"/>
<polygon points="499.92,199.74 499.92,179.74 511.19,175.64 511.19,195.64" fill="#72ac7c"/>
<polygon points="486.76,168.32 498.04,172.42 486.76,176.53 475.48,172.42" fill="#40c463"/>
<polygon points="475.48,200.42 475.48,172.42 486.76,176.53 486.76,204.53" fill="#38ac57"/>
<polygon points="486.76,204.53 486.76,176.53 498.04,172.42 498.04,200.42" fill="#2f9149"/>
<polygon points="473.61,173.11 484.88,177.21 473.61,181.32 462.33,177.21" fill="#40c463"/>
<polygon points="462.33,205.21 462.33,177.21 473.61,181.32 473.61,209.32" fill="#38ac57"/>
<polygon points="473.61,209.32 473.61,181.32 484.88,177.21 484.88,205.21" fill="#2f9149"/>
<polygon points="460.45,177.90 471.73,182.00 460.45,186.10 449.17,182.00" fill="#40c463"/>
<polygon points="449.17,210.00 449.17,182.00 460.45,186.10 460.45,214.10" fill="#38ac57"/>
<polygon points="460.45,214.10 460.45,186.10 471.73,182.00 471.73,210.00" fill="#2f9149"/>
<polygon points="447.29,190.68 458.57,194.79 447.29,198.89 436.02,194.79" fill="#9be9a8"/>
<polygon points="436.02,214.79 436.02,194.79 447.29,198.89 447.29,218.89" fill="#88cd93"/>
<polygon points="447.29,218.89 447.29,198.89 458.57,194.79 458.57,214.79" fill="#72ac7c"/>
<polygon points="434.14,195.47 445.41,199.58 434.14,203.68 422.86,199.58" fill="#9be9a8"/>
<polygon points="422.86,219.58 422.86,199.58 434.14,203.68 434.14,223.68" fill="#88cd93"/>
<polygon points="434.14,223.68 434.14,203.68 445.41,199.58 445.41,219.58" fill="#72ac7c"/>
<polygon points="526.23,138.53 537.50,142.64 526.23,146.74 514.95,142.64" fill="#216e39"/>
<polygon points="514.95,195.64 514.95,142.64 526.23,146.74 526.23,199.74" fill="#1d6032"/>
<polygon points="526.23,199.74 526.23,146.74 537.50,142.64 537.50,195.64" fill="#18512a"/>
<polygon points="513.07,168.32 524.35,172.42 513.07,176.53 501.80,172.42" fill="#40c463"/>
<polygon points="501.80,200.42 501.80,172.42 513.07,176.53 513.07,204.53" fill="#38ac57"/>
<polygon points="513.07,204.53 513.07,176.53 524.35,172.42 524.35,200.42" fill="#2f9149"/>
<polygon points="499.92,173.11 511.19,177.21 499.92,181.32 488.64,177.21" fill="#40c463"/>
<polygon points="488.64,205.21 488.64,177.21 499.92,181.32 499.92,209.32" fill="#38ac57"/>
<polygon points="499.92,209.32 499.92,181.32 511.19,177.21 511.19,205.21" fill="#2f9149"/>
<polygon points="486.76,164.90 498.04,169.00 486.76,173.10 475.48,169.00" fill="#30a14e"/>
<polygon points="475.48,210.00 475.48,169.00 486.76,173.10 486.76,214.10" fill="#2a8d44"/>
<polygon points="486.76,214.10 486.76,173.10 498.04,169.00 498.04,210.00" fill="#237739"/>
<polygon points="473.61,182.68 484.88,186.79 473.61,190.89 462.33,186.79" fill="#40c463"/>
<polygon points="462.33,214.79 462.33,186.79 473.61,190.89 473.61,218.89" fill="#38ac57"/>
<polygon points="473.61,218.89 473.61,190.89 484.88,186.79 484.88,214.79" fill="#2f9149"/>
<polygon points="460.45,187.47 471.73,191.58 460.45,195.68 449.17,191.58" fill="#40c463"/>
<polygon points="449.17,219.58 449.17,191.58 460.45,195.68 460.45,223.68" fill="#38ac57"/>
<polygon points="460.45,223.68 460.45,195.68 471.73,191.58 471.73,219.58" fill="#2f9149"/>
<polygon points="447.29,182.26 458.57,186.37 447.29,190.47 436.02,186.37" fill="#30a14e"/>
<polygon points="436.02,224.37 436.02,186.37 447.29,190.47 447.29,228.47" fill="#2a8d44"/>
<polygon points="447.29,228.47 447.29,190.47 458.57,186.37 458.57,224.37" fill="#237739"/>
<polygon points="539.38,139.32 550.66,143.42 539.38,147.53 528.11,143.42" fill="#216e39"/>
<polygon points="528.11,200.42 528.11,143.42 539.38,147.53 539.38,204.53" fill="#1d6032"/>
<polygon points="539.38,204.53 539.38,147.53 550.66,143.42 550.66,200.42" fill="#18512a"/>
<polygon points="526.23,173.11 537.50,177.21 526.23,181.32 514.95,177.21" fill="#40c463"/>
<polygon points="514.95,205.21 514.95,177.21 526.23,181.32 526.23,209.32" fill="#38ac57"/>
<polygon points="526.23,209.32 526.23,181.32 537.50,177.21 537.50,205.21" fill="#2f9149"/>
<polygon points="513.07,177.90 524.35,182.00 513.07,186.10 501.80,182.00" fill="#40c463"/>
<polygon points="501.80,210.00 501.80,182.00 513.07,186.10 513.07,214.10" fill="#38ac57"/>
<polygon points="513.07,214.10 513.07,186.10 524.35,182.00 524.35,210.00" fill="#2f9149"/>
<polygon points="499.92,190.68 511.19,194.79 499.92,198.89 488.64,194.79" fill="#9be9a8"/>
<polygon points="488.64,214.79 488.64,194.79 499.92,198.89 499.92,218.89" fill="#88cd93"/>
<polygon points="499.92,218.89 499.92,198.89 511.19,194.79 511.19,214.79" fill="#72ac7c"/>
<polygon points="486.76,171.47 498.04,175.58 486.76,179.68 475.48,175.58" fill="#216e39"/>
<polygon points="475.48,219.58 475.48,175.58 486.76,179.68 486.76,223.68" fill="#1d6032"/>
<polygon points="486.76,223.68 486.76,179.68 498.04,175.58 498.04,219.58" fill="#18512a"/>
<polygon points="473.61,187.26 484.88,191.37 473.61,195.47 462.33,191.37" fill="#30a14e"/>
<polygon points="462.33,224.37 462.33,191.37 473.61,195.47 473.61,228.47" fill="#2a8d44"/>
<polygon points="473.61,228.47 473.61,195.47 484.88,191.37 484.88,224.37" fill="#237739"/>
<polygon points="460.45,184.05 471.73,188.15 460.45,192.26 449.17,188.15" fill="#30a14e"/>
<polygon points="449.17,229.15 449.17,188.15 460.45,192.26 460.45,233.26" fill="#2a8d44"/>
<polygon points="460.45,233.26 460.45,192.26 471.73,188.15 471.73,229.15" fill="#237739"/>
<polygon points="552.54,150.11 563.82,154.21 552.54,158.32 541.26,154.21" fill="#216e39"/>
<polygon points="541.26,205.21 541.26,154.21 552.54,158.32 552.54,209.32" fill="#1d6032"/>
<polygon points="552.54,209.32 552.54,158.32 563.82,154.21 563.82,205.21" fill="#18512a"/>
<polygon points="539.38,147.90 550.66,152.00 539.38,156.10 528.11,152.00" fill="#216e39"/>
<polygon points="528.11,210.00 528.11,152.00 539.38,156.10 539.38,214.10" fill="#1d6032"/>
<polygon points="539.38,214.10 539.38,156.10 550.66,152.00 550.66,210.00" fill="#18512a"/>
<polygon points="526.23,172.68 537.50,176.79 526.23,180.89 514.95,176.79" fill="#30a14e"/>
<polygon points="514.95,214.79 514.95,176.79 526.23,180.89 526.23,218.89" fill="#2a8d44"/>
<polygon points="526.23,218.89 526.23,180.89 537.50,176.79 537.50,214.79" fill="#237739"/>
<polygon points="513.07,187.47 524.35,191.58 513.07,195.68 501.80,191.58" fill="#40c463"/>
<polygon points="501.80,219.58 501.80,191.58 513.07,195.68 513.07,223.68" fill="#38ac57"/>
<polygon points="513.07,223.68 513.07,195.68 524.35,191.58 524.35,219.58" fill="#2f9149"/>
<polygon points="499.92,187.26 511.19,191.37 499.92,195.47 488.64,191.37" fill="#30a14e"/>
<polygon points="488.64,224.37 488.64,191.37 499.92,195.47 499.92,228.47" fill="#2a8d44"/>
<polygon points="499.92,228.47 499.92,195.47 511.19,191.37 511.19,224.37" fill="#237739"/>
<polygon points="486.76,192.05 498.04,196.15 486.76,200.26 475.48,196.15" fill="#30a14e"/>
<polygon points="475.48,229.15 475.48,196.15 486.76,200.26 486.76,233.26" fill="#2a8d44"/>
<polygon points="486.76,233.26 486.76,200.26 498.04,196.15 498.04,229.15" fill="#237739"/>
<polygon points="473.61,176.84 484.88,180.94 473.61,185.05 462.33,180.94" fill="#216e39"/>
<polygon points="462.33,233.94 462.33,180.94 473.61,185.05 473.61,238.05" fill="#1d6032"/>
<polygon points="473.61,238.05 473.61,185.05 484.88,180.94 484.88,233.94" fill="#18512a"/>
<polygon points="565.69,185.90 576.97,190.00 565.69,194.10 554.42,190.00" fill="#9be9a8"/>
<polygon points="554.42,210.00 554.42,190.00 565.69,194.10 565.69,214.10" fill="#88cd93"/>
<polygon points="565.69,214.10 565.69,194.10 576.97,190.00 576.97,210.00" fill="#72ac7c"/>
<polygon points="552.54,182.68 563.82,186.79 552.54,190.89 541.26,186.79" fill="#40c463"/>
<polygon points="541.26,214.79 541.26,186.79 552.54,190.89 552.54,218.89" fill="#38ac57"/>
<polygon points="552.54,218.89 552.54,190.89 563.82,186.79 563.82,214.79" fill="#2f9149"/>
<polygon points="539.38,177.47 550.66,181.58 539.38,185.68 528.11,181.58" fill="#30a14e"/>
<polygon points="528.11,219.58 528.11,181.58 539.38,185.68 539.38,223.68" fill="#2a8d44"/>
<polygon points="539.38,223.68 539.38,185.68 550.66,181.58 550.66,219.58" fill="#237739"/>
<polygon points="526.23,200.26 537.50,204.37 526.23,208.47 514.95,204.37" fill="#9be9a8"/>
<polygon points="514.95,224.37 514.95,204.37 526.23,208.47 526.23,228.47" fill="#88cd93"/>
<polygon points="526.23,228.47 526.23,208.47 537.50,204.37 537.50,224.37" fill="#72ac7c"/>
<polygon points="513.07,197.05 524.35,201.15 513.07,205.26 501.80,201.15" fill="#40c463"/>
<polygon points="501.80,229.15 501.80,201.15 513.07,205.26 513.07,233.26" fill="#38ac57"/>
<polygon points="513.07,233.26 513.07,205.26 524.35,201.15 524.35,229.15" fill="#2f9149"/>
<polygon points="499.92,188.84 511.19,192.94 499.92,197.05 488.64,192.94" fill="#30a14e"/>
<polygon points="488.64,233.94 488.64,192.94 499.92,197.05 499.92,238.05" fill="#2a8d44"/>
<polygon points="499.92,238.05 499.92,197.05 511.19,192.94 511.19,233.94" fill="#237739"/>
<polygon points="486.76,206.63 498.04,210.73 486.76,214.83 475.48,210.73" fill="#40c463"/>
<polygon points="475.48,238.73 475.48,210.73 486.76,214.83 486.76,242.83" fill="#38ac57"/>
<polygon points="486.76,242.83 486.76,214.83 498.04,210.73 498.04,238.73" fill="#2f9149"/>
<polygon points="578.85,166.68 590.13,170.79 578.85,174.89 567.57,170.79" fill="#216e39"/>
<polygon points="567.57,214.79 567.57,170.79 578.85,174.89 578.85,218.89" fill="#1d6032"/>
<polygon points="578.85,218.89 578.85,174.89 590.13,170.79 590.13,214.79" fill="#18512a"/>
<polygon points="565.69,187.47 576.97,191.58 565.69,195.68 554.42,191.58" fill="#40c463"/>
<polygon points="554.42,219.58 554.42,191.58 565.69,195.68 565.69,223.68" fill="#38ac57"/>
<polygon points="565.69,223.68 565.69,195.68 576.97,191.58 576.97,219.58" fill="#2f9149"/>
<polygon points="552.54,200.26 563.82,204.37 552.54,208.47 541.26,204.37" fill="#9be9a8"/>
<polygon points="541.26,224.37 541.26,204.37 552.54,208.47 552.54,228.47" fill="#88cd93"/>
<polygon points="552.54,228.47 552.54,208.47 563.82,204.37 563.82,224.37" fill="#72ac7c"/>
<polygon points="539.38,205.05 550.66,209.15 539.38,213.26 528.11,209.15" fill="#9be9a8"/>
<polygon points="528.11,229.15 528.11,209.15 539.38,213.26 539.38,233.26" fill="#88cd93"/>
<polygon points="539.38,233.26 539.38,213.26 550.66,209.15 550.66,229.15" fill="#72ac7c"/>
<polygon points="526.23,209.84 537.50,213.94 526.23,218.05 514.95,213.94" fill="#9be9a8"/>
<polygon points="514.95,233.94 514.95,213.94 526.23,218.05 526.23,238.05" fill="#88cd93"/>
<polygon points="526.23,238.05 526.23,218.05 537.50,213.94 537.50,233.94" fill="#72ac7c"/>
<polygon points="513.07,206.63 524.35,210.73 513.07,214.83 501.80,210.73" fill="#40c463"/>
<polygon points="501.80,238.73 501.80,210.73 513.07,214.83 513.07,242.83" fill="#38ac57"/>
<polygon points="513.07,242.83 513.07,214.83 524.35,210.73 524.35,238.73" fill="#2f9149"/>
<polygon points="499.92,219.41 511.19,223.52 499.92,227.62 488.64,223.52" fill="#9be9a8"/>
<polygon points="488.64,243.52 488.64,223.52 499.92,227.62 499.92,247.62" fill="#88cd93"/>
<polygon points="499.92,247.62 499.92,227.62 511.19,223.52 511.19,243.52" fill="#72ac7c"/>
<polygon points="592.01,195.47 603.28,199.58 592.01,203.68 580.73,199.58" fill="#9be9a8"/>
<polygon points="580.73,219.58 580.73,199.58 592.01,203.68 592.01,223.68" fill="#88cd93"/>
<polygon points="592.01,223.68 592.01,203.68 603.28,199.58 603.28,219.58" fill="#72ac7c"/>
<polygon points="578.85,200.26 590.13,204.37 578.85,208.47 567.57,204.37" fill="#9be9a8"/>
<polygon points="567.57,224.37 567.57,204.37 578.85,208.47 578.85,228.47" fill="#88cd93"/>
<polygon points="578.85,228.47 578.85,208.47 590.13,204.37 590.13,224.37" fill="#72ac7c"/>
<polygon points="565.69,205.05 576.97,209.15 565.69,213.26 554.42,209.15" fill="#9be9a8"/>
<polygon points="554.42,229.15 554.42,209.15 565.69,213.26 565.69,233.26" fill="#88cd93"/>
<polygon points="565.69,233.26 565.69,213.26 576.97,209.15 576.97,229.15" fill="#72ac7c"/>
<polygon points="552.54,209.84 563.82,213.94 552.54,218.05 541.26,213.94" fill="#9be9a8"/>
<polygon points="541.26,233.94 541.26,213.94 552.54,218.05 552.54,238.05" fill="#88cd93"/>
<polygon points="552.54,238.05 552.54,218.05 563.82,213.94 563.82,233.94" fill="#72ac7c"/>
<polygon points="539.38,214.63 550.66,218.73 539.38,222.83 528.11,218.73" fill="#9be9a8"/>
<polygon points="528.11,238.73 528.11,218.73 539.38,222.83 539.38,242.83" fill="#88cd93"/>
<polygon points="539.38,242.83 539.38,222.83 550.66,218.73 550.66,238.73" fill="#72ac7c"/>
<polygon points="526.23,219.41 537.50,223.52 526.23,227.62 514.95,223.52" fill="#9be9a8"/>
<polygon points="514.95,243.52 514.95,223.52 526.23,227.62 526.23,247.62" fill="#88cd93"/>
<polygon points="526.23,247.62 526.23,227.62 537.50,223.52 537.50,243.52" fill="#72ac7c"/>
<polygon points="513.07,224.20 524.35,228.31 513.07,232.41 501.80,228.31" fill="#9be9a8"/>
<polygon points="501.80,248.31 501.80,228.31 513.07,232.41 513.07,252.41" fill="#88cd93"/>
<polygon points="513.07,252.41 513.07,232.41 524.35,228.31 524.35,248.31" fill="#72ac7c"/>
<polygon points="605.16,192.26 616.44,196.37 605.16,200.47 593.89,196.37" fill="#40c463"/>
<polygon points="593.89,224.37 593.89,196.37 605.16,200.47 605.16,228.47" fill="#38ac57"/>
<polygon points="605.16,228.47 605.16,200.47 616.44,196.37 616.44,224.37" fill="#2f9149"/>
<polygon points="592.01,197.05 603.28,201.15 592.01,205.26 580.73,201.15" fill="#40c463"/>
<polygon points="580.73,229.15 580.73,201.15 592.01,205.26 592.01,233.26" fill="#38ac57"/>
<polygon points="592.01,233.26 592.01,205.26 603.28,201.15 603.28,229.15" fill="#2f9149"/>
<polygon points="578.85,209.84 590.13,213.94 578.85,218.05 567.57,213.94" fill="#9be9a8"/>
<polygon points="567.57,233.94 567.57,213.94 578.85,218.05 578.85,238.05" fill="#88cd93"/>
<polygon points="578.85,238.05 578.85,218.05 590.13,213.94 590.13,233.94" fill="#72ac7c"/>
<polygon points="565.69,214.63 576.97,218.73 565.69,222.83 554.42,218.73" fill="#9be9a8"/>
<polygon points="554.42,238.73 554.42,218.73 565.69,222.83 565.69,242.83" fill="#88cd93"/>
<polygon points="565.69,242.83 565.69,222.83 576.97,218.73 576.97,238.73" fill="#72ac7c"/>
<polygon points="552.54,219.41 563.82,223.52 552.54,227.62 541.26,223.52" fill="#9be9a8"/>
<polygon points="541.26,243.52 541.26,223.52 552.54,227.62 552.54,247.62" fill="#88cd93"/>
<polygon points="552.54,247.62 552.54,227.62 563.82,223.52 563.82,243.52" fill="#72ac7c"/>
<polygon points="539.38,216.20 550.66,220.31 539.38,224.41 528.11,220.31" fill="#40c463"/>
<polygon points="528.11,248.31 528.11,220.31 539.38,224.41 539.38,252.41" fill="#38ac57"/>
<polygon points="539.38,252.41 539.38,224.41 550.66,220.31 550.66,248.31" fill="#2f9149"/>
<polygon points="526.23,199.99 537.50,204.09 526.23,208.20 514.95,204.09" fill="#216e39"/>
<polygon points="514.95,253.09 514.95,204.09 526.23,208.20 526.23,257.20" fill="#1d6032"/>
<polygon points="526.23,257.20 526.23,208.20 537.50,204.09 537.50,253.09" fill="#18512a"/>
<polygon points="618.32,168.05 629.59,172.15 618.32,176.26 607.04,172.15" fill="#216e39"/>
<polygon points="607.04,229.15 607.04,172.15 618.32,176.26 618.32,233.26" fill="#1d6032"/>
<polygon points="618.32,233.26 618.32,176.26 629.59,172.15 629.59,229.15" fill="#18512a"/>
<polygon points="605.16,209.84 616.44,213.94 605.16,218.05 593.89,213.94" fill="#9be9a8"/>
<polygon points="593.89,233.94 593.89,213.94 605.16,218.05 605.16,238.05" fill="#88cd93"/>
<polygon points="605.16,238.05 605.16,218.05 616.44,213.94 616.44,233.94" fill="#72ac7c"/>
<polygon points="592.01,214.63 603.28,218.73 592.01,222.83 580.73,218.73" fill="#9be9a8"/>
<polygon points="580.73,238.73 580.73,218.73 592.01,222.83 592.01,242.83" fill="#88cd93"/>
<polygon points="592.01,242.83 592.01,222.83 603.28,218.73 603.28,238.73" fill="#72ac7c"/>
<polygon points="578.85,219.41 590.13,223.52 578.85,227.62 567.57,223.52" fill="#9be9a8"/>
<polygon points="567.57,243.52 567.57,223.52 578.85,227.62 578.85,247.62" fill="#88cd93"/>
<polygon points="578.85,247.62 578.85,227.62 590.13,223.52 590.13,243.52" fill="#72ac7c"/>
<polygon points="565.69,224.20 576.97,228.31 565.69,232.41 554.42,228.31" fill="#9be9a8"/>
<polygon points="554.42,248.31 554.42,228.31 565.69,232.41 565.69,252.41" fill="#88cd93"/>
<polygon points="565.69,252.41 565.69,232.41 576.97,228.31 576.97,248.31" fill="#72ac7c"/>
<polygon points="552.54,220.99 563.82,225.09 552.54,229.20 541.26,225.09" fill="#40c463"/>
<polygon points="541.26,253.09 541.26,225.09 552.54,229.20 552.54,257.20" fill="#38ac57"/>
<polygon points="552.54,257.20 552.54,229.20 563.82,225.09 563.82,253.09" fill="#2f9149"/>
<polygon points="539.38,225.78 550.66,229.88 539.38,233.99 528.11,229.88" fill="#40c463"/>
<polygon points="528.11,257.88 528.11,229.88 539.38,233.99 539.38,261.99" fill="#38ac57"/>
<polygon points="539.38,261.99 539.38,233.99 550.66,229.88 550.66,257.88" fill="#2f9149"/>
<polygon points="631.47,209.84 642.75,213.94 631.47,218.05 620.20,213.94" fill="#9be9a8"/>
<polygon points="620.20,233.94 620.20,213.94 631.47,218.05 631.47,238.05" fill="#88cd93"/>
<polygon points="631.47,238.05 631.47,218.05 642.75,213.94 642.75,233.94" fill="#72ac7c"/>
<polygon points="618.32,196.63 629.59,200.73 618.32,204.83 607.04,200.73" fill="#30a14e"/>
<polygon points="607.04,238.73 607.04,200.73 618.32,204.83 618.32,242.83" fill="#2a8d44"/>
<polygon points="618.32,242.83 618.32,204.83 629.59,200.73 629.59,238.73" fill="#237739"/>
<polygon points="605.16,211.41 616.44,215.52 605.16,219.62 593.89,215.52" fill="#40c463"/>
<polygon points="593.89,243.52 593.89,215.52 605.16,219.62 605.16,247.62" fill="#38ac57"/>
<polygon points="605.16,247.62 605.16,219.62 616.44,215.52 616.44,243.52" fill="#2f9149"/>
<polygon points="592.01,216.20 603.28,220.31 592.01,224.41 580.73,220.31" fill="#40c463"/>
<polygon points="580.73,248.31 580.73,220.31 592.01,224.41 592.01,252.41" fill="#38ac57"/>
<polygon points="592.01,252.41 592.01,224.41 603.28,220.31 603.28,248.31" fill="#2f9149"/>
<polygon points="578.85,207.99 590.13,212.09 578.85,216.20 567.57,212.09" fill="#30a14e"/>
<polygon points="567.57,253.09 567.57,212.09 578.85,216.20 578.85,257.20" fill="#2a8d44"/>
<polygon points="578.85,257.20 578.85,216.20 590.13,212.09 590.13,253.09" fill="#237739"/>
<polygon points="565.69,215.78 576.97,219.88 565.69,223.99 554.42,219.88" fill="#30a14e"/>
<polygon points="554.42,257.88 554.42,219.88 565.69,223.99 565.69,261.99" fill="#2a8d44"/>
<polygon points="565.69,261.99 565.69,223.99 576.97,219.88 576.97,257.88" fill="#237739"/>
<polygon points="552.54,217.57 563.82,221.67 552.54,225.78 541.26,221.67" fill="#30a14e"/>
<polygon points="541.26,262.67 541.26,221.67 552.54,225.78 552.54,266.78" fill="#2a8d44"/>
<polygon points="552.54,266.78 552.54,225.78 563.82,221.67 563.82,262.67" fill="#237739"/>
<polygon points="644.63,214.63 655.91,218.73 644.63,222.83 633.35,218.73" fill="#9be9a8"/>
<polygon points="633.35,238.73 633.35,218.73 644.63,222.83 644.63,242.83" fill="#88cd93"/>
<polygon points="644.63,242.83 644.63,222.83 655.91,218.73 655.91,238.73" fill="#72ac7c"/>
<polygon points="631.47,201.41 642.75,205.52 631.47,209.62 620.20,205.52" fill="#30a14e"/>
<polygon points="620.20,243.52 620.20,205.52 631.47,209.62 631.47,247.62" fill="#2a8d44"/>
<polygon points="631.47,247.62 631.47,209.62 642.75,205.52 642.75,243.52" fill="#237739"/>
<polygon points="618.32,216.20 629.59,220.31 618.32,224.41 607.04,220.31" fill="#40c463"/>
<polygon points="607.04,248.31 607.04,220.31 618.32,224.41 618.32,252.41" fill="#38ac57"/>
<polygon points="618.32,252.41 618.32,224.41 629.59,220.31 629.59,248.31" fill="#2f9149"/>
<polygon points="605.16,228.99 616.44,233.09 605.16,237.20 593.89,233.09" fill="#9be9a8"/>
<polygon points="593.89,253.09 593.89,233.09 605.16,237.20 605.16,257.20" fill="#88cd93"/>
<polygon points="605.16,257.20 605.16,237.20 616.44,233.09 616.44,253.09" fill="#72ac7c"/>
<polygon points="592.01,233.78 603.28,237.88 592.01,241.99 580.73,237.88" fill="#9be9a8"/>
<polygon points="580.73,257.88 580.73,237.88 592.01,241.99 592.01,261.99" fill="#88cd93"/>
<polygon points="592.01,261.99 592.01,241.99 603.28,237.88 603.28,257.88" fill="#72ac7c"/>
<polygon points="578.85,238.57 590.13,242.67 578.85,246.78 567.57,242.67" fill="#9be9a8"/>
<polygon points="567.57,262.67 567.57,242.67 578.85,246.78 578.85,266.78" fill="#88cd93"/>
<polygon points="578.85,266.78 578.85,246.78 590.13,242.67 590.13,262.67" fill="#72ac7c"/>
<polygon points="565.69,222.36 576.97,226.46 565.69,230.56 554.42,226.46" fill="#30a14e"/>
<polygon points="554.42,267.46 554.42,226.46 565.69,230.56 565.69,271.56" fill="#2a8d44"/>
<polygon points="565.69,271.56 565.69,230.56 576.97,226.46 576.97,267.46" fill="#237739"/>
<polygon points="657.78,219.41 669.06,223.52 657.78,227.62 646.51,223.52" fill="#9be9a8"/>
<polygon points="646.51,243.52 646.51,223.52 657.78,227.62 657.78,247.62" fill="#88cd93"/>
<polygon points="657.78,247.62 657.78,227.62 669.06,223.52 669.06,243.52" fill="#72ac7c"/>
<polygon points="644.63,224.20 655.91,228.31 644.63,232.41 633.35,228.31" fill="#9be9a8"/>
<polygon points="633.35,248.31 633.35,228.31 644.63,232.41 644.63,252.41" fill="#88cd93"/>
<polygon points="644.63,252.41 644.63,232.41 655.91,228.31 655.91,248.31" fill="#72ac7c"/>
<polygon points="631.47,228.99 642.75,233.09 631.47,237.20 620.20,233.09" fill="#9be9a8"/>
<polygon points="620.20,253.09 620.20,233.09 631.47,237.20 631.47,257.20" fill="#88cd93"/>
<polygon points="631.47,257.20 631.47,237.20 642.75,233.09 642.75,253.09" fill="#72ac7c"/>
<polygon points="618.32,233.78 629.59,237.88 618.32,241.99 607.04,237.88" fill="#9be9a8"/>
<polygon points="607.04,257.88 607.04,237.88 618.32,241.99 618.32,261.99" fill="#88cd93"/>
<polygon points="618.32,261.99 618.32,241.99 629.59,237.88 629.59,257.88" fill="#72ac7c"/>
<polygon points="605.16,230.57 616.44,234.67 605.16,238.78 593.89,234.67" fill="#40c463"/>
<polygon points="593.89,262.67 593.89,234.67 605.16,238.78 605.16,266.78" fill="#38ac57"/>
<polygon points="605.16,266.78 605.16,238.78 616.44,234.67 616.44,262.67" fill="#2f9149"/>
<polygon points="592.01,219.36 603.28,223.46 592.01,227.56 580.73,223.46" fill="#216e39"/>
<polygon points="580.73,267.46 580.73,223.46 592.01,227.56 592.01,271.56" fill="#1d6032"/>
<polygon points="592.01,271.56 592.01,227.56 603.28,223.46 603.28,267.46" fill="#18512a"/>
<polygon points="578.85,224.14 590.13,228.25 578.85,232.35 567.57,228.25" fill="#216e39"/>
<polygon points="567.57,272.25 567.57,228.25 578.85,232.35 578.85,276.35" fill="#1d6032"/>
<polygon points="578.85,276.35 578.85,232.35 590.13,228.25 590.13,272.25" fill="#18512a"/>
<polygon points="670.94,200.20 682.22,204.31 670.94,208.41 659.66,204.31" fill="#216e39"/>
<polygon points="659.66,248.31 659.66,204.31 670.94,208.41 670.94,252.41" fill="#1d6032"/>
<polygon points="670.94,252.41 670.94,208.41 682.22,204.31 682.22,248.31" fill="#18512a"/>
<polygon points="657.78,207.99 669.06,212.09 657.78,216.20 646.51,212.09" fill="#30a14e"/>
<polygon points="646.51,253.09 646.51,212.09 657.78,216.20 657.78,257.20" fill="#2a8d44"/>
<polygon points="657.78,257.20 657.78,216.20 669.06,212.09 669.06,253.09" fill="#237739"/>
<polygon points="644.63,196.78 655.91,200.88 644.63,204.99 633.35,200.88" fill="#216e39"/>
<polygon points="633.35,257.88 633.35,200.88 644.63,204.99 644.63,261.99" fill="#1d6032"/>
<polygon points="644.63,261.99 644.63,204.99 655.91,200.88 655.91,257.88" fill="#18512a"/>
<polygon points="631.47,225.57 642.75,229.67 631.47,233.78 620.20,229.67" fill="#30a14e"/>
<polygon points="620.20,262.67 620.20,229.67 631.47,233.78 631.47,266.78" fill="#2a8d44"/>
<polygon points="631.47,266.78 631.47,233.78 642.75,229.67 642.75,262.67" fill="#237739"/>
<polygon points="618.32,243.36 629.59,247.46 618.32,251.56 607.04,247.46" fill="#9be9a8"/>
<polygon points="607.04,267.46 607.04,247.46 618.32,251.56 618.32,271.56" fill="#88cd93"/>
<polygon points="618.32,271.56 618.32,251.56 629.59,247.46 629.59,267.46" fill="#72ac7c"/>
<polygon points="605.16,240.14 616.44,244.25 605.16,248.35 593.89,244.25" fill="#40c463"/>
<polygon points="593.89,272.25 593.89,244.25 605.16,248.35 605.16,276.35" fill="#38ac57"/>
<polygon points="605.16,276.35 605.16,248.35 616.44,244.25 616.44,272.25" fill="#2f9149"/>
<polygon points="592.01,244.93 603.28,249.04 592.01,253.14 580.73,249.04" fill="#40c463"/>
<polygon points="580.73,277.04 580.73,249.04 592.01,253.14 592.01,281.14" fill="#38ac57"/>
<polygon points="592.01,281.14 592.01,253.14 603.28,249.04 603.28,277.04" fill="#2f9149"/>
<polygon points="684.10,228.99 695.37,233.09 684.10,237.20 672.82,233.09" fill="#9be9a8"/>
<polygon points="672.82,253.09 672.82,233.09 684.10,237.20 684.10,257.20" fill="#88cd93"/>
<polygon points="684.10,257.20 684.10,237.20 695.37,233.09 695.37,253.09" fill="#72ac7c"/>
<polygon points="670.94,204.78 682.22,208.88 670.94,212.99 659.66,208.88" fill="#216e39"/>
<polygon points="659.66,257.88 659.66,208.88 670.94,212.99 670.94,261.99" fill="#1d6032"/>
<polygon points="670.94,261.99 670.94,212.99 682.22,208.88 682.22,257.88" fill="#18512a"/>
<polygon points="657.78,220.57 669.06,224.67 657.78,228.78 646.51,224.67" fill="#30a14e"/>
<polygon points="646.51,262.67 646.51,224.67 657.78,228.78 657.78,266.78" fill="#2a8d44"/>
<polygon points="657.78,266.78 657.78,228.78 669.06,224.67 669.06,262.67" fill="#237739"/>
<polygon points="644.63,263.36 655.91,267.46 644.63,271.56 633.35,267.46" fill="#C2C3C6"/>
<polygon points="631.47,268.14 642.75,272.25 631.47,276.35 620.20,272.25" fill="#C2C3C6"/>
<polygon points="618.32,272.93 629.59,277.04 618.32,281.14 607.04,277.04" fill="#C2C3C6"/>
<polygon points="605.16,277.72 616.44,281.82 605.16,285.93 593.89,281.82" fill="#C2C3C6"/>
<text x="364.25" y="-164.00" font-family='-apple-system, BlinkMacSystemFont, "Segoe UI", Helvetica, Arial, sans-serif' font-size="15" font-weight="700" fill="#1f2328">Contributions/Submissions</text>
<rect x="364.25" y="-146.00" width="340.00" height="92.00" rx="10" fill="#ffffff" stroke="#d0d7de" stroke-width="0.8" fill-opacity="0.96"/>
<text x="386.25" y="-112.00" font-family='-apple-system, BlinkMacSystemFont, "Segoe UI", Helvetica, Arial, sans-serif' font-size="26" font-weight="700" fill="#216e39">992</text>
<text x="386.25" y="-90.00" font-family='-apple-system, BlinkMacSystemFont, "Segoe UI", Helvetica, Arial, sans-serif' font-size="12" font-weight="600" fill="#1f2328">This year</text>
<text x="386.25" y="-72.00" font-family='-apple-system, BlinkMacSystemFont, "Segoe UI", Helvetica, Arial, sans-serif' font-size="10.5" fill="#59636e">Jul 13 → Jul 18</text>
<text x="499.59" y="-112.00" font-family='-apple-system, BlinkMacSystemFont, "Segoe UI", Helvetica, Arial, sans-serif' font-size="26" font-weight="700" fill="#216e39">13</text>
<text x="499.59" y="-90.00" font-family='-apple-system, BlinkMacSystemFont, "Segoe UI", Helvetica, Arial, sans-serif' font-size="12" font-weight="600" fill="#1f2328">This week</text>
<text x="499.59" y="-72.00" font-family='-apple-system, BlinkMacSystemFont, "Segoe UI", Helvetica, Arial, sans-serif' font-size="10.5" fill="#59636e">Jul 12 → Jul 18</text>
<text x="612.92" y="-112.00" font-family='-apple-system, BlinkMacSystemFont, "Segoe UI", Helvetica, Arial, sans-serif' font-size="26" font-weight="700" fill="#216e39">18</text>
<text x="612.92" y="-90.00" font-family='-apple-system, BlinkMacSystemFont, "Segoe UI", Helvetica, Arial, sans-serif' font-size="12" font-weight="600" fill="#1f2328">Best day</text>
<text x="612.92" y="-72.00" font-family='-apple-system, BlinkMacSystemFont, "Segoe UI", Helvetica, Arial, sans-serif' font-size="10.5" fill="#59636e">Jan 18</text>
<text x="704.25" y="-34.00" text-anchor="end" font-family='-apple-system, BlinkMacSystemFont, "Segoe UI", Helvetica, Arial, sans-serif' font-size="12" fill="#59636e">Average: <tspan font-weight="700" fill="#216e39">2.7</tspan> / day</text>
<text x="-85.09" y="316.30" font-family='-apple-system, BlinkMacSystemFont, "Segoe UI", Helvetica, Arial, sans-serif' font-size="15" font-weight="700" fill="#1f2328">Streaks</text>
<rect x="-85.09" y="328.30" width="320.00" height="92.00" rx="10" fill="#ffffff" stroke="#d0d7de" stroke-width="0.8" fill-opacity="0.96"/>
<text x="-63.09" y="362.30" font-family='-apple-system, BlinkMacSystemFont, "Segoe UI", Helvetica, Arial, sans-serif' font-size="26" font-weight="700" fill="#216e39">93<tspan font-size="12" font-weight="600" fill="#1f2328"> days</tspan></text>
<text x="-63.09" y="384.30" font-family='-apple-system, BlinkMacSystemFont, "Segoe UI", Helvetica, Arial, sans-serif' font-size="12" font-weight="600" fill="#1f2328">Longest</text>
<text x="-63.09" y="402.30" font-family='-apple-system, BlinkMacSystemFont, "Segoe UI", Helvetica, Arial, sans-serif' font-size="10.5" fill="#59636e">Apr 13 → Jul 14</text>
<text x="96.91" y="362.30" font-family='-apple-system, BlinkMacSystemFont, "Segoe UI", Helvetica, Arial, sans-serif' font-size="26" font-weight="700" fill="#216e39">0<tspan font-size="12" font-weight="600" fill="#1f2328"> days</tspan></text>
<text x="96.91" y="384.30" font-family='-apple-system, BlinkMacSystemFont, "Segoe UI", Helvetica, Arial, sans-serif' font-size="12" font-weight="600" fill="#1f2328">Current</text>
<text x="96.91" y="402.30" font-family='-apple-system, BlinkMacSystemFont, "Segoe UI", Helvetica, Arial, sans-serif' font-size="10.5" fill="#59636e">No current streak</text>
<text x="716.25" y="432.30" text-anchor="end" font-family='-apple-system, BlinkMacSystemFont, "Segoe UI", Helvetica, Arial, sans-serif' font-size="9" fill="#59636e" opacity="0.6">Light theme</text>
</svg>